<?xml version="1.0" encoding="utf-8"?>
<svg xmlns="http://www.w3.org/2000/svg" xmlns:xlink="http://www.w3.org/1999/xlink" width="600" height="400" viewBox="0 0 2400 1600">
<defs>
  <clipPath id="clip890">
    <rect x="0" y="0" width="2400" height="1600"/>
  </clipPath>
</defs>
<path clip-path="url(#clip890)" d="
M0 1600 L2400 1600 L2400 0 L0 0  Z
  " fill="#ffffff" fill-rule="evenodd" fill-opacity="1"/>
<defs>
  <clipPath id="clip891">
    <rect x="480" y="0" width="1681" height="1600"/>
  </clipPath>
</defs>
<path clip-path="url(#clip890)" d="
M249.542 1423.18 L2352.76 1423.18 L2352.76 123.472 L249.542 123.472  Z
  " fill="#ffffff" fill-rule="evenodd" fill-opacity="1"/>
<defs>
  <clipPath id="clip892">
    <rect x="249" y="123" width="2104" height="1301"/>
  </clipPath>
</defs>
<polyline clip-path="url(#clip892)" style="stroke:#000000; stroke-linecap:butt; stroke-linejoin:round; stroke-width:2; stroke-opacity:0.1; fill:none" points="
  340.799,1423.18 340.799,123.472 
  "/>
<polyline clip-path="url(#clip892)" style="stroke:#000000; stroke-linecap:butt; stroke-linejoin:round; stroke-width:2; stroke-opacity:0.1; fill:none" points="
  650.132,1423.18 650.132,123.472 
  "/>
<polyline clip-path="url(#clip892)" style="stroke:#000000; stroke-linecap:butt; stroke-linejoin:round; stroke-width:2; stroke-opacity:0.1; fill:none" points="
  959.465,1423.18 959.465,123.472 
  "/>
<polyline clip-path="url(#clip892)" style="stroke:#000000; stroke-linecap:butt; stroke-linejoin:round; stroke-width:2; stroke-opacity:0.1; fill:none" points="
  1268.8,1423.18 1268.8,123.472 
  "/>
<polyline clip-path="url(#clip892)" style="stroke:#000000; stroke-linecap:butt; stroke-linejoin:round; stroke-width:2; stroke-opacity:0.1; fill:none" points="
  1578.13,1423.18 1578.13,123.472 
  "/>
<polyline clip-path="url(#clip892)" style="stroke:#000000; stroke-linecap:butt; stroke-linejoin:round; stroke-width:2; stroke-opacity:0.1; fill:none" points="
  1887.47,1423.18 1887.47,123.472 
  "/>
<polyline clip-path="url(#clip892)" style="stroke:#000000; stroke-linecap:butt; stroke-linejoin:round; stroke-width:2; stroke-opacity:0.1; fill:none" points="
  2196.8,1423.18 2196.8,123.472 
  "/>
<polyline clip-path="url(#clip890)" style="stroke:#000000; stroke-linecap:butt; stroke-linejoin:round; stroke-width:4; stroke-opacity:1; fill:none" points="
  249.542,1423.18 2352.76,1423.18 
  "/>
<polyline clip-path="url(#clip890)" style="stroke:#000000; stroke-linecap:butt; stroke-linejoin:round; stroke-width:4; stroke-opacity:1; fill:none" points="
  340.799,1423.18 340.799,1404.28 
  "/>
<polyline clip-path="url(#clip890)" style="stroke:#000000; stroke-linecap:butt; stroke-linejoin:round; stroke-width:4; stroke-opacity:1; fill:none" points="
  650.132,1423.18 650.132,1404.28 
  "/>
<polyline clip-path="url(#clip890)" style="stroke:#000000; stroke-linecap:butt; stroke-linejoin:round; stroke-width:4; stroke-opacity:1; fill:none" points="
  959.465,1423.18 959.465,1404.28 
  "/>
<polyline clip-path="url(#clip890)" style="stroke:#000000; stroke-linecap:butt; stroke-linejoin:round; stroke-width:4; stroke-opacity:1; fill:none" points="
  1268.8,1423.18 1268.8,1404.28 
  "/>
<polyline clip-path="url(#clip890)" style="stroke:#000000; stroke-linecap:butt; stroke-linejoin:round; stroke-width:4; stroke-opacity:1; fill:none" points="
  1578.13,1423.18 1578.13,1404.28 
  "/>
<polyline clip-path="url(#clip890)" style="stroke:#000000; stroke-linecap:butt; stroke-linejoin:round; stroke-width:4; stroke-opacity:1; fill:none" points="
  1887.47,1423.18 1887.47,1404.28 
  "/>
<polyline clip-path="url(#clip890)" style="stroke:#000000; stroke-linecap:butt; stroke-linejoin:round; stroke-width:4; stroke-opacity:1; fill:none" points="
  2196.8,1423.18 2196.8,1404.28 
  "/>
<path clip-path="url(#clip890)" d="M287.825 1468.75 L317.5 1468.75 L317.5 1472.69 L287.825 1472.69 L287.825 1468.75 Z" fill="#000000" fill-rule="evenodd" fill-opacity="1" /><path clip-path="url(#clip890)" d="M328.403 1481.64 L336.042 1481.64 L336.042 1455.28 L327.732 1456.95 L327.732 1452.69 L335.996 1451.02 L340.672 1451.02 L340.672 1481.64 L348.31 1481.64 L348.31 1485.58 L328.403 1485.58 L328.403 1481.64 Z" fill="#000000" fill-rule="evenodd" fill-opacity="1" /><path clip-path="url(#clip890)" d="M357.755 1479.7 L362.639 1479.7 L362.639 1485.58 L357.755 1485.58 L357.755 1479.7 Z" fill="#000000" fill-rule="evenodd" fill-opacity="1" /><path clip-path="url(#clip890)" d="M372.871 1451.02 L391.227 1451.02 L391.227 1454.96 L377.153 1454.96 L377.153 1463.43 Q378.171 1463.08 379.19 1462.92 Q380.208 1462.73 381.227 1462.73 Q387.014 1462.73 390.394 1465.9 Q393.773 1469.08 393.773 1474.49 Q393.773 1480.07 390.301 1483.17 Q386.829 1486.25 380.509 1486.25 Q378.333 1486.25 376.065 1485.88 Q373.82 1485.51 371.412 1484.77 L371.412 1480.07 Q373.496 1481.2 375.718 1481.76 Q377.94 1482.32 380.417 1482.32 Q384.421 1482.32 386.759 1480.21 Q389.097 1478.1 389.097 1474.49 Q389.097 1470.88 386.759 1468.77 Q384.421 1466.67 380.417 1466.67 Q378.542 1466.67 376.667 1467.08 Q374.815 1467.5 372.871 1468.38 L372.871 1451.02 Z" fill="#000000" fill-rule="evenodd" fill-opacity="1" /><path clip-path="url(#clip890)" d="M596.66 1468.75 L626.336 1468.75 L626.336 1472.69 L596.66 1472.69 L596.66 1468.75 Z" fill="#000000" fill-rule="evenodd" fill-opacity="1" /><path clip-path="url(#clip890)" d="M637.239 1481.64 L644.878 1481.64 L644.878 1455.28 L636.567 1456.95 L636.567 1452.69 L644.831 1451.02 L649.507 1451.02 L649.507 1481.64 L657.146 1481.64 L657.146 1485.58 L637.239 1485.58 L637.239 1481.64 Z" fill="#000000" fill-rule="evenodd" fill-opacity="1" /><path clip-path="url(#clip890)" d="M666.59 1479.7 L671.475 1479.7 L671.475 1485.58 L666.59 1485.58 L666.59 1479.7 Z" fill="#000000" fill-rule="evenodd" fill-opacity="1" /><path clip-path="url(#clip890)" d="M691.66 1454.1 Q688.049 1454.1 686.22 1457.66 Q684.414 1461.2 684.414 1468.33 Q684.414 1475.44 686.22 1479.01 Q688.049 1482.55 691.66 1482.55 Q695.294 1482.55 697.1 1479.01 Q698.928 1475.44 698.928 1468.33 Q698.928 1461.2 697.1 1457.66 Q695.294 1454.1 691.66 1454.1 M691.66 1450.39 Q697.47 1450.39 700.525 1455 Q703.604 1459.58 703.604 1468.33 Q703.604 1477.06 700.525 1481.67 Q697.47 1486.25 691.66 1486.25 Q685.85 1486.25 682.771 1481.67 Q679.715 1477.06 679.715 1468.33 Q679.715 1459.58 682.771 1455 Q685.85 1450.39 691.66 1450.39 Z" fill="#000000" fill-rule="evenodd" fill-opacity="1" /><path clip-path="url(#clip890)" d="M906.491 1468.75 L936.167 1468.75 L936.167 1472.69 L906.491 1472.69 L906.491 1468.75 Z" fill="#000000" fill-rule="evenodd" fill-opacity="1" /><path clip-path="url(#clip890)" d="M956.259 1454.1 Q952.648 1454.1 950.82 1457.66 Q949.014 1461.2 949.014 1468.33 Q949.014 1475.44 950.82 1479.01 Q952.648 1482.55 956.259 1482.55 Q959.894 1482.55 961.699 1479.01 Q963.528 1475.44 963.528 1468.33 Q963.528 1461.2 961.699 1457.66 Q959.894 1454.1 956.259 1454.1 M956.259 1450.39 Q962.07 1450.39 965.125 1455 Q968.204 1459.58 968.204 1468.33 Q968.204 1477.06 965.125 1481.67 Q962.07 1486.25 956.259 1486.25 Q950.449 1486.25 947.371 1481.67 Q944.315 1477.06 944.315 1468.33 Q944.315 1459.58 947.371 1455 Q950.449 1450.39 956.259 1450.39 Z" fill="#000000" fill-rule="evenodd" fill-opacity="1" /><path clip-path="url(#clip890)" d="M976.421 1479.7 L981.306 1479.7 L981.306 1485.58 L976.421 1485.58 L976.421 1479.7 Z" fill="#000000" fill-rule="evenodd" fill-opacity="1" /><path clip-path="url(#clip890)" d="M991.537 1451.02 L1009.89 1451.02 L1009.89 1454.96 L995.819 1454.96 L995.819 1463.43 Q996.838 1463.08 997.856 1462.92 Q998.875 1462.73 999.893 1462.73 Q1005.68 1462.73 1009.06 1465.9 Q1012.44 1469.08 1012.44 1474.49 Q1012.44 1480.07 1008.97 1483.17 Q1005.5 1486.25 999.176 1486.25 Q997 1486.25 994.731 1485.88 Q992.486 1485.51 990.079 1484.77 L990.079 1480.07 Q992.162 1481.2 994.384 1481.76 Q996.606 1482.32 999.083 1482.32 Q1003.09 1482.32 1005.43 1480.21 Q1007.76 1478.1 1007.76 1474.49 Q1007.76 1470.88 1005.43 1468.77 Q1003.09 1466.67 999.083 1466.67 Q997.208 1466.67 995.333 1467.08 Q993.481 1467.5 991.537 1468.38 L991.537 1451.02 Z" fill="#000000" fill-rule="evenodd" fill-opacity="1" /><path clip-path="url(#clip890)" d="M1246.18 1454.1 Q1242.57 1454.1 1240.74 1457.66 Q1238.94 1461.2 1238.94 1468.33 Q1238.94 1475.44 1240.74 1479.01 Q1242.57 1482.55 1246.18 1482.55 Q1249.82 1482.55 1251.62 1479.01 Q1253.45 1475.44 1253.45 1468.33 Q1253.45 1461.2 1251.62 1457.66 Q1249.82 1454.1 1246.18 1454.1 M1246.18 1450.39 Q1251.99 1450.39 1255.05 1455 Q1258.13 1459.58 1258.13 1468.33 Q1258.13 1477.06 1255.05 1481.67 Q1251.99 1486.25 1246.18 1486.25 Q1240.37 1486.25 1237.29 1481.67 Q1234.24 1477.06 1234.24 1468.33 Q1234.24 1459.58 1237.29 1455 Q1240.37 1450.39 1246.18 1450.39 Z" fill="#000000" fill-rule="evenodd" fill-opacity="1" /><path clip-path="url(#clip890)" d="M1266.34 1479.7 L1271.23 1479.7 L1271.23 1485.58 L1266.34 1485.58 L1266.34 1479.7 Z" fill="#000000" fill-rule="evenodd" fill-opacity="1" /><path clip-path="url(#clip890)" d="M1291.41 1454.1 Q1287.8 1454.1 1285.97 1457.66 Q1284.17 1461.2 1284.17 1468.33 Q1284.17 1475.44 1285.97 1479.01 Q1287.8 1482.55 1291.41 1482.55 Q1295.05 1482.55 1296.85 1479.01 Q1298.68 1475.44 1298.68 1468.33 Q1298.68 1461.2 1296.85 1457.66 Q1295.05 1454.1 1291.41 1454.1 M1291.41 1450.39 Q1297.22 1450.39 1300.28 1455 Q1303.36 1459.58 1303.36 1468.33 Q1303.36 1477.06 1300.28 1481.67 Q1297.22 1486.25 1291.41 1486.25 Q1285.6 1486.25 1282.53 1481.67 Q1279.47 1477.06 1279.47 1468.33 Q1279.47 1459.58 1282.53 1455 Q1285.6 1450.39 1291.41 1450.39 Z" fill="#000000" fill-rule="evenodd" fill-opacity="1" /><path clip-path="url(#clip890)" d="M1556.01 1454.1 Q1552.4 1454.1 1550.57 1457.66 Q1548.77 1461.2 1548.77 1468.33 Q1548.77 1475.44 1550.57 1479.01 Q1552.4 1482.55 1556.01 1482.55 Q1559.65 1482.55 1561.45 1479.01 Q1563.28 1475.44 1563.28 1468.33 Q1563.28 1461.2 1561.45 1457.66 Q1559.65 1454.1 1556.01 1454.1 M1556.01 1450.39 Q1561.82 1450.39 1564.88 1455 Q1567.96 1459.58 1567.96 1468.33 Q1567.96 1477.06 1564.88 1481.67 Q1561.82 1486.25 1556.01 1486.25 Q1550.2 1486.25 1547.13 1481.67 Q1544.07 1477.06 1544.07 1468.33 Q1544.07 1459.58 1547.13 1455 Q1550.2 1450.39 1556.01 1450.39 Z" fill="#000000" fill-rule="evenodd" fill-opacity="1" /><path clip-path="url(#clip890)" d="M1576.18 1479.7 L1581.06 1479.7 L1581.06 1485.58 L1576.18 1485.58 L1576.18 1479.7 Z" fill="#000000" fill-rule="evenodd" fill-opacity="1" /><path clip-path="url(#clip890)" d="M1591.29 1451.02 L1609.65 1451.02 L1609.65 1454.96 L1595.57 1454.96 L1595.57 1463.43 Q1596.59 1463.08 1597.61 1462.92 Q1598.63 1462.73 1599.65 1462.73 Q1605.44 1462.73 1608.81 1465.9 Q1612.19 1469.08 1612.19 1474.49 Q1612.19 1480.07 1608.72 1483.17 Q1605.25 1486.25 1598.93 1486.25 Q1596.75 1486.25 1594.49 1485.88 Q1592.24 1485.51 1589.83 1484.77 L1589.83 1480.07 Q1591.92 1481.2 1594.14 1481.76 Q1596.36 1482.32 1598.84 1482.32 Q1602.84 1482.32 1605.18 1480.21 Q1607.52 1478.1 1607.52 1474.49 Q1607.52 1470.88 1605.18 1468.77 Q1602.84 1466.67 1598.84 1466.67 Q1596.96 1466.67 1595.09 1467.08 Q1593.24 1467.5 1591.29 1468.38 L1591.29 1451.02 Z" fill="#000000" fill-rule="evenodd" fill-opacity="1" /><path clip-path="url(#clip890)" d="M1854.62 1481.64 L1862.26 1481.64 L1862.26 1455.28 L1853.95 1456.95 L1853.95 1452.69 L1862.21 1451.02 L1866.89 1451.02 L1866.89 1481.64 L1874.53 1481.64 L1874.53 1485.58 L1854.62 1485.58 L1854.62 1481.64 Z" fill="#000000" fill-rule="evenodd" fill-opacity="1" /><path clip-path="url(#clip890)" d="M1883.97 1479.7 L1888.85 1479.7 L1888.85 1485.58 L1883.97 1485.58 L1883.97 1479.7 Z" fill="#000000" fill-rule="evenodd" fill-opacity="1" /><path clip-path="url(#clip890)" d="M1909.04 1454.1 Q1905.43 1454.1 1903.6 1457.66 Q1901.79 1461.2 1901.79 1468.33 Q1901.79 1475.44 1903.6 1479.01 Q1905.43 1482.55 1909.04 1482.55 Q1912.67 1482.55 1914.48 1479.01 Q1916.31 1475.44 1916.31 1468.33 Q1916.31 1461.2 1914.48 1457.66 Q1912.67 1454.1 1909.04 1454.1 M1909.04 1450.39 Q1914.85 1450.39 1917.9 1455 Q1920.98 1459.58 1920.98 1468.33 Q1920.98 1477.06 1917.9 1481.67 Q1914.85 1486.25 1909.04 1486.25 Q1903.23 1486.25 1900.15 1481.67 Q1897.09 1477.06 1897.09 1468.33 Q1897.09 1459.58 1900.15 1455 Q1903.23 1450.39 1909.04 1450.39 Z" fill="#000000" fill-rule="evenodd" fill-opacity="1" /><path clip-path="url(#clip890)" d="M2164.45 1481.64 L2172.09 1481.64 L2172.09 1455.28 L2163.78 1456.95 L2163.78 1452.69 L2172.04 1451.02 L2176.72 1451.02 L2176.72 1481.64 L2184.36 1481.64 L2184.36 1485.58 L2164.45 1485.58 L2164.45 1481.64 Z" fill="#000000" fill-rule="evenodd" fill-opacity="1" /><path clip-path="url(#clip890)" d="M2193.8 1479.7 L2198.68 1479.7 L2198.68 1485.58 L2193.8 1485.58 L2193.8 1479.7 Z" fill="#000000" fill-rule="evenodd" fill-opacity="1" /><path clip-path="url(#clip890)" d="M2208.92 1451.02 L2227.27 1451.02 L2227.27 1454.96 L2213.2 1454.96 L2213.2 1463.43 Q2214.22 1463.08 2215.24 1462.92 Q2216.25 1462.73 2217.27 1462.73 Q2223.06 1462.73 2226.44 1465.9 Q2229.82 1469.08 2229.82 1474.49 Q2229.82 1480.07 2226.35 1483.17 Q2222.87 1486.25 2216.56 1486.25 Q2214.38 1486.25 2212.11 1485.88 Q2209.87 1485.51 2207.46 1484.77 L2207.46 1480.07 Q2209.54 1481.2 2211.76 1481.76 Q2213.99 1482.32 2216.46 1482.32 Q2220.47 1482.32 2222.81 1480.21 Q2225.14 1478.1 2225.14 1474.49 Q2225.14 1470.88 2222.81 1468.77 Q2220.47 1466.67 2216.46 1466.67 Q2214.59 1466.67 2212.71 1467.08 Q2210.86 1467.5 2208.92 1468.38 L2208.92 1451.02 Z" fill="#000000" fill-rule="evenodd" fill-opacity="1" /><path clip-path="url(#clip890)" d="M957.56 1524.18 L957.56 1530.96 Q954.313 1527.94 950.621 1526.44 Q946.961 1524.95 942.823 1524.95 Q934.675 1524.95 930.347 1529.95 Q926.018 1534.91 926.018 1544.33 Q926.018 1553.72 930.347 1558.72 Q934.675 1563.68 942.823 1563.68 Q946.961 1563.68 950.621 1562.19 Q954.313 1560.69 957.56 1557.67 L957.56 1564.38 Q954.186 1566.68 950.399 1567.82 Q946.643 1568.97 942.441 1568.97 Q931.652 1568.97 925.445 1562.38 Q919.238 1555.76 919.238 1544.33 Q919.238 1532.87 925.445 1526.28 Q931.652 1519.66 942.441 1519.66 Q946.706 1519.66 950.462 1520.81 Q954.25 1521.92 957.56 1524.18 Z" fill="#000000" fill-rule="evenodd" fill-opacity="1" /><path clip-path="url(#clip890)" d="M996.868 1546.53 L996.868 1568.04 L991.012 1568.04 L991.012 1546.72 Q991.012 1541.66 989.038 1539.14 Q987.065 1536.63 983.118 1536.63 Q978.376 1536.63 975.639 1539.65 Q972.901 1542.68 972.901 1547.9 L972.901 1568.04 L967.013 1568.04 L967.013 1518.52 L972.901 1518.52 L972.901 1537.93 Q975.002 1534.72 977.835 1533.13 Q980.699 1531.54 984.423 1531.54 Q990.566 1531.54 993.717 1535.36 Q996.868 1539.14 996.868 1546.53 Z" fill="#000000" fill-rule="evenodd" fill-opacity="1" /><path clip-path="url(#clip890)" d="M1024.75 1550.12 Q1017.65 1550.12 1014.91 1551.75 Q1012.18 1553.37 1012.18 1557.29 Q1012.18 1560.4 1014.21 1562.25 Q1016.28 1564.07 1019.82 1564.07 Q1024.69 1564.07 1027.61 1560.63 Q1030.57 1557.16 1030.57 1551.43 L1030.57 1550.12 L1024.75 1550.12 M1036.43 1547.71 L1036.43 1568.04 L1030.57 1568.04 L1030.57 1562.63 Q1028.57 1565.88 1025.58 1567.44 Q1022.59 1568.97 1018.26 1568.97 Q1012.78 1568.97 1009.54 1565.91 Q1006.32 1562.82 1006.32 1557.67 Q1006.32 1551.65 1010.33 1548.6 Q1014.37 1545.54 1022.36 1545.54 L1030.57 1545.54 L1030.57 1544.97 Q1030.57 1540.93 1027.9 1538.73 Q1025.26 1536.5 1020.45 1536.5 Q1017.4 1536.5 1014.5 1537.23 Q1011.6 1537.97 1008.93 1539.43 L1008.93 1534.02 Q1012.15 1532.78 1015.17 1532.17 Q1018.19 1531.54 1021.06 1531.54 Q1028.79 1531.54 1032.61 1535.55 Q1036.43 1539.56 1036.43 1547.71 Z" fill="#000000" fill-rule="evenodd" fill-opacity="1" /><path clip-path="url(#clip890)" d="M1078.13 1546.53 L1078.13 1568.04 L1072.27 1568.04 L1072.27 1546.72 Q1072.27 1541.66 1070.3 1539.14 Q1068.32 1536.63 1064.38 1536.63 Q1059.63 1536.63 1056.9 1539.65 Q1054.16 1542.68 1054.16 1547.9 L1054.16 1568.04 L1048.27 1568.04 L1048.27 1532.4 L1054.16 1532.4 L1054.16 1537.93 Q1056.26 1534.72 1059.09 1533.13 Q1061.96 1531.54 1065.68 1531.54 Q1071.82 1531.54 1074.98 1535.36 Q1078.13 1539.14 1078.13 1546.53 Z" fill="#000000" fill-rule="evenodd" fill-opacity="1" /><path clip-path="url(#clip890)" d="M1113.27 1549.81 Q1113.27 1543.44 1110.62 1539.94 Q1108.01 1536.44 1103.27 1536.44 Q1098.56 1536.44 1095.92 1539.94 Q1093.31 1543.44 1093.31 1549.81 Q1093.31 1556.14 1095.92 1559.64 Q1098.56 1563.14 1103.27 1563.14 Q1108.01 1563.14 1110.62 1559.64 Q1113.27 1556.14 1113.27 1549.81 M1119.12 1563.62 Q1119.12 1572.72 1115.08 1577.15 Q1111.04 1581.6 1102.7 1581.6 Q1099.61 1581.6 1096.87 1581.13 Q1094.14 1580.68 1091.56 1579.72 L1091.56 1574.03 Q1094.14 1575.43 1096.65 1576.1 Q1099.17 1576.76 1101.78 1576.76 Q1107.54 1576.76 1110.4 1573.74 Q1113.27 1570.75 1113.27 1564.67 L1113.27 1561.77 Q1111.45 1564.92 1108.62 1566.48 Q1105.79 1568.04 1101.84 1568.04 Q1095.28 1568.04 1091.27 1563.05 Q1087.26 1558.05 1087.26 1549.81 Q1087.26 1541.53 1091.27 1536.53 Q1095.28 1531.54 1101.84 1531.54 Q1105.79 1531.54 1108.62 1533.1 Q1111.45 1534.66 1113.27 1537.81 L1113.27 1532.4 L1119.12 1532.4 L1119.12 1563.62 Z" fill="#000000" fill-rule="evenodd" fill-opacity="1" /><path clip-path="url(#clip890)" d="M1161.68 1548.76 L1161.68 1551.62 L1134.75 1551.62 Q1135.13 1557.67 1138.38 1560.85 Q1141.66 1564 1147.48 1564 Q1150.85 1564 1154.01 1563.17 Q1157.19 1562.35 1160.31 1560.69 L1160.31 1566.23 Q1157.16 1567.57 1153.85 1568.27 Q1150.54 1568.97 1147.13 1568.97 Q1138.6 1568.97 1133.6 1564 Q1128.64 1559.04 1128.64 1550.57 Q1128.64 1541.82 1133.35 1536.69 Q1138.09 1531.54 1146.11 1531.54 Q1153.31 1531.54 1157.47 1536.18 Q1161.68 1540.8 1161.68 1548.76 M1155.82 1547.04 Q1155.76 1542.23 1153.11 1539.37 Q1150.5 1536.5 1146.18 1536.5 Q1141.27 1536.5 1138.31 1539.27 Q1135.39 1542.04 1134.94 1547.07 L1155.82 1547.04 Z" fill="#000000" fill-rule="evenodd" fill-opacity="1" /><path clip-path="url(#clip890)" d="M1197.67 1562.7 L1197.67 1581.6 L1191.79 1581.6 L1191.79 1532.4 L1197.67 1532.4 L1197.67 1537.81 Q1199.52 1534.62 1202.32 1533.1 Q1205.15 1531.54 1209.07 1531.54 Q1215.56 1531.54 1219.6 1536.69 Q1223.68 1541.85 1223.68 1550.25 Q1223.68 1558.65 1219.6 1563.81 Q1215.56 1568.97 1209.07 1568.97 Q1205.15 1568.97 1202.32 1567.44 Q1199.52 1565.88 1197.67 1562.7 M1217.6 1550.25 Q1217.6 1543.79 1214.93 1540.13 Q1212.28 1536.44 1207.64 1536.44 Q1202.99 1536.44 1200.32 1540.13 Q1197.67 1543.79 1197.67 1550.25 Q1197.67 1556.71 1200.32 1560.4 Q1202.99 1564.07 1207.64 1564.07 Q1212.28 1564.07 1214.93 1560.4 Q1217.6 1556.71 1217.6 1550.25 Z" fill="#000000" fill-rule="evenodd" fill-opacity="1" /><path clip-path="url(#clip890)" d="M1263.88 1548.76 L1263.88 1551.62 L1236.95 1551.62 Q1237.33 1557.67 1240.58 1560.85 Q1243.86 1564 1249.68 1564 Q1253.06 1564 1256.21 1563.17 Q1259.39 1562.35 1262.51 1560.69 L1262.51 1566.23 Q1259.36 1567.57 1256.05 1568.27 Q1252.74 1568.97 1249.33 1568.97 Q1240.8 1568.97 1235.8 1564 Q1230.84 1559.04 1230.84 1550.57 Q1230.84 1541.82 1235.55 1536.69 Q1240.29 1531.54 1248.31 1531.54 Q1255.51 1531.54 1259.68 1536.18 Q1263.88 1540.8 1263.88 1548.76 M1258.02 1547.04 Q1257.96 1542.23 1255.32 1539.37 Q1252.71 1536.5 1248.38 1536.5 Q1243.48 1536.5 1240.52 1539.27 Q1237.59 1542.04 1237.14 1547.07 L1258.02 1547.04 Z" fill="#000000" fill-rule="evenodd" fill-opacity="1" /><path clip-path="url(#clip890)" d="M1294.15 1537.87 Q1293.16 1537.3 1291.98 1537.04 Q1290.84 1536.76 1289.44 1536.76 Q1284.47 1536.76 1281.8 1540 Q1279.16 1543.22 1279.16 1549.27 L1279.16 1568.04 L1273.27 1568.04 L1273.27 1532.4 L1279.16 1532.4 L1279.16 1537.93 Q1281 1534.69 1283.96 1533.13 Q1286.92 1531.54 1291.15 1531.54 Q1291.76 1531.54 1292.49 1531.63 Q1293.22 1531.7 1294.11 1531.85 L1294.15 1537.87 Z" fill="#000000" fill-rule="evenodd" fill-opacity="1" /><path clip-path="url(#clip890)" d="M1344.47 1537.81 L1344.47 1518.52 L1350.32 1518.52 L1350.32 1568.04 L1344.47 1568.04 L1344.47 1562.7 Q1342.62 1565.88 1339.79 1567.44 Q1336.99 1568.97 1333.04 1568.97 Q1326.58 1568.97 1322.51 1563.81 Q1318.46 1558.65 1318.46 1550.25 Q1318.46 1541.85 1322.51 1536.69 Q1326.58 1531.54 1333.04 1531.54 Q1336.99 1531.54 1339.79 1533.1 Q1342.62 1534.62 1344.47 1537.81 M1324.51 1550.25 Q1324.51 1556.71 1327.15 1560.4 Q1329.83 1564.07 1334.47 1564.07 Q1339.12 1564.07 1341.79 1560.4 Q1344.47 1556.71 1344.47 1550.25 Q1344.47 1543.79 1341.79 1540.13 Q1339.12 1536.44 1334.47 1536.44 Q1329.83 1536.44 1327.15 1540.13 Q1324.51 1543.79 1324.51 1550.25 Z" fill="#000000" fill-rule="evenodd" fill-opacity="1" /><path clip-path="url(#clip890)" d="M1378.59 1550.12 Q1371.49 1550.12 1368.75 1551.75 Q1366.02 1553.37 1366.02 1557.29 Q1366.02 1560.4 1368.05 1562.25 Q1370.12 1564.07 1373.65 1564.07 Q1378.52 1564.07 1381.45 1560.63 Q1384.41 1557.16 1384.41 1551.43 L1384.41 1550.12 L1378.59 1550.12 M1390.27 1547.71 L1390.27 1568.04 L1384.41 1568.04 L1384.41 1562.63 Q1382.41 1565.88 1379.42 1567.44 Q1376.42 1568.97 1372.09 1568.97 Q1366.62 1568.97 1363.37 1565.91 Q1360.16 1562.82 1360.16 1557.67 Q1360.16 1551.65 1364.17 1548.6 Q1368.21 1545.54 1376.2 1545.54 L1384.41 1545.54 L1384.41 1544.97 Q1384.41 1540.93 1381.74 1538.73 Q1379.1 1536.5 1374.29 1536.5 Q1371.24 1536.5 1368.34 1537.23 Q1365.44 1537.97 1362.77 1539.43 L1362.77 1534.02 Q1365.98 1532.78 1369.01 1532.17 Q1372.03 1531.54 1374.9 1531.54 Q1382.63 1531.54 1386.45 1535.55 Q1390.27 1539.56 1390.27 1547.71 Z" fill="#000000" fill-rule="evenodd" fill-opacity="1" /><path clip-path="url(#clip890)" d="M1417.16 1571.35 Q1414.68 1577.72 1412.33 1579.66 Q1409.97 1581.6 1406.02 1581.6 L1401.35 1581.6 L1401.35 1576.7 L1404.78 1576.7 Q1407.2 1576.7 1408.54 1575.56 Q1409.88 1574.41 1411.5 1570.14 L1412.55 1567.47 L1398.13 1532.4 L1404.34 1532.4 L1415.48 1560.28 L1426.62 1532.4 L1432.82 1532.4 L1417.16 1571.35 Z" fill="#000000" fill-rule="evenodd" fill-opacity="1" /><path clip-path="url(#clip890)" d="M1475.7 1518.58 Q1471.43 1525.9 1469.36 1533.06 Q1467.29 1540.23 1467.29 1547.58 Q1467.29 1554.93 1469.36 1562.16 Q1471.46 1569.35 1475.7 1576.64 L1470.6 1576.64 Q1465.83 1569.16 1463.44 1561.93 Q1461.09 1554.71 1461.09 1547.58 Q1461.09 1540.48 1463.44 1533.29 Q1465.8 1526.09 1470.6 1518.58 L1475.7 1518.58 Z" fill="#000000" fill-rule="evenodd" fill-opacity="1" /><path clip-path="url(#clip890)" d="M1487.06 1518.52 L1492.92 1518.52 L1492.92 1568.04 L1487.06 1568.04 L1487.06 1518.52 Z" fill="#000000" fill-rule="evenodd" fill-opacity="1" /><path clip-path="url(#clip890)" d="M1518.98 1536.5 Q1514.27 1536.5 1511.54 1540.19 Q1508.8 1543.85 1508.8 1550.25 Q1508.8 1556.65 1511.5 1560.34 Q1514.24 1564 1518.98 1564 Q1523.66 1564 1526.4 1560.31 Q1529.14 1556.62 1529.14 1550.25 Q1529.14 1543.92 1526.4 1540.23 Q1523.66 1536.5 1518.98 1536.5 M1518.98 1531.54 Q1526.62 1531.54 1530.98 1536.5 Q1535.34 1541.47 1535.34 1550.25 Q1535.34 1559 1530.98 1564 Q1526.62 1568.97 1518.98 1568.97 Q1511.31 1568.97 1506.95 1564 Q1502.62 1559 1502.62 1550.25 Q1502.62 1541.47 1506.95 1536.5 Q1511.31 1531.54 1518.98 1531.54 Z" fill="#000000" fill-rule="evenodd" fill-opacity="1" /><path clip-path="url(#clip890)" d="M1568.51 1549.81 Q1568.51 1543.44 1565.87 1539.94 Q1563.26 1536.44 1558.51 1536.44 Q1553.8 1536.44 1551.16 1539.94 Q1548.55 1543.44 1548.55 1549.81 Q1548.55 1556.14 1551.16 1559.64 Q1553.8 1563.14 1558.51 1563.14 Q1563.26 1563.14 1565.87 1559.64 Q1568.51 1556.14 1568.51 1549.81 M1574.37 1563.62 Q1574.37 1572.72 1570.32 1577.15 Q1566.28 1581.6 1557.94 1581.6 Q1554.85 1581.6 1552.12 1581.13 Q1549.38 1580.68 1546.8 1579.72 L1546.8 1574.03 Q1549.38 1575.43 1551.89 1576.1 Q1554.41 1576.76 1557.02 1576.76 Q1562.78 1576.76 1565.64 1573.74 Q1568.51 1570.75 1568.51 1564.67 L1568.51 1561.77 Q1566.69 1564.92 1563.86 1566.48 Q1561.03 1568.04 1557.08 1568.04 Q1550.53 1568.04 1546.52 1563.05 Q1542.5 1558.05 1542.5 1549.81 Q1542.5 1541.53 1546.52 1536.53 Q1550.53 1531.54 1557.08 1531.54 Q1561.03 1531.54 1563.86 1533.1 Q1566.69 1534.66 1568.51 1537.81 L1568.51 1532.4 L1574.37 1532.4 L1574.37 1563.62 Z" fill="#000000" fill-rule="evenodd" fill-opacity="1" /><path clip-path="url(#clip890)" d="M1588.37 1562.63 L1598.87 1562.63 L1598.87 1526.38 L1587.45 1528.67 L1587.45 1522.82 L1598.81 1520.52 L1605.24 1520.52 L1605.24 1562.63 L1615.74 1562.63 L1615.74 1568.04 L1588.37 1568.04 L1588.37 1562.63 Z" fill="#000000" fill-rule="evenodd" fill-opacity="1" /><path clip-path="url(#clip890)" d="M1642.48 1524.76 Q1637.51 1524.76 1635 1529.66 Q1632.52 1534.53 1632.52 1544.33 Q1632.52 1554.1 1635 1559 Q1637.51 1563.87 1642.48 1563.87 Q1647.48 1563.87 1649.96 1559 Q1652.47 1554.1 1652.47 1544.33 Q1652.47 1534.53 1649.96 1529.66 Q1647.48 1524.76 1642.48 1524.76 M1642.48 1519.66 Q1650.47 1519.66 1654.67 1526 Q1658.9 1532.3 1658.9 1544.33 Q1658.9 1556.33 1654.67 1562.66 Q1650.47 1568.97 1642.48 1568.97 Q1634.49 1568.97 1630.26 1562.66 Q1626.05 1556.33 1626.05 1544.33 Q1626.05 1532.3 1630.26 1526 Q1634.49 1519.66 1642.48 1519.66 Z" fill="#000000" fill-rule="evenodd" fill-opacity="1" /><path clip-path="url(#clip890)" d="M1668.45 1518.58 L1673.54 1518.58 Q1678.32 1526.09 1680.67 1533.29 Q1683.06 1540.48 1683.06 1547.58 Q1683.06 1554.71 1680.67 1561.93 Q1678.32 1569.16 1673.54 1576.64 L1668.45 1576.64 Q1672.68 1569.35 1674.75 1562.16 Q1676.85 1554.93 1676.85 1547.58 Q1676.85 1540.23 1674.75 1533.06 Q1672.68 1525.9 1668.45 1518.58 Z" fill="#000000" fill-rule="evenodd" fill-opacity="1" /><polyline clip-path="url(#clip892)" style="stroke:#000000; stroke-linecap:butt; stroke-linejoin:round; stroke-width:2; stroke-opacity:0.1; fill:none" points="
  249.542,1386.4 2352.76,1386.4 
  "/>
<polyline clip-path="url(#clip892)" style="stroke:#000000; stroke-linecap:butt; stroke-linejoin:round; stroke-width:2; stroke-opacity:0.1; fill:none" points="
  249.542,1164.46 2352.76,1164.46 
  "/>
<polyline clip-path="url(#clip892)" style="stroke:#000000; stroke-linecap:butt; stroke-linejoin:round; stroke-width:2; stroke-opacity:0.1; fill:none" points="
  249.542,942.522 2352.76,942.522 
  "/>
<polyline clip-path="url(#clip892)" style="stroke:#000000; stroke-linecap:butt; stroke-linejoin:round; stroke-width:2; stroke-opacity:0.1; fill:none" points="
  249.542,720.585 2352.76,720.585 
  "/>
<polyline clip-path="url(#clip892)" style="stroke:#000000; stroke-linecap:butt; stroke-linejoin:round; stroke-width:2; stroke-opacity:0.1; fill:none" points="
  249.542,498.649 2352.76,498.649 
  "/>
<polyline clip-path="url(#clip892)" style="stroke:#000000; stroke-linecap:butt; stroke-linejoin:round; stroke-width:2; stroke-opacity:0.1; fill:none" points="
  249.542,276.712 2352.76,276.712 
  "/>
<polyline clip-path="url(#clip890)" style="stroke:#000000; stroke-linecap:butt; stroke-linejoin:round; stroke-width:4; stroke-opacity:1; fill:none" points="
  249.542,1423.18 249.542,123.472 
  "/>
<polyline clip-path="url(#clip890)" style="stroke:#000000; stroke-linecap:butt; stroke-linejoin:round; stroke-width:4; stroke-opacity:1; fill:none" points="
  249.542,1386.4 268.44,1386.4 
  "/>
<polyline clip-path="url(#clip890)" style="stroke:#000000; stroke-linecap:butt; stroke-linejoin:round; stroke-width:4; stroke-opacity:1; fill:none" points="
  249.542,1164.46 268.44,1164.46 
  "/>
<polyline clip-path="url(#clip890)" style="stroke:#000000; stroke-linecap:butt; stroke-linejoin:round; stroke-width:4; stroke-opacity:1; fill:none" points="
  249.542,942.522 268.44,942.522 
  "/>
<polyline clip-path="url(#clip890)" style="stroke:#000000; stroke-linecap:butt; stroke-linejoin:round; stroke-width:4; stroke-opacity:1; fill:none" points="
  249.542,720.585 268.44,720.585 
  "/>
<polyline clip-path="url(#clip890)" style="stroke:#000000; stroke-linecap:butt; stroke-linejoin:round; stroke-width:4; stroke-opacity:1; fill:none" points="
  249.542,498.649 268.44,498.649 
  "/>
<polyline clip-path="url(#clip890)" style="stroke:#000000; stroke-linecap:butt; stroke-linejoin:round; stroke-width:4; stroke-opacity:1; fill:none" points="
  249.542,276.712 268.44,276.712 
  "/>
<path clip-path="url(#clip890)" d="M126.205 1372.19 Q122.593 1372.19 120.765 1375.76 Q118.959 1379.3 118.959 1386.43 Q118.959 1393.54 120.765 1397.1 Q122.593 1400.64 126.205 1400.64 Q129.839 1400.64 131.644 1397.1 Q133.473 1393.54 133.473 1386.43 Q133.473 1379.3 131.644 1375.76 Q129.839 1372.19 126.205 1372.19 M126.205 1368.49 Q132.015 1368.49 135.07 1373.1 Q138.149 1377.68 138.149 1386.43 Q138.149 1395.16 135.07 1399.76 Q132.015 1404.35 126.205 1404.35 Q120.394 1404.35 117.316 1399.76 Q114.26 1395.16 114.26 1386.43 Q114.26 1377.68 117.316 1373.1 Q120.394 1368.49 126.205 1368.49 Z" fill="#000000" fill-rule="evenodd" fill-opacity="1" /><path clip-path="url(#clip890)" d="M146.366 1397.8 L151.251 1397.8 L151.251 1403.68 L146.366 1403.68 L146.366 1397.8 Z" fill="#000000" fill-rule="evenodd" fill-opacity="1" /><path clip-path="url(#clip890)" d="M171.436 1372.19 Q167.825 1372.19 165.996 1375.76 Q164.19 1379.3 164.19 1386.43 Q164.19 1393.54 165.996 1397.1 Q167.825 1400.64 171.436 1400.64 Q175.07 1400.64 176.876 1397.1 Q178.704 1393.54 178.704 1386.43 Q178.704 1379.3 176.876 1375.76 Q175.07 1372.19 171.436 1372.19 M171.436 1368.49 Q177.246 1368.49 180.301 1373.1 Q183.38 1377.68 183.38 1386.43 Q183.38 1395.16 180.301 1399.76 Q177.246 1404.35 171.436 1404.35 Q165.626 1404.35 162.547 1399.76 Q159.491 1395.16 159.491 1386.43 Q159.491 1377.68 162.547 1373.1 Q165.626 1368.49 171.436 1368.49 Z" fill="#000000" fill-rule="evenodd" fill-opacity="1" /><path clip-path="url(#clip890)" d="M201.598 1372.19 Q197.987 1372.19 196.158 1375.76 Q194.352 1379.3 194.352 1386.43 Q194.352 1393.54 196.158 1397.1 Q197.987 1400.64 201.598 1400.64 Q205.232 1400.64 207.037 1397.1 Q208.866 1393.54 208.866 1386.43 Q208.866 1379.3 207.037 1375.76 Q205.232 1372.19 201.598 1372.19 M201.598 1368.49 Q207.408 1368.49 210.463 1373.1 Q213.542 1377.68 213.542 1386.43 Q213.542 1395.16 210.463 1399.76 Q207.408 1404.35 201.598 1404.35 Q195.787 1404.35 192.709 1399.76 Q189.653 1395.16 189.653 1386.43 Q189.653 1377.68 192.709 1373.1 Q195.787 1368.49 201.598 1368.49 Z" fill="#000000" fill-rule="evenodd" fill-opacity="1" /><path clip-path="url(#clip890)" d="M127.2 1150.26 Q123.589 1150.26 121.76 1153.82 Q119.955 1157.36 119.955 1164.49 Q119.955 1171.6 121.76 1175.16 Q123.589 1178.71 127.2 1178.71 Q130.834 1178.71 132.64 1175.16 Q134.468 1171.6 134.468 1164.49 Q134.468 1157.36 132.64 1153.82 Q130.834 1150.26 127.2 1150.26 M127.2 1146.55 Q133.01 1146.55 136.066 1151.16 Q139.144 1155.74 139.144 1164.49 Q139.144 1173.22 136.066 1177.83 Q133.01 1182.41 127.2 1182.41 Q121.39 1182.41 118.311 1177.83 Q115.256 1173.22 115.256 1164.49 Q115.256 1155.74 118.311 1151.16 Q121.39 1146.55 127.2 1146.55 Z" fill="#000000" fill-rule="evenodd" fill-opacity="1" /><path clip-path="url(#clip890)" d="M147.362 1175.86 L152.246 1175.86 L152.246 1181.74 L147.362 1181.74 L147.362 1175.86 Z" fill="#000000" fill-rule="evenodd" fill-opacity="1" /><path clip-path="url(#clip890)" d="M166.459 1177.8 L182.778 1177.8 L182.778 1181.74 L160.834 1181.74 L160.834 1177.8 Q163.496 1175.05 168.079 1170.42 Q172.686 1165.77 173.866 1164.42 Q176.112 1161.9 176.991 1160.16 Q177.894 1158.41 177.894 1156.72 Q177.894 1153.96 175.95 1152.23 Q174.028 1150.49 170.927 1150.49 Q168.727 1150.49 166.274 1151.25 Q163.843 1152.02 161.065 1153.57 L161.065 1148.85 Q163.89 1147.71 166.343 1147.13 Q168.797 1146.55 170.834 1146.55 Q176.204 1146.55 179.399 1149.24 Q182.593 1151.92 182.593 1156.41 Q182.593 1158.54 181.783 1160.47 Q180.996 1162.36 178.889 1164.96 Q178.311 1165.63 175.209 1168.85 Q172.107 1172.04 166.459 1177.8 Z" fill="#000000" fill-rule="evenodd" fill-opacity="1" /><path clip-path="url(#clip890)" d="M192.639 1147.18 L210.996 1147.18 L210.996 1151.11 L196.922 1151.11 L196.922 1159.59 Q197.94 1159.24 198.959 1159.08 Q199.977 1158.89 200.996 1158.89 Q206.783 1158.89 210.162 1162.06 Q213.542 1165.23 213.542 1170.65 Q213.542 1176.23 210.07 1179.33 Q206.598 1182.41 200.278 1182.41 Q198.102 1182.41 195.834 1182.04 Q193.588 1181.67 191.181 1180.93 L191.181 1176.23 Q193.264 1177.36 195.487 1177.92 Q197.709 1178.48 200.186 1178.48 Q204.19 1178.48 206.528 1176.37 Q208.866 1174.26 208.866 1170.65 Q208.866 1167.04 206.528 1164.93 Q204.19 1162.83 200.186 1162.83 Q198.311 1162.83 196.436 1163.24 Q194.584 1163.66 192.639 1164.54 L192.639 1147.18 Z" fill="#000000" fill-rule="evenodd" fill-opacity="1" /><path clip-path="url(#clip890)" d="M126.205 928.321 Q122.593 928.321 120.765 931.886 Q118.959 935.427 118.959 942.557 Q118.959 949.663 120.765 953.228 Q122.593 956.77 126.205 956.77 Q129.839 956.77 131.644 953.228 Q133.473 949.663 133.473 942.557 Q133.473 935.427 131.644 931.886 Q129.839 928.321 126.205 928.321 M126.205 924.617 Q132.015 924.617 135.07 929.224 Q138.149 933.807 138.149 942.557 Q138.149 951.284 135.07 955.89 Q132.015 960.473 126.205 960.473 Q120.394 960.473 117.316 955.89 Q114.26 951.284 114.26 942.557 Q114.26 933.807 117.316 929.224 Q120.394 924.617 126.205 924.617 Z" fill="#000000" fill-rule="evenodd" fill-opacity="1" /><path clip-path="url(#clip890)" d="M146.366 953.923 L151.251 953.923 L151.251 959.802 L146.366 959.802 L146.366 953.923 Z" fill="#000000" fill-rule="evenodd" fill-opacity="1" /><path clip-path="url(#clip890)" d="M161.482 925.242 L179.839 925.242 L179.839 929.177 L165.765 929.177 L165.765 937.65 Q166.783 937.302 167.802 937.14 Q168.82 936.955 169.839 936.955 Q175.626 936.955 179.005 940.126 Q182.385 943.298 182.385 948.714 Q182.385 954.293 178.913 957.395 Q175.44 960.473 169.121 960.473 Q166.945 960.473 164.677 960.103 Q162.431 959.733 160.024 958.992 L160.024 954.293 Q162.107 955.427 164.329 955.983 Q166.552 956.538 169.028 956.538 Q173.033 956.538 175.371 954.432 Q177.709 952.325 177.709 948.714 Q177.709 945.103 175.371 942.997 Q173.033 940.89 169.028 940.89 Q167.153 940.89 165.278 941.307 Q163.427 941.724 161.482 942.603 L161.482 925.242 Z" fill="#000000" fill-rule="evenodd" fill-opacity="1" /><path clip-path="url(#clip890)" d="M201.598 928.321 Q197.987 928.321 196.158 931.886 Q194.352 935.427 194.352 942.557 Q194.352 949.663 196.158 953.228 Q197.987 956.77 201.598 956.77 Q205.232 956.77 207.037 953.228 Q208.866 949.663 208.866 942.557 Q208.866 935.427 207.037 931.886 Q205.232 928.321 201.598 928.321 M201.598 924.617 Q207.408 924.617 210.463 929.224 Q213.542 933.807 213.542 942.557 Q213.542 951.284 210.463 955.89 Q207.408 960.473 201.598 960.473 Q195.787 960.473 192.709 955.89 Q189.653 951.284 189.653 942.557 Q189.653 933.807 192.709 929.224 Q195.787 924.617 201.598 924.617 Z" fill="#000000" fill-rule="evenodd" fill-opacity="1" /><path clip-path="url(#clip890)" d="M127.2 706.384 Q123.589 706.384 121.76 709.949 Q119.955 713.491 119.955 720.62 Q119.955 727.727 121.76 731.291 Q123.589 734.833 127.2 734.833 Q130.834 734.833 132.64 731.291 Q134.468 727.727 134.468 720.62 Q134.468 713.491 132.64 709.949 Q130.834 706.384 127.2 706.384 M127.2 702.68 Q133.01 702.68 136.066 707.287 Q139.144 711.87 139.144 720.62 Q139.144 729.347 136.066 733.953 Q133.01 738.537 127.2 738.537 Q121.39 738.537 118.311 733.953 Q115.256 729.347 115.256 720.62 Q115.256 711.87 118.311 707.287 Q121.39 702.68 127.2 702.68 Z" fill="#000000" fill-rule="evenodd" fill-opacity="1" /><path clip-path="url(#clip890)" d="M147.362 731.986 L152.246 731.986 L152.246 737.865 L147.362 737.865 L147.362 731.986 Z" fill="#000000" fill-rule="evenodd" fill-opacity="1" /><path clip-path="url(#clip890)" d="M161.251 703.305 L183.473 703.305 L183.473 705.296 L170.927 737.865 L166.042 737.865 L177.848 707.241 L161.251 707.241 L161.251 703.305 Z" fill="#000000" fill-rule="evenodd" fill-opacity="1" /><path clip-path="url(#clip890)" d="M192.639 703.305 L210.996 703.305 L210.996 707.241 L196.922 707.241 L196.922 715.713 Q197.94 715.366 198.959 715.204 Q199.977 715.018 200.996 715.018 Q206.783 715.018 210.162 718.19 Q213.542 721.361 213.542 726.778 Q213.542 732.356 210.07 735.458 Q206.598 738.537 200.278 738.537 Q198.102 738.537 195.834 738.166 Q193.588 737.796 191.181 737.055 L191.181 732.356 Q193.264 733.49 195.487 734.046 Q197.709 734.602 200.186 734.602 Q204.19 734.602 206.528 732.495 Q208.866 730.389 208.866 726.778 Q208.866 723.166 206.528 721.06 Q204.19 718.954 200.186 718.954 Q198.311 718.954 196.436 719.37 Q194.584 719.787 192.639 720.666 L192.639 703.305 Z" fill="#000000" fill-rule="evenodd" fill-opacity="1" /><path clip-path="url(#clip890)" d="M117.015 511.994 L124.654 511.994 L124.654 485.628 L116.343 487.295 L116.343 483.035 L124.607 481.369 L129.283 481.369 L129.283 511.994 L136.922 511.994 L136.922 515.929 L117.015 515.929 L117.015 511.994 Z" fill="#000000" fill-rule="evenodd" fill-opacity="1" /><path clip-path="url(#clip890)" d="M146.366 510.049 L151.251 510.049 L151.251 515.929 L146.366 515.929 L146.366 510.049 Z" fill="#000000" fill-rule="evenodd" fill-opacity="1" /><path clip-path="url(#clip890)" d="M171.436 484.447 Q167.825 484.447 165.996 488.012 Q164.19 491.554 164.19 498.683 Q164.19 505.79 165.996 509.355 Q167.825 512.896 171.436 512.896 Q175.07 512.896 176.876 509.355 Q178.704 505.79 178.704 498.683 Q178.704 491.554 176.876 488.012 Q175.07 484.447 171.436 484.447 M171.436 480.744 Q177.246 480.744 180.301 485.35 Q183.38 489.933 183.38 498.683 Q183.38 507.41 180.301 512.017 Q177.246 516.6 171.436 516.6 Q165.626 516.6 162.547 512.017 Q159.491 507.41 159.491 498.683 Q159.491 489.933 162.547 485.35 Q165.626 480.744 171.436 480.744 Z" fill="#000000" fill-rule="evenodd" fill-opacity="1" /><path clip-path="url(#clip890)" d="M201.598 484.447 Q197.987 484.447 196.158 488.012 Q194.352 491.554 194.352 498.683 Q194.352 505.79 196.158 509.355 Q197.987 512.896 201.598 512.896 Q205.232 512.896 207.037 509.355 Q208.866 505.79 208.866 498.683 Q208.866 491.554 207.037 488.012 Q205.232 484.447 201.598 484.447 M201.598 480.744 Q207.408 480.744 210.463 485.35 Q213.542 489.933 213.542 498.683 Q213.542 507.41 210.463 512.017 Q207.408 516.6 201.598 516.6 Q195.787 516.6 192.709 512.017 Q189.653 507.41 189.653 498.683 Q189.653 489.933 192.709 485.35 Q195.787 480.744 201.598 480.744 Z" fill="#000000" fill-rule="evenodd" fill-opacity="1" /><path clip-path="url(#clip890)" d="M118.01 290.057 L125.649 290.057 L125.649 263.691 L117.339 265.358 L117.339 261.099 L125.603 259.432 L130.279 259.432 L130.279 290.057 L137.917 290.057 L137.917 293.992 L118.01 293.992 L118.01 290.057 Z" fill="#000000" fill-rule="evenodd" fill-opacity="1" /><path clip-path="url(#clip890)" d="M147.362 288.112 L152.246 288.112 L152.246 293.992 L147.362 293.992 L147.362 288.112 Z" fill="#000000" fill-rule="evenodd" fill-opacity="1" /><path clip-path="url(#clip890)" d="M166.459 290.057 L182.778 290.057 L182.778 293.992 L160.834 293.992 L160.834 290.057 Q163.496 287.302 168.079 282.673 Q172.686 278.02 173.866 276.677 Q176.112 274.154 176.991 272.418 Q177.894 270.659 177.894 268.969 Q177.894 266.214 175.95 264.478 Q174.028 262.742 170.927 262.742 Q168.727 262.742 166.274 263.506 Q163.843 264.27 161.065 265.821 L161.065 261.099 Q163.89 259.964 166.343 259.386 Q168.797 258.807 170.834 258.807 Q176.204 258.807 179.399 261.492 Q182.593 264.177 182.593 268.668 Q182.593 270.798 181.783 272.719 Q180.996 274.617 178.889 277.21 Q178.311 277.881 175.209 281.099 Q172.107 284.293 166.459 290.057 Z" fill="#000000" fill-rule="evenodd" fill-opacity="1" /><path clip-path="url(#clip890)" d="M192.639 259.432 L210.996 259.432 L210.996 263.367 L196.922 263.367 L196.922 271.839 Q197.94 271.492 198.959 271.33 Q199.977 271.145 200.996 271.145 Q206.783 271.145 210.162 274.316 Q213.542 277.487 213.542 282.904 Q213.542 288.483 210.07 291.585 Q206.598 294.663 200.278 294.663 Q198.102 294.663 195.834 294.293 Q193.588 293.923 191.181 293.182 L191.181 288.483 Q193.264 289.617 195.487 290.173 Q197.709 290.728 200.186 290.728 Q204.19 290.728 206.528 288.622 Q208.866 286.515 208.866 282.904 Q208.866 279.293 206.528 277.187 Q204.19 275.08 200.186 275.08 Q198.311 275.08 196.436 275.497 Q194.584 275.913 192.639 276.793 L192.639 259.432 Z" fill="#000000" fill-rule="evenodd" fill-opacity="1" /><path clip-path="url(#clip890)" d="M21.7677 886.636 L58.7206 886.636 L58.7206 878.869 Q58.7206 869.034 54.2646 864.483 Q49.8086 859.9 40.1964 859.9 Q30.6479 859.9 26.2237 864.483 Q21.7677 869.034 21.7677 878.869 L21.7677 886.636 M16.4842 893.065 L16.4842 879.856 Q16.4842 866.043 22.2451 859.581 Q27.9743 853.12 40.1964 853.12 Q52.4822 853.12 58.2432 859.613 Q64.0042 866.106 64.0042 879.856 L64.0042 893.065 L16.4842 893.065 Z" fill="#000000" fill-rule="evenodd" fill-opacity="1" /><path clip-path="url(#clip890)" d="M44.7161 812.634 L47.5806 812.634 L47.5806 839.561 Q53.6281 839.179 56.8109 835.933 Q59.9619 832.654 59.9619 826.83 Q59.9619 823.456 59.1344 820.305 Q58.3069 817.122 56.6518 814.003 L62.1899 814.003 Q63.5267 817.154 64.227 820.464 Q64.9272 823.774 64.9272 827.18 Q64.9272 835.71 59.9619 840.707 Q54.9967 845.672 46.5303 845.672 Q37.7774 845.672 32.6531 840.962 Q27.4968 836.219 27.4968 828.198 Q27.4968 821.005 32.1438 816.836 Q36.7589 812.634 44.7161 812.634 M42.9973 818.491 Q38.1912 818.554 35.3266 821.196 Q32.4621 823.806 32.4621 828.135 Q32.4621 833.036 35.2312 835.996 Q38.0002 838.925 43.0292 839.37 L42.9973 818.491 Z" fill="#000000" fill-rule="evenodd" fill-opacity="1" /><path clip-path="url(#clip890)" d="M42.4881 773.39 L64.0042 773.39 L64.0042 779.246 L42.679 779.246 Q37.6183 779.246 35.1038 781.219 Q32.5894 783.193 32.5894 787.14 Q32.5894 791.882 35.6131 794.619 Q38.6368 797.357 43.8567 797.357 L64.0042 797.357 L64.0042 803.245 L28.3562 803.245 L28.3562 797.357 L33.8944 797.357 Q30.6797 795.256 29.0883 792.423 Q27.4968 789.559 27.4968 785.835 Q27.4968 779.692 31.3163 776.541 Q35.1038 773.39 42.4881 773.39 Z" fill="#000000" fill-rule="evenodd" fill-opacity="1" /><path clip-path="url(#clip890)" d="M29.4065 738.983 L34.9447 738.983 Q33.6716 741.466 33.035 744.139 Q32.3984 746.813 32.3984 749.677 Q32.3984 754.038 33.7352 756.234 Q35.072 758.398 37.7456 758.398 Q39.7826 758.398 40.9603 756.839 Q42.1061 755.279 43.1565 750.569 L43.6021 748.563 Q44.9389 742.325 47.3897 739.715 Q49.8086 737.073 54.1691 737.073 Q59.1344 737.073 62.0308 741.02 Q64.9272 744.935 64.9272 751.81 Q64.9272 754.674 64.3543 757.794 Q63.8132 760.881 62.6992 764.319 L56.6518 764.319 Q58.3387 761.072 59.198 757.921 Q60.0256 754.77 60.0256 751.683 Q60.0256 747.545 58.6251 745.317 Q57.1929 743.089 54.6147 743.089 Q52.2276 743.089 50.9545 744.712 Q49.6813 746.304 48.5037 751.746 L48.0262 753.783 Q46.8804 759.226 44.5251 761.645 Q42.138 764.064 38.0002 764.064 Q32.9713 764.064 30.2341 760.499 Q27.4968 756.934 27.4968 750.378 Q27.4968 747.131 27.9743 744.267 Q28.4517 741.402 29.4065 738.983 Z" fill="#000000" fill-rule="evenodd" fill-opacity="1" /><path clip-path="url(#clip890)" d="M28.3562 727.748 L28.3562 721.891 L64.0042 721.891 L64.0042 727.748 L28.3562 727.748 M14.479 727.748 L14.479 721.891 L21.895 721.891 L21.895 727.748 L14.479 727.748 Z" fill="#000000" fill-rule="evenodd" fill-opacity="1" /><path clip-path="url(#clip890)" d="M18.2347 703.844 L28.3562 703.844 L28.3562 691.781 L32.9077 691.781 L32.9077 703.844 L52.2594 703.844 Q56.6199 703.844 57.8613 702.667 Q59.1026 701.457 59.1026 697.797 L59.1026 691.781 L64.0042 691.781 L64.0042 697.797 Q64.0042 704.576 61.4897 707.154 Q58.9434 709.733 52.2594 709.733 L32.9077 709.733 L32.9077 714.029 L28.3562 714.029 L28.3562 709.733 L18.2347 709.733 L18.2347 703.844 Z" fill="#000000" fill-rule="evenodd" fill-opacity="1" /><path clip-path="url(#clip890)" d="M67.3143 669.247 Q73.68 671.729 75.6216 674.085 Q77.5631 676.44 77.5631 680.387 L77.5631 685.065 L72.6615 685.065 L72.6615 681.628 Q72.6615 679.209 71.5157 677.872 Q70.3699 676.535 66.1048 674.912 L63.4312 673.862 L28.3562 688.28 L28.3562 682.074 L56.238 670.934 L28.3562 659.794 L28.3562 653.587 L67.3143 669.247 Z" fill="#000000" fill-rule="evenodd" fill-opacity="1" /><path clip-path="url(#clip890)" d="M496.153 18.8205 L496.153 41.5461 L506.443 41.5461 Q512.154 41.5461 515.274 38.5889 Q518.393 35.6318 518.393 30.163 Q518.393 24.7348 515.274 21.7777 Q512.154 18.8205 506.443 18.8205 L496.153 18.8205 M487.97 12.096 L506.443 12.096 Q516.61 12.096 521.796 16.714 Q527.021 21.2916 527.021 30.163 Q527.021 39.1155 521.796 43.6931 Q516.61 48.2706 506.443 48.2706 L496.153 48.2706 L496.153 72.576 L487.97 72.576 L487.97 12.096 Z" fill="#000000" fill-rule="evenodd" fill-opacity="1" /><path clip-path="url(#clip890)" d="M552.299 32.4315 Q546.303 32.4315 542.82 37.1306 Q539.336 41.7891 539.336 49.9314 Q539.336 58.0738 542.779 62.7728 Q546.263 67.4314 552.299 67.4314 Q558.254 67.4314 561.737 62.7323 Q565.221 58.0333 565.221 49.9314 Q565.221 41.8701 561.737 37.1711 Q558.254 32.4315 552.299 32.4315 M552.299 26.1121 Q562.021 26.1121 567.571 32.4315 Q573.12 38.7509 573.12 49.9314 Q573.12 61.0714 567.571 67.4314 Q562.021 73.7508 552.299 73.7508 Q542.536 73.7508 536.986 67.4314 Q531.477 61.0714 531.477 49.9314 Q531.477 38.7509 536.986 32.4315 Q542.536 26.1121 552.299 26.1121 Z" fill="#000000" fill-rule="evenodd" fill-opacity="1" /><path clip-path="url(#clip890)" d="M592.686 65.7705 L592.686 89.8329 L585.192 89.8329 L585.192 27.2059 L592.686 27.2059 L592.686 34.0924 Q595.036 30.0415 598.601 28.0971 Q602.206 26.1121 607.189 26.1121 Q615.452 26.1121 620.597 32.6746 Q625.782 39.2371 625.782 49.9314 Q625.782 60.6258 620.597 67.1883 Q615.452 73.7508 607.189 73.7508 Q602.206 73.7508 598.601 71.8063 Q595.036 69.8214 592.686 65.7705 M618.045 49.9314 Q618.045 41.7081 614.642 37.0496 Q611.28 32.3505 605.366 32.3505 Q599.451 32.3505 596.049 37.0496 Q592.686 41.7081 592.686 49.9314 Q592.686 58.1548 596.049 62.8538 Q599.451 67.5124 605.366 67.5124 Q611.28 67.5124 614.642 62.8538 Q618.045 58.1548 618.045 49.9314 Z" fill="#000000" fill-rule="evenodd" fill-opacity="1" /><path clip-path="url(#clip890)" d="M637.368 54.671 L637.368 27.2059 L644.821 27.2059 L644.821 54.3874 Q644.821 60.8284 647.333 64.0691 Q649.845 67.2693 654.868 67.2693 Q660.904 67.2693 664.387 63.421 Q667.912 59.5726 667.912 52.9291 L667.912 27.2059 L675.365 27.2059 L675.365 72.576 L667.912 72.576 L667.912 65.6084 Q665.198 69.7404 661.592 71.7658 Q658.027 73.7508 653.288 73.7508 Q645.47 73.7508 641.419 68.8897 Q637.368 64.0286 637.368 54.671 M656.123 26.1121 L656.123 26.1121 Z" fill="#000000" fill-rule="evenodd" fill-opacity="1" /><path clip-path="url(#clip890)" d="M690.718 9.54393 L698.172 9.54393 L698.172 72.576 L690.718 72.576 L690.718 9.54393 Z" fill="#000000" fill-rule="evenodd" fill-opacity="1" /><path clip-path="url(#clip890)" d="M734.387 49.7694 Q725.353 49.7694 721.87 51.8354 Q718.386 53.9013 718.386 58.8839 Q718.386 62.8538 720.978 65.2034 Q723.612 67.5124 728.108 67.5124 Q734.306 67.5124 738.033 63.1374 Q741.8 58.7219 741.8 51.4303 L741.8 49.7694 L734.387 49.7694 M749.254 46.6907 L749.254 72.576 L741.8 72.576 L741.8 65.6895 Q739.248 69.8214 735.44 71.8063 Q731.632 73.7508 726.123 73.7508 Q719.156 73.7508 715.024 69.8619 Q710.932 65.9325 710.932 59.3701 Q710.932 51.7138 716.036 47.825 Q721.181 43.9361 731.349 43.9361 L741.8 43.9361 L741.8 43.2069 Q741.8 38.0623 738.397 35.2672 Q735.035 32.4315 728.918 32.4315 Q725.029 32.4315 721.343 33.3632 Q717.657 34.295 714.254 36.1584 L714.254 29.2718 Q718.345 27.692 722.194 26.9223 Q726.042 26.1121 729.688 26.1121 Q739.532 26.1121 744.393 31.2163 Q749.254 36.3204 749.254 46.6907 Z" fill="#000000" fill-rule="evenodd" fill-opacity="1" /><path clip-path="url(#clip890)" d="M771.979 14.324 L771.979 27.2059 L787.332 27.2059 L787.332 32.9987 L771.979 32.9987 L771.979 57.6282 Q771.979 63.1779 773.478 64.7578 Q775.018 66.3376 779.676 66.3376 L787.332 66.3376 L787.332 72.576 L779.676 72.576 Q771.048 72.576 767.766 69.3758 Q764.485 66.1351 764.485 57.6282 L764.485 32.9987 L759.016 32.9987 L759.016 27.2059 L764.485 27.2059 L764.485 14.324 L771.979 14.324 Z" fill="#000000" fill-rule="evenodd" fill-opacity="1" /><path clip-path="url(#clip890)" d="M797.135 27.2059 L804.589 27.2059 L804.589 72.576 L797.135 72.576 L797.135 27.2059 M797.135 9.54393 L804.589 9.54393 L804.589 18.9825 L797.135 18.9825 L797.135 9.54393 Z" fill="#000000" fill-rule="evenodd" fill-opacity="1" /><path clip-path="url(#clip890)" d="M837.766 32.4315 Q831.771 32.4315 828.287 37.1306 Q824.803 41.7891 824.803 49.9314 Q824.803 58.0738 828.246 62.7728 Q831.73 67.4314 837.766 67.4314 Q843.721 67.4314 847.205 62.7323 Q850.688 58.0333 850.688 49.9314 Q850.688 41.8701 847.205 37.1711 Q843.721 32.4315 837.766 32.4315 M837.766 26.1121 Q847.488 26.1121 853.038 32.4315 Q858.588 38.7509 858.588 49.9314 Q858.588 61.0714 853.038 67.4314 Q847.488 73.7508 837.766 73.7508 Q828.003 73.7508 822.454 67.4314 Q816.944 61.0714 816.944 49.9314 Q816.944 38.7509 822.454 32.4315 Q828.003 26.1121 837.766 26.1121 Z" fill="#000000" fill-rule="evenodd" fill-opacity="1" /><path clip-path="url(#clip890)" d="M908.657 45.1919 L908.657 72.576 L901.203 72.576 L901.203 45.4349 Q901.203 38.994 898.692 35.7938 Q896.18 32.5936 891.157 32.5936 Q885.121 32.5936 881.637 36.4419 Q878.154 40.2903 878.154 46.9338 L878.154 72.576 L870.659 72.576 L870.659 27.2059 L878.154 27.2059 L878.154 34.2544 Q880.827 30.163 884.432 28.1376 Q888.078 26.1121 892.818 26.1121 Q900.636 26.1121 904.646 30.9732 Q908.657 35.7938 908.657 45.1919 Z" fill="#000000" fill-rule="evenodd" fill-opacity="1" /><path clip-path="url(#clip890)" d="M985.219 35.9153 Q988.014 30.8922 991.903 28.5022 Q995.792 26.1121 1001.06 26.1121 Q1008.15 26.1121 1012 31.0947 Q1015.84 36.0368 1015.84 45.1919 L1015.84 72.576 L1008.35 72.576 L1008.35 45.4349 Q1008.35 38.913 1006.04 35.7533 Q1003.73 32.5936 998.992 32.5936 Q993.199 32.5936 989.837 36.4419 Q986.475 40.2903 986.475 46.9338 L986.475 72.576 L978.981 72.576 L978.981 45.4349 Q978.981 38.8725 976.672 35.7533 Q974.363 32.5936 969.542 32.5936 Q963.83 32.5936 960.468 36.4824 Q957.106 40.3308 957.106 46.9338 L957.106 72.576 L949.612 72.576 L949.612 27.2059 L957.106 27.2059 L957.106 34.2544 Q959.658 30.082 963.223 28.0971 Q966.787 26.1121 971.689 26.1121 Q976.631 26.1121 980.074 28.6237 Q983.558 31.1352 985.219 35.9153 Z" fill="#000000" fill-rule="evenodd" fill-opacity="1" /><path clip-path="url(#clip890)" d="M1069.52 48.0275 L1069.52 51.6733 L1035.25 51.6733 Q1035.73 59.3701 1039.87 63.421 Q1044.04 67.4314 1051.45 67.4314 Q1055.75 67.4314 1059.76 66.3781 Q1063.81 65.3249 1067.78 63.2184 L1067.78 70.267 Q1063.77 71.9684 1059.55 72.8596 Q1055.34 73.7508 1051.01 73.7508 Q1040.15 73.7508 1033.79 67.4314 Q1027.47 61.1119 1027.47 50.3365 Q1027.47 39.1965 1033.47 32.6746 Q1039.5 26.1121 1049.71 26.1121 Q1058.86 26.1121 1064.17 32.0264 Q1069.52 37.9003 1069.52 48.0275 M1062.06 45.84 Q1061.98 39.7232 1058.62 36.0774 Q1055.3 32.4315 1049.79 32.4315 Q1043.55 32.4315 1039.78 35.9558 Q1036.06 39.4801 1035.49 45.8805 L1062.06 45.84 Z" fill="#000000" fill-rule="evenodd" fill-opacity="1" /><path clip-path="url(#clip890)" d="M1102.37 49.7694 Q1093.34 49.7694 1089.85 51.8354 Q1086.37 53.9013 1086.37 58.8839 Q1086.37 62.8538 1088.96 65.2034 Q1091.6 67.5124 1096.09 67.5124 Q1102.29 67.5124 1106.02 63.1374 Q1109.78 58.7219 1109.78 51.4303 L1109.78 49.7694 L1102.37 49.7694 M1117.24 46.6907 L1117.24 72.576 L1109.78 72.576 L1109.78 65.6895 Q1107.23 69.8214 1103.42 71.8063 Q1099.62 73.7508 1094.11 73.7508 Q1087.14 73.7508 1083.01 69.8619 Q1078.92 65.9325 1078.92 59.3701 Q1078.92 51.7138 1084.02 47.825 Q1089.17 43.9361 1099.33 43.9361 L1109.78 43.9361 L1109.78 43.2069 Q1109.78 38.0623 1106.38 35.2672 Q1103.02 32.4315 1096.9 32.4315 Q1093.01 32.4315 1089.33 33.3632 Q1085.64 34.295 1082.24 36.1584 L1082.24 29.2718 Q1086.33 27.692 1090.18 26.9223 Q1094.03 26.1121 1097.67 26.1121 Q1107.52 26.1121 1112.38 31.2163 Q1117.24 36.3204 1117.24 46.6907 Z" fill="#000000" fill-rule="evenodd" fill-opacity="1" /><path clip-path="url(#clip890)" d="M1170.3 45.1919 L1170.3 72.576 L1162.85 72.576 L1162.85 45.4349 Q1162.85 38.994 1160.34 35.7938 Q1157.83 32.5936 1152.8 32.5936 Q1146.77 32.5936 1143.29 36.4419 Q1139.8 40.2903 1139.8 46.9338 L1139.8 72.576 L1132.31 72.576 L1132.31 27.2059 L1139.8 27.2059 L1139.8 34.2544 Q1142.48 30.163 1146.08 28.1376 Q1149.73 26.1121 1154.47 26.1121 Q1162.28 26.1121 1166.29 30.9732 Q1170.3 35.7938 1170.3 45.1919 Z" fill="#000000" fill-rule="evenodd" fill-opacity="1" /><path clip-path="url(#clip890)" d="M1237.83 34.1734 Q1236.58 33.4443 1235.08 33.1202 Q1233.62 32.7556 1231.84 32.7556 Q1225.52 32.7556 1222.12 36.8875 Q1218.75 40.9789 1218.75 48.6757 L1218.75 72.576 L1211.26 72.576 L1211.26 27.2059 L1218.75 27.2059 L1218.75 34.2544 Q1221.1 30.1225 1224.87 28.1376 Q1228.64 26.1121 1234.03 26.1121 Q1234.8 26.1121 1235.73 26.2337 Q1236.66 26.3147 1237.79 26.5172 L1237.83 34.1734 Z" fill="#000000" fill-rule="evenodd" fill-opacity="1" /><path clip-path="url(#clip890)" d="M1282.64 48.0275 L1282.64 51.6733 L1248.37 51.6733 Q1248.85 59.3701 1252.98 63.421 Q1257.16 67.4314 1264.57 67.4314 Q1268.86 67.4314 1272.87 66.3781 Q1276.92 65.3249 1280.89 63.2184 L1280.89 70.267 Q1276.88 71.9684 1272.67 72.8596 Q1268.46 73.7508 1264.12 73.7508 Q1253.27 73.7508 1246.91 67.4314 Q1240.59 61.1119 1240.59 50.3365 Q1240.59 39.1965 1246.58 32.6746 Q1252.62 26.1121 1262.83 26.1121 Q1271.98 26.1121 1277.29 32.0264 Q1282.64 37.9003 1282.64 48.0275 M1275.18 45.84 Q1275.1 39.7232 1271.74 36.0774 Q1268.42 32.4315 1262.91 32.4315 Q1256.67 32.4315 1252.9 35.9558 Q1249.18 39.4801 1248.61 45.8805 L1275.18 45.84 Z" fill="#000000" fill-rule="evenodd" fill-opacity="1" /><path clip-path="url(#clip890)" d="M1299.33 49.9314 Q1299.33 58.1548 1302.69 62.8538 Q1306.09 67.5124 1312.01 67.5124 Q1317.92 67.5124 1321.32 62.8538 Q1324.73 58.1548 1324.73 49.9314 Q1324.73 41.7081 1321.32 37.0496 Q1317.92 32.3505 1312.01 32.3505 Q1306.09 32.3505 1302.69 37.0496 Q1299.33 41.7081 1299.33 49.9314 M1324.73 65.7705 Q1322.38 69.8214 1318.77 71.8063 Q1315.21 73.7508 1310.18 73.7508 Q1301.96 73.7508 1296.77 67.1883 Q1291.63 60.6258 1291.63 49.9314 Q1291.63 39.2371 1296.77 32.6746 Q1301.96 26.1121 1310.18 26.1121 Q1315.21 26.1121 1318.77 28.0971 Q1322.38 30.0415 1324.73 34.0924 L1324.73 27.2059 L1332.18 27.2059 L1332.18 89.8329 L1324.73 89.8329 L1324.73 65.7705 Z" fill="#000000" fill-rule="evenodd" fill-opacity="1" /><path clip-path="url(#clip890)" d="M1346.76 54.671 L1346.76 27.2059 L1354.22 27.2059 L1354.22 54.3874 Q1354.22 60.8284 1356.73 64.0691 Q1359.24 67.2693 1364.26 67.2693 Q1370.3 67.2693 1373.78 63.421 Q1377.31 59.5726 1377.31 52.9291 L1377.31 27.2059 L1384.76 27.2059 L1384.76 72.576 L1377.31 72.576 L1377.31 65.6084 Q1374.59 69.7404 1370.99 71.7658 Q1367.42 73.7508 1362.68 73.7508 Q1354.86 73.7508 1350.81 68.8897 Q1346.76 64.0286 1346.76 54.671 M1365.52 26.1121 L1365.52 26.1121 Z" fill="#000000" fill-rule="evenodd" fill-opacity="1" /><path clip-path="url(#clip890)" d="M1438.92 48.0275 L1438.92 51.6733 L1404.65 51.6733 Q1405.14 59.3701 1409.27 63.421 Q1413.44 67.4314 1420.85 67.4314 Q1425.15 67.4314 1429.16 66.3781 Q1433.21 65.3249 1437.18 63.2184 L1437.18 70.267 Q1433.17 71.9684 1428.95 72.8596 Q1424.74 73.7508 1420.41 73.7508 Q1409.55 73.7508 1403.19 67.4314 Q1396.87 61.1119 1396.87 50.3365 Q1396.87 39.1965 1402.87 32.6746 Q1408.9 26.1121 1419.11 26.1121 Q1428.27 26.1121 1433.57 32.0264 Q1438.92 37.9003 1438.92 48.0275 M1431.47 45.84 Q1431.39 39.7232 1428.02 36.0774 Q1424.7 32.4315 1419.19 32.4315 Q1412.95 32.4315 1409.19 35.9558 Q1405.46 39.4801 1404.89 45.8805 L1431.47 45.84 Z" fill="#000000" fill-rule="evenodd" fill-opacity="1" /><path clip-path="url(#clip890)" d="M1480.08 28.5427 L1480.08 35.5912 Q1476.92 33.9709 1473.51 33.1607 Q1470.11 32.3505 1466.47 32.3505 Q1460.92 32.3505 1458.12 34.0519 Q1455.37 35.7533 1455.37 39.156 Q1455.37 41.7486 1457.35 43.2475 Q1459.34 44.7058 1465.33 46.0426 L1467.88 46.6097 Q1475.82 48.3111 1479.15 51.4303 Q1482.51 54.509 1482.51 60.0587 Q1482.51 66.3781 1477.48 70.0644 Q1472.5 73.7508 1463.75 73.7508 Q1460.11 73.7508 1456.14 73.0216 Q1452.21 72.3329 1447.83 70.9151 L1447.83 63.2184 Q1451.96 65.3654 1455.97 66.4591 Q1459.98 67.5124 1463.91 67.5124 Q1469.18 67.5124 1472.02 65.73 Q1474.85 63.9071 1474.85 60.6258 Q1474.85 57.5877 1472.79 55.9673 Q1470.76 54.3469 1463.83 52.8481 L1461.24 52.2405 Q1454.31 50.7821 1451.23 47.7845 Q1448.16 44.7463 1448.16 39.4801 Q1448.16 33.0797 1452.69 29.5959 Q1457.23 26.1121 1465.58 26.1121 Q1469.71 26.1121 1473.35 26.7198 Q1477 27.3274 1480.08 28.5427 Z" fill="#000000" fill-rule="evenodd" fill-opacity="1" /><path clip-path="url(#clip890)" d="M1501.75 14.324 L1501.75 27.2059 L1517.1 27.2059 L1517.1 32.9987 L1501.75 32.9987 L1501.75 57.6282 Q1501.75 63.1779 1503.25 64.7578 Q1504.79 66.3376 1509.45 66.3376 L1517.1 66.3376 L1517.1 72.576 L1509.45 72.576 Q1500.82 72.576 1497.54 69.3758 Q1494.26 66.1351 1494.26 57.6282 L1494.26 32.9987 L1488.79 32.9987 L1488.79 27.2059 L1494.26 27.2059 L1494.26 14.324 L1501.75 14.324 Z" fill="#000000" fill-rule="evenodd" fill-opacity="1" /><path clip-path="url(#clip890)" d="M1560.65 14.324 L1560.65 27.2059 L1576 27.2059 L1576 32.9987 L1560.65 32.9987 L1560.65 57.6282 Q1560.65 63.1779 1562.15 64.7578 Q1563.69 66.3376 1568.35 66.3376 L1576 66.3376 L1576 72.576 L1568.35 72.576 Q1559.72 72.576 1556.44 69.3758 Q1553.16 66.1351 1553.16 57.6282 L1553.16 32.9987 L1547.69 32.9987 L1547.69 27.2059 L1553.16 27.2059 L1553.16 14.324 L1560.65 14.324 Z" fill="#000000" fill-rule="evenodd" fill-opacity="1" /><path clip-path="url(#clip890)" d="M1612.1 34.1734 Q1610.84 33.4443 1609.34 33.1202 Q1607.88 32.7556 1606.1 32.7556 Q1599.78 32.7556 1596.38 36.8875 Q1593.02 40.9789 1593.02 48.6757 L1593.02 72.576 L1585.52 72.576 L1585.52 27.2059 L1593.02 27.2059 L1593.02 34.2544 Q1595.37 30.1225 1599.13 28.1376 Q1602.9 26.1121 1608.29 26.1121 Q1609.06 26.1121 1609.99 26.2337 Q1610.92 26.3147 1612.06 26.5172 L1612.1 34.1734 Z" fill="#000000" fill-rule="evenodd" fill-opacity="1" /><path clip-path="url(#clip890)" d="M1656.9 48.0275 L1656.9 51.6733 L1622.63 51.6733 Q1623.11 59.3701 1627.25 63.421 Q1631.42 67.4314 1638.83 67.4314 Q1643.13 67.4314 1647.14 66.3781 Q1651.19 65.3249 1655.16 63.2184 L1655.16 70.267 Q1651.15 71.9684 1646.93 72.8596 Q1642.72 73.7508 1638.39 73.7508 Q1627.53 73.7508 1621.17 67.4314 Q1614.85 61.1119 1614.85 50.3365 Q1614.85 39.1965 1620.85 32.6746 Q1626.88 26.1121 1637.09 26.1121 Q1646.25 26.1121 1651.55 32.0264 Q1656.9 37.9003 1656.9 48.0275 M1649.45 45.84 Q1649.36 39.7232 1646 36.0774 Q1642.68 32.4315 1637.17 32.4315 Q1630.93 32.4315 1627.17 35.9558 Q1623.44 39.4801 1622.87 45.8805 L1649.45 45.84 Z" fill="#000000" fill-rule="evenodd" fill-opacity="1" /><path clip-path="url(#clip890)" d="M1706.85 45.1919 L1706.85 72.576 L1699.39 72.576 L1699.39 45.4349 Q1699.39 38.994 1696.88 35.7938 Q1694.37 32.5936 1689.35 32.5936 Q1683.31 32.5936 1679.83 36.4419 Q1676.34 40.2903 1676.34 46.9338 L1676.34 72.576 L1668.85 72.576 L1668.85 27.2059 L1676.34 27.2059 L1676.34 34.2544 Q1679.02 30.163 1682.62 28.1376 Q1686.27 26.1121 1691.01 26.1121 Q1698.83 26.1121 1702.84 30.9732 Q1706.85 35.7938 1706.85 45.1919 Z" fill="#000000" fill-rule="evenodd" fill-opacity="1" /><path clip-path="url(#clip890)" d="M1751.57 34.0924 L1751.57 9.54393 L1759.02 9.54393 L1759.02 72.576 L1751.57 72.576 L1751.57 65.7705 Q1749.22 69.8214 1745.61 71.8063 Q1742.05 73.7508 1737.03 73.7508 Q1728.8 73.7508 1723.62 67.1883 Q1718.47 60.6258 1718.47 49.9314 Q1718.47 39.2371 1723.62 32.6746 Q1728.8 26.1121 1737.03 26.1121 Q1742.05 26.1121 1745.61 28.0971 Q1749.22 30.0415 1751.57 34.0924 M1726.17 49.9314 Q1726.17 58.1548 1729.53 62.8538 Q1732.93 67.5124 1738.85 67.5124 Q1744.76 67.5124 1748.17 62.8538 Q1751.57 58.1548 1751.57 49.9314 Q1751.57 41.7081 1748.17 37.0496 Q1744.76 32.3505 1738.85 32.3505 Q1732.93 32.3505 1729.53 37.0496 Q1726.17 41.7081 1726.17 49.9314 Z" fill="#000000" fill-rule="evenodd" fill-opacity="1" /><path clip-path="url(#clip890)" d="M1823.72 9.54393 L1823.72 15.7418 L1816.59 15.7418 Q1812.58 15.7418 1811 17.3622 Q1809.46 18.9825 1809.46 23.1955 L1809.46 27.2059 L1821.73 27.2059 L1821.73 32.9987 L1809.46 32.9987 L1809.46 72.576 L1801.96 72.576 L1801.96 32.9987 L1794.83 32.9987 L1794.83 27.2059 L1801.96 27.2059 L1801.96 24.0462 Q1801.96 16.471 1805.49 13.0277 Q1809.01 9.54393 1816.67 9.54393 L1823.72 9.54393 Z" fill="#000000" fill-rule="evenodd" fill-opacity="1" /><path clip-path="url(#clip890)" d="M1847.53 32.4315 Q1841.54 32.4315 1838.06 37.1306 Q1834.57 41.7891 1834.57 49.9314 Q1834.57 58.0738 1838.02 62.7728 Q1841.5 67.4314 1847.53 67.4314 Q1853.49 67.4314 1856.97 62.7323 Q1860.46 58.0333 1860.46 49.9314 Q1860.46 41.8701 1856.97 37.1711 Q1853.49 32.4315 1847.53 32.4315 M1847.53 26.1121 Q1857.26 26.1121 1862.81 32.4315 Q1868.36 38.7509 1868.36 49.9314 Q1868.36 61.0714 1862.81 67.4314 Q1857.26 73.7508 1847.53 73.7508 Q1837.77 73.7508 1832.22 67.4314 Q1826.71 61.0714 1826.71 49.9314 Q1826.71 38.7509 1832.22 32.4315 Q1837.77 26.1121 1847.53 26.1121 Z" fill="#000000" fill-rule="evenodd" fill-opacity="1" /><path clip-path="url(#clip890)" d="M1907 34.1734 Q1905.75 33.4443 1904.25 33.1202 Q1902.79 32.7556 1901.01 32.7556 Q1894.69 32.7556 1891.28 36.8875 Q1887.92 40.9789 1887.92 48.6757 L1887.92 72.576 L1880.43 72.576 L1880.43 27.2059 L1887.92 27.2059 L1887.92 34.2544 Q1890.27 30.1225 1894.04 28.1376 Q1897.81 26.1121 1903.19 26.1121 Q1903.96 26.1121 1904.9 26.2337 Q1905.83 26.3147 1906.96 26.5172 L1907 34.1734 Z" fill="#000000" fill-rule="evenodd" fill-opacity="1" /><path clip-path="url(#clip890)" d="M1940.42 54.671 L1940.42 27.2059 L1947.88 27.2059 L1947.88 54.3874 Q1947.88 60.8284 1950.39 64.0691 Q1952.9 67.2693 1957.92 67.2693 Q1963.96 67.2693 1967.44 63.421 Q1970.97 59.5726 1970.97 52.9291 L1970.97 27.2059 L1978.42 27.2059 L1978.42 72.576 L1970.97 72.576 L1970.97 65.6084 Q1968.25 69.7404 1964.65 71.7658 Q1961.08 73.7508 1956.34 73.7508 Q1948.52 73.7508 1944.47 68.8897 Q1940.42 64.0286 1940.42 54.671 M1959.18 26.1121 L1959.18 26.1121 Z" fill="#000000" fill-rule="evenodd" fill-opacity="1" /><path clip-path="url(#clip890)" d="M2022.7 28.5427 L2022.7 35.5912 Q2019.54 33.9709 2016.13 33.1607 Q2012.73 32.3505 2009.08 32.3505 Q2003.54 32.3505 2000.74 34.0519 Q1997.99 35.7533 1997.99 39.156 Q1997.99 41.7486 1999.97 43.2475 Q2001.96 44.7058 2007.95 46.0426 L2010.5 46.6097 Q2018.44 48.3111 2021.76 51.4303 Q2025.13 54.509 2025.13 60.0587 Q2025.13 66.3781 2020.1 70.0644 Q2015.12 73.7508 2006.37 73.7508 Q2002.73 73.7508 1998.76 73.0216 Q1994.83 72.3329 1990.45 70.9151 L1990.45 63.2184 Q1994.58 65.3654 1998.59 66.4591 Q2002.6 67.5124 2006.53 67.5124 Q2011.8 67.5124 2014.63 65.73 Q2017.47 63.9071 2017.47 60.6258 Q2017.47 57.5877 2015.4 55.9673 Q2013.38 54.3469 2006.45 52.8481 L2003.86 52.2405 Q1996.93 50.7821 1993.85 47.7845 Q1990.77 44.7463 1990.77 39.4801 Q1990.77 33.0797 1995.31 29.5959 Q1999.85 26.1121 2008.19 26.1121 Q2012.33 26.1121 2015.97 26.7198 Q2019.62 27.3274 2022.7 28.5427 Z" fill="#000000" fill-rule="evenodd" fill-opacity="1" /><path clip-path="url(#clip890)" d="M2075.8 48.0275 L2075.8 51.6733 L2041.53 51.6733 Q2042.02 59.3701 2046.15 63.421 Q2050.32 67.4314 2057.74 67.4314 Q2062.03 67.4314 2066.04 66.3781 Q2070.09 65.3249 2074.06 63.2184 L2074.06 70.267 Q2070.05 71.9684 2065.84 72.8596 Q2061.63 73.7508 2057.29 73.7508 Q2046.43 73.7508 2040.07 67.4314 Q2033.75 61.1119 2033.75 50.3365 Q2033.75 39.1965 2039.75 32.6746 Q2045.79 26.1121 2055.99 26.1121 Q2065.15 26.1121 2070.46 32.0264 Q2075.8 37.9003 2075.8 48.0275 M2068.35 45.84 Q2068.27 39.7232 2064.91 36.0774 Q2061.58 32.4315 2056.08 32.4315 Q2049.84 32.4315 2046.07 35.9558 Q2042.34 39.4801 2041.78 45.8805 L2068.35 45.84 Z" fill="#000000" fill-rule="evenodd" fill-opacity="1" /><path clip-path="url(#clip890)" d="M2114.33 34.1734 Q2113.07 33.4443 2111.57 33.1202 Q2110.11 32.7556 2108.33 32.7556 Q2102.01 32.7556 2098.61 36.8875 Q2095.25 40.9789 2095.25 48.6757 L2095.25 72.576 L2087.75 72.576 L2087.75 27.2059 L2095.25 27.2059 L2095.25 34.2544 Q2097.6 30.1225 2101.36 28.1376 Q2105.13 26.1121 2110.52 26.1121 Q2111.29 26.1121 2112.22 26.2337 Q2113.15 26.3147 2114.29 26.5172 L2114.33 34.1734 Z" fill="#000000" fill-rule="evenodd" fill-opacity="1" /><path clip-path="url(#clip892)" d="
M309.067 1386.39 L319.038 1386.39 L329.008 1386.39 L338.979 1386.37 L348.95 1386.35 L358.92 1386.29 L368.891 1386.19 L378.862 1386.02 L388.832 1385.76 L398.803 1385.41 
  L408.774 1384.96 L418.744 1384.47 L428.715 1383.99 L438.686 1383.6 L448.656 1383.38 L458.627 1383.36 L468.598 1383.52 L478.568 1383.8 L488.539 1384.09 L498.51 1384.29 
  L508.48 1384.31 L518.451 1384.11 L528.422 1383.7 L538.392 1383.15 L548.363 1382.51 L558.334 1381.88 L568.304 1381.28 L578.275 1380.72 L588.246 1380.15 L598.216 1379.44 
  L608.187 1378.45 L618.158 1376.96 L628.129 1374.76 L638.099 1371.68 L648.07 1367.63 L658.041 1362.68 L668.011 1357.1 L677.982 1351.27 L687.953 1345.65 L697.923 1340.66 
  L707.894 1336.53 L717.865 1333.32 L727.835 1330.93 L737.806 1329.16 L747.777 1327.81 L757.747 1326.75 L767.718 1325.79 L777.689 1324.69 L787.659 1323.04 L797.63 1320.3 
  L807.601 1315.89 L817.571 1309.41 L827.542 1300.74 L837.513 1290.14 L847.483 1278.13 L857.454 1265.32 L867.425 1252.16 L877.395 1238.82 L887.366 1225.18 L897.337 1210.95 
  L907.307 1195.86 L917.278 1179.75 L927.249 1162.69 L937.219 1144.77 L947.19 1126.01 L957.161 1106.11 L967.131 1084.37 L977.102 1059.72 L987.073 1030.97 L997.043 997.173 
  L1007.01 957.962 L1016.98 913.785 L1026.96 865.933 L1036.93 816.347 L1046.9 767.251 L1056.87 720.682 L1066.84 678.034 L1076.81 639.751 L1086.78 605.274 L1096.75 573.309 
  L1106.72 542.336 L1116.69 511.144 L1126.66 479.177 L1136.63 446.546 L1146.6 413.711 L1156.57 381.057 L1166.54 348.603 L1176.52 316.047 L1186.49 283.157 L1196.46 250.33 
  L1206.43 219.004 L1216.4 191.646 L1226.37 171.223 L1236.34 160.315 L1246.31 160.256 L1256.28 170.635 L1266.25 189.378 L1276.22 213.333 L1286.19 239.137 L1296.16 264.069 
  L1306.13 286.685 L1316.1 307.093 L1326.08 326.807 L1336.05 348.187 L1346.02 373.607 L1355.99 404.563 L1365.96 441.044 L1375.93 481.412 L1385.9 522.849 L1395.87 562.239 
  L1405.84 597.174 L1415.81 626.73 L1425.78 651.752 L1435.75 674.572 L1445.72 698.277 L1455.69 725.76 L1465.67 758.872 L1475.64 797.915 L1485.61 841.608 L1495.58 887.509 
  L1505.55 932.74 L1515.52 974.755 L1525.49 1011.92 L1535.46 1043.7 L1545.43 1070.5 L1555.4 1093.19 L1565.37 1112.75 L1575.34 1129.91 L1585.31 1145.22 L1595.28 1159.13 
  L1605.25 1172.15 L1615.23 1184.9 L1625.2 1197.94 L1635.17 1211.67 L1645.14 1226.15 L1655.11 1241.07 L1665.08 1255.85 L1675.05 1269.86 L1685.02 1282.6 L1694.99 1293.81 
  L1704.96 1303.47 L1714.93 1311.75 L1724.9 1318.86 L1734.87 1324.95 L1744.84 1330.12 L1754.81 1334.46 L1764.79 1338.14 L1774.76 1341.41 L1784.73 1344.59 L1794.7 1347.97 
  L1804.67 1351.68 L1814.64 1355.69 L1824.61 1359.74 L1834.58 1363.5 L1844.55 1366.67 L1854.52 1369.06 L1864.49 1370.65 L1874.46 1371.6 L1884.43 1372.12 L1894.4 1372.47 
  L1904.37 1372.86 L1914.35 1373.46 L1924.32 1374.33 L1934.29 1375.48 L1944.26 1376.81 L1954.23 1378.2 L1964.2 1379.5 L1974.17 1380.51 L1984.14 1381.11 L1994.11 1381.2 
  L2004.08 1380.76 L2014.05 1379.86 L2024.02 1378.67 L2033.99 1377.4 L2043.96 1376.3 L2053.93 1375.58 L2063.91 1375.38 L2073.88 1375.74 L2083.85 1376.55 L2093.82 1377.65 
  L2103.79 1378.84 L2113.76 1379.94 L2123.73 1380.85 L2133.7 1381.57 L2143.67 1382.16 L2153.64 1382.69 L2163.61 1383.23 L2173.58 1383.8 L2183.55 1384.38 L2193.52 1384.93 
  L2203.49 1385.39 L2213.47 1385.76 L2223.44 1386.02 L2233.41 1386.19 L2243.38 1386.29 L2253.35 1386.35 L2263.32 1386.37 L2273.29 1386.39 L2283.26 1386.39 L2293.23 1386.39 
  L2293.23 1386.4 L2283.26 1386.4 L2273.29 1386.4 L2263.32 1386.4 L2253.35 1386.4 L2243.38 1386.4 L2233.41 1386.4 L2223.44 1386.4 L2213.47 1386.4 L2203.49 1386.4 
  L2193.52 1386.4 L2183.55 1386.4 L2173.58 1386.4 L2163.61 1386.4 L2153.64 1386.4 L2143.67 1386.4 L2133.7 1386.4 L2123.73 1386.4 L2113.76 1386.4 L2103.79 1386.4 
  L2093.82 1386.4 L2083.85 1386.4 L2073.88 1386.4 L2063.91 1386.4 L2053.93 1386.4 L2043.96 1386.4 L2033.99 1386.4 L2024.02 1386.4 L2014.05 1386.4 L2004.08 1386.4 
  L1994.11 1386.4 L1984.14 1386.4 L1974.17 1386.4 L1964.2 1386.4 L1954.23 1386.4 L1944.26 1386.4 L1934.29 1386.4 L1924.32 1386.4 L1914.35 1386.4 L1904.37 1386.4 
  L1894.4 1386.4 L1884.43 1386.4 L1874.46 1386.4 L1864.49 1386.4 L1854.52 1386.4 L1844.55 1386.4 L1834.58 1386.4 L1824.61 1386.4 L1814.64 1386.4 L1804.67 1386.4 
  L1794.7 1386.4 L1784.73 1386.4 L1774.76 1386.4 L1764.79 1386.4 L1754.81 1386.4 L1744.84 1386.4 L1734.87 1386.4 L1724.9 1386.4 L1714.93 1386.4 L1704.96 1386.4 
  L1694.99 1386.4 L1685.02 1386.4 L1675.05 1386.4 L1665.08 1386.4 L1655.11 1386.4 L1645.14 1386.4 L1635.17 1386.4 L1625.2 1386.4 L1615.23 1386.4 L1605.25 1386.4 
  L1595.28 1386.4 L1585.31 1386.4 L1575.34 1386.4 L1565.37 1386.4 L1555.4 1386.4 L1545.43 1386.4 L1535.46 1386.4 L1525.49 1386.4 L1515.52 1386.4 L1505.55 1386.4 
  L1495.58 1386.4 L1485.61 1386.4 L1475.64 1386.4 L1465.67 1386.4 L1455.69 1386.4 L1445.72 1386.4 L1435.75 1386.4 L1425.78 1386.4 L1415.81 1386.4 L1405.84 1386.4 
  L1395.87 1386.4 L1385.9 1386.4 L1375.93 1386.4 L1365.96 1386.4 L1355.99 1386.4 L1346.02 1386.4 L1336.05 1386.4 L1326.08 1386.4 L1316.1 1386.4 L1306.13 1386.4 
  L1296.16 1386.4 L1286.19 1386.4 L1276.22 1386.4 L1266.25 1386.4 L1256.28 1386.4 L1246.31 1386.4 L1236.34 1386.4 L1226.37 1386.4 L1216.4 1386.4 L1206.43 1386.4 
  L1196.46 1386.4 L1186.49 1386.4 L1176.52 1386.4 L1166.54 1386.4 L1156.57 1386.4 L1146.6 1386.4 L1136.63 1386.4 L1126.66 1386.4 L1116.69 1386.4 L1106.72 1386.4 
  L1096.75 1386.4 L1086.78 1386.4 L1076.81 1386.4 L1066.84 1386.4 L1056.87 1386.4 L1046.9 1386.4 L1036.93 1386.4 L1026.96 1386.4 L1016.98 1386.4 L1007.01 1386.4 
  L997.043 1386.4 L987.073 1386.4 L977.102 1386.4 L967.131 1386.4 L957.161 1386.4 L947.19 1386.4 L937.219 1386.4 L927.249 1386.4 L917.278 1386.4 L907.307 1386.4 
  L897.337 1386.4 L887.366 1386.4 L877.395 1386.4 L867.425 1386.4 L857.454 1386.4 L847.483 1386.4 L837.513 1386.4 L827.542 1386.4 L817.571 1386.4 L807.601 1386.4 
  L797.63 1386.4 L787.659 1386.4 L777.689 1386.4 L767.718 1386.4 L757.747 1386.4 L747.777 1386.4 L737.806 1386.4 L727.835 1386.4 L717.865 1386.4 L707.894 1386.4 
  L697.923 1386.4 L687.953 1386.4 L677.982 1386.4 L668.011 1386.4 L658.041 1386.4 L648.07 1386.4 L638.099 1386.4 L628.129 1386.4 L618.158 1386.4 L608.187 1386.4 
  L598.216 1386.4 L588.246 1386.4 L578.275 1386.4 L568.304 1386.4 L558.334 1386.4 L548.363 1386.4 L538.392 1386.4 L528.422 1386.4 L518.451 1386.4 L508.48 1386.4 
  L498.51 1386.4 L488.539 1386.4 L478.568 1386.4 L468.598 1386.4 L458.627 1386.4 L448.656 1386.4 L438.686 1386.4 L428.715 1386.4 L418.744 1386.4 L408.774 1386.4 
  L398.803 1386.4 L388.832 1386.4 L378.862 1386.4 L368.891 1386.4 L358.92 1386.4 L348.95 1386.4 L338.979 1386.4 L329.008 1386.4 L319.038 1386.4 L309.067 1386.4 
   Z
  " fill="#009af9" fill-rule="evenodd" fill-opacity="0.5"/>
<polyline clip-path="url(#clip892)" style="stroke:#009af9; stroke-linecap:butt; stroke-linejoin:round; stroke-width:4; stroke-opacity:0.5; fill:none" points="
  309.067,1386.39 319.038,1386.39 329.008,1386.39 338.979,1386.37 348.95,1386.35 358.92,1386.29 368.891,1386.19 378.862,1386.02 388.832,1385.76 398.803,1385.41 
  408.774,1384.96 418.744,1384.47 428.715,1383.99 438.686,1383.6 448.656,1383.38 458.627,1383.36 468.598,1383.52 478.568,1383.8 488.539,1384.09 498.51,1384.29 
  508.48,1384.31 518.451,1384.11 528.422,1383.7 538.392,1383.15 548.363,1382.51 558.334,1381.88 568.304,1381.28 578.275,1380.72 588.246,1380.15 598.216,1379.44 
  608.187,1378.45 618.158,1376.96 628.129,1374.76 638.099,1371.68 648.07,1367.63 658.041,1362.68 668.011,1357.1 677.982,1351.27 687.953,1345.65 697.923,1340.66 
  707.894,1336.53 717.865,1333.32 727.835,1330.93 737.806,1329.16 747.777,1327.81 757.747,1326.75 767.718,1325.79 777.689,1324.69 787.659,1323.04 797.63,1320.3 
  807.601,1315.89 817.571,1309.41 827.542,1300.74 837.513,1290.14 847.483,1278.13 857.454,1265.32 867.425,1252.16 877.395,1238.82 887.366,1225.18 897.337,1210.95 
  907.307,1195.86 917.278,1179.75 927.249,1162.69 937.219,1144.77 947.19,1126.01 957.161,1106.11 967.131,1084.37 977.102,1059.72 987.073,1030.97 997.043,997.173 
  1007.01,957.962 1016.98,913.785 1026.96,865.933 1036.93,816.347 1046.9,767.251 1056.87,720.682 1066.84,678.034 1076.81,639.751 1086.78,605.274 1096.75,573.309 
  1106.72,542.336 1116.69,511.144 1126.66,479.177 1136.63,446.546 1146.6,413.711 1156.57,381.057 1166.54,348.603 1176.52,316.047 1186.49,283.157 1196.46,250.33 
  1206.43,219.004 1216.4,191.646 1226.37,171.223 1236.34,160.315 1246.31,160.256 1256.28,170.635 1266.25,189.378 1276.22,213.333 1286.19,239.137 1296.16,264.069 
  1306.13,286.685 1316.1,307.093 1326.08,326.807 1336.05,348.187 1346.02,373.607 1355.99,404.563 1365.96,441.044 1375.93,481.412 1385.9,522.849 1395.87,562.239 
  1405.84,597.174 1415.81,626.73 1425.78,651.752 1435.75,674.572 1445.72,698.277 1455.69,725.76 1465.67,758.872 1475.64,797.915 1485.61,841.608 1495.58,887.509 
  1505.55,932.74 1515.52,974.755 1525.49,1011.92 1535.46,1043.7 1545.43,1070.5 1555.4,1093.19 1565.37,1112.75 1575.34,1129.91 1585.31,1145.22 1595.28,1159.13 
  1605.25,1172.15 1615.23,1184.9 1625.2,1197.94 1635.17,1211.67 1645.14,1226.15 1655.11,1241.07 1665.08,1255.85 1675.05,1269.86 1685.02,1282.6 1694.99,1293.81 
  1704.96,1303.47 1714.93,1311.75 1724.9,1318.86 1734.87,1324.95 1744.84,1330.12 1754.81,1334.46 1764.79,1338.14 1774.76,1341.41 1784.73,1344.59 1794.7,1347.97 
  1804.67,1351.68 1814.64,1355.69 1824.61,1359.74 1834.58,1363.5 1844.55,1366.67 1854.52,1369.06 1864.49,1370.65 1874.46,1371.6 1884.43,1372.12 1894.4,1372.47 
  1904.37,1372.86 1914.35,1373.46 1924.32,1374.33 1934.29,1375.48 1944.26,1376.81 1954.23,1378.2 1964.2,1379.5 1974.17,1380.51 1984.14,1381.11 1994.11,1381.2 
  2004.08,1380.76 2014.05,1379.86 2024.02,1378.67 2033.99,1377.4 2043.96,1376.3 2053.93,1375.58 2063.91,1375.38 2073.88,1375.74 2083.85,1376.55 2093.82,1377.65 
  2103.79,1378.84 2113.76,1379.94 2123.73,1380.85 2133.7,1381.57 2143.67,1382.16 2153.64,1382.69 2163.61,1383.23 2173.58,1383.8 2183.55,1384.38 2193.52,1384.93 
  2203.49,1385.39 2213.47,1385.76 2223.44,1386.02 2233.41,1386.19 2243.38,1386.29 2253.35,1386.35 2263.32,1386.37 2273.29,1386.39 2283.26,1386.39 2293.23,1386.39 
  
  "/>
<polyline clip-path="url(#clip892)" style="stroke:#e26f46; stroke-linecap:butt; stroke-linejoin:round; stroke-width:4; stroke-opacity:1; fill:none" points="
  1258.75,2722.89 1258.75,-1176.24 
  "/>
<path clip-path="url(#clip890)" d="
M1928.47 270.476 L2282.65 270.476 L2282.65 166.796 L1928.47 166.796  Z
  " fill="#ffffff" fill-rule="evenodd" fill-opacity="1"/>
<polyline clip-path="url(#clip890)" style="stroke:#000000; stroke-linecap:butt; stroke-linejoin:round; stroke-width:4; stroke-opacity:1; fill:none" points="
  1928.47,270.476 2282.65,270.476 2282.65,166.796 1928.47,166.796 1928.47,270.476 
  "/>
<polyline clip-path="url(#clip890)" style="stroke:#e26f46; stroke-linecap:butt; stroke-linejoin:round; stroke-width:4; stroke-opacity:1; fill:none" points="
  1951.84,218.636 2092.06,218.636 
  "/>
<path clip-path="url(#clip890)" d="M2115.43 201.356 L2122.39 201.356 L2131.21 224.874 L2140.08 201.356 L2147.05 201.356 L2147.05 235.916 L2142.49 235.916 L2142.49 205.569 L2133.57 229.272 L2128.87 229.272 L2119.96 205.569 L2119.96 235.916 L2115.43 235.916 L2115.43 201.356 Z" fill="#000000" fill-rule="evenodd" fill-opacity="1" /><path clip-path="url(#clip890)" d="M2178.32 221.888 L2178.32 223.971 L2158.74 223.971 Q2159.01 228.369 2161.37 230.684 Q2163.76 232.976 2167.99 232.976 Q2170.45 232.976 2172.74 232.374 Q2175.05 231.772 2177.32 230.569 L2177.32 234.596 Q2175.03 235.568 2172.62 236.078 Q2170.22 236.587 2167.74 236.587 Q2161.54 236.587 2157.9 232.976 Q2154.29 229.365 2154.29 223.207 Q2154.29 216.842 2157.72 213.115 Q2161.17 209.365 2167 209.365 Q2172.23 209.365 2175.26 212.745 Q2178.32 216.101 2178.32 221.888 M2174.06 220.638 Q2174.01 217.143 2172.09 215.059 Q2170.19 212.976 2167.05 212.976 Q2163.48 212.976 2161.33 214.99 Q2159.2 217.004 2158.87 220.661 L2174.06 220.638 Z" fill="#000000" fill-rule="evenodd" fill-opacity="1" /><path clip-path="url(#clip890)" d="M2197.09 222.883 Q2191.93 222.883 2189.94 224.064 Q2187.95 225.244 2187.95 228.092 Q2187.95 230.36 2189.43 231.703 Q2190.93 233.022 2193.5 233.022 Q2197.05 233.022 2199.17 230.522 Q2201.33 227.999 2201.33 223.832 L2201.33 222.883 L2197.09 222.883 M2205.59 221.124 L2205.59 235.916 L2201.33 235.916 L2201.33 231.981 Q2199.87 234.342 2197.69 235.476 Q2195.52 236.587 2192.37 236.587 Q2188.39 236.587 2186.03 234.365 Q2183.69 232.119 2183.69 228.369 Q2183.69 223.994 2186.61 221.772 Q2189.55 219.55 2195.36 219.55 L2201.33 219.55 L2201.33 219.133 Q2201.33 216.194 2199.38 214.596 Q2197.46 212.976 2193.97 212.976 Q2191.74 212.976 2189.64 213.508 Q2187.53 214.041 2185.59 215.106 L2185.59 211.17 Q2187.92 210.268 2190.12 209.828 Q2192.32 209.365 2194.41 209.365 Q2200.03 209.365 2202.81 212.282 Q2205.59 215.198 2205.59 221.124 Z" fill="#000000" fill-rule="evenodd" fill-opacity="1" /><path clip-path="url(#clip890)" d="M2235.91 220.268 L2235.91 235.916 L2231.65 235.916 L2231.65 220.407 Q2231.65 216.726 2230.22 214.897 Q2228.78 213.069 2225.91 213.069 Q2222.46 213.069 2220.47 215.268 Q2218.48 217.467 2218.48 221.263 L2218.48 235.916 L2214.2 235.916 L2214.2 209.99 L2218.48 209.99 L2218.48 214.018 Q2220.01 211.68 2222.07 210.522 Q2224.15 209.365 2226.86 209.365 Q2231.33 209.365 2233.62 212.143 Q2235.91 214.897 2235.91 220.268 Z" fill="#000000" fill-rule="evenodd" fill-opacity="1" /></svg>
