<?xml version="1.0" encoding="utf-8"?>
<svg xmlns="http://www.w3.org/2000/svg" xmlns:xlink="http://www.w3.org/1999/xlink" width="600" height="400" viewBox="0 0 2400 1600">
<defs>
  <clipPath id="clip430">
    <rect x="0" y="0" width="2400" height="1600"/>
  </clipPath>
</defs>
<path clip-path="url(#clip430)" d="
M0 1600 L2400 1600 L2400 0 L0 0  Z
  " fill="#ffffff" fill-rule="evenodd" fill-opacity="1"/>
<defs>
  <clipPath id="clip431">
    <rect x="480" y="0" width="1681" height="1600"/>
  </clipPath>
</defs>
<path clip-path="url(#clip430)" d="
M219.38 1423.18 L2352.76 1423.18 L2352.76 123.472 L219.38 123.472  Z
  " fill="#ffffff" fill-rule="evenodd" fill-opacity="1"/>
<defs>
  <clipPath id="clip432">
    <rect x="219" y="123" width="2134" height="1301"/>
  </clipPath>
</defs>
<polyline clip-path="url(#clip432)" style="stroke:#000000; stroke-linecap:butt; stroke-linejoin:round; stroke-width:2; stroke-opacity:0.1; fill:none" points="
  706.104,1423.18 706.104,123.472 
  "/>
<polyline clip-path="url(#clip432)" style="stroke:#000000; stroke-linecap:butt; stroke-linejoin:round; stroke-width:2; stroke-opacity:0.1; fill:none" points="
  1195.63,1423.18 1195.63,123.472 
  "/>
<polyline clip-path="url(#clip432)" style="stroke:#000000; stroke-linecap:butt; stroke-linejoin:round; stroke-width:2; stroke-opacity:0.1; fill:none" points="
  1685.15,1423.18 1685.15,123.472 
  "/>
<polyline clip-path="url(#clip432)" style="stroke:#000000; stroke-linecap:butt; stroke-linejoin:round; stroke-width:2; stroke-opacity:0.1; fill:none" points="
  2174.67,1423.18 2174.67,123.472 
  "/>
<polyline clip-path="url(#clip430)" style="stroke:#000000; stroke-linecap:butt; stroke-linejoin:round; stroke-width:4; stroke-opacity:1; fill:none" points="
  219.38,1423.18 2352.76,1423.18 
  "/>
<polyline clip-path="url(#clip430)" style="stroke:#000000; stroke-linecap:butt; stroke-linejoin:round; stroke-width:4; stroke-opacity:1; fill:none" points="
  706.104,1423.18 706.104,1404.28 
  "/>
<polyline clip-path="url(#clip430)" style="stroke:#000000; stroke-linecap:butt; stroke-linejoin:round; stroke-width:4; stroke-opacity:1; fill:none" points="
  1195.63,1423.18 1195.63,1404.28 
  "/>
<polyline clip-path="url(#clip430)" style="stroke:#000000; stroke-linecap:butt; stroke-linejoin:round; stroke-width:4; stroke-opacity:1; fill:none" points="
  1685.15,1423.18 1685.15,1404.28 
  "/>
<polyline clip-path="url(#clip430)" style="stroke:#000000; stroke-linecap:butt; stroke-linejoin:round; stroke-width:4; stroke-opacity:1; fill:none" points="
  2174.67,1423.18 2174.67,1404.28 
  "/>
<path clip-path="url(#clip430)" d="M675.861 1468.75 L705.537 1468.75 L705.537 1472.69 L675.861 1472.69 L675.861 1468.75 Z" fill="#000000" fill-rule="evenodd" fill-opacity="1" /><path clip-path="url(#clip430)" d="M716.44 1481.64 L724.079 1481.64 L724.079 1455.28 L715.769 1456.95 L715.769 1452.69 L724.032 1451.02 L728.708 1451.02 L728.708 1481.64 L736.347 1481.64 L736.347 1485.58 L716.44 1485.58 L716.44 1481.64 Z" fill="#000000" fill-rule="evenodd" fill-opacity="1" /><path clip-path="url(#clip430)" d="M1195.63 1454.1 Q1192.02 1454.1 1190.19 1457.66 Q1188.38 1461.2 1188.38 1468.33 Q1188.38 1475.44 1190.19 1479.01 Q1192.02 1482.55 1195.63 1482.55 Q1199.26 1482.55 1201.07 1479.01 Q1202.9 1475.44 1202.9 1468.33 Q1202.9 1461.2 1201.07 1457.66 Q1199.26 1454.1 1195.63 1454.1 M1195.63 1450.39 Q1201.44 1450.39 1204.49 1455 Q1207.57 1459.58 1207.57 1468.33 Q1207.57 1477.06 1204.49 1481.67 Q1201.44 1486.25 1195.63 1486.25 Q1189.82 1486.25 1186.74 1481.67 Q1183.68 1477.06 1183.68 1468.33 Q1183.68 1459.58 1186.74 1455 Q1189.82 1450.39 1195.63 1450.39 Z" fill="#000000" fill-rule="evenodd" fill-opacity="1" /><path clip-path="url(#clip430)" d="M1675.53 1481.64 L1683.17 1481.64 L1683.17 1455.28 L1674.86 1456.95 L1674.86 1452.69 L1683.12 1451.02 L1687.8 1451.02 L1687.8 1481.64 L1695.44 1481.64 L1695.44 1485.58 L1675.53 1485.58 L1675.53 1481.64 Z" fill="#000000" fill-rule="evenodd" fill-opacity="1" /><path clip-path="url(#clip430)" d="M2169.33 1481.64 L2185.65 1481.64 L2185.65 1485.58 L2163.7 1485.58 L2163.7 1481.64 Q2166.36 1478.89 2170.95 1474.26 Q2175.55 1469.61 2176.73 1468.27 Q2178.98 1465.74 2179.86 1464.01 Q2180.76 1462.25 2180.76 1460.56 Q2180.76 1457.8 2178.82 1456.07 Q2176.9 1454.33 2173.79 1454.33 Q2171.59 1454.33 2169.14 1455.09 Q2166.71 1455.86 2163.93 1457.41 L2163.93 1452.69 Q2166.76 1451.55 2169.21 1450.97 Q2171.66 1450.39 2173.7 1450.39 Q2179.07 1450.39 2182.27 1453.08 Q2185.46 1455.77 2185.46 1460.26 Q2185.46 1462.39 2184.65 1464.31 Q2183.86 1466.2 2181.76 1468.8 Q2181.18 1469.47 2178.08 1472.69 Q2174.97 1475.88 2169.33 1481.64 Z" fill="#000000" fill-rule="evenodd" fill-opacity="1" /><path clip-path="url(#clip430)" d="M942.479 1524.18 L942.479 1530.96 Q939.233 1527.94 935.54 1526.44 Q931.88 1524.95 927.742 1524.95 Q919.594 1524.95 915.266 1529.95 Q910.937 1534.91 910.937 1544.33 Q910.937 1553.72 915.266 1558.72 Q919.594 1563.68 927.742 1563.68 Q931.88 1563.68 935.54 1562.19 Q939.233 1560.69 942.479 1557.67 L942.479 1564.38 Q939.105 1566.68 935.318 1567.82 Q931.562 1568.97 927.36 1568.97 Q916.571 1568.97 910.364 1562.38 Q904.157 1555.76 904.157 1544.33 Q904.157 1532.87 910.364 1526.28 Q916.571 1519.66 927.36 1519.66 Q931.625 1519.66 935.381 1520.81 Q939.169 1521.92 942.479 1524.18 Z" fill="#000000" fill-rule="evenodd" fill-opacity="1" /><path clip-path="url(#clip430)" d="M981.787 1546.53 L981.787 1568.04 L975.931 1568.04 L975.931 1546.72 Q975.931 1541.66 973.957 1539.14 Q971.984 1536.63 968.037 1536.63 Q963.295 1536.63 960.558 1539.65 Q957.82 1542.68 957.82 1547.9 L957.82 1568.04 L951.932 1568.04 L951.932 1518.52 L957.82 1518.52 L957.82 1537.93 Q959.921 1534.72 962.754 1533.13 Q965.618 1531.54 969.342 1531.54 Q975.485 1531.54 978.636 1535.36 Q981.787 1539.14 981.787 1546.53 Z" fill="#000000" fill-rule="evenodd" fill-opacity="1" /><path clip-path="url(#clip430)" d="M1009.67 1550.12 Q1002.57 1550.12 999.834 1551.75 Q997.097 1553.37 997.097 1557.29 Q997.097 1560.4 999.134 1562.25 Q1001.2 1564.07 1004.74 1564.07 Q1009.61 1564.07 1012.53 1560.63 Q1015.49 1557.16 1015.49 1551.43 L1015.49 1550.12 L1009.67 1550.12 M1021.35 1547.71 L1021.35 1568.04 L1015.49 1568.04 L1015.49 1562.63 Q1013.49 1565.88 1010.5 1567.44 Q1007.5 1568.97 1003.18 1568.97 Q997.702 1568.97 994.455 1565.91 Q991.24 1562.82 991.24 1557.67 Q991.24 1551.65 995.251 1548.6 Q999.293 1545.54 1007.28 1545.54 L1015.49 1545.54 L1015.49 1544.97 Q1015.49 1540.93 1012.82 1538.73 Q1010.18 1536.5 1005.37 1536.5 Q1002.32 1536.5 999.42 1537.23 Q996.524 1537.97 993.85 1539.43 L993.85 1534.02 Q997.065 1532.78 1000.09 1532.17 Q1003.11 1531.54 1005.98 1531.54 Q1013.71 1531.54 1017.53 1535.55 Q1021.35 1539.56 1021.35 1547.71 Z" fill="#000000" fill-rule="evenodd" fill-opacity="1" /><path clip-path="url(#clip430)" d="M1063.05 1546.53 L1063.05 1568.04 L1057.19 1568.04 L1057.19 1546.72 Q1057.19 1541.66 1055.22 1539.14 Q1053.24 1536.63 1049.3 1536.63 Q1044.55 1536.63 1041.82 1539.65 Q1039.08 1542.68 1039.08 1547.9 L1039.08 1568.04 L1033.19 1568.04 L1033.19 1532.4 L1039.08 1532.4 L1039.08 1537.93 Q1041.18 1534.72 1044.01 1533.13 Q1046.88 1531.54 1050.6 1531.54 Q1056.74 1531.54 1059.89 1535.36 Q1063.05 1539.14 1063.05 1546.53 Z" fill="#000000" fill-rule="evenodd" fill-opacity="1" /><path clip-path="url(#clip430)" d="M1098.18 1549.81 Q1098.18 1543.44 1095.54 1539.94 Q1092.93 1536.44 1088.19 1536.44 Q1083.48 1536.44 1080.84 1539.94 Q1078.23 1543.44 1078.23 1549.81 Q1078.23 1556.14 1080.84 1559.64 Q1083.48 1563.14 1088.19 1563.14 Q1092.93 1563.14 1095.54 1559.64 Q1098.18 1556.14 1098.18 1549.81 M1104.04 1563.62 Q1104.04 1572.72 1100 1577.15 Q1095.96 1581.6 1087.62 1581.6 Q1084.53 1581.6 1081.79 1581.13 Q1079.06 1580.68 1076.48 1579.72 L1076.48 1574.03 Q1079.06 1575.43 1081.57 1576.1 Q1084.08 1576.76 1086.69 1576.76 Q1092.46 1576.76 1095.32 1573.74 Q1098.18 1570.75 1098.18 1564.67 L1098.18 1561.77 Q1096.37 1564.92 1093.54 1566.48 Q1090.7 1568.04 1086.76 1568.04 Q1080.2 1568.04 1076.19 1563.05 Q1072.18 1558.05 1072.18 1549.81 Q1072.18 1541.53 1076.19 1536.53 Q1080.2 1531.54 1086.76 1531.54 Q1090.7 1531.54 1093.54 1533.1 Q1096.37 1534.66 1098.18 1537.81 L1098.18 1532.4 L1104.04 1532.4 L1104.04 1563.62 Z" fill="#000000" fill-rule="evenodd" fill-opacity="1" /><path clip-path="url(#clip430)" d="M1146.6 1548.76 L1146.6 1551.62 L1119.67 1551.62 Q1120.05 1557.67 1123.3 1560.85 Q1126.58 1564 1132.4 1564 Q1135.77 1564 1138.92 1563.17 Q1142.11 1562.35 1145.23 1560.69 L1145.23 1566.23 Q1142.08 1567.57 1138.77 1568.27 Q1135.46 1568.97 1132.05 1568.97 Q1123.52 1568.97 1118.52 1564 Q1113.56 1559.04 1113.56 1550.57 Q1113.56 1541.82 1118.27 1536.69 Q1123.01 1531.54 1131.03 1531.54 Q1138.22 1531.54 1142.39 1536.18 Q1146.6 1540.8 1146.6 1548.76 M1140.74 1547.04 Q1140.68 1542.23 1138.03 1539.37 Q1135.42 1536.5 1131.09 1536.5 Q1126.19 1536.5 1123.23 1539.27 Q1120.31 1542.04 1119.86 1547.07 L1140.74 1547.04 Z" fill="#000000" fill-rule="evenodd" fill-opacity="1" /><path clip-path="url(#clip430)" d="M1182.59 1562.7 L1182.59 1581.6 L1176.71 1581.6 L1176.71 1532.4 L1182.59 1532.4 L1182.59 1537.81 Q1184.44 1534.62 1187.24 1533.1 Q1190.07 1531.54 1193.99 1531.54 Q1200.48 1531.54 1204.52 1536.69 Q1208.6 1541.85 1208.6 1550.25 Q1208.6 1558.65 1204.52 1563.81 Q1200.48 1568.97 1193.99 1568.97 Q1190.07 1568.97 1187.24 1567.44 Q1184.44 1565.88 1182.59 1562.7 M1202.52 1550.25 Q1202.52 1543.79 1199.84 1540.13 Q1197.2 1536.44 1192.56 1536.44 Q1187.91 1536.44 1185.24 1540.13 Q1182.59 1543.79 1182.59 1550.25 Q1182.59 1556.71 1185.24 1560.4 Q1187.91 1564.07 1192.56 1564.07 Q1197.2 1564.07 1199.84 1560.4 Q1202.52 1556.71 1202.52 1550.25 Z" fill="#000000" fill-rule="evenodd" fill-opacity="1" /><path clip-path="url(#clip430)" d="M1248.8 1548.76 L1248.8 1551.62 L1221.87 1551.62 Q1222.25 1557.67 1225.5 1560.85 Q1228.78 1564 1234.6 1564 Q1237.98 1564 1241.13 1563.17 Q1244.31 1562.35 1247.43 1560.69 L1247.43 1566.23 Q1244.28 1567.57 1240.97 1568.27 Q1237.66 1568.97 1234.25 1568.97 Q1225.72 1568.97 1220.72 1564 Q1215.76 1559.04 1215.76 1550.57 Q1215.76 1541.82 1220.47 1536.69 Q1225.21 1531.54 1233.23 1531.54 Q1240.43 1531.54 1244.6 1536.18 Q1248.8 1540.8 1248.8 1548.76 M1242.94 1547.04 Q1242.88 1542.23 1240.23 1539.37 Q1237.63 1536.5 1233.3 1536.5 Q1228.39 1536.5 1225.43 1539.27 Q1222.51 1542.04 1222.06 1547.07 L1242.94 1547.04 Z" fill="#000000" fill-rule="evenodd" fill-opacity="1" /><path clip-path="url(#clip430)" d="M1279.07 1537.87 Q1278.08 1537.3 1276.9 1537.04 Q1275.76 1536.76 1274.36 1536.76 Q1269.39 1536.76 1266.72 1540 Q1264.07 1543.22 1264.07 1549.27 L1264.07 1568.04 L1258.19 1568.04 L1258.19 1532.4 L1264.07 1532.4 L1264.07 1537.93 Q1265.92 1534.69 1268.88 1533.13 Q1271.84 1531.54 1276.07 1531.54 Q1276.68 1531.54 1277.41 1531.63 Q1278.14 1531.7 1279.03 1531.85 L1279.07 1537.87 Z" fill="#000000" fill-rule="evenodd" fill-opacity="1" /><path clip-path="url(#clip430)" d="M1329.39 1537.81 L1329.39 1518.52 L1335.24 1518.52 L1335.24 1568.04 L1329.39 1568.04 L1329.39 1562.7 Q1327.54 1565.88 1324.71 1567.44 Q1321.91 1568.97 1317.96 1568.97 Q1311.5 1568.97 1307.42 1563.81 Q1303.38 1558.65 1303.38 1550.25 Q1303.38 1541.85 1307.42 1536.69 Q1311.5 1531.54 1317.96 1531.54 Q1321.91 1531.54 1324.71 1533.1 Q1327.54 1534.62 1329.39 1537.81 M1309.43 1550.25 Q1309.43 1556.71 1312.07 1560.4 Q1314.75 1564.07 1319.39 1564.07 Q1324.04 1564.07 1326.71 1560.4 Q1329.39 1556.71 1329.39 1550.25 Q1329.39 1543.79 1326.71 1540.13 Q1324.04 1536.44 1319.39 1536.44 Q1314.75 1536.44 1312.07 1540.13 Q1309.43 1543.79 1309.43 1550.25 Z" fill="#000000" fill-rule="evenodd" fill-opacity="1" /><path clip-path="url(#clip430)" d="M1363.51 1550.12 Q1356.41 1550.12 1353.67 1551.75 Q1350.93 1553.37 1350.93 1557.29 Q1350.93 1560.4 1352.97 1562.25 Q1355.04 1564.07 1358.57 1564.07 Q1363.44 1564.07 1366.37 1560.63 Q1369.33 1557.16 1369.33 1551.43 L1369.33 1550.12 L1363.51 1550.12 M1375.19 1547.71 L1375.19 1568.04 L1369.33 1568.04 L1369.33 1562.63 Q1367.33 1565.88 1364.33 1567.44 Q1361.34 1568.97 1357.01 1568.97 Q1351.54 1568.97 1348.29 1565.91 Q1345.08 1562.82 1345.08 1557.67 Q1345.08 1551.65 1349.09 1548.6 Q1353.13 1545.54 1361.12 1545.54 L1369.33 1545.54 L1369.33 1544.97 Q1369.33 1540.93 1366.66 1538.73 Q1364.02 1536.5 1359.21 1536.5 Q1356.15 1536.5 1353.26 1537.23 Q1350.36 1537.97 1347.69 1539.43 L1347.69 1534.02 Q1350.9 1532.78 1353.93 1532.17 Q1356.95 1531.54 1359.81 1531.54 Q1367.55 1531.54 1371.37 1535.55 Q1375.19 1539.56 1375.19 1547.71 Z" fill="#000000" fill-rule="evenodd" fill-opacity="1" /><path clip-path="url(#clip430)" d="M1402.08 1571.35 Q1399.6 1577.72 1397.25 1579.66 Q1394.89 1581.6 1390.94 1581.6 L1386.26 1581.6 L1386.26 1576.7 L1389.7 1576.7 Q1392.12 1576.7 1393.46 1575.56 Q1394.79 1574.41 1396.42 1570.14 L1397.47 1567.47 L1383.05 1532.4 L1389.26 1532.4 L1400.4 1560.28 L1411.54 1532.4 L1417.74 1532.4 L1402.08 1571.35 Z" fill="#000000" fill-rule="evenodd" fill-opacity="1" /><path clip-path="url(#clip430)" d="M1460.62 1518.58 Q1456.35 1525.9 1454.28 1533.06 Q1452.21 1540.23 1452.21 1547.58 Q1452.21 1554.93 1454.28 1562.16 Q1456.38 1569.35 1460.62 1576.64 L1455.52 1576.64 Q1450.75 1569.16 1448.36 1561.93 Q1446.01 1554.71 1446.01 1547.58 Q1446.01 1540.48 1448.36 1533.29 Q1450.72 1526.09 1455.52 1518.58 L1460.62 1518.58 Z" fill="#000000" fill-rule="evenodd" fill-opacity="1" /><path clip-path="url(#clip430)" d="M1471.98 1518.52 L1477.83 1518.52 L1477.83 1568.04 L1471.98 1568.04 L1471.98 1518.52 Z" fill="#000000" fill-rule="evenodd" fill-opacity="1" /><path clip-path="url(#clip430)" d="M1503.9 1536.5 Q1499.19 1536.5 1496.45 1540.19 Q1493.72 1543.85 1493.72 1550.25 Q1493.72 1556.65 1496.42 1560.34 Q1499.16 1564 1503.9 1564 Q1508.58 1564 1511.32 1560.31 Q1514.06 1556.62 1514.06 1550.25 Q1514.06 1543.92 1511.32 1540.23 Q1508.58 1536.5 1503.9 1536.5 M1503.9 1531.54 Q1511.54 1531.54 1515.9 1536.5 Q1520.26 1541.47 1520.26 1550.25 Q1520.26 1559 1515.9 1564 Q1511.54 1568.97 1503.9 1568.97 Q1496.23 1568.97 1491.87 1564 Q1487.54 1559 1487.54 1550.25 Q1487.54 1541.47 1491.87 1536.5 Q1496.23 1531.54 1503.9 1531.54 Z" fill="#000000" fill-rule="evenodd" fill-opacity="1" /><path clip-path="url(#clip430)" d="M1553.43 1549.81 Q1553.43 1543.44 1550.79 1539.94 Q1548.18 1536.44 1543.43 1536.44 Q1538.72 1536.44 1536.08 1539.94 Q1533.47 1543.44 1533.47 1549.81 Q1533.47 1556.14 1536.08 1559.64 Q1538.72 1563.14 1543.43 1563.14 Q1548.18 1563.14 1550.79 1559.64 Q1553.43 1556.14 1553.43 1549.81 M1559.28 1563.62 Q1559.28 1572.72 1555.24 1577.15 Q1551.2 1581.6 1542.86 1581.6 Q1539.77 1581.6 1537.04 1581.13 Q1534.3 1580.68 1531.72 1579.72 L1531.72 1574.03 Q1534.3 1575.43 1536.81 1576.1 Q1539.33 1576.76 1541.94 1576.76 Q1547.7 1576.76 1550.56 1573.74 Q1553.43 1570.75 1553.43 1564.67 L1553.43 1561.77 Q1551.61 1564.92 1548.78 1566.48 Q1545.95 1568.04 1542 1568.04 Q1535.44 1568.04 1531.43 1563.05 Q1527.42 1558.05 1527.42 1549.81 Q1527.42 1541.53 1531.43 1536.53 Q1535.44 1531.54 1542 1531.54 Q1545.95 1531.54 1548.78 1533.1 Q1551.61 1534.66 1553.43 1537.81 L1553.43 1532.4 L1559.28 1532.4 L1559.28 1563.62 Z" fill="#000000" fill-rule="evenodd" fill-opacity="1" /><path clip-path="url(#clip430)" d="M1573.29 1562.63 L1583.79 1562.63 L1583.79 1526.38 L1572.37 1528.67 L1572.37 1522.82 L1583.73 1520.52 L1590.16 1520.52 L1590.16 1562.63 L1600.66 1562.63 L1600.66 1568.04 L1573.29 1568.04 L1573.29 1562.63 Z" fill="#000000" fill-rule="evenodd" fill-opacity="1" /><path clip-path="url(#clip430)" d="M1627.4 1524.76 Q1622.43 1524.76 1619.92 1529.66 Q1617.43 1534.53 1617.43 1544.33 Q1617.43 1554.1 1619.92 1559 Q1622.43 1563.87 1627.4 1563.87 Q1632.39 1563.87 1634.88 1559 Q1637.39 1554.1 1637.39 1544.33 Q1637.39 1534.53 1634.88 1529.66 Q1632.39 1524.76 1627.4 1524.76 M1627.4 1519.66 Q1635.39 1519.66 1639.59 1526 Q1643.82 1532.3 1643.82 1544.33 Q1643.82 1556.33 1639.59 1562.66 Q1635.39 1568.97 1627.4 1568.97 Q1619.41 1568.97 1615.18 1562.66 Q1610.97 1556.33 1610.97 1544.33 Q1610.97 1532.3 1615.18 1526 Q1619.41 1519.66 1627.4 1519.66 Z" fill="#000000" fill-rule="evenodd" fill-opacity="1" /><path clip-path="url(#clip430)" d="M1653.37 1518.58 L1658.46 1518.58 Q1663.24 1526.09 1665.59 1533.29 Q1667.98 1540.48 1667.98 1547.58 Q1667.98 1554.71 1665.59 1561.93 Q1663.24 1569.16 1658.46 1576.64 L1653.37 1576.64 Q1657.6 1569.35 1659.67 1562.16 Q1661.77 1554.93 1661.77 1547.58 Q1661.77 1540.23 1659.67 1533.06 Q1657.6 1525.9 1653.37 1518.58 Z" fill="#000000" fill-rule="evenodd" fill-opacity="1" /><polyline clip-path="url(#clip432)" style="stroke:#000000; stroke-linecap:butt; stroke-linejoin:round; stroke-width:2; stroke-opacity:0.1; fill:none" points="
  219.38,1386.4 2352.76,1386.4 
  "/>
<polyline clip-path="url(#clip432)" style="stroke:#000000; stroke-linecap:butt; stroke-linejoin:round; stroke-width:2; stroke-opacity:0.1; fill:none" points="
  219.38,995.55 2352.76,995.55 
  "/>
<polyline clip-path="url(#clip432)" style="stroke:#000000; stroke-linecap:butt; stroke-linejoin:round; stroke-width:2; stroke-opacity:0.1; fill:none" points="
  219.38,604.705 2352.76,604.705 
  "/>
<polyline clip-path="url(#clip432)" style="stroke:#000000; stroke-linecap:butt; stroke-linejoin:round; stroke-width:2; stroke-opacity:0.1; fill:none" points="
  219.38,213.86 2352.76,213.86 
  "/>
<polyline clip-path="url(#clip430)" style="stroke:#000000; stroke-linecap:butt; stroke-linejoin:round; stroke-width:4; stroke-opacity:1; fill:none" points="
  219.38,1423.18 219.38,123.472 
  "/>
<polyline clip-path="url(#clip430)" style="stroke:#000000; stroke-linecap:butt; stroke-linejoin:round; stroke-width:4; stroke-opacity:1; fill:none" points="
  219.38,1386.4 238.278,1386.4 
  "/>
<polyline clip-path="url(#clip430)" style="stroke:#000000; stroke-linecap:butt; stroke-linejoin:round; stroke-width:4; stroke-opacity:1; fill:none" points="
  219.38,995.55 238.278,995.55 
  "/>
<polyline clip-path="url(#clip430)" style="stroke:#000000; stroke-linecap:butt; stroke-linejoin:round; stroke-width:4; stroke-opacity:1; fill:none" points="
  219.38,604.705 238.278,604.705 
  "/>
<polyline clip-path="url(#clip430)" style="stroke:#000000; stroke-linecap:butt; stroke-linejoin:round; stroke-width:4; stroke-opacity:1; fill:none" points="
  219.38,213.86 238.278,213.86 
  "/>
<path clip-path="url(#clip430)" d="M126.205 1372.19 Q122.593 1372.19 120.765 1375.76 Q118.959 1379.3 118.959 1386.43 Q118.959 1393.54 120.765 1397.1 Q122.593 1400.64 126.205 1400.64 Q129.839 1400.64 131.644 1397.1 Q133.473 1393.54 133.473 1386.43 Q133.473 1379.3 131.644 1375.76 Q129.839 1372.19 126.205 1372.19 M126.205 1368.49 Q132.015 1368.49 135.07 1373.1 Q138.149 1377.68 138.149 1386.43 Q138.149 1395.16 135.07 1399.76 Q132.015 1404.35 126.205 1404.35 Q120.394 1404.35 117.316 1399.76 Q114.26 1395.16 114.26 1386.43 Q114.26 1377.68 117.316 1373.1 Q120.394 1368.49 126.205 1368.49 Z" fill="#000000" fill-rule="evenodd" fill-opacity="1" /><path clip-path="url(#clip430)" d="M146.366 1397.8 L151.251 1397.8 L151.251 1403.68 L146.366 1403.68 L146.366 1397.8 Z" fill="#000000" fill-rule="evenodd" fill-opacity="1" /><path clip-path="url(#clip430)" d="M171.436 1372.19 Q167.825 1372.19 165.996 1375.76 Q164.19 1379.3 164.19 1386.43 Q164.19 1393.54 165.996 1397.1 Q167.825 1400.64 171.436 1400.64 Q175.07 1400.64 176.876 1397.1 Q178.704 1393.54 178.704 1386.43 Q178.704 1379.3 176.876 1375.76 Q175.07 1372.19 171.436 1372.19 M171.436 1368.49 Q177.246 1368.49 180.301 1373.1 Q183.38 1377.68 183.38 1386.43 Q183.38 1395.16 180.301 1399.76 Q177.246 1404.35 171.436 1404.35 Q165.626 1404.35 162.547 1399.76 Q159.491 1395.16 159.491 1386.43 Q159.491 1377.68 162.547 1373.1 Q165.626 1368.49 171.436 1368.49 Z" fill="#000000" fill-rule="evenodd" fill-opacity="1" /><path clip-path="url(#clip430)" d="M127.2 981.349 Q123.589 981.349 121.76 984.914 Q119.955 988.456 119.955 995.585 Q119.955 1002.69 121.76 1006.26 Q123.589 1009.8 127.2 1009.8 Q130.834 1009.8 132.64 1006.26 Q134.468 1002.69 134.468 995.585 Q134.468 988.456 132.64 984.914 Q130.834 981.349 127.2 981.349 M127.2 977.645 Q133.01 977.645 136.066 982.252 Q139.144 986.835 139.144 995.585 Q139.144 1004.31 136.066 1008.92 Q133.01 1013.5 127.2 1013.5 Q121.39 1013.5 118.311 1008.92 Q115.256 1004.31 115.256 995.585 Q115.256 986.835 118.311 982.252 Q121.39 977.645 127.2 977.645 Z" fill="#000000" fill-rule="evenodd" fill-opacity="1" /><path clip-path="url(#clip430)" d="M147.362 1006.95 L152.246 1006.95 L152.246 1012.83 L147.362 1012.83 L147.362 1006.95 Z" fill="#000000" fill-rule="evenodd" fill-opacity="1" /><path clip-path="url(#clip430)" d="M162.477 978.27 L180.834 978.27 L180.834 982.206 L166.76 982.206 L166.76 990.678 Q167.778 990.331 168.797 990.169 Q169.815 989.983 170.834 989.983 Q176.621 989.983 180.001 993.155 Q183.38 996.326 183.38 1001.74 Q183.38 1007.32 179.908 1010.42 Q176.436 1013.5 170.116 1013.5 Q167.94 1013.5 165.672 1013.13 Q163.427 1012.76 161.019 1012.02 L161.019 1007.32 Q163.102 1008.46 165.325 1009.01 Q167.547 1009.57 170.024 1009.57 Q174.028 1009.57 176.366 1007.46 Q178.704 1005.35 178.704 1001.74 Q178.704 998.131 176.366 996.025 Q174.028 993.918 170.024 993.918 Q168.149 993.918 166.274 994.335 Q164.422 994.752 162.477 995.631 L162.477 978.27 Z" fill="#000000" fill-rule="evenodd" fill-opacity="1" /><path clip-path="url(#clip430)" d="M117.015 618.05 L124.654 618.05 L124.654 591.684 L116.343 593.351 L116.343 589.092 L124.607 587.425 L129.283 587.425 L129.283 618.05 L136.922 618.05 L136.922 621.985 L117.015 621.985 L117.015 618.05 Z" fill="#000000" fill-rule="evenodd" fill-opacity="1" /><path clip-path="url(#clip430)" d="M146.366 616.106 L151.251 616.106 L151.251 621.985 L146.366 621.985 L146.366 616.106 Z" fill="#000000" fill-rule="evenodd" fill-opacity="1" /><path clip-path="url(#clip430)" d="M171.436 590.504 Q167.825 590.504 165.996 594.069 Q164.19 597.61 164.19 604.74 Q164.19 611.846 165.996 615.411 Q167.825 618.953 171.436 618.953 Q175.07 618.953 176.876 615.411 Q178.704 611.846 178.704 604.74 Q178.704 597.61 176.876 594.069 Q175.07 590.504 171.436 590.504 M171.436 586.8 Q177.246 586.8 180.301 591.407 Q183.38 595.99 183.38 604.74 Q183.38 613.467 180.301 618.073 Q177.246 622.656 171.436 622.656 Q165.626 622.656 162.547 618.073 Q159.491 613.467 159.491 604.74 Q159.491 595.99 162.547 591.407 Q165.626 586.8 171.436 586.8 Z" fill="#000000" fill-rule="evenodd" fill-opacity="1" /><path clip-path="url(#clip430)" d="M118.01 227.205 L125.649 227.205 L125.649 200.839 L117.339 202.506 L117.339 198.247 L125.603 196.58 L130.279 196.58 L130.279 227.205 L137.917 227.205 L137.917 231.14 L118.01 231.14 L118.01 227.205 Z" fill="#000000" fill-rule="evenodd" fill-opacity="1" /><path clip-path="url(#clip430)" d="M147.362 225.26 L152.246 225.26 L152.246 231.14 L147.362 231.14 L147.362 225.26 Z" fill="#000000" fill-rule="evenodd" fill-opacity="1" /><path clip-path="url(#clip430)" d="M162.477 196.58 L180.834 196.58 L180.834 200.515 L166.76 200.515 L166.76 208.987 Q167.778 208.64 168.797 208.478 Q169.815 208.293 170.834 208.293 Q176.621 208.293 180.001 211.464 Q183.38 214.635 183.38 220.052 Q183.38 225.631 179.908 228.733 Q176.436 231.811 170.116 231.811 Q167.94 231.811 165.672 231.441 Q163.427 231.071 161.019 230.33 L161.019 225.631 Q163.102 226.765 165.325 227.321 Q167.547 227.876 170.024 227.876 Q174.028 227.876 176.366 225.77 Q178.704 223.663 178.704 220.052 Q178.704 216.441 176.366 214.335 Q174.028 212.228 170.024 212.228 Q168.149 212.228 166.274 212.645 Q164.422 213.061 162.477 213.941 L162.477 196.58 Z" fill="#000000" fill-rule="evenodd" fill-opacity="1" /><path clip-path="url(#clip430)" d="M21.7677 886.636 L58.7206 886.636 L58.7206 878.869 Q58.7206 869.034 54.2646 864.483 Q49.8086 859.9 40.1964 859.9 Q30.6479 859.9 26.2237 864.483 Q21.7677 869.034 21.7677 878.869 L21.7677 886.636 M16.4842 893.065 L16.4842 879.856 Q16.4842 866.043 22.2451 859.581 Q27.9743 853.12 40.1964 853.12 Q52.4822 853.12 58.2432 859.613 Q64.0042 866.106 64.0042 879.856 L64.0042 893.065 L16.4842 893.065 Z" fill="#000000" fill-rule="evenodd" fill-opacity="1" /><path clip-path="url(#clip430)" d="M44.7161 812.634 L47.5806 812.634 L47.5806 839.561 Q53.6281 839.179 56.8109 835.933 Q59.9619 832.654 59.9619 826.83 Q59.9619 823.456 59.1344 820.305 Q58.3069 817.122 56.6518 814.003 L62.1899 814.003 Q63.5267 817.154 64.227 820.464 Q64.9272 823.774 64.9272 827.18 Q64.9272 835.71 59.9619 840.707 Q54.9967 845.672 46.5303 845.672 Q37.7774 845.672 32.6531 840.962 Q27.4968 836.219 27.4968 828.198 Q27.4968 821.005 32.1438 816.836 Q36.7589 812.634 44.7161 812.634 M42.9973 818.491 Q38.1912 818.554 35.3266 821.196 Q32.4621 823.806 32.4621 828.135 Q32.4621 833.036 35.2312 835.996 Q38.0002 838.925 43.0292 839.37 L42.9973 818.491 Z" fill="#000000" fill-rule="evenodd" fill-opacity="1" /><path clip-path="url(#clip430)" d="M42.4881 773.39 L64.0042 773.39 L64.0042 779.246 L42.679 779.246 Q37.6183 779.246 35.1038 781.219 Q32.5894 783.193 32.5894 787.14 Q32.5894 791.882 35.6131 794.619 Q38.6368 797.357 43.8567 797.357 L64.0042 797.357 L64.0042 803.245 L28.3562 803.245 L28.3562 797.357 L33.8944 797.357 Q30.6797 795.256 29.0883 792.423 Q27.4968 789.559 27.4968 785.835 Q27.4968 779.692 31.3163 776.541 Q35.1038 773.39 42.4881 773.39 Z" fill="#000000" fill-rule="evenodd" fill-opacity="1" /><path clip-path="url(#clip430)" d="M29.4065 738.983 L34.9447 738.983 Q33.6716 741.466 33.035 744.139 Q32.3984 746.813 32.3984 749.677 Q32.3984 754.038 33.7352 756.234 Q35.072 758.398 37.7456 758.398 Q39.7826 758.398 40.9603 756.839 Q42.1061 755.279 43.1565 750.569 L43.6021 748.563 Q44.9389 742.325 47.3897 739.715 Q49.8086 737.073 54.1691 737.073 Q59.1344 737.073 62.0308 741.02 Q64.9272 744.935 64.9272 751.81 Q64.9272 754.674 64.3543 757.794 Q63.8132 760.881 62.6992 764.319 L56.6518 764.319 Q58.3387 761.072 59.198 757.921 Q60.0256 754.77 60.0256 751.683 Q60.0256 747.545 58.6251 745.317 Q57.1929 743.089 54.6147 743.089 Q52.2276 743.089 50.9545 744.712 Q49.6813 746.304 48.5037 751.746 L48.0262 753.783 Q46.8804 759.226 44.5251 761.645 Q42.138 764.064 38.0002 764.064 Q32.9713 764.064 30.2341 760.499 Q27.4968 756.934 27.4968 750.378 Q27.4968 747.131 27.9743 744.267 Q28.4517 741.402 29.4065 738.983 Z" fill="#000000" fill-rule="evenodd" fill-opacity="1" /><path clip-path="url(#clip430)" d="M28.3562 727.748 L28.3562 721.891 L64.0042 721.891 L64.0042 727.748 L28.3562 727.748 M14.479 727.748 L14.479 721.891 L21.895 721.891 L21.895 727.748 L14.479 727.748 Z" fill="#000000" fill-rule="evenodd" fill-opacity="1" /><path clip-path="url(#clip430)" d="M18.2347 703.844 L28.3562 703.844 L28.3562 691.781 L32.9077 691.781 L32.9077 703.844 L52.2594 703.844 Q56.6199 703.844 57.8613 702.667 Q59.1026 701.457 59.1026 697.797 L59.1026 691.781 L64.0042 691.781 L64.0042 697.797 Q64.0042 704.576 61.4897 707.154 Q58.9434 709.733 52.2594 709.733 L32.9077 709.733 L32.9077 714.029 L28.3562 714.029 L28.3562 709.733 L18.2347 709.733 L18.2347 703.844 Z" fill="#000000" fill-rule="evenodd" fill-opacity="1" /><path clip-path="url(#clip430)" d="M67.3143 669.247 Q73.68 671.729 75.6216 674.085 Q77.5631 676.44 77.5631 680.387 L77.5631 685.065 L72.6615 685.065 L72.6615 681.628 Q72.6615 679.209 71.5157 677.872 Q70.3699 676.535 66.1048 674.912 L63.4312 673.862 L28.3562 688.28 L28.3562 682.074 L56.238 670.934 L28.3562 659.794 L28.3562 653.587 L67.3143 669.247 Z" fill="#000000" fill-rule="evenodd" fill-opacity="1" /><path clip-path="url(#clip430)" d="M658.725 18.8205 L658.725 41.5461 L669.014 41.5461 Q674.726 41.5461 677.845 38.5889 Q680.964 35.6318 680.964 30.163 Q680.964 24.7348 677.845 21.7777 Q674.726 18.8205 669.014 18.8205 L658.725 18.8205 M650.542 12.096 L669.014 12.096 Q679.182 12.096 684.367 16.714 Q689.593 21.2916 689.593 30.163 Q689.593 39.1155 684.367 43.6931 Q679.182 48.2706 669.014 48.2706 L658.725 48.2706 L658.725 72.576 L650.542 72.576 L650.542 12.096 Z" fill="#000000" fill-rule="evenodd" fill-opacity="1" /><path clip-path="url(#clip430)" d="M714.87 32.4315 Q708.875 32.4315 705.391 37.1306 Q701.907 41.7891 701.907 49.9314 Q701.907 58.0738 705.351 62.7728 Q708.834 67.4314 714.87 67.4314 Q720.825 67.4314 724.309 62.7323 Q727.793 58.0333 727.793 49.9314 Q727.793 41.8701 724.309 37.1711 Q720.825 32.4315 714.87 32.4315 M714.87 26.1121 Q724.592 26.1121 730.142 32.4315 Q735.692 38.7509 735.692 49.9314 Q735.692 61.0714 730.142 67.4314 Q724.592 73.7508 714.87 73.7508 Q705.108 73.7508 699.558 67.4314 Q694.049 61.0714 694.049 49.9314 Q694.049 38.7509 699.558 32.4315 Q705.108 26.1121 714.87 26.1121 Z" fill="#000000" fill-rule="evenodd" fill-opacity="1" /><path clip-path="url(#clip430)" d="M755.258 65.7705 L755.258 89.8329 L747.764 89.8329 L747.764 27.2059 L755.258 27.2059 L755.258 34.0924 Q757.607 30.0415 761.172 28.0971 Q764.777 26.1121 769.76 26.1121 Q778.024 26.1121 783.169 32.6746 Q788.354 39.2371 788.354 49.9314 Q788.354 60.6258 783.169 67.1883 Q778.024 73.7508 769.76 73.7508 Q764.777 73.7508 761.172 71.8063 Q757.607 69.8214 755.258 65.7705 M780.616 49.9314 Q780.616 41.7081 777.214 37.0496 Q773.851 32.3505 767.937 32.3505 Q762.023 32.3505 758.62 37.0496 Q755.258 41.7081 755.258 49.9314 Q755.258 58.1548 758.62 62.8538 Q762.023 67.5124 767.937 67.5124 Q773.851 67.5124 777.214 62.8538 Q780.616 58.1548 780.616 49.9314 Z" fill="#000000" fill-rule="evenodd" fill-opacity="1" /><path clip-path="url(#clip430)" d="M799.939 54.671 L799.939 27.2059 L807.393 27.2059 L807.393 54.3874 Q807.393 60.8284 809.904 64.0691 Q812.416 67.2693 817.439 67.2693 Q823.475 67.2693 826.959 63.421 Q830.483 59.5726 830.483 52.9291 L830.483 27.2059 L837.937 27.2059 L837.937 72.576 L830.483 72.576 L830.483 65.6084 Q827.769 69.7404 824.164 71.7658 Q820.599 73.7508 815.859 73.7508 Q808.041 73.7508 803.99 68.8897 Q799.939 64.0286 799.939 54.671 M818.695 26.1121 L818.695 26.1121 Z" fill="#000000" fill-rule="evenodd" fill-opacity="1" /><path clip-path="url(#clip430)" d="M853.29 9.54393 L860.743 9.54393 L860.743 72.576 L853.29 72.576 L853.29 9.54393 Z" fill="#000000" fill-rule="evenodd" fill-opacity="1" /><path clip-path="url(#clip430)" d="M896.958 49.7694 Q887.925 49.7694 884.441 51.8354 Q880.957 53.9013 880.957 58.8839 Q880.957 62.8538 883.55 65.2034 Q886.183 67.5124 890.68 67.5124 Q896.877 67.5124 900.604 63.1374 Q904.372 58.7219 904.372 51.4303 L904.372 49.7694 L896.958 49.7694 M911.825 46.6907 L911.825 72.576 L904.372 72.576 L904.372 65.6895 Q901.82 69.8214 898.012 71.8063 Q894.204 73.7508 888.695 73.7508 Q881.727 73.7508 877.595 69.8619 Q873.504 65.9325 873.504 59.3701 Q873.504 51.7138 878.608 47.825 Q883.752 43.9361 893.92 43.9361 L904.372 43.9361 L904.372 43.2069 Q904.372 38.0623 900.969 35.2672 Q897.607 32.4315 891.49 32.4315 Q887.601 32.4315 883.915 33.3632 Q880.228 34.295 876.825 36.1584 L876.825 29.2718 Q880.917 27.692 884.765 26.9223 Q888.614 26.1121 892.259 26.1121 Q902.103 26.1121 906.964 31.2163 Q911.825 36.3204 911.825 46.6907 Z" fill="#000000" fill-rule="evenodd" fill-opacity="1" /><path clip-path="url(#clip430)" d="M934.551 14.324 L934.551 27.2059 L949.904 27.2059 L949.904 32.9987 L934.551 32.9987 L934.551 57.6282 Q934.551 63.1779 936.05 64.7578 Q937.589 66.3376 942.248 66.3376 L949.904 66.3376 L949.904 72.576 L942.248 72.576 Q933.619 72.576 930.338 69.3758 Q927.057 66.1351 927.057 57.6282 L927.057 32.9987 L921.588 32.9987 L921.588 27.2059 L927.057 27.2059 L927.057 14.324 L934.551 14.324 Z" fill="#000000" fill-rule="evenodd" fill-opacity="1" /><path clip-path="url(#clip430)" d="M959.707 27.2059 L967.161 27.2059 L967.161 72.576 L959.707 72.576 L959.707 27.2059 M959.707 9.54393 L967.161 9.54393 L967.161 18.9825 L959.707 18.9825 L959.707 9.54393 Z" fill="#000000" fill-rule="evenodd" fill-opacity="1" /><path clip-path="url(#clip430)" d="M1000.34 32.4315 Q994.342 32.4315 990.858 37.1306 Q987.375 41.7891 987.375 49.9314 Q987.375 58.0738 990.818 62.7728 Q994.302 67.4314 1000.34 67.4314 Q1006.29 67.4314 1009.78 62.7323 Q1013.26 58.0333 1013.26 49.9314 Q1013.26 41.8701 1009.78 37.1711 Q1006.29 32.4315 1000.34 32.4315 M1000.34 26.1121 Q1010.06 26.1121 1015.61 32.4315 Q1021.16 38.7509 1021.16 49.9314 Q1021.16 61.0714 1015.61 67.4314 Q1010.06 73.7508 1000.34 73.7508 Q990.575 73.7508 985.025 67.4314 Q979.516 61.0714 979.516 49.9314 Q979.516 38.7509 985.025 32.4315 Q990.575 26.1121 1000.34 26.1121 Z" fill="#000000" fill-rule="evenodd" fill-opacity="1" /><path clip-path="url(#clip430)" d="M1071.23 45.1919 L1071.23 72.576 L1063.77 72.576 L1063.77 45.4349 Q1063.77 38.994 1061.26 35.7938 Q1058.75 32.5936 1053.73 32.5936 Q1047.69 32.5936 1044.21 36.4419 Q1040.73 40.2903 1040.73 46.9338 L1040.73 72.576 L1033.23 72.576 L1033.23 27.2059 L1040.73 27.2059 L1040.73 34.2544 Q1043.4 30.163 1047 28.1376 Q1050.65 26.1121 1055.39 26.1121 Q1063.21 26.1121 1067.22 30.9732 Q1071.23 35.7938 1071.23 45.1919 Z" fill="#000000" fill-rule="evenodd" fill-opacity="1" /><path clip-path="url(#clip430)" d="M1147.79 35.9153 Q1150.59 30.8922 1154.47 28.5022 Q1158.36 26.1121 1163.63 26.1121 Q1170.72 26.1121 1174.57 31.0947 Q1178.42 36.0368 1178.42 45.1919 L1178.42 72.576 L1170.92 72.576 L1170.92 45.4349 Q1170.92 38.913 1168.61 35.7533 Q1166.3 32.5936 1161.56 32.5936 Q1155.77 32.5936 1152.41 36.4419 Q1149.05 40.2903 1149.05 46.9338 L1149.05 72.576 L1141.55 72.576 L1141.55 45.4349 Q1141.55 38.8725 1139.24 35.7533 Q1136.93 32.5936 1132.11 32.5936 Q1126.4 32.5936 1123.04 36.4824 Q1119.68 40.3308 1119.68 46.9338 L1119.68 72.576 L1112.18 72.576 L1112.18 27.2059 L1119.68 27.2059 L1119.68 34.2544 Q1122.23 30.082 1125.79 28.0971 Q1129.36 26.1121 1134.26 26.1121 Q1139.2 26.1121 1142.65 28.6237 Q1146.13 31.1352 1147.79 35.9153 Z" fill="#000000" fill-rule="evenodd" fill-opacity="1" /><path clip-path="url(#clip430)" d="M1232.09 48.0275 L1232.09 51.6733 L1197.82 51.6733 Q1198.31 59.3701 1202.44 63.421 Q1206.61 67.4314 1214.02 67.4314 Q1218.32 67.4314 1222.33 66.3781 Q1226.38 65.3249 1230.35 63.2184 L1230.35 70.267 Q1226.34 71.9684 1222.12 72.8596 Q1217.91 73.7508 1213.58 73.7508 Q1202.72 73.7508 1196.36 67.4314 Q1190.04 61.1119 1190.04 50.3365 Q1190.04 39.1965 1196.04 32.6746 Q1202.07 26.1121 1212.28 26.1121 Q1221.44 26.1121 1226.74 32.0264 Q1232.09 37.9003 1232.09 48.0275 M1224.64 45.84 Q1224.56 39.7232 1221.19 36.0774 Q1217.87 32.4315 1212.36 32.4315 Q1206.12 32.4315 1202.36 35.9558 Q1198.63 39.4801 1198.06 45.8805 L1224.64 45.84 Z" fill="#000000" fill-rule="evenodd" fill-opacity="1" /><path clip-path="url(#clip430)" d="M1264.94 49.7694 Q1255.91 49.7694 1252.43 51.8354 Q1248.94 53.9013 1248.94 58.8839 Q1248.94 62.8538 1251.53 65.2034 Q1254.17 67.5124 1258.66 67.5124 Q1264.86 67.5124 1268.59 63.1374 Q1272.36 58.7219 1272.36 51.4303 L1272.36 49.7694 L1264.94 49.7694 M1279.81 46.6907 L1279.81 72.576 L1272.36 72.576 L1272.36 65.6895 Q1269.8 69.8214 1266 71.8063 Q1262.19 73.7508 1256.68 73.7508 Q1249.71 73.7508 1245.58 69.8619 Q1241.49 65.9325 1241.49 59.3701 Q1241.49 51.7138 1246.59 47.825 Q1251.74 43.9361 1261.9 43.9361 L1272.36 43.9361 L1272.36 43.2069 Q1272.36 38.0623 1268.95 35.2672 Q1265.59 32.4315 1259.47 32.4315 Q1255.58 32.4315 1251.9 33.3632 Q1248.21 34.295 1244.81 36.1584 L1244.81 29.2718 Q1248.9 27.692 1252.75 26.9223 Q1256.6 26.1121 1260.24 26.1121 Q1270.09 26.1121 1274.95 31.2163 Q1279.81 36.3204 1279.81 46.6907 Z" fill="#000000" fill-rule="evenodd" fill-opacity="1" /><path clip-path="url(#clip430)" d="M1332.88 45.1919 L1332.88 72.576 L1325.42 72.576 L1325.42 45.4349 Q1325.42 38.994 1322.91 35.7938 Q1320.4 32.5936 1315.38 32.5936 Q1309.34 32.5936 1305.86 36.4419 Q1302.37 40.2903 1302.37 46.9338 L1302.37 72.576 L1294.88 72.576 L1294.88 27.2059 L1302.37 27.2059 L1302.37 34.2544 Q1305.05 30.163 1308.65 28.1376 Q1312.3 26.1121 1317.04 26.1121 Q1324.86 26.1121 1328.87 30.9732 Q1332.88 35.7938 1332.88 45.1919 Z" fill="#000000" fill-rule="evenodd" fill-opacity="1" /><path clip-path="url(#clip430)" d="M1400.4 34.1734 Q1399.15 33.4443 1397.65 33.1202 Q1396.19 32.7556 1394.41 32.7556 Q1388.09 32.7556 1384.69 36.8875 Q1381.33 40.9789 1381.33 48.6757 L1381.33 72.576 L1373.83 72.576 L1373.83 27.2059 L1381.33 27.2059 L1381.33 34.2544 Q1383.67 30.1225 1387.44 28.1376 Q1391.21 26.1121 1396.6 26.1121 Q1397.37 26.1121 1398.3 26.2337 Q1399.23 26.3147 1400.36 26.5172 L1400.4 34.1734 Z" fill="#000000" fill-rule="evenodd" fill-opacity="1" /><path clip-path="url(#clip430)" d="M1445.21 48.0275 L1445.21 51.6733 L1410.94 51.6733 Q1411.42 59.3701 1415.56 63.421 Q1419.73 67.4314 1427.14 67.4314 Q1431.43 67.4314 1435.45 66.3781 Q1439.5 65.3249 1443.47 63.2184 L1443.47 70.267 Q1439.46 71.9684 1435.24 72.8596 Q1431.03 73.7508 1426.7 73.7508 Q1415.84 73.7508 1409.48 67.4314 Q1403.16 61.1119 1403.16 50.3365 Q1403.16 39.1965 1409.15 32.6746 Q1415.19 26.1121 1425.4 26.1121 Q1434.55 26.1121 1439.86 32.0264 Q1445.21 37.9003 1445.21 48.0275 M1437.75 45.84 Q1437.67 39.7232 1434.31 36.0774 Q1430.99 32.4315 1425.48 32.4315 Q1419.24 32.4315 1415.47 35.9558 Q1411.75 39.4801 1411.18 45.8805 L1437.75 45.84 Z" fill="#000000" fill-rule="evenodd" fill-opacity="1" /><path clip-path="url(#clip430)" d="M1461.9 49.9314 Q1461.9 58.1548 1465.26 62.8538 Q1468.66 67.5124 1474.58 67.5124 Q1480.49 67.5124 1483.89 62.8538 Q1487.3 58.1548 1487.3 49.9314 Q1487.3 41.7081 1483.89 37.0496 Q1480.49 32.3505 1474.58 32.3505 Q1468.66 32.3505 1465.26 37.0496 Q1461.9 41.7081 1461.9 49.9314 M1487.3 65.7705 Q1484.95 69.8214 1481.34 71.8063 Q1477.78 73.7508 1472.75 73.7508 Q1464.53 73.7508 1459.35 67.1883 Q1454.2 60.6258 1454.2 49.9314 Q1454.2 39.2371 1459.35 32.6746 Q1464.53 26.1121 1472.75 26.1121 Q1477.78 26.1121 1481.34 28.0971 Q1484.95 30.0415 1487.3 34.0924 L1487.3 27.2059 L1494.75 27.2059 L1494.75 89.8329 L1487.3 89.8329 L1487.3 65.7705 Z" fill="#000000" fill-rule="evenodd" fill-opacity="1" /><path clip-path="url(#clip430)" d="M1509.33 54.671 L1509.33 27.2059 L1516.79 27.2059 L1516.79 54.3874 Q1516.79 60.8284 1519.3 64.0691 Q1521.81 67.2693 1526.83 67.2693 Q1532.87 67.2693 1536.35 63.421 Q1539.88 59.5726 1539.88 52.9291 L1539.88 27.2059 L1547.33 27.2059 L1547.33 72.576 L1539.88 72.576 L1539.88 65.6084 Q1537.16 69.7404 1533.56 71.7658 Q1529.99 73.7508 1525.25 73.7508 Q1517.44 73.7508 1513.38 68.8897 Q1509.33 64.0286 1509.33 54.671 M1528.09 26.1121 L1528.09 26.1121 Z" fill="#000000" fill-rule="evenodd" fill-opacity="1" /><path clip-path="url(#clip430)" d="M1601.49 48.0275 L1601.49 51.6733 L1567.22 51.6733 Q1567.71 59.3701 1571.84 63.421 Q1576.01 67.4314 1583.42 67.4314 Q1587.72 67.4314 1591.73 66.3781 Q1595.78 65.3249 1599.75 63.2184 L1599.75 70.267 Q1595.74 71.9684 1591.53 72.8596 Q1587.31 73.7508 1582.98 73.7508 Q1572.12 73.7508 1565.76 67.4314 Q1559.44 61.1119 1559.44 50.3365 Q1559.44 39.1965 1565.44 32.6746 Q1571.47 26.1121 1581.68 26.1121 Q1590.84 26.1121 1596.14 32.0264 Q1601.49 37.9003 1601.49 48.0275 M1594.04 45.84 Q1593.96 39.7232 1590.59 36.0774 Q1587.27 32.4315 1581.76 32.4315 Q1575.53 32.4315 1571.76 35.9558 Q1568.03 39.4801 1567.46 45.8805 L1594.04 45.84 Z" fill="#000000" fill-rule="evenodd" fill-opacity="1" /><path clip-path="url(#clip430)" d="M1642.65 28.5427 L1642.65 35.5912 Q1639.49 33.9709 1636.09 33.1607 Q1632.68 32.3505 1629.04 32.3505 Q1623.49 32.3505 1620.69 34.0519 Q1617.94 35.7533 1617.94 39.156 Q1617.94 41.7486 1619.92 43.2475 Q1621.91 44.7058 1627.9 46.0426 L1630.46 46.6097 Q1638.4 48.3111 1641.72 51.4303 Q1645.08 54.509 1645.08 60.0587 Q1645.08 66.3781 1640.06 70.0644 Q1635.07 73.7508 1626.32 73.7508 Q1622.68 73.7508 1618.71 73.0216 Q1614.78 72.3329 1610.4 70.9151 L1610.4 63.2184 Q1614.54 65.3654 1618.55 66.4591 Q1622.56 67.5124 1626.49 67.5124 Q1631.75 67.5124 1634.59 65.73 Q1637.42 63.9071 1637.42 60.6258 Q1637.42 57.5877 1635.36 55.9673 Q1633.33 54.3469 1626.4 52.8481 L1623.81 52.2405 Q1616.89 50.7821 1613.81 47.7845 Q1610.73 44.7463 1610.73 39.4801 Q1610.73 33.0797 1615.26 29.5959 Q1619.8 26.1121 1628.15 26.1121 Q1632.28 26.1121 1635.92 26.7198 Q1639.57 27.3274 1642.65 28.5427 Z" fill="#000000" fill-rule="evenodd" fill-opacity="1" /><path clip-path="url(#clip430)" d="M1664.32 14.324 L1664.32 27.2059 L1679.67 27.2059 L1679.67 32.9987 L1664.32 32.9987 L1664.32 57.6282 Q1664.32 63.1779 1665.82 64.7578 Q1667.36 66.3376 1672.02 66.3376 L1679.67 66.3376 L1679.67 72.576 L1672.02 72.576 Q1663.39 72.576 1660.11 69.3758 Q1656.83 66.1351 1656.83 57.6282 L1656.83 32.9987 L1651.36 32.9987 L1651.36 27.2059 L1656.83 27.2059 L1656.83 14.324 L1664.32 14.324 Z" fill="#000000" fill-rule="evenodd" fill-opacity="1" /><path clip-path="url(#clip430)" d="M1723.22 14.324 L1723.22 27.2059 L1738.57 27.2059 L1738.57 32.9987 L1723.22 32.9987 L1723.22 57.6282 Q1723.22 63.1779 1724.72 64.7578 Q1726.26 66.3376 1730.92 66.3376 L1738.57 66.3376 L1738.57 72.576 L1730.92 72.576 Q1722.29 72.576 1719.01 69.3758 Q1715.73 66.1351 1715.73 57.6282 L1715.73 32.9987 L1710.26 32.9987 L1710.26 27.2059 L1715.73 27.2059 L1715.73 14.324 L1723.22 14.324 Z" fill="#000000" fill-rule="evenodd" fill-opacity="1" /><path clip-path="url(#clip430)" d="M1774.67 34.1734 Q1773.41 33.4443 1771.91 33.1202 Q1770.45 32.7556 1768.67 32.7556 Q1762.35 32.7556 1758.95 36.8875 Q1755.59 40.9789 1755.59 48.6757 L1755.59 72.576 L1748.09 72.576 L1748.09 27.2059 L1755.59 27.2059 L1755.59 34.2544 Q1757.94 30.1225 1761.7 28.1376 Q1765.47 26.1121 1770.86 26.1121 Q1771.63 26.1121 1772.56 26.2337 Q1773.49 26.3147 1774.63 26.5172 L1774.67 34.1734 Z" fill="#000000" fill-rule="evenodd" fill-opacity="1" /><path clip-path="url(#clip430)" d="M1819.47 48.0275 L1819.47 51.6733 L1785.2 51.6733 Q1785.69 59.3701 1789.82 63.421 Q1793.99 67.4314 1801.4 67.4314 Q1805.7 67.4314 1809.71 66.3781 Q1813.76 65.3249 1817.73 63.2184 L1817.73 70.267 Q1813.72 71.9684 1809.51 72.8596 Q1805.29 73.7508 1800.96 73.7508 Q1790.1 73.7508 1783.74 67.4314 Q1777.42 61.1119 1777.42 50.3365 Q1777.42 39.1965 1783.42 32.6746 Q1789.45 26.1121 1799.66 26.1121 Q1808.82 26.1121 1814.12 32.0264 Q1819.47 37.9003 1819.47 48.0275 M1812.02 45.84 Q1811.94 39.7232 1808.57 36.0774 Q1805.25 32.4315 1799.74 32.4315 Q1793.5 32.4315 1789.74 35.9558 Q1786.01 39.4801 1785.44 45.8805 L1812.02 45.84 Z" fill="#000000" fill-rule="evenodd" fill-opacity="1" /><path clip-path="url(#clip430)" d="M1869.42 45.1919 L1869.42 72.576 L1861.96 72.576 L1861.96 45.4349 Q1861.96 38.994 1859.45 35.7938 Q1856.94 32.5936 1851.92 32.5936 Q1845.88 32.5936 1842.4 36.4419 Q1838.92 40.2903 1838.92 46.9338 L1838.92 72.576 L1831.42 72.576 L1831.42 27.2059 L1838.92 27.2059 L1838.92 34.2544 Q1841.59 30.163 1845.19 28.1376 Q1848.84 26.1121 1853.58 26.1121 Q1861.4 26.1121 1865.41 30.9732 Q1869.42 35.7938 1869.42 45.1919 Z" fill="#000000" fill-rule="evenodd" fill-opacity="1" /><path clip-path="url(#clip430)" d="M1914.14 34.0924 L1914.14 9.54393 L1921.59 9.54393 L1921.59 72.576 L1914.14 72.576 L1914.14 65.7705 Q1911.79 69.8214 1908.19 71.8063 Q1904.62 73.7508 1899.6 73.7508 Q1891.37 73.7508 1886.19 67.1883 Q1881.04 60.6258 1881.04 49.9314 Q1881.04 39.2371 1886.19 32.6746 Q1891.37 26.1121 1899.6 26.1121 Q1904.62 26.1121 1908.19 28.0971 Q1911.79 30.0415 1914.14 34.0924 M1888.74 49.9314 Q1888.74 58.1548 1892.1 62.8538 Q1895.51 67.5124 1901.42 67.5124 Q1907.33 67.5124 1910.74 62.8538 Q1914.14 58.1548 1914.14 49.9314 Q1914.14 41.7081 1910.74 37.0496 Q1907.33 32.3505 1901.42 32.3505 Q1895.51 32.3505 1892.1 37.0496 Q1888.74 41.7081 1888.74 49.9314 Z" fill="#000000" fill-rule="evenodd" fill-opacity="1" /><path clip-path="url(#clip432)" d="
M279.759 1386.39 L289.872 1386.39 L299.986 1386.38 L310.1 1386.34 L320.213 1386.23 L330.327 1386 L340.441 1385.58 L350.554 1384.97 L360.668 1384.27 L370.782 1383.67 
  L380.895 1383.41 L391.009 1383.6 L401.123 1384.12 L411.236 1384.74 L421.35 1385.19 L431.464 1385.29 L441.577 1385 L451.691 1384.41 L461.805 1383.68 L471.918 1383.02 
  L482.032 1382.48 L492.146 1381.97 L502.259 1381.33 L512.373 1380.43 L522.487 1379.37 L532.6 1378.39 L542.714 1377.72 L552.828 1377.36 L562.941 1377.01 L573.055 1376.22 
  L583.169 1374.73 L593.282 1372.66 L603.396 1370.53 L613.51 1368.86 L623.623 1367.82 L633.737 1367.2 L643.851 1366.56 L653.964 1365.56 L664.078 1364.2 L674.192 1362.69 
  L684.305 1361.31 L694.419 1360.17 L704.532 1359.13 L714.646 1357.84 L724.76 1355.95 L734.873 1353.27 L744.987 1349.88 L755.101 1346.1 L765.214 1342.37 L775.328 1339.1 
  L785.442 1336.51 L795.555 1334.45 L805.669 1332.21 L815.783 1328.8 L825.896 1323.47 L836.01 1316.18 L846.124 1307.8 L856.237 1299.79 L866.351 1293.38 L876.465 1288.81 
  L886.578 1285.01 L896.692 1279.96 L906.806 1271.76 L916.919 1259.63 L927.033 1244.4 L937.147 1227.99 L947.26 1212.28 L957.374 1197.96 L967.488 1183.99 L977.601 1167.79 
  L987.715 1146.05 L997.829 1116.14 L1007.94 1077.57 L1018.06 1032.52 L1028.17 984.707 L1038.28 937.164 L1048.4 890.727 L1058.51 844.389 L1068.62 797.024 L1078.74 748.546 
  L1088.85 699.315 L1098.97 648.507 L1109.08 593.358 L1119.19 530.434 L1129.31 458.416 L1139.42 380.552 L1149.53 304.767 L1159.65 240.685 L1169.76 195.161 L1179.87 169.505 
  L1189.99 160.256 L1200.1 162.405 L1210.22 172.486 L1220.33 190.074 L1230.44 217.444 L1240.56 257.473 L1250.67 310.631 L1260.78 373.344 L1270.9 439.55 L1281.01 504.38 
  L1291.12 566.656 L1301.24 628.091 L1311.35 690.305 L1321.47 752.499 L1331.58 811.571 L1341.69 864.086 L1351.81 908.229 L1361.92 944.331 L1372.03 974.054 L1382.15 999.279 
  L1392.26 1021.47 L1402.38 1041.54 L1412.49 1059.95 L1422.6 1077.14 L1432.72 1094.08 L1442.83 1112.47 L1452.94 1134.12 L1463.06 1159.78 L1473.17 1188.52 L1483.28 1218.15 
  L1493.4 1246.23 L1503.51 1271 L1513.63 1291.65 L1523.74 1308.22 L1533.85 1321.26 L1543.97 1331.52 L1554.08 1339.61 L1564.19 1345.74 L1574.31 1349.77 L1584.42 1351.46 
  L1594.53 1350.92 L1604.65 1348.86 L1614.76 1346.71 L1624.88 1346.03 L1634.99 1347.78 L1645.1 1351.69 L1655.22 1356.5 L1665.33 1360.8 L1675.44 1363.75 L1685.56 1365.28 
  L1695.67 1365.72 L1705.78 1365.46 L1715.9 1364.83 L1726.01 1364.06 L1736.13 1363.34 L1746.24 1362.83 L1756.35 1362.7 L1766.47 1363.17 L1776.58 1364.43 L1786.69 1366.49 
  L1796.81 1369.02 L1806.92 1371.5 L1817.04 1373.43 L1827.15 1374.61 L1837.26 1375.21 L1847.38 1375.59 L1857.49 1376.11 L1867.6 1377 L1877.72 1378.22 L1887.83 1379.54 
  L1897.94 1380.59 L1908.06 1381.16 L1918.17 1381.27 L1928.29 1381.18 L1938.4 1381.19 L1948.51 1381.51 L1958.63 1382.15 L1968.74 1382.93 L1978.85 1383.54 L1988.97 1383.68 
  L1999.08 1383.18 L2009.19 1382.16 L2019.31 1381 L2029.42 1380.15 L2039.54 1379.91 L2049.65 1380.24 L2059.76 1380.88 L2069.88 1381.59 L2079.99 1382.29 L2090.1 1383.06 
  L2100.22 1383.88 L2110.33 1384.69 L2120.45 1385.33 L2130.56 1385.7 L2140.67 1385.72 L2150.79 1385.41 L2160.9 1384.84 L2171.01 1384.16 L2181.13 1383.61 L2191.24 1383.42 
  L2201.35 1383.67 L2211.47 1384.27 L2221.58 1384.97 L2231.7 1385.58 L2241.81 1386 L2251.92 1386.23 L2262.04 1386.34 L2272.15 1386.38 L2282.26 1386.39 L2292.38 1386.39 
  L2292.38 1386.4 L2282.26 1386.4 L2272.15 1386.4 L2262.04 1386.4 L2251.92 1386.4 L2241.81 1386.4 L2231.7 1386.4 L2221.58 1386.4 L2211.47 1386.4 L2201.35 1386.4 
  L2191.24 1386.4 L2181.13 1386.4 L2171.01 1386.4 L2160.9 1386.4 L2150.79 1386.4 L2140.67 1386.4 L2130.56 1386.4 L2120.45 1386.4 L2110.33 1386.4 L2100.22 1386.4 
  L2090.1 1386.4 L2079.99 1386.4 L2069.88 1386.4 L2059.76 1386.4 L2049.65 1386.4 L2039.54 1386.4 L2029.42 1386.4 L2019.31 1386.4 L2009.19 1386.4 L1999.08 1386.4 
  L1988.97 1386.4 L1978.85 1386.4 L1968.74 1386.4 L1958.63 1386.4 L1948.51 1386.4 L1938.4 1386.4 L1928.29 1386.4 L1918.17 1386.4 L1908.06 1386.4 L1897.94 1386.4 
  L1887.83 1386.4 L1877.72 1386.4 L1867.6 1386.4 L1857.49 1386.4 L1847.38 1386.4 L1837.26 1386.4 L1827.15 1386.4 L1817.04 1386.4 L1806.92 1386.4 L1796.81 1386.4 
  L1786.69 1386.4 L1776.58 1386.4 L1766.47 1386.4 L1756.35 1386.4 L1746.24 1386.4 L1736.13 1386.4 L1726.01 1386.4 L1715.9 1386.4 L1705.78 1386.4 L1695.67 1386.4 
  L1685.56 1386.4 L1675.44 1386.4 L1665.33 1386.4 L1655.22 1386.4 L1645.1 1386.4 L1634.99 1386.4 L1624.88 1386.4 L1614.76 1386.4 L1604.65 1386.4 L1594.53 1386.4 
  L1584.42 1386.4 L1574.31 1386.4 L1564.19 1386.4 L1554.08 1386.4 L1543.97 1386.4 L1533.85 1386.4 L1523.74 1386.4 L1513.63 1386.4 L1503.51 1386.4 L1493.4 1386.4 
  L1483.28 1386.4 L1473.17 1386.4 L1463.06 1386.4 L1452.94 1386.4 L1442.83 1386.4 L1432.72 1386.4 L1422.6 1386.4 L1412.49 1386.4 L1402.38 1386.4 L1392.26 1386.4 
  L1382.15 1386.4 L1372.03 1386.4 L1361.92 1386.4 L1351.81 1386.4 L1341.69 1386.4 L1331.58 1386.4 L1321.47 1386.4 L1311.35 1386.4 L1301.24 1386.4 L1291.12 1386.4 
  L1281.01 1386.4 L1270.9 1386.4 L1260.78 1386.4 L1250.67 1386.4 L1240.56 1386.4 L1230.44 1386.4 L1220.33 1386.4 L1210.22 1386.4 L1200.1 1386.4 L1189.99 1386.4 
  L1179.87 1386.4 L1169.76 1386.4 L1159.65 1386.4 L1149.53 1386.4 L1139.42 1386.4 L1129.31 1386.4 L1119.19 1386.4 L1109.08 1386.4 L1098.97 1386.4 L1088.85 1386.4 
  L1078.74 1386.4 L1068.62 1386.4 L1058.51 1386.4 L1048.4 1386.4 L1038.28 1386.4 L1028.17 1386.4 L1018.06 1386.4 L1007.94 1386.4 L997.829 1386.4 L987.715 1386.4 
  L977.601 1386.4 L967.488 1386.4 L957.374 1386.4 L947.26 1386.4 L937.147 1386.4 L927.033 1386.4 L916.919 1386.4 L906.806 1386.4 L896.692 1386.4 L886.578 1386.4 
  L876.465 1386.4 L866.351 1386.4 L856.237 1386.4 L846.124 1386.4 L836.01 1386.4 L825.896 1386.4 L815.783 1386.4 L805.669 1386.4 L795.555 1386.4 L785.442 1386.4 
  L775.328 1386.4 L765.214 1386.4 L755.101 1386.4 L744.987 1386.4 L734.873 1386.4 L724.76 1386.4 L714.646 1386.4 L704.532 1386.4 L694.419 1386.4 L684.305 1386.4 
  L674.192 1386.4 L664.078 1386.4 L653.964 1386.4 L643.851 1386.4 L633.737 1386.4 L623.623 1386.4 L613.51 1386.4 L603.396 1386.4 L593.282 1386.4 L583.169 1386.4 
  L573.055 1386.4 L562.941 1386.4 L552.828 1386.4 L542.714 1386.4 L532.6 1386.4 L522.487 1386.4 L512.373 1386.4 L502.259 1386.4 L492.146 1386.4 L482.032 1386.4 
  L471.918 1386.4 L461.805 1386.4 L451.691 1386.4 L441.577 1386.4 L431.464 1386.4 L421.35 1386.4 L411.236 1386.4 L401.123 1386.4 L391.009 1386.4 L380.895 1386.4 
  L370.782 1386.4 L360.668 1386.4 L350.554 1386.4 L340.441 1386.4 L330.327 1386.4 L320.213 1386.4 L310.1 1386.4 L299.986 1386.4 L289.872 1386.4 L279.759 1386.4 
   Z
  " fill="#009af9" fill-rule="evenodd" fill-opacity="0.5"/>
<polyline clip-path="url(#clip432)" style="stroke:#009af9; stroke-linecap:butt; stroke-linejoin:round; stroke-width:4; stroke-opacity:0.5; fill:none" points="
  279.759,1386.39 289.872,1386.39 299.986,1386.38 310.1,1386.34 320.213,1386.23 330.327,1386 340.441,1385.58 350.554,1384.97 360.668,1384.27 370.782,1383.67 
  380.895,1383.41 391.009,1383.6 401.123,1384.12 411.236,1384.74 421.35,1385.19 431.464,1385.29 441.577,1385 451.691,1384.41 461.805,1383.68 471.918,1383.02 
  482.032,1382.48 492.146,1381.97 502.259,1381.33 512.373,1380.43 522.487,1379.37 532.6,1378.39 542.714,1377.72 552.828,1377.36 562.941,1377.01 573.055,1376.22 
  583.169,1374.73 593.282,1372.66 603.396,1370.53 613.51,1368.86 623.623,1367.82 633.737,1367.2 643.851,1366.56 653.964,1365.56 664.078,1364.2 674.192,1362.69 
  684.305,1361.31 694.419,1360.17 704.532,1359.13 714.646,1357.84 724.76,1355.95 734.873,1353.27 744.987,1349.88 755.101,1346.1 765.214,1342.37 775.328,1339.1 
  785.442,1336.51 795.555,1334.45 805.669,1332.21 815.783,1328.8 825.896,1323.47 836.01,1316.18 846.124,1307.8 856.237,1299.79 866.351,1293.38 876.465,1288.81 
  886.578,1285.01 896.692,1279.96 906.806,1271.76 916.919,1259.63 927.033,1244.4 937.147,1227.99 947.26,1212.28 957.374,1197.96 967.488,1183.99 977.601,1167.79 
  987.715,1146.05 997.829,1116.14 1007.94,1077.57 1018.06,1032.52 1028.17,984.707 1038.28,937.164 1048.4,890.727 1058.51,844.389 1068.62,797.024 1078.74,748.546 
  1088.85,699.315 1098.97,648.507 1109.08,593.358 1119.19,530.434 1129.31,458.416 1139.42,380.552 1149.53,304.767 1159.65,240.685 1169.76,195.161 1179.87,169.505 
  1189.99,160.256 1200.1,162.405 1210.22,172.486 1220.33,190.074 1230.44,217.444 1240.56,257.473 1250.67,310.631 1260.78,373.344 1270.9,439.55 1281.01,504.38 
  1291.12,566.656 1301.24,628.091 1311.35,690.305 1321.47,752.499 1331.58,811.571 1341.69,864.086 1351.81,908.229 1361.92,944.331 1372.03,974.054 1382.15,999.279 
  1392.26,1021.47 1402.38,1041.54 1412.49,1059.95 1422.6,1077.14 1432.72,1094.08 1442.83,1112.47 1452.94,1134.12 1463.06,1159.78 1473.17,1188.52 1483.28,1218.15 
  1493.4,1246.23 1503.51,1271 1513.63,1291.65 1523.74,1308.22 1533.85,1321.26 1543.97,1331.52 1554.08,1339.61 1564.19,1345.74 1574.31,1349.77 1584.42,1351.46 
  1594.53,1350.92 1604.65,1348.86 1614.76,1346.71 1624.88,1346.03 1634.99,1347.78 1645.1,1351.69 1655.22,1356.5 1665.33,1360.8 1675.44,1363.75 1685.56,1365.28 
  1695.67,1365.72 1705.78,1365.46 1715.9,1364.83 1726.01,1364.06 1736.13,1363.34 1746.24,1362.83 1756.35,1362.7 1766.47,1363.17 1776.58,1364.43 1786.69,1366.49 
  1796.81,1369.02 1806.92,1371.5 1817.04,1373.43 1827.15,1374.61 1837.26,1375.21 1847.38,1375.59 1857.49,1376.11 1867.6,1377 1877.72,1378.22 1887.83,1379.54 
  1897.94,1380.59 1908.06,1381.16 1918.17,1381.27 1928.29,1381.18 1938.4,1381.19 1948.51,1381.51 1958.63,1382.15 1968.74,1382.93 1978.85,1383.54 1988.97,1383.68 
  1999.08,1383.18 2009.19,1382.16 2019.31,1381 2029.42,1380.15 2039.54,1379.91 2049.65,1380.24 2059.76,1380.88 2069.88,1381.59 2079.99,1382.29 2090.1,1383.06 
  2100.22,1383.88 2110.33,1384.69 2120.45,1385.33 2130.56,1385.7 2140.67,1385.72 2150.79,1385.41 2160.9,1384.84 2171.01,1384.16 2181.13,1383.61 2191.24,1383.42 
  2201.35,1383.67 2211.47,1384.27 2221.58,1384.97 2231.7,1385.58 2241.81,1386 2251.92,1386.23 2262.04,1386.34 2272.15,1386.38 2282.26,1386.39 2292.38,1386.39 
  
  "/>
<polyline clip-path="url(#clip432)" style="stroke:#e26f46; stroke-linecap:butt; stroke-linejoin:round; stroke-width:4; stroke-opacity:1; fill:none" points="
  1204.21,2722.89 1204.21,-1176.24 
  "/>
<path clip-path="url(#clip430)" d="
M1924.12 270.476 L2281.64 270.476 L2281.64 166.796 L1924.12 166.796  Z
  " fill="#ffffff" fill-rule="evenodd" fill-opacity="1"/>
<polyline clip-path="url(#clip430)" style="stroke:#000000; stroke-linecap:butt; stroke-linejoin:round; stroke-width:4; stroke-opacity:1; fill:none" points="
  1924.12,270.476 2281.64,270.476 2281.64,166.796 1924.12,166.796 1924.12,270.476 
  "/>
<polyline clip-path="url(#clip430)" style="stroke:#e26f46; stroke-linecap:butt; stroke-linejoin:round; stroke-width:4; stroke-opacity:1; fill:none" points="
  1947.82,218.636 2090.05,218.636 
  "/>
<path clip-path="url(#clip430)" d="M2113.75 201.356 L2120.72 201.356 L2129.54 224.874 L2138.4 201.356 L2145.37 201.356 L2145.37 235.916 L2140.81 235.916 L2140.81 205.569 L2131.9 229.272 L2127.2 229.272 L2118.29 205.569 L2118.29 235.916 L2113.75 235.916 L2113.75 201.356 Z" fill="#000000" fill-rule="evenodd" fill-opacity="1" /><path clip-path="url(#clip430)" d="M2176.64 221.888 L2176.64 223.971 L2157.06 223.971 Q2157.34 228.369 2159.7 230.684 Q2162.08 232.976 2166.32 232.976 Q2168.77 232.976 2171.06 232.374 Q2173.38 231.772 2175.65 230.569 L2175.65 234.596 Q2173.36 235.568 2170.95 236.078 Q2168.54 236.587 2166.06 236.587 Q2159.86 236.587 2156.23 232.976 Q2152.62 229.365 2152.62 223.207 Q2152.62 216.842 2156.04 213.115 Q2159.49 209.365 2165.32 209.365 Q2170.55 209.365 2173.59 212.745 Q2176.64 216.101 2176.64 221.888 M2172.38 220.638 Q2172.34 217.143 2170.42 215.059 Q2168.52 212.976 2165.37 212.976 Q2161.8 212.976 2159.65 214.99 Q2157.52 217.004 2157.2 220.661 L2172.38 220.638 Z" fill="#000000" fill-rule="evenodd" fill-opacity="1" /><path clip-path="url(#clip430)" d="M2195.42 222.883 Q2190.25 222.883 2188.26 224.064 Q2186.27 225.244 2186.27 228.092 Q2186.27 230.36 2187.75 231.703 Q2189.26 233.022 2191.83 233.022 Q2195.37 233.022 2197.5 230.522 Q2199.65 227.999 2199.65 223.832 L2199.65 222.883 L2195.42 222.883 M2203.91 221.124 L2203.91 235.916 L2199.65 235.916 L2199.65 231.981 Q2198.19 234.342 2196.02 235.476 Q2193.84 236.587 2190.69 236.587 Q2186.71 236.587 2184.35 234.365 Q2182.01 232.119 2182.01 228.369 Q2182.01 223.994 2184.93 221.772 Q2187.87 219.55 2193.68 219.55 L2199.65 219.55 L2199.65 219.133 Q2199.65 216.194 2197.71 214.596 Q2195.79 212.976 2192.29 212.976 Q2190.07 212.976 2187.96 213.508 Q2185.86 214.041 2183.91 215.106 L2183.91 211.17 Q2186.25 210.268 2188.45 209.828 Q2190.65 209.365 2192.73 209.365 Q2198.36 209.365 2201.13 212.282 Q2203.91 215.198 2203.91 221.124 Z" fill="#000000" fill-rule="evenodd" fill-opacity="1" /><path clip-path="url(#clip430)" d="M2234.24 220.268 L2234.24 235.916 L2229.98 235.916 L2229.98 220.407 Q2229.98 216.726 2228.54 214.897 Q2227.11 213.069 2224.24 213.069 Q2220.79 213.069 2218.8 215.268 Q2216.8 217.467 2216.8 221.263 L2216.8 235.916 L2212.52 235.916 L2212.52 209.99 L2216.8 209.99 L2216.8 214.018 Q2218.33 211.68 2220.39 210.522 Q2222.48 209.365 2225.18 209.365 Q2229.65 209.365 2231.94 212.143 Q2234.24 214.897 2234.24 220.268 Z" fill="#000000" fill-rule="evenodd" fill-opacity="1" /></svg>
