<?xml version="1.0" encoding="utf-8"?>
<svg xmlns="http://www.w3.org/2000/svg" xmlns:xlink="http://www.w3.org/1999/xlink" width="600" height="400" viewBox="0 0 2400 1600">
<defs>
  <clipPath id="clip730">
    <rect x="0" y="0" width="2400" height="1600"/>
  </clipPath>
</defs>
<path clip-path="url(#clip730)" d="
M0 1600 L2400 1600 L2400 0 L0 0  Z
  " fill="#ffffff" fill-rule="evenodd" fill-opacity="1"/>
<defs>
  <clipPath id="clip731">
    <rect x="480" y="0" width="1681" height="1600"/>
  </clipPath>
</defs>
<path clip-path="url(#clip730)" d="
M250.028 1423.18 L2352.76 1423.18 L2352.76 123.472 L250.028 123.472  Z
  " fill="#ffffff" fill-rule="evenodd" fill-opacity="1"/>
<defs>
  <clipPath id="clip732">
    <rect x="250" y="123" width="2104" height="1301"/>
  </clipPath>
</defs>
<polyline clip-path="url(#clip732)" style="stroke:#000000; stroke-linecap:butt; stroke-linejoin:round; stroke-width:2; stroke-opacity:0.1; fill:none" points="
  592.926,1423.18 592.926,123.472 
  "/>
<polyline clip-path="url(#clip732)" style="stroke:#000000; stroke-linecap:butt; stroke-linejoin:round; stroke-width:2; stroke-opacity:0.1; fill:none" points="
  1301.39,1423.18 1301.39,123.472 
  "/>
<polyline clip-path="url(#clip732)" style="stroke:#000000; stroke-linecap:butt; stroke-linejoin:round; stroke-width:2; stroke-opacity:0.1; fill:none" points="
  2009.86,1423.18 2009.86,123.472 
  "/>
<polyline clip-path="url(#clip730)" style="stroke:#000000; stroke-linecap:butt; stroke-linejoin:round; stroke-width:4; stroke-opacity:1; fill:none" points="
  250.028,1423.18 2352.76,1423.18 
  "/>
<polyline clip-path="url(#clip730)" style="stroke:#000000; stroke-linecap:butt; stroke-linejoin:round; stroke-width:4; stroke-opacity:1; fill:none" points="
  592.926,1423.18 592.926,1404.28 
  "/>
<polyline clip-path="url(#clip730)" style="stroke:#000000; stroke-linecap:butt; stroke-linejoin:round; stroke-width:4; stroke-opacity:1; fill:none" points="
  1301.39,1423.18 1301.39,1404.28 
  "/>
<polyline clip-path="url(#clip730)" style="stroke:#000000; stroke-linecap:butt; stroke-linejoin:round; stroke-width:4; stroke-opacity:1; fill:none" points="
  2009.86,1423.18 2009.86,1404.28 
  "/>
<path clip-path="url(#clip730)" d="M508.829 1475.35 L508.829 1459.65 L513.088 1459.65 L513.088 1475.19 Q513.088 1478.87 514.523 1480.72 Q515.959 1482.55 518.829 1482.55 Q522.278 1482.55 524.269 1480.35 Q526.283 1478.15 526.283 1474.35 L526.283 1459.65 L530.542 1459.65 L530.542 1485.58 L526.283 1485.58 L526.283 1481.6 Q524.732 1483.96 522.672 1485.12 Q520.635 1486.25 517.926 1486.25 Q513.459 1486.25 511.144 1483.47 Q508.829 1480.7 508.829 1475.35 M519.547 1459.03 L519.547 1459.03 Z" fill="#000000" fill-rule="evenodd" fill-opacity="1" /><path clip-path="url(#clip730)" d="M555.843 1460.42 L555.843 1464.45 Q554.037 1463.52 552.093 1463.06 Q550.148 1462.59 548.065 1462.59 Q544.894 1462.59 543.296 1463.57 Q541.722 1464.54 541.722 1466.48 Q541.722 1467.96 542.857 1468.82 Q543.991 1469.65 547.417 1470.42 L548.875 1470.74 Q553.412 1471.71 555.31 1473.5 Q557.232 1475.26 557.232 1478.43 Q557.232 1482.04 554.361 1484.14 Q551.514 1486.25 546.514 1486.25 Q544.431 1486.25 542.162 1485.83 Q539.917 1485.44 537.417 1484.63 L537.417 1480.23 Q539.778 1481.46 542.07 1482.08 Q544.361 1482.69 546.607 1482.69 Q549.616 1482.69 551.236 1481.67 Q552.857 1480.63 552.857 1478.75 Q552.857 1477.02 551.676 1476.09 Q550.519 1475.16 546.56 1474.31 L545.079 1473.96 Q541.121 1473.13 539.361 1471.41 Q537.602 1469.68 537.602 1466.67 Q537.602 1463.01 540.195 1461.02 Q542.787 1459.03 547.556 1459.03 Q549.917 1459.03 552 1459.38 Q554.083 1459.72 555.843 1460.42 Z" fill="#000000" fill-rule="evenodd" fill-opacity="1" /><path clip-path="url(#clip730)" d="M561.861 1470.7 L574.338 1470.7 L574.338 1474.49 L561.861 1474.49 L561.861 1470.7 Z" fill="#000000" fill-rule="evenodd" fill-opacity="1" /><path clip-path="url(#clip730)" d="M603.296 1471.55 L603.296 1473.64 L583.713 1473.64 Q583.991 1478.03 586.352 1480.35 Q588.736 1482.64 592.972 1482.64 Q595.426 1482.64 597.717 1482.04 Q600.032 1481.44 602.301 1480.23 L602.301 1484.26 Q600.009 1485.23 597.602 1485.74 Q595.194 1486.25 592.717 1486.25 Q586.514 1486.25 582.88 1482.64 Q579.268 1479.03 579.268 1472.87 Q579.268 1466.51 582.694 1462.78 Q586.143 1459.03 591.977 1459.03 Q597.208 1459.03 600.241 1462.41 Q603.296 1465.77 603.296 1471.55 M599.037 1470.3 Q598.991 1466.81 597.069 1464.72 Q595.171 1462.64 592.023 1462.64 Q588.458 1462.64 586.305 1464.65 Q584.176 1466.67 583.852 1470.33 L599.037 1470.3 Z" fill="#000000" fill-rule="evenodd" fill-opacity="1" /><path clip-path="url(#clip730)" d="M622.069 1472.55 Q616.907 1472.55 614.916 1473.73 Q612.926 1474.91 612.926 1477.76 Q612.926 1480.02 614.407 1481.37 Q615.912 1482.69 618.481 1482.69 Q622.023 1482.69 624.152 1480.19 Q626.305 1477.66 626.305 1473.5 L626.305 1472.55 L622.069 1472.55 M630.564 1470.79 L630.564 1485.58 L626.305 1485.58 L626.305 1481.64 Q624.847 1484.01 622.671 1485.14 Q620.495 1486.25 617.347 1486.25 Q613.366 1486.25 611.004 1484.03 Q608.666 1481.78 608.666 1478.03 Q608.666 1473.66 611.583 1471.44 Q614.523 1469.21 620.333 1469.21 L626.305 1469.21 L626.305 1468.8 Q626.305 1465.86 624.361 1464.26 Q622.44 1462.64 618.944 1462.64 Q616.722 1462.64 614.615 1463.17 Q612.509 1463.7 610.565 1464.77 L610.565 1460.83 Q612.903 1459.93 615.102 1459.49 Q617.301 1459.03 619.384 1459.03 Q625.009 1459.03 627.787 1461.95 Q630.564 1464.86 630.564 1470.79 Z" fill="#000000" fill-rule="evenodd" fill-opacity="1" /><path clip-path="url(#clip730)" d="M655.865 1460.42 L655.865 1464.45 Q654.06 1463.52 652.115 1463.06 Q650.171 1462.59 648.088 1462.59 Q644.916 1462.59 643.319 1463.57 Q641.745 1464.54 641.745 1466.48 Q641.745 1467.96 642.879 1468.82 Q644.013 1469.65 647.439 1470.42 L648.898 1470.74 Q653.435 1471.71 655.333 1473.5 Q657.254 1475.26 657.254 1478.43 Q657.254 1482.04 654.384 1484.14 Q651.537 1486.25 646.537 1486.25 Q644.453 1486.25 642.185 1485.83 Q639.939 1485.44 637.439 1484.63 L637.439 1480.23 Q639.801 1481.46 642.092 1482.08 Q644.384 1482.69 646.629 1482.69 Q649.638 1482.69 651.259 1481.67 Q652.879 1480.63 652.879 1478.75 Q652.879 1477.02 651.699 1476.09 Q650.541 1475.16 646.583 1474.31 L645.101 1473.96 Q641.143 1473.13 639.384 1471.41 Q637.625 1469.68 637.625 1466.67 Q637.625 1463.01 640.217 1461.02 Q642.81 1459.03 647.578 1459.03 Q649.939 1459.03 652.023 1459.38 Q654.106 1459.72 655.865 1460.42 Z" fill="#000000" fill-rule="evenodd" fill-opacity="1" /><path clip-path="url(#clip730)" d="M668.249 1452.29 L668.249 1459.65 L677.023 1459.65 L677.023 1462.96 L668.249 1462.96 L668.249 1477.04 Q668.249 1480.21 669.106 1481.11 Q669.986 1482.02 672.648 1482.02 L677.023 1482.02 L677.023 1485.58 L672.648 1485.58 Q667.717 1485.58 665.842 1483.75 Q663.967 1481.9 663.967 1477.04 L663.967 1462.96 L660.842 1462.96 L660.842 1459.65 L663.967 1459.65 L663.967 1452.29 L668.249 1452.29 Z" fill="#000000" fill-rule="evenodd" fill-opacity="1" /><path clip-path="url(#clip730)" d="M1208 1471.55 L1208 1473.64 L1188.42 1473.64 Q1188.7 1478.03 1191.06 1480.35 Q1193.44 1482.64 1197.68 1482.64 Q1200.13 1482.64 1202.42 1482.04 Q1204.74 1481.44 1207.01 1480.23 L1207.01 1484.26 Q1204.71 1485.23 1202.31 1485.74 Q1199.9 1486.25 1197.42 1486.25 Q1191.22 1486.25 1187.58 1482.64 Q1183.97 1479.03 1183.97 1472.87 Q1183.97 1466.51 1187.4 1462.78 Q1190.85 1459.03 1196.68 1459.03 Q1201.91 1459.03 1204.95 1462.41 Q1208 1465.77 1208 1471.55 M1203.74 1470.3 Q1203.7 1466.81 1201.77 1464.72 Q1199.88 1462.64 1196.73 1462.64 Q1193.16 1462.64 1191.01 1464.65 Q1188.88 1466.67 1188.56 1470.33 L1203.74 1470.3 Z" fill="#000000" fill-rule="evenodd" fill-opacity="1" /><path clip-path="url(#clip730)" d="M1214.55 1475.35 L1214.55 1459.65 L1218.81 1459.65 L1218.81 1475.19 Q1218.81 1478.87 1220.25 1480.72 Q1221.68 1482.55 1224.55 1482.55 Q1228 1482.55 1229.99 1480.35 Q1232.01 1478.15 1232.01 1474.35 L1232.01 1459.65 L1236.27 1459.65 L1236.27 1485.58 L1232.01 1485.58 L1232.01 1481.6 Q1230.45 1483.96 1228.39 1485.12 Q1226.36 1486.25 1223.65 1486.25 Q1219.18 1486.25 1216.87 1483.47 Q1214.55 1480.7 1214.55 1475.35 M1225.27 1459.03 L1225.27 1459.03 Z" fill="#000000" fill-rule="evenodd" fill-opacity="1" /><path clip-path="url(#clip730)" d="M1242.89 1470.7 L1255.36 1470.7 L1255.36 1474.49 L1242.89 1474.49 L1242.89 1470.7 Z" fill="#000000" fill-rule="evenodd" fill-opacity="1" /><path clip-path="url(#clip730)" d="M1280.8 1460.65 L1280.8 1464.63 Q1279 1463.64 1277.17 1463.15 Q1275.36 1462.64 1273.51 1462.64 Q1269.37 1462.64 1267.08 1465.28 Q1264.78 1467.89 1264.78 1472.64 Q1264.78 1477.39 1267.08 1480.02 Q1269.37 1482.64 1273.51 1482.64 Q1275.36 1482.64 1277.17 1482.15 Q1279 1481.64 1280.8 1480.65 L1280.8 1484.58 Q1279.02 1485.42 1277.1 1485.83 Q1275.2 1486.25 1273.05 1486.25 Q1267.19 1486.25 1263.74 1482.57 Q1260.29 1478.89 1260.29 1472.64 Q1260.29 1466.3 1263.76 1462.66 Q1267.26 1459.03 1273.33 1459.03 Q1275.29 1459.03 1277.17 1459.45 Q1279.04 1459.84 1280.8 1460.65 Z" fill="#000000" fill-rule="evenodd" fill-opacity="1" /><path clip-path="url(#clip730)" d="M1310.39 1471.55 L1310.39 1473.64 L1290.8 1473.64 Q1291.08 1478.03 1293.44 1480.35 Q1295.82 1482.64 1300.06 1482.64 Q1302.51 1482.64 1304.81 1482.04 Q1307.12 1481.44 1309.39 1480.23 L1309.39 1484.26 Q1307.1 1485.23 1304.69 1485.74 Q1302.28 1486.25 1299.81 1486.25 Q1293.6 1486.25 1289.97 1482.64 Q1286.36 1479.03 1286.36 1472.87 Q1286.36 1466.51 1289.78 1462.78 Q1293.23 1459.03 1299.07 1459.03 Q1304.3 1459.03 1307.33 1462.41 Q1310.39 1465.77 1310.39 1471.55 M1306.13 1470.3 Q1306.08 1466.81 1304.16 1464.72 Q1302.26 1462.64 1299.11 1462.64 Q1295.55 1462.64 1293.39 1464.65 Q1291.26 1466.67 1290.94 1470.33 L1306.13 1470.3 Z" fill="#000000" fill-rule="evenodd" fill-opacity="1" /><path clip-path="url(#clip730)" d="M1338.93 1469.93 L1338.93 1485.58 L1334.67 1485.58 L1334.67 1470.07 Q1334.67 1466.39 1333.23 1464.56 Q1331.8 1462.73 1328.93 1462.73 Q1325.48 1462.73 1323.49 1464.93 Q1321.5 1467.13 1321.5 1470.93 L1321.5 1485.58 L1317.21 1485.58 L1317.21 1459.65 L1321.5 1459.65 L1321.5 1463.68 Q1323.02 1461.34 1325.08 1460.19 Q1327.17 1459.03 1329.88 1459.03 Q1334.34 1459.03 1336.63 1461.81 Q1338.93 1464.56 1338.93 1469.93 Z" fill="#000000" fill-rule="evenodd" fill-opacity="1" /><path clip-path="url(#clip730)" d="M1351.63 1452.29 L1351.63 1459.65 L1360.41 1459.65 L1360.41 1462.96 L1351.63 1462.96 L1351.63 1477.04 Q1351.63 1480.21 1352.49 1481.11 Q1353.37 1482.02 1356.03 1482.02 L1360.41 1482.02 L1360.41 1485.58 L1356.03 1485.58 Q1351.1 1485.58 1349.23 1483.75 Q1347.35 1481.9 1347.35 1477.04 L1347.35 1462.96 L1344.23 1462.96 L1344.23 1459.65 L1347.35 1459.65 L1347.35 1452.29 L1351.63 1452.29 Z" fill="#000000" fill-rule="evenodd" fill-opacity="1" /><path clip-path="url(#clip730)" d="M1381.03 1463.64 Q1380.32 1463.22 1379.46 1463.03 Q1378.63 1462.83 1377.61 1462.83 Q1374 1462.83 1372.05 1465.19 Q1370.13 1467.52 1370.13 1471.92 L1370.13 1485.58 L1365.85 1485.58 L1365.85 1459.65 L1370.13 1459.65 L1370.13 1463.68 Q1371.47 1461.32 1373.63 1460.19 Q1375.78 1459.03 1378.86 1459.03 Q1379.3 1459.03 1379.83 1459.1 Q1380.36 1459.14 1381.01 1459.26 L1381.03 1463.64 Z" fill="#000000" fill-rule="evenodd" fill-opacity="1" /><path clip-path="url(#clip730)" d="M1397.28 1472.55 Q1392.12 1472.55 1390.13 1473.73 Q1388.14 1474.91 1388.14 1477.76 Q1388.14 1480.02 1389.62 1481.37 Q1391.13 1482.69 1393.69 1482.69 Q1397.24 1482.69 1399.37 1480.19 Q1401.52 1477.66 1401.52 1473.5 L1401.52 1472.55 L1397.28 1472.55 M1405.78 1470.79 L1405.78 1485.58 L1401.52 1485.58 L1401.52 1481.64 Q1400.06 1484.01 1397.88 1485.14 Q1395.71 1486.25 1392.56 1486.25 Q1388.58 1486.25 1386.22 1484.03 Q1383.88 1481.78 1383.88 1478.03 Q1383.88 1473.66 1386.8 1471.44 Q1389.74 1469.21 1395.55 1469.21 L1401.52 1469.21 L1401.52 1468.8 Q1401.52 1465.86 1399.57 1464.26 Q1397.65 1462.64 1394.16 1462.64 Q1391.94 1462.64 1389.83 1463.17 Q1387.72 1463.7 1385.78 1464.77 L1385.78 1460.83 Q1388.12 1459.93 1390.32 1459.49 Q1392.51 1459.03 1394.6 1459.03 Q1400.22 1459.03 1403 1461.95 Q1405.78 1464.86 1405.78 1470.79 Z" fill="#000000" fill-rule="evenodd" fill-opacity="1" /><path clip-path="url(#clip730)" d="M1414.55 1449.56 L1418.81 1449.56 L1418.81 1485.58 L1414.55 1485.58 L1414.55 1449.56 Z" fill="#000000" fill-rule="evenodd" fill-opacity="1" /><path clip-path="url(#clip730)" d="M1920.9 1475.35 L1920.9 1459.65 L1925.16 1459.65 L1925.16 1475.19 Q1925.16 1478.87 1926.59 1480.72 Q1928.03 1482.55 1930.9 1482.55 Q1934.35 1482.55 1936.34 1480.35 Q1938.35 1478.15 1938.35 1474.35 L1938.35 1459.65 L1942.61 1459.65 L1942.61 1485.58 L1938.35 1485.58 L1938.35 1481.6 Q1936.8 1483.96 1934.74 1485.12 Q1932.71 1486.25 1930 1486.25 Q1925.53 1486.25 1923.22 1483.47 Q1920.9 1480.7 1920.9 1475.35 M1931.62 1459.03 L1931.62 1459.03 Z" fill="#000000" fill-rule="evenodd" fill-opacity="1" /><path clip-path="url(#clip730)" d="M1967.91 1460.42 L1967.91 1464.45 Q1966.11 1463.52 1964.16 1463.06 Q1962.22 1462.59 1960.14 1462.59 Q1956.97 1462.59 1955.37 1463.57 Q1953.79 1464.54 1953.79 1466.48 Q1953.79 1467.96 1954.93 1468.82 Q1956.06 1469.65 1959.49 1470.42 L1960.95 1470.74 Q1965.48 1471.71 1967.38 1473.5 Q1969.3 1475.26 1969.3 1478.43 Q1969.3 1482.04 1966.43 1484.14 Q1963.59 1486.25 1958.59 1486.25 Q1956.5 1486.25 1954.23 1485.83 Q1951.99 1485.44 1949.49 1484.63 L1949.49 1480.23 Q1951.85 1481.46 1954.14 1482.08 Q1956.43 1482.69 1958.68 1482.69 Q1961.69 1482.69 1963.31 1481.67 Q1964.93 1480.63 1964.93 1478.75 Q1964.93 1477.02 1963.75 1476.09 Q1962.59 1475.16 1958.63 1474.31 L1957.15 1473.96 Q1953.19 1473.13 1951.43 1471.41 Q1949.67 1469.68 1949.67 1466.67 Q1949.67 1463.01 1952.27 1461.02 Q1954.86 1459.03 1959.63 1459.03 Q1961.99 1459.03 1964.07 1459.38 Q1966.15 1459.72 1967.91 1460.42 Z" fill="#000000" fill-rule="evenodd" fill-opacity="1" /><path clip-path="url(#clip730)" d="M1973.93 1470.7 L1986.41 1470.7 L1986.41 1474.49 L1973.93 1474.49 L1973.93 1470.7 Z" fill="#000000" fill-rule="evenodd" fill-opacity="1" /><path clip-path="url(#clip730)" d="M1990.71 1459.65 L1994.97 1459.65 L2000.3 1479.89 L2005.6 1459.65 L2010.62 1459.65 L2015.95 1479.89 L2021.25 1459.65 L2025.51 1459.65 L2018.72 1485.58 L2013.7 1485.58 L2008.12 1464.33 L2002.52 1485.58 L1997.5 1485.58 L1990.71 1459.65 Z" fill="#000000" fill-rule="evenodd" fill-opacity="1" /><path clip-path="url(#clip730)" d="M2054.14 1471.55 L2054.14 1473.64 L2034.56 1473.64 Q2034.83 1478.03 2037.2 1480.35 Q2039.58 1482.64 2043.82 1482.64 Q2046.27 1482.64 2048.56 1482.04 Q2050.88 1481.44 2053.15 1480.23 L2053.15 1484.26 Q2050.85 1485.23 2048.45 1485.74 Q2046.04 1486.25 2043.56 1486.25 Q2037.36 1486.25 2033.72 1482.64 Q2030.11 1479.03 2030.11 1472.87 Q2030.11 1466.51 2033.54 1462.78 Q2036.99 1459.03 2042.82 1459.03 Q2048.05 1459.03 2051.08 1462.41 Q2054.14 1465.77 2054.14 1471.55 M2049.88 1470.3 Q2049.83 1466.81 2047.91 1464.72 Q2046.02 1462.64 2042.87 1462.64 Q2039.3 1462.64 2037.15 1464.65 Q2035.02 1466.67 2034.7 1470.33 L2049.88 1470.3 Z" fill="#000000" fill-rule="evenodd" fill-opacity="1" /><path clip-path="url(#clip730)" d="M2077.66 1460.42 L2077.66 1464.45 Q2075.85 1463.52 2073.91 1463.06 Q2071.96 1462.59 2069.88 1462.59 Q2066.71 1462.59 2065.11 1463.57 Q2063.54 1464.54 2063.54 1466.48 Q2063.54 1467.96 2064.67 1468.82 Q2065.81 1469.65 2069.23 1470.42 L2070.69 1470.74 Q2075.23 1471.71 2077.13 1473.5 Q2079.05 1475.26 2079.05 1478.43 Q2079.05 1482.04 2076.18 1484.14 Q2073.33 1486.25 2068.33 1486.25 Q2066.25 1486.25 2063.98 1485.83 Q2061.73 1485.44 2059.23 1484.63 L2059.23 1480.23 Q2061.59 1481.46 2063.89 1482.08 Q2066.18 1482.69 2068.42 1482.69 Q2071.43 1482.69 2073.05 1481.67 Q2074.67 1480.63 2074.67 1478.75 Q2074.67 1477.02 2073.49 1476.09 Q2072.33 1475.16 2068.38 1474.31 L2066.89 1473.96 Q2062.94 1473.13 2061.18 1471.41 Q2059.42 1469.68 2059.42 1466.67 Q2059.42 1463.01 2062.01 1461.02 Q2064.6 1459.03 2069.37 1459.03 Q2071.73 1459.03 2073.82 1459.38 Q2075.9 1459.72 2077.66 1460.42 Z" fill="#000000" fill-rule="evenodd" fill-opacity="1" /><path clip-path="url(#clip730)" d="M2090.04 1452.29 L2090.04 1459.65 L2098.82 1459.65 L2098.82 1462.96 L2090.04 1462.96 L2090.04 1477.04 Q2090.04 1480.21 2090.9 1481.11 Q2091.78 1482.02 2094.44 1482.02 L2098.82 1482.02 L2098.82 1485.58 L2094.44 1485.58 Q2089.51 1485.58 2087.64 1483.75 Q2085.76 1481.9 2085.76 1477.04 L2085.76 1462.96 L2082.64 1462.96 L2082.64 1459.65 L2085.76 1459.65 L2085.76 1452.29 L2090.04 1452.29 Z" fill="#000000" fill-rule="evenodd" fill-opacity="1" /><path clip-path="url(#clip730)" d="M1218.32 1545.76 Q1220.39 1546.46 1222.33 1548.76 Q1224.3 1551.05 1226.28 1555.06 L1232.8 1568.04 L1225.89 1568.04 L1219.82 1555.85 Q1217.46 1551.08 1215.23 1549.52 Q1213.04 1547.96 1209.22 1547.96 L1202.21 1547.96 L1202.21 1568.04 L1195.78 1568.04 L1195.78 1520.52 L1210.3 1520.52 Q1218.45 1520.52 1222.46 1523.93 Q1226.47 1527.34 1226.47 1534.21 Q1226.47 1538.7 1224.37 1541.66 Q1222.3 1544.62 1218.32 1545.76 M1202.21 1525.81 L1202.21 1542.68 L1210.3 1542.68 Q1214.95 1542.68 1217.3 1540.54 Q1219.69 1538.38 1219.69 1534.21 Q1219.69 1530.04 1217.3 1527.94 Q1214.95 1525.81 1210.3 1525.81 L1202.21 1525.81 Z" fill="#000000" fill-rule="evenodd" fill-opacity="1" /><path clip-path="url(#clip730)" d="M1268.39 1548.76 L1268.39 1551.62 L1241.46 1551.62 Q1241.84 1557.67 1245.09 1560.85 Q1248.37 1564 1254.19 1564 Q1257.56 1564 1260.72 1563.17 Q1263.9 1562.35 1267.02 1560.69 L1267.02 1566.23 Q1263.87 1567.57 1260.56 1568.27 Q1257.25 1568.97 1253.84 1568.97 Q1245.31 1568.97 1240.31 1564 Q1235.35 1559.04 1235.35 1550.57 Q1235.35 1541.82 1240.06 1536.69 Q1244.8 1531.54 1252.82 1531.54 Q1260.01 1531.54 1264.18 1536.18 Q1268.39 1540.8 1268.39 1548.76 M1262.53 1547.04 Q1262.47 1542.23 1259.82 1539.37 Q1257.21 1536.5 1252.89 1536.5 Q1247.98 1536.5 1245.02 1539.27 Q1242.1 1542.04 1241.65 1547.07 L1262.53 1547.04 Z" fill="#000000" fill-rule="evenodd" fill-opacity="1" /><path clip-path="url(#clip730)" d="M1301.46 1549.81 Q1301.46 1543.44 1298.81 1539.94 Q1296.2 1536.44 1291.46 1536.44 Q1286.75 1536.44 1284.11 1539.94 Q1281.5 1543.44 1281.5 1549.81 Q1281.5 1556.14 1284.11 1559.64 Q1286.75 1563.14 1291.46 1563.14 Q1296.2 1563.14 1298.81 1559.64 Q1301.46 1556.14 1301.46 1549.81 M1307.31 1563.62 Q1307.31 1572.72 1303.27 1577.15 Q1299.23 1581.6 1290.89 1581.6 Q1287.8 1581.6 1285.06 1581.13 Q1282.33 1580.68 1279.75 1579.72 L1279.75 1574.03 Q1282.33 1575.43 1284.84 1576.1 Q1287.36 1576.76 1289.97 1576.76 Q1295.73 1576.76 1298.59 1573.74 Q1301.46 1570.75 1301.46 1564.67 L1301.46 1561.77 Q1299.64 1564.92 1296.81 1566.48 Q1293.98 1568.04 1290.03 1568.04 Q1283.47 1568.04 1279.46 1563.05 Q1275.45 1558.05 1275.45 1549.81 Q1275.45 1541.53 1279.46 1536.53 Q1283.47 1531.54 1290.03 1531.54 Q1293.98 1531.54 1296.81 1533.1 Q1299.64 1534.66 1301.46 1537.81 L1301.46 1532.4 L1307.31 1532.4 L1307.31 1563.62 Z" fill="#000000" fill-rule="evenodd" fill-opacity="1" /><path clip-path="url(#clip730)" d="M1319.38 1532.4 L1325.23 1532.4 L1325.23 1568.04 L1319.38 1568.04 L1319.38 1532.4 M1319.38 1518.52 L1325.23 1518.52 L1325.23 1525.93 L1319.38 1525.93 L1319.38 1518.52 Z" fill="#000000" fill-rule="evenodd" fill-opacity="1" /><path clip-path="url(#clip730)" d="M1351.3 1536.5 Q1346.59 1536.5 1343.85 1540.19 Q1341.11 1543.85 1341.11 1550.25 Q1341.11 1556.65 1343.82 1560.34 Q1346.56 1564 1351.3 1564 Q1355.98 1564 1358.72 1560.31 Q1361.45 1556.62 1361.45 1550.25 Q1361.45 1543.92 1358.72 1540.23 Q1355.98 1536.5 1351.3 1536.5 M1351.3 1531.54 Q1358.94 1531.54 1363.3 1536.5 Q1367.66 1541.47 1367.66 1550.25 Q1367.66 1559 1363.3 1564 Q1358.94 1568.97 1351.3 1568.97 Q1343.63 1568.97 1339.27 1564 Q1334.94 1559 1334.94 1550.25 Q1334.94 1541.47 1339.27 1536.5 Q1343.63 1531.54 1351.3 1531.54 Z" fill="#000000" fill-rule="evenodd" fill-opacity="1" /><path clip-path="url(#clip730)" d="M1407 1546.53 L1407 1568.04 L1401.14 1568.04 L1401.14 1546.72 Q1401.14 1541.66 1399.17 1539.14 Q1397.2 1536.63 1393.25 1536.63 Q1388.51 1536.63 1385.77 1539.65 Q1383.03 1542.68 1383.03 1547.9 L1383.03 1568.04 L1377.14 1568.04 L1377.14 1532.4 L1383.03 1532.4 L1383.03 1537.93 Q1385.13 1534.72 1387.97 1533.13 Q1390.83 1531.54 1394.55 1531.54 Q1400.7 1531.54 1403.85 1535.36 Q1407 1539.14 1407 1546.53 Z" fill="#000000" fill-rule="evenodd" fill-opacity="1" /><polyline clip-path="url(#clip732)" style="stroke:#000000; stroke-linecap:butt; stroke-linejoin:round; stroke-width:2; stroke-opacity:0.1; fill:none" points="
  250.028,1260.28 2352.76,1260.28 
  "/>
<polyline clip-path="url(#clip732)" style="stroke:#000000; stroke-linecap:butt; stroke-linejoin:round; stroke-width:2; stroke-opacity:0.1; fill:none" points="
  250.028,1057.95 2352.76,1057.95 
  "/>
<polyline clip-path="url(#clip732)" style="stroke:#000000; stroke-linecap:butt; stroke-linejoin:round; stroke-width:2; stroke-opacity:0.1; fill:none" points="
  250.028,855.619 2352.76,855.619 
  "/>
<polyline clip-path="url(#clip732)" style="stroke:#000000; stroke-linecap:butt; stroke-linejoin:round; stroke-width:2; stroke-opacity:0.1; fill:none" points="
  250.028,653.287 2352.76,653.287 
  "/>
<polyline clip-path="url(#clip732)" style="stroke:#000000; stroke-linecap:butt; stroke-linejoin:round; stroke-width:2; stroke-opacity:0.1; fill:none" points="
  250.028,450.954 2352.76,450.954 
  "/>
<polyline clip-path="url(#clip732)" style="stroke:#000000; stroke-linecap:butt; stroke-linejoin:round; stroke-width:2; stroke-opacity:0.1; fill:none" points="
  250.028,248.622 2352.76,248.622 
  "/>
<polyline clip-path="url(#clip730)" style="stroke:#000000; stroke-linecap:butt; stroke-linejoin:round; stroke-width:4; stroke-opacity:1; fill:none" points="
  250.028,1423.18 250.028,123.472 
  "/>
<polyline clip-path="url(#clip730)" style="stroke:#000000; stroke-linecap:butt; stroke-linejoin:round; stroke-width:4; stroke-opacity:1; fill:none" points="
  250.028,1260.28 268.926,1260.28 
  "/>
<polyline clip-path="url(#clip730)" style="stroke:#000000; stroke-linecap:butt; stroke-linejoin:round; stroke-width:4; stroke-opacity:1; fill:none" points="
  250.028,1057.95 268.926,1057.95 
  "/>
<polyline clip-path="url(#clip730)" style="stroke:#000000; stroke-linecap:butt; stroke-linejoin:round; stroke-width:4; stroke-opacity:1; fill:none" points="
  250.028,855.619 268.926,855.619 
  "/>
<polyline clip-path="url(#clip730)" style="stroke:#000000; stroke-linecap:butt; stroke-linejoin:round; stroke-width:4; stroke-opacity:1; fill:none" points="
  250.028,653.287 268.926,653.287 
  "/>
<polyline clip-path="url(#clip730)" style="stroke:#000000; stroke-linecap:butt; stroke-linejoin:round; stroke-width:4; stroke-opacity:1; fill:none" points="
  250.028,450.954 268.926,450.954 
  "/>
<polyline clip-path="url(#clip730)" style="stroke:#000000; stroke-linecap:butt; stroke-linejoin:round; stroke-width:4; stroke-opacity:1; fill:none" points="
  250.028,248.622 268.926,248.622 
  "/>
<path clip-path="url(#clip730)" d="M126.691 1246.08 Q123.08 1246.08 121.251 1249.65 Q119.445 1253.19 119.445 1260.32 Q119.445 1267.42 121.251 1270.99 Q123.08 1274.53 126.691 1274.53 Q130.325 1274.53 132.13 1270.99 Q133.959 1267.42 133.959 1260.32 Q133.959 1253.19 132.13 1249.65 Q130.325 1246.08 126.691 1246.08 M126.691 1242.38 Q132.501 1242.38 135.556 1246.99 Q138.635 1251.57 138.635 1260.32 Q138.635 1269.05 135.556 1273.65 Q132.501 1278.23 126.691 1278.23 Q120.88 1278.23 117.802 1273.65 Q114.746 1269.05 114.746 1260.32 Q114.746 1251.57 117.802 1246.99 Q120.88 1242.38 126.691 1242.38 Z" fill="#000000" fill-rule="evenodd" fill-opacity="1" /><path clip-path="url(#clip730)" d="M146.853 1271.68 L151.737 1271.68 L151.737 1277.56 L146.853 1277.56 L146.853 1271.68 Z" fill="#000000" fill-rule="evenodd" fill-opacity="1" /><path clip-path="url(#clip730)" d="M171.922 1246.08 Q168.311 1246.08 166.482 1249.65 Q164.677 1253.19 164.677 1260.32 Q164.677 1267.42 166.482 1270.99 Q168.311 1274.53 171.922 1274.53 Q175.556 1274.53 177.362 1270.99 Q179.19 1267.42 179.19 1260.32 Q179.19 1253.19 177.362 1249.65 Q175.556 1246.08 171.922 1246.08 M171.922 1242.38 Q177.732 1242.38 180.788 1246.99 Q183.866 1251.57 183.866 1260.32 Q183.866 1269.05 180.788 1273.65 Q177.732 1278.23 171.922 1278.23 Q166.112 1278.23 163.033 1273.65 Q159.978 1269.05 159.978 1260.32 Q159.978 1251.57 163.033 1246.99 Q166.112 1242.38 171.922 1242.38 Z" fill="#000000" fill-rule="evenodd" fill-opacity="1" /><path clip-path="url(#clip730)" d="M202.084 1246.08 Q198.473 1246.08 196.644 1249.65 Q194.838 1253.19 194.838 1260.32 Q194.838 1267.42 196.644 1270.99 Q198.473 1274.53 202.084 1274.53 Q205.718 1274.53 207.524 1270.99 Q209.352 1267.42 209.352 1260.32 Q209.352 1253.19 207.524 1249.65 Q205.718 1246.08 202.084 1246.08 M202.084 1242.38 Q207.894 1242.38 210.949 1246.99 Q214.028 1251.57 214.028 1260.32 Q214.028 1269.05 210.949 1273.65 Q207.894 1278.23 202.084 1278.23 Q196.274 1278.23 193.195 1273.65 Q190.139 1269.05 190.139 1260.32 Q190.139 1251.57 193.195 1246.99 Q196.274 1242.38 202.084 1242.38 Z" fill="#000000" fill-rule="evenodd" fill-opacity="1" /><path clip-path="url(#clip730)" d="M127.917 1043.75 Q124.306 1043.75 122.478 1047.31 Q120.672 1050.86 120.672 1057.99 Q120.672 1065.09 122.478 1068.66 Q124.306 1072.2 127.917 1072.2 Q131.552 1072.2 133.357 1068.66 Q135.186 1065.09 135.186 1057.99 Q135.186 1050.86 133.357 1047.31 Q131.552 1043.75 127.917 1043.75 M127.917 1040.05 Q133.728 1040.05 136.783 1044.65 Q139.862 1049.24 139.862 1057.99 Q139.862 1066.71 136.783 1071.32 Q133.728 1075.9 127.917 1075.9 Q122.107 1075.9 119.029 1071.32 Q115.973 1066.71 115.973 1057.99 Q115.973 1049.24 119.029 1044.65 Q122.107 1040.05 127.917 1040.05 Z" fill="#000000" fill-rule="evenodd" fill-opacity="1" /><path clip-path="url(#clip730)" d="M148.079 1069.35 L152.964 1069.35 L152.964 1075.23 L148.079 1075.23 L148.079 1069.35 Z" fill="#000000" fill-rule="evenodd" fill-opacity="1" /><path clip-path="url(#clip730)" d="M173.149 1043.75 Q169.538 1043.75 167.709 1047.31 Q165.903 1050.86 165.903 1057.99 Q165.903 1065.09 167.709 1068.66 Q169.538 1072.2 173.149 1072.2 Q176.783 1072.2 178.589 1068.66 Q180.417 1065.09 180.417 1057.99 Q180.417 1050.86 178.589 1047.31 Q176.783 1043.75 173.149 1043.75 M173.149 1040.05 Q178.959 1040.05 182.014 1044.65 Q185.093 1049.24 185.093 1057.99 Q185.093 1066.71 182.014 1071.32 Q178.959 1075.9 173.149 1075.9 Q167.339 1075.9 164.26 1071.32 Q161.204 1066.71 161.204 1057.99 Q161.204 1049.24 164.26 1044.65 Q167.339 1040.05 173.149 1040.05 Z" fill="#000000" fill-rule="evenodd" fill-opacity="1" /><path clip-path="url(#clip730)" d="M194.121 1071.3 L201.76 1071.3 L201.76 1044.93 L193.45 1046.6 L193.45 1042.34 L201.713 1040.67 L206.389 1040.67 L206.389 1071.3 L214.028 1071.3 L214.028 1075.23 L194.121 1075.23 L194.121 1071.3 Z" fill="#000000" fill-rule="evenodd" fill-opacity="1" /><path clip-path="url(#clip730)" d="M128.288 841.418 Q124.677 841.418 122.848 844.982 Q121.043 848.524 121.043 855.654 Q121.043 862.76 122.848 866.325 Q124.677 869.866 128.288 869.866 Q131.922 869.866 133.728 866.325 Q135.556 862.76 135.556 855.654 Q135.556 848.524 133.728 844.982 Q131.922 841.418 128.288 841.418 M128.288 837.714 Q134.098 837.714 137.154 842.32 Q140.232 846.904 140.232 855.654 Q140.232 864.38 137.154 868.987 Q134.098 873.57 128.288 873.57 Q122.478 873.57 119.399 868.987 Q116.343 864.38 116.343 855.654 Q116.343 846.904 119.399 842.32 Q122.478 837.714 128.288 837.714 Z" fill="#000000" fill-rule="evenodd" fill-opacity="1" /><path clip-path="url(#clip730)" d="M148.45 867.019 L153.334 867.019 L153.334 872.899 L148.45 872.899 L148.45 867.019 Z" fill="#000000" fill-rule="evenodd" fill-opacity="1" /><path clip-path="url(#clip730)" d="M173.519 841.418 Q169.908 841.418 168.079 844.982 Q166.274 848.524 166.274 855.654 Q166.274 862.76 168.079 866.325 Q169.908 869.866 173.519 869.866 Q177.153 869.866 178.959 866.325 Q180.788 862.76 180.788 855.654 Q180.788 848.524 178.959 844.982 Q177.153 841.418 173.519 841.418 M173.519 837.714 Q179.329 837.714 182.385 842.32 Q185.463 846.904 185.463 855.654 Q185.463 864.38 182.385 868.987 Q179.329 873.57 173.519 873.57 Q167.709 873.57 164.63 868.987 Q161.575 864.38 161.575 855.654 Q161.575 846.904 164.63 842.32 Q167.709 837.714 173.519 837.714 Z" fill="#000000" fill-rule="evenodd" fill-opacity="1" /><path clip-path="url(#clip730)" d="M197.709 868.964 L214.028 868.964 L214.028 872.899 L192.084 872.899 L192.084 868.964 Q194.746 866.209 199.329 861.58 Q203.936 856.927 205.116 855.584 Q207.362 853.061 208.241 851.325 Q209.144 849.566 209.144 847.876 Q209.144 845.121 207.199 843.385 Q205.278 841.649 202.176 841.649 Q199.977 841.649 197.524 842.413 Q195.093 843.177 192.315 844.728 L192.315 840.006 Q195.139 838.871 197.593 838.293 Q200.047 837.714 202.084 837.714 Q207.454 837.714 210.649 840.399 Q213.843 843.084 213.843 847.575 Q213.843 849.705 213.033 851.626 Q212.246 853.524 210.139 856.117 Q209.561 856.788 206.459 860.005 Q203.357 863.2 197.709 868.964 Z" fill="#000000" fill-rule="evenodd" fill-opacity="1" /><path clip-path="url(#clip730)" d="M127.339 639.085 Q123.728 639.085 121.899 642.65 Q120.093 646.192 120.093 653.321 Q120.093 660.428 121.899 663.992 Q123.728 667.534 127.339 667.534 Q130.973 667.534 132.779 663.992 Q134.607 660.428 134.607 653.321 Q134.607 646.192 132.779 642.65 Q130.973 639.085 127.339 639.085 M127.339 635.382 Q133.149 635.382 136.204 639.988 Q139.283 644.571 139.283 653.321 Q139.283 662.048 136.204 666.655 Q133.149 671.238 127.339 671.238 Q121.529 671.238 118.45 666.655 Q115.394 662.048 115.394 653.321 Q115.394 644.571 118.45 639.988 Q121.529 635.382 127.339 635.382 Z" fill="#000000" fill-rule="evenodd" fill-opacity="1" /><path clip-path="url(#clip730)" d="M147.501 664.687 L152.385 664.687 L152.385 670.567 L147.501 670.567 L147.501 664.687 Z" fill="#000000" fill-rule="evenodd" fill-opacity="1" /><path clip-path="url(#clip730)" d="M172.57 639.085 Q168.959 639.085 167.13 642.65 Q165.325 646.192 165.325 653.321 Q165.325 660.428 167.13 663.992 Q168.959 667.534 172.57 667.534 Q176.204 667.534 178.01 663.992 Q179.839 660.428 179.839 653.321 Q179.839 646.192 178.01 642.65 Q176.204 639.085 172.57 639.085 M172.57 635.382 Q178.38 635.382 181.436 639.988 Q184.514 644.571 184.514 653.321 Q184.514 662.048 181.436 666.655 Q178.38 671.238 172.57 671.238 Q166.76 671.238 163.681 666.655 Q160.626 662.048 160.626 653.321 Q160.626 644.571 163.681 639.988 Q166.76 635.382 172.57 635.382 Z" fill="#000000" fill-rule="evenodd" fill-opacity="1" /><path clip-path="url(#clip730)" d="M206.899 651.932 Q210.255 652.65 212.13 654.918 Q214.028 657.187 214.028 660.52 Q214.028 665.636 210.51 668.437 Q206.991 671.238 200.51 671.238 Q198.334 671.238 196.019 670.798 Q193.727 670.381 191.274 669.525 L191.274 665.011 Q193.218 666.145 195.533 666.724 Q197.848 667.303 200.371 667.303 Q204.769 667.303 207.061 665.567 Q209.375 663.83 209.375 660.52 Q209.375 657.465 207.223 655.752 Q205.093 654.016 201.274 654.016 L197.246 654.016 L197.246 650.173 L201.459 650.173 Q204.908 650.173 206.737 648.807 Q208.565 647.418 208.565 644.826 Q208.565 642.164 206.667 640.752 Q204.792 639.317 201.274 639.317 Q199.352 639.317 197.153 639.733 Q194.954 640.15 192.315 641.03 L192.315 636.863 Q194.977 636.122 197.292 635.752 Q199.63 635.382 201.69 635.382 Q207.014 635.382 210.116 637.812 Q213.218 640.219 213.218 644.34 Q213.218 647.21 211.574 649.201 Q209.931 651.168 206.899 651.932 Z" fill="#000000" fill-rule="evenodd" fill-opacity="1" /><path clip-path="url(#clip730)" d="M126.205 436.753 Q122.593 436.753 120.765 440.318 Q118.959 443.859 118.959 450.989 Q118.959 458.095 120.765 461.66 Q122.593 465.202 126.205 465.202 Q129.839 465.202 131.644 461.66 Q133.473 458.095 133.473 450.989 Q133.473 443.859 131.644 440.318 Q129.839 436.753 126.205 436.753 M126.205 433.049 Q132.015 433.049 135.07 437.656 Q138.149 442.239 138.149 450.989 Q138.149 459.716 135.07 464.322 Q132.015 468.905 126.205 468.905 Q120.394 468.905 117.316 464.322 Q114.26 459.716 114.26 450.989 Q114.26 442.239 117.316 437.656 Q120.394 433.049 126.205 433.049 Z" fill="#000000" fill-rule="evenodd" fill-opacity="1" /><path clip-path="url(#clip730)" d="M146.366 462.355 L151.251 462.355 L151.251 468.234 L146.366 468.234 L146.366 462.355 Z" fill="#000000" fill-rule="evenodd" fill-opacity="1" /><path clip-path="url(#clip730)" d="M171.436 436.753 Q167.825 436.753 165.996 440.318 Q164.19 443.859 164.19 450.989 Q164.19 458.095 165.996 461.66 Q167.825 465.202 171.436 465.202 Q175.07 465.202 176.876 461.66 Q178.704 458.095 178.704 450.989 Q178.704 443.859 176.876 440.318 Q175.07 436.753 171.436 436.753 M171.436 433.049 Q177.246 433.049 180.301 437.656 Q183.38 442.239 183.38 450.989 Q183.38 459.716 180.301 464.322 Q177.246 468.905 171.436 468.905 Q165.626 468.905 162.547 464.322 Q159.491 459.716 159.491 450.989 Q159.491 442.239 162.547 437.656 Q165.626 433.049 171.436 433.049 Z" fill="#000000" fill-rule="evenodd" fill-opacity="1" /><path clip-path="url(#clip730)" d="M204.445 437.748 L192.639 456.197 L204.445 456.197 L204.445 437.748 M203.218 433.674 L209.098 433.674 L209.098 456.197 L214.028 456.197 L214.028 460.086 L209.098 460.086 L209.098 468.234 L204.445 468.234 L204.445 460.086 L188.843 460.086 L188.843 455.572 L203.218 433.674 Z" fill="#000000" fill-rule="evenodd" fill-opacity="1" /><path clip-path="url(#clip730)" d="M127.686 234.42 Q124.075 234.42 122.246 237.985 Q120.441 241.527 120.441 248.657 Q120.441 255.763 122.246 259.328 Q124.075 262.869 127.686 262.869 Q131.32 262.869 133.126 259.328 Q134.954 255.763 134.954 248.657 Q134.954 241.527 133.126 237.985 Q131.32 234.42 127.686 234.42 M127.686 230.717 Q133.496 230.717 136.552 235.323 Q139.63 239.907 139.63 248.657 Q139.63 257.383 136.552 261.99 Q133.496 266.573 127.686 266.573 Q121.876 266.573 118.797 261.99 Q115.742 257.383 115.742 248.657 Q115.742 239.907 118.797 235.323 Q121.876 230.717 127.686 230.717 Z" fill="#000000" fill-rule="evenodd" fill-opacity="1" /><path clip-path="url(#clip730)" d="M147.848 260.022 L152.732 260.022 L152.732 265.902 L147.848 265.902 L147.848 260.022 Z" fill="#000000" fill-rule="evenodd" fill-opacity="1" /><path clip-path="url(#clip730)" d="M172.917 234.42 Q169.306 234.42 167.477 237.985 Q165.672 241.527 165.672 248.657 Q165.672 255.763 167.477 259.328 Q169.306 262.869 172.917 262.869 Q176.551 262.869 178.357 259.328 Q180.186 255.763 180.186 248.657 Q180.186 241.527 178.357 237.985 Q176.551 234.42 172.917 234.42 M172.917 230.717 Q178.727 230.717 181.783 235.323 Q184.862 239.907 184.862 248.657 Q184.862 257.383 181.783 261.99 Q178.727 266.573 172.917 266.573 Q167.107 266.573 164.028 261.99 Q160.973 257.383 160.973 248.657 Q160.973 239.907 164.028 235.323 Q167.107 230.717 172.917 230.717 Z" fill="#000000" fill-rule="evenodd" fill-opacity="1" /><path clip-path="url(#clip730)" d="M193.125 231.342 L211.482 231.342 L211.482 235.277 L197.408 235.277 L197.408 243.749 Q198.426 243.402 199.445 243.24 Q200.463 243.055 201.482 243.055 Q207.269 243.055 210.649 246.226 Q214.028 249.397 214.028 254.814 Q214.028 260.393 210.556 263.494 Q207.084 266.573 200.764 266.573 Q198.588 266.573 196.32 266.203 Q194.075 265.832 191.667 265.092 L191.667 260.393 Q193.75 261.527 195.973 262.082 Q198.195 262.638 200.672 262.638 Q204.676 262.638 207.014 260.531 Q209.352 258.425 209.352 254.814 Q209.352 251.203 207.014 249.096 Q204.676 246.99 200.672 246.99 Q198.797 246.99 196.922 247.407 Q195.07 247.823 193.125 248.703 L193.125 231.342 Z" fill="#000000" fill-rule="evenodd" fill-opacity="1" /><path clip-path="url(#clip730)" d="M20.1444 1116.91 L26.9239 1116.91 Q23.9002 1120.16 22.4043 1123.85 Q20.9083 1127.51 20.9083 1131.65 Q20.9083 1139.8 25.9054 1144.13 Q30.8707 1148.46 40.2919 1148.46 Q49.6813 1148.46 54.6784 1144.13 Q59.6436 1139.8 59.6436 1131.65 Q59.6436 1127.51 58.1477 1123.85 Q56.6518 1120.16 53.6281 1116.91 L60.3439 1116.91 Q62.6355 1120.29 63.7814 1124.08 Q64.9272 1127.83 64.9272 1132.03 Q64.9272 1142.82 58.3387 1149.03 Q51.7183 1155.24 40.2919 1155.24 Q28.8336 1155.24 22.2451 1149.03 Q15.6248 1142.82 15.6248 1132.03 Q15.6248 1127.77 16.7706 1124.01 Q17.8846 1120.23 20.1444 1116.91 Z" fill="#000000" fill-rule="evenodd" fill-opacity="1" /><path clip-path="url(#clip730)" d="M42.4881 1077.61 L64.0042 1077.61 L64.0042 1083.46 L42.679 1083.46 Q37.6183 1083.46 35.1038 1085.44 Q32.5894 1087.41 32.5894 1091.36 Q32.5894 1096.1 35.6131 1098.84 Q38.6368 1101.57 43.8567 1101.57 L64.0042 1101.57 L64.0042 1107.46 L14.479 1107.46 L14.479 1101.57 L33.8944 1101.57 Q30.6797 1099.47 29.0883 1096.64 Q27.4968 1093.78 27.4968 1090.05 Q27.4968 1083.91 31.3163 1080.76 Q35.1038 1077.61 42.4881 1077.61 Z" fill="#000000" fill-rule="evenodd" fill-opacity="1" /><path clip-path="url(#clip730)" d="M46.0847 1049.72 Q46.0847 1056.82 47.7079 1059.56 Q49.3312 1062.3 53.2461 1062.3 Q56.3653 1062.3 58.2114 1060.26 Q60.0256 1058.19 60.0256 1054.66 Q60.0256 1049.79 56.5881 1046.86 Q53.1188 1043.9 47.3897 1043.9 L46.0847 1043.9 L46.0847 1049.72 M43.6657 1038.04 L64.0042 1038.04 L64.0042 1043.9 L58.5933 1043.9 Q61.8398 1045.91 63.3994 1048.9 Q64.9272 1051.89 64.9272 1056.22 Q64.9272 1061.69 61.8716 1064.94 Q58.7843 1068.15 53.6281 1068.15 Q47.6125 1068.15 44.5569 1064.14 Q41.5014 1060.1 41.5014 1052.11 L41.5014 1043.9 L40.9285 1043.9 Q36.8862 1043.9 34.6901 1046.57 Q32.4621 1049.22 32.4621 1054.02 Q32.4621 1057.08 33.1941 1059.97 Q33.9262 1062.87 35.3903 1065.54 L29.9795 1065.54 Q28.7381 1062.33 28.1334 1059.31 Q27.4968 1056.28 27.4968 1053.42 Q27.4968 1045.68 31.5072 1041.86 Q35.5176 1038.04 43.6657 1038.04 Z" fill="#000000" fill-rule="evenodd" fill-opacity="1" /><path clip-path="url(#clip730)" d="M42.4881 996.349 L64.0042 996.349 L64.0042 1002.2 L42.679 1002.2 Q37.6183 1002.2 35.1038 1004.18 Q32.5894 1006.15 32.5894 1010.1 Q32.5894 1014.84 35.6131 1017.58 Q38.6368 1020.32 43.8567 1020.32 L64.0042 1020.32 L64.0042 1026.2 L28.3562 1026.2 L28.3562 1020.32 L33.8944 1020.32 Q30.6797 1018.21 29.0883 1015.38 Q27.4968 1012.52 27.4968 1008.79 Q27.4968 1002.65 31.3163 999.5 Q35.1038 996.349 42.4881 996.349 Z" fill="#000000" fill-rule="evenodd" fill-opacity="1" /><path clip-path="url(#clip730)" d="M45.7664 961.21 Q39.4007 961.21 35.8996 963.852 Q32.3984 966.462 32.3984 971.204 Q32.3984 975.915 35.8996 978.556 Q39.4007 981.166 45.7664 981.166 Q52.1003 981.166 55.6014 978.556 Q59.1026 975.915 59.1026 971.204 Q59.1026 966.462 55.6014 963.852 Q52.1003 961.21 45.7664 961.21 M59.58 955.353 Q68.683 955.353 73.1071 959.396 Q77.5631 963.438 77.5631 971.777 Q77.5631 974.864 77.0857 977.602 Q76.6401 980.339 75.6852 982.917 L69.9879 982.917 Q71.3884 980.339 72.0568 977.824 Q72.7252 975.31 72.7252 972.7 Q72.7252 966.939 69.7015 964.074 Q66.7096 961.21 60.6303 961.21 L57.7339 961.21 Q60.885 963.024 62.4446 965.857 Q64.0042 968.69 64.0042 972.636 Q64.0042 979.193 59.0071 983.203 Q54.01 987.214 45.7664 987.214 Q37.491 987.214 32.4939 983.203 Q27.4968 979.193 27.4968 972.636 Q27.4968 968.69 29.0564 965.857 Q30.616 963.024 33.7671 961.21 L28.3562 961.21 L28.3562 955.353 L59.58 955.353 Z" fill="#000000" fill-rule="evenodd" fill-opacity="1" /><path clip-path="url(#clip730)" d="M44.7161 912.799 L47.5806 912.799 L47.5806 939.726 Q53.6281 939.344 56.8109 936.097 Q59.9619 932.819 59.9619 926.994 Q59.9619 923.62 59.1344 920.469 Q58.3069 917.286 56.6518 914.167 L62.1899 914.167 Q63.5267 917.318 64.227 920.628 Q64.9272 923.939 64.9272 927.344 Q64.9272 935.874 59.9619 940.871 Q54.9967 945.837 46.5303 945.837 Q37.7774 945.837 32.6531 941.126 Q27.4968 936.384 27.4968 928.363 Q27.4968 921.17 32.1438 917 Q36.7589 912.799 44.7161 912.799 M42.9973 918.655 Q38.1912 918.719 35.3266 921.36 Q32.4621 923.97 32.4621 928.299 Q32.4621 933.201 35.2312 936.161 Q38.0002 939.089 43.0292 939.535 L42.9973 918.655 Z" fill="#000000" fill-rule="evenodd" fill-opacity="1" /><path clip-path="url(#clip730)" d="M58.657 876.801 L77.5631 876.801 L77.5631 882.689 L28.3562 882.689 L28.3562 876.801 L33.7671 876.801 Q30.5842 874.954 29.0564 872.154 Q27.4968 869.321 27.4968 865.406 Q27.4968 858.913 32.6531 854.871 Q37.8093 850.797 46.212 850.797 Q54.6147 850.797 59.771 854.871 Q64.9272 858.913 64.9272 865.406 Q64.9272 869.321 63.3994 872.154 Q61.8398 874.954 58.657 876.801 M46.212 856.876 Q39.7508 856.876 36.0905 859.549 Q32.3984 862.191 32.3984 866.838 Q32.3984 871.485 36.0905 874.159 Q39.7508 876.801 46.212 876.801 Q52.6732 876.801 56.3653 874.159 Q60.0256 871.485 60.0256 866.838 Q60.0256 862.191 56.3653 859.549 Q52.6732 856.876 46.212 856.876 Z" fill="#000000" fill-rule="evenodd" fill-opacity="1" /><path clip-path="url(#clip730)" d="M44.7161 810.597 L47.5806 810.597 L47.5806 837.524 Q53.6281 837.142 56.8109 833.896 Q59.9619 830.617 59.9619 824.793 Q59.9619 821.419 59.1344 818.268 Q58.3069 815.085 56.6518 811.966 L62.1899 811.966 Q63.5267 815.117 64.227 818.427 Q64.9272 821.737 64.9272 825.143 Q64.9272 833.673 59.9619 838.67 Q54.9967 843.635 46.5303 843.635 Q37.7774 843.635 32.6531 838.925 Q27.4968 834.182 27.4968 826.161 Q27.4968 818.968 32.1438 814.799 Q36.7589 810.597 44.7161 810.597 M42.9973 816.454 Q38.1912 816.517 35.3266 819.159 Q32.4621 821.769 32.4621 826.098 Q32.4621 830.999 35.2312 833.959 Q38.0002 836.888 43.0292 837.333 L42.9973 816.454 Z" fill="#000000" fill-rule="evenodd" fill-opacity="1" /><path clip-path="url(#clip730)" d="M33.8307 780.328 Q33.2578 781.315 33.0032 782.493 Q32.7167 783.638 32.7167 785.039 Q32.7167 790.004 35.9632 792.678 Q39.1779 795.32 45.2253 795.32 L64.0042 795.32 L64.0042 801.208 L28.3562 801.208 L28.3562 795.32 L33.8944 795.32 Q30.6479 793.473 29.0883 790.513 Q27.4968 787.553 27.4968 783.32 Q27.4968 782.715 27.5923 781.983 Q27.656 781.251 27.8151 780.36 L33.8307 780.328 Z" fill="#000000" fill-rule="evenodd" fill-opacity="1" /><path clip-path="url(#clip730)" d="M33.7671 730.007 L14.479 730.007 L14.479 724.151 L64.0042 724.151 L64.0042 730.007 L58.657 730.007 Q61.8398 731.853 63.3994 734.686 Q64.9272 737.487 64.9272 741.434 Q64.9272 747.895 59.771 751.969 Q54.6147 756.011 46.212 756.011 Q37.8093 756.011 32.6531 751.969 Q27.4968 747.895 27.4968 741.434 Q27.4968 737.487 29.0564 734.686 Q30.5842 731.853 33.7671 730.007 M46.212 749.964 Q52.6732 749.964 56.3653 747.322 Q60.0256 744.648 60.0256 740.002 Q60.0256 735.355 56.3653 732.681 Q52.6732 730.007 46.212 730.007 Q39.7508 730.007 36.0905 732.681 Q32.3984 735.355 32.3984 740.002 Q32.3984 744.648 36.0905 747.322 Q39.7508 749.964 46.212 749.964 Z" fill="#000000" fill-rule="evenodd" fill-opacity="1" /><path clip-path="url(#clip730)" d="M46.0847 695.887 Q46.0847 702.985 47.7079 705.722 Q49.3312 708.459 53.2461 708.459 Q56.3653 708.459 58.2114 706.422 Q60.0256 704.354 60.0256 700.821 Q60.0256 695.951 56.5881 693.023 Q53.1188 690.063 47.3897 690.063 L46.0847 690.063 L46.0847 695.887 M43.6657 684.206 L64.0042 684.206 L64.0042 690.063 L58.5933 690.063 Q61.8398 692.068 63.3994 695.06 Q64.9272 698.052 64.9272 702.38 Q64.9272 707.855 61.8716 711.101 Q58.7843 714.316 53.6281 714.316 Q47.6125 714.316 44.5569 710.305 Q41.5014 706.263 41.5014 698.274 L41.5014 690.063 L40.9285 690.063 Q36.8862 690.063 34.6901 692.736 Q32.4621 695.378 32.4621 700.184 Q32.4621 703.24 33.1941 706.136 Q33.9262 709.032 35.3903 711.706 L29.9795 711.706 Q28.7381 708.491 28.1334 705.468 Q27.4968 702.444 27.4968 699.579 Q27.4968 691.845 31.5072 688.026 Q35.5176 684.206 43.6657 684.206 Z" fill="#000000" fill-rule="evenodd" fill-opacity="1" /><path clip-path="url(#clip730)" d="M67.3143 657.311 Q73.68 659.794 75.6216 662.149 Q77.5631 664.504 77.5631 668.451 L77.5631 673.13 L72.6615 673.13 L72.6615 669.692 Q72.6615 667.273 71.5157 665.937 Q70.3699 664.6 66.1048 662.976 L63.4312 661.926 L28.3562 676.344 L28.3562 670.138 L56.238 658.998 L28.3562 647.858 L28.3562 641.651 L67.3143 657.311 Z" fill="#000000" fill-rule="evenodd" fill-opacity="1" /><path clip-path="url(#clip730)" d="M14.5426 598.778 Q21.8632 603.043 29.0246 605.112 Q36.186 607.181 43.5384 607.181 Q50.8908 607.181 58.1159 605.112 Q65.3091 603.012 72.5979 598.778 L72.5979 603.871 Q65.1182 608.645 57.8931 611.032 Q50.668 613.388 43.5384 613.388 Q36.4406 613.388 29.2474 611.032 Q22.0542 608.677 14.5426 603.871 L14.5426 598.778 Z" fill="#000000" fill-rule="evenodd" fill-opacity="1" /><path clip-path="url(#clip730)" d="M14.479 587.416 L14.479 581.559 L64.0042 581.559 L64.0042 587.416 L14.479 587.416 Z" fill="#000000" fill-rule="evenodd" fill-opacity="1" /><path clip-path="url(#clip730)" d="M32.4621 555.492 Q32.4621 560.202 36.1542 562.939 Q39.8145 565.677 46.212 565.677 Q52.6095 565.677 56.3017 562.971 Q59.9619 560.234 59.9619 555.492 Q59.9619 550.813 56.2698 548.075 Q52.5777 545.338 46.212 545.338 Q39.8781 545.338 36.186 548.075 Q32.4621 550.813 32.4621 555.492 M27.4968 555.492 Q27.4968 547.853 32.4621 543.492 Q37.4273 539.132 46.212 539.132 Q54.9649 539.132 59.9619 543.492 Q64.9272 547.853 64.9272 555.492 Q64.9272 563.162 59.9619 567.523 Q54.9649 571.851 46.212 571.851 Q37.4273 571.851 32.4621 567.523 Q27.4968 563.162 27.4968 555.492 Z" fill="#000000" fill-rule="evenodd" fill-opacity="1" /><path clip-path="url(#clip730)" d="M45.7664 505.966 Q39.4007 505.966 35.8996 508.608 Q32.3984 511.218 32.3984 515.96 Q32.3984 520.671 35.8996 523.313 Q39.4007 525.923 45.7664 525.923 Q52.1003 525.923 55.6014 523.313 Q59.1026 520.671 59.1026 515.96 Q59.1026 511.218 55.6014 508.608 Q52.1003 505.966 45.7664 505.966 M59.58 500.11 Q68.683 500.11 73.1071 504.152 Q77.5631 508.194 77.5631 516.533 Q77.5631 519.621 77.0857 522.358 Q76.6401 525.095 75.6852 527.673 L69.9879 527.673 Q71.3884 525.095 72.0568 522.581 Q72.7252 520.066 72.7252 517.456 Q72.7252 511.695 69.7015 508.831 Q66.7096 505.966 60.6303 505.966 L57.7339 505.966 Q60.885 507.781 62.4446 510.613 Q64.0042 513.446 64.0042 517.393 Q64.0042 523.949 59.0071 527.96 Q54.01 531.97 45.7664 531.97 Q37.491 531.97 32.4939 527.96 Q27.4968 523.949 27.4968 517.393 Q27.4968 513.446 29.0564 510.613 Q30.616 507.781 33.7671 505.966 L28.3562 505.966 L28.3562 500.11 L59.58 500.11 Z" fill="#000000" fill-rule="evenodd" fill-opacity="1" /><path clip-path="url(#clip730)" d="M58.5933 486.105 L58.5933 475.602 L22.3406 475.602 L24.6323 487.028 L18.7758 487.028 L16.4842 475.666 L16.4842 469.236 L58.5933 469.236 L58.5933 458.733 L64.0042 458.733 L64.0042 486.105 L58.5933 486.105 Z" fill="#000000" fill-rule="evenodd" fill-opacity="1" /><path clip-path="url(#clip730)" d="M20.7174 431.997 Q20.7174 436.962 25.6189 439.476 Q30.4887 441.959 40.2919 441.959 Q50.0633 441.959 54.9649 439.476 Q59.8346 436.962 59.8346 431.997 Q59.8346 427 54.9649 424.517 Q50.0633 422.003 40.2919 422.003 Q30.4887 422.003 25.6189 424.517 Q20.7174 427 20.7174 431.997 M15.6248 431.997 Q15.6248 424.008 21.9587 419.806 Q28.2607 415.573 40.2919 415.573 Q52.2913 415.573 58.6251 419.806 Q64.9272 424.008 64.9272 431.997 Q64.9272 439.986 58.6251 444.219 Q52.2913 448.42 40.2919 448.42 Q28.2607 448.42 21.9587 444.219 Q15.6248 439.986 15.6248 431.997 Z" fill="#000000" fill-rule="evenodd" fill-opacity="1" /><path clip-path="url(#clip730)" d="M14.5426 406.025 L14.5426 400.932 Q22.0542 396.158 29.2474 393.803 Q36.4406 391.415 43.5384 391.415 Q50.668 391.415 57.8931 393.803 Q65.1182 396.158 72.5979 400.932 L72.5979 406.025 Q65.3091 401.792 58.1159 399.723 Q50.8908 397.622 43.5384 397.622 Q36.186 397.622 29.0246 399.723 Q21.8632 401.792 14.5426 406.025 Z" fill="#000000" fill-rule="evenodd" fill-opacity="1" /><path clip-path="url(#clip730)" d="M394.03 12.096 L445.193 12.096 L445.193 18.9825 L423.723 18.9825 L423.723 72.576 L415.5 72.576 L415.5 18.9825 L394.03 18.9825 L394.03 12.096 Z" fill="#000000" fill-rule="evenodd" fill-opacity="1" /><path clip-path="url(#clip730)" d="M466.865 34.1734 Q465.609 33.4443 464.111 33.1202 Q462.652 32.7556 460.87 32.7556 Q454.55 32.7556 451.148 36.8875 Q447.785 40.9789 447.785 48.6757 L447.785 72.576 L440.291 72.576 L440.291 27.2059 L447.785 27.2059 L447.785 34.2544 Q450.135 30.1225 453.902 28.1376 Q457.67 26.1121 463.057 26.1121 Q463.827 26.1121 464.759 26.2337 Q465.69 26.3147 466.825 26.5172 L466.865 34.1734 Z" fill="#000000" fill-rule="evenodd" fill-opacity="1" /><path clip-path="url(#clip730)" d="M511.668 48.0275 L511.668 51.6733 L477.398 51.6733 Q477.884 59.3701 482.016 63.421 Q486.188 67.4314 493.601 67.4314 Q497.895 67.4314 501.906 66.3781 Q505.956 65.3249 509.926 63.2184 L509.926 70.267 Q505.916 71.9684 501.703 72.8596 Q497.49 73.7508 493.156 73.7508 Q482.299 73.7508 475.939 67.4314 Q469.62 61.1119 469.62 50.3365 Q469.62 39.1965 475.615 32.6746 Q481.651 26.1121 491.859 26.1121 Q501.014 26.1121 506.321 32.0264 Q511.668 37.9003 511.668 48.0275 M504.215 45.84 Q504.134 39.7232 500.771 36.0774 Q497.45 32.4315 491.94 32.4315 Q485.702 32.4315 481.935 35.9558 Q478.208 39.4801 477.641 45.8805 L504.215 45.84 Z" fill="#000000" fill-rule="evenodd" fill-opacity="1" /><path clip-path="url(#clip730)" d="M561.616 45.1919 L561.616 72.576 L554.162 72.576 L554.162 45.4349 Q554.162 38.994 551.651 35.7938 Q549.139 32.5936 544.116 32.5936 Q538.08 32.5936 534.596 36.4419 Q531.113 40.2903 531.113 46.9338 L531.113 72.576 L523.618 72.576 L523.618 27.2059 L531.113 27.2059 L531.113 34.2544 Q533.786 30.163 537.391 28.1376 Q541.037 26.1121 545.777 26.1121 Q553.595 26.1121 557.605 30.9732 Q561.616 35.7938 561.616 45.1919 Z" fill="#000000" fill-rule="evenodd" fill-opacity="1" /><path clip-path="url(#clip730)" d="M606.338 34.0924 L606.338 9.54393 L613.792 9.54393 L613.792 72.576 L606.338 72.576 L606.338 65.7705 Q603.988 69.8214 600.383 71.8063 Q596.818 73.7508 591.795 73.7508 Q583.572 73.7508 578.387 67.1883 Q573.242 60.6258 573.242 49.9314 Q573.242 39.2371 578.387 32.6746 Q583.572 26.1121 591.795 26.1121 Q596.818 26.1121 600.383 28.0971 Q603.988 30.0415 606.338 34.0924 M580.939 49.9314 Q580.939 58.1548 584.301 62.8538 Q587.704 67.5124 593.618 67.5124 Q599.532 67.5124 602.935 62.8538 Q606.338 58.1548 606.338 49.9314 Q606.338 41.7081 602.935 37.0496 Q599.532 32.3505 593.618 32.3505 Q587.704 32.3505 584.301 37.0496 Q580.939 41.7081 580.939 49.9314 Z" fill="#000000" fill-rule="evenodd" fill-opacity="1" /><path clip-path="url(#clip730)" d="M658.068 28.5427 L658.068 35.5912 Q654.908 33.9709 651.505 33.1607 Q648.103 32.3505 644.457 32.3505 Q638.907 32.3505 636.112 34.0519 Q633.357 35.7533 633.357 39.156 Q633.357 41.7486 635.342 43.2475 Q637.327 44.7058 643.323 46.0426 L645.875 46.6097 Q653.814 48.3111 657.136 51.4303 Q660.498 54.509 660.498 60.0587 Q660.498 66.3781 655.475 70.0644 Q650.493 73.7508 641.743 73.7508 Q638.097 73.7508 634.127 73.0216 Q630.198 72.3329 625.823 70.9151 L625.823 63.2184 Q629.955 65.3654 633.965 66.4591 Q637.975 67.5124 641.905 67.5124 Q647.171 67.5124 650.007 65.73 Q652.842 63.9071 652.842 60.6258 Q652.842 57.5877 650.776 55.9673 Q648.751 54.3469 641.824 52.8481 L639.231 52.2405 Q632.304 50.7821 629.225 47.7845 Q626.147 44.7463 626.147 39.4801 Q626.147 33.0797 630.684 29.5959 Q635.221 26.1121 643.566 26.1121 Q647.698 26.1121 651.343 26.7198 Q654.989 27.3274 658.068 28.5427 Z" fill="#000000" fill-rule="evenodd" fill-opacity="1" /><path clip-path="url(#clip730)" d="M698.739 27.2059 L706.193 27.2059 L706.193 72.576 L698.739 72.576 L698.739 27.2059 M698.739 9.54393 L706.193 9.54393 L706.193 18.9825 L698.739 18.9825 L698.739 9.54393 Z" fill="#000000" fill-rule="evenodd" fill-opacity="1" /><path clip-path="url(#clip730)" d="M759.503 45.1919 L759.503 72.576 L752.049 72.576 L752.049 45.4349 Q752.049 38.994 749.537 35.7938 Q747.026 32.5936 742.003 32.5936 Q735.967 32.5936 732.483 36.4419 Q728.999 40.2903 728.999 46.9338 L728.999 72.576 L721.505 72.576 L721.505 27.2059 L728.999 27.2059 L728.999 34.2544 Q731.673 30.163 735.278 28.1376 Q738.924 26.1121 743.664 26.1121 Q751.482 26.1121 755.492 30.9732 Q759.503 35.7938 759.503 45.1919 Z" fill="#000000" fill-rule="evenodd" fill-opacity="1" /><path clip-path="url(#clip730)" d="M807.951 65.7705 L807.951 89.8329 L800.457 89.8329 L800.457 27.2059 L807.951 27.2059 L807.951 34.0924 Q810.301 30.0415 813.866 28.0971 Q817.471 26.1121 822.454 26.1121 Q830.717 26.1121 835.862 32.6746 Q841.047 39.2371 841.047 49.9314 Q841.047 60.6258 835.862 67.1883 Q830.717 73.7508 822.454 73.7508 Q817.471 73.7508 813.866 71.8063 Q810.301 69.8214 807.951 65.7705 M833.31 49.9314 Q833.31 41.7081 829.907 37.0496 Q826.545 32.3505 820.631 32.3505 Q814.716 32.3505 811.314 37.0496 Q807.951 41.7081 807.951 49.9314 Q807.951 58.1548 811.314 62.8538 Q814.716 67.5124 820.631 67.5124 Q826.545 67.5124 829.907 62.8538 Q833.31 58.1548 833.31 49.9314 Z" fill="#000000" fill-rule="evenodd" fill-opacity="1" /><path clip-path="url(#clip730)" d="M874.022 49.7694 Q864.988 49.7694 861.504 51.8354 Q858.021 53.9013 858.021 58.8839 Q858.021 62.8538 860.613 65.2034 Q863.246 67.5124 867.743 67.5124 Q873.941 67.5124 877.667 63.1374 Q881.435 58.7219 881.435 51.4303 L881.435 49.7694 L874.022 49.7694 M888.888 46.6907 L888.888 72.576 L881.435 72.576 L881.435 65.6895 Q878.883 69.8214 875.075 71.8063 Q871.267 73.7508 865.758 73.7508 Q858.79 73.7508 854.658 69.8619 Q850.567 65.9325 850.567 59.3701 Q850.567 51.7138 855.671 47.825 Q860.816 43.9361 870.983 43.9361 L881.435 43.9361 L881.435 43.2069 Q881.435 38.0623 878.032 35.2672 Q874.67 32.4315 868.553 32.4315 Q864.664 32.4315 860.978 33.3632 Q857.291 34.295 853.889 36.1584 L853.889 29.2718 Q857.98 27.692 861.828 26.9223 Q865.677 26.1121 869.323 26.1121 Q879.166 26.1121 884.027 31.2163 Q888.888 36.3204 888.888 46.6907 Z" fill="#000000" fill-rule="evenodd" fill-opacity="1" /><path clip-path="url(#clip730)" d="M936.892 28.9478 L936.892 35.9153 Q933.732 34.1734 930.532 33.3227 Q927.372 32.4315 924.131 32.4315 Q916.88 32.4315 912.87 37.0496 Q908.859 41.6271 908.859 49.9314 Q908.859 58.2358 912.87 62.8538 Q916.88 67.4314 924.131 67.4314 Q927.372 67.4314 930.532 66.5807 Q933.732 65.6895 936.892 63.9476 L936.892 70.8341 Q933.772 72.2924 930.41 73.0216 Q927.088 73.7508 923.321 73.7508 Q913.072 73.7508 907.036 67.3098 Q901.001 60.8689 901.001 49.9314 Q901.001 38.832 907.077 32.472 Q913.194 26.1121 923.807 26.1121 Q927.251 26.1121 930.532 26.8413 Q933.813 27.5299 936.892 28.9478 Z" fill="#000000" fill-rule="evenodd" fill-opacity="1" /><path clip-path="url(#clip730)" d="M949.571 9.54393 L957.065 9.54393 L957.065 46.7717 L979.305 27.2059 L988.824 27.2059 L964.762 48.4326 L989.837 72.576 L980.115 72.576 L957.065 50.4176 L957.065 72.576 L949.571 72.576 L949.571 9.54393 Z" fill="#000000" fill-rule="evenodd" fill-opacity="1" /><path clip-path="url(#clip730)" d="M1017.06 49.7694 Q1008.03 49.7694 1004.54 51.8354 Q1001.06 53.9013 1001.06 58.8839 Q1001.06 62.8538 1003.65 65.2034 Q1006.28 67.5124 1010.78 67.5124 Q1016.98 67.5124 1020.7 63.1374 Q1024.47 58.7219 1024.47 51.4303 L1024.47 49.7694 L1017.06 49.7694 M1031.93 46.6907 L1031.93 72.576 L1024.47 72.576 L1024.47 65.6895 Q1021.92 69.8214 1018.11 71.8063 Q1014.3 73.7508 1008.8 73.7508 Q1001.83 73.7508 997.696 69.8619 Q993.604 65.9325 993.604 59.3701 Q993.604 51.7138 998.708 47.825 Q1003.85 43.9361 1014.02 43.9361 L1024.47 43.9361 L1024.47 43.2069 Q1024.47 38.0623 1021.07 35.2672 Q1017.71 32.4315 1011.59 32.4315 Q1007.7 32.4315 1004.02 33.3632 Q1000.33 34.295 996.926 36.1584 L996.926 29.2718 Q1001.02 27.692 1004.87 26.9223 Q1008.71 26.1121 1012.36 26.1121 Q1022.2 26.1121 1027.06 31.2163 Q1031.93 36.3204 1031.93 46.6907 Z" fill="#000000" fill-rule="evenodd" fill-opacity="1" /><path clip-path="url(#clip730)" d="M1077.13 49.3643 Q1077.13 41.2625 1073.77 36.8065 Q1070.45 32.3505 1064.41 32.3505 Q1058.42 32.3505 1055.06 36.8065 Q1051.73 41.2625 1051.73 49.3643 Q1051.73 57.4256 1055.06 61.8816 Q1058.42 66.3376 1064.41 66.3376 Q1070.45 66.3376 1073.77 61.8816 Q1077.13 57.4256 1077.13 49.3643 M1084.59 66.9452 Q1084.59 78.5308 1079.44 84.1616 Q1074.3 89.8329 1063.68 89.8329 Q1059.76 89.8329 1056.27 89.2252 Q1052.79 88.6581 1049.51 87.4428 L1049.51 80.1917 Q1052.79 81.9741 1055.99 82.8248 Q1059.19 83.6755 1062.51 83.6755 Q1069.84 83.6755 1073.49 79.8271 Q1077.13 76.0193 1077.13 68.282 L1077.13 64.5957 Q1074.82 68.6061 1071.22 70.5911 Q1067.61 72.576 1062.59 72.576 Q1054.25 72.576 1049.14 66.2161 Q1044.04 59.8562 1044.04 49.3643 Q1044.04 38.832 1049.14 32.472 Q1054.25 26.1121 1062.59 26.1121 Q1067.61 26.1121 1071.22 28.0971 Q1074.82 30.082 1077.13 34.0924 L1077.13 27.2059 L1084.59 27.2059 L1084.59 66.9452 Z" fill="#000000" fill-rule="evenodd" fill-opacity="1" /><path clip-path="url(#clip730)" d="M1138.75 48.0275 L1138.75 51.6733 L1104.48 51.6733 Q1104.96 59.3701 1109.1 63.421 Q1113.27 67.4314 1120.68 67.4314 Q1124.98 67.4314 1128.99 66.3781 Q1133.04 65.3249 1137.01 63.2184 L1137.01 70.267 Q1133 71.9684 1128.78 72.8596 Q1124.57 73.7508 1120.24 73.7508 Q1109.38 73.7508 1103.02 67.4314 Q1096.7 61.1119 1096.7 50.3365 Q1096.7 39.1965 1102.7 32.6746 Q1108.73 26.1121 1118.94 26.1121 Q1128.09 26.1121 1133.4 32.0264 Q1138.75 37.9003 1138.75 48.0275 M1131.29 45.84 Q1131.21 39.7232 1127.85 36.0774 Q1124.53 32.4315 1119.02 32.4315 Q1112.78 32.4315 1109.01 35.9558 Q1105.29 39.4801 1104.72 45.8805 L1131.29 45.84 Z" fill="#000000" fill-rule="evenodd" fill-opacity="1" /><path clip-path="url(#clip730)" d="M1203.64 34.1734 Q1202.39 33.4443 1200.89 33.1202 Q1199.43 32.7556 1197.65 32.7556 Q1191.33 32.7556 1187.93 36.8875 Q1184.56 40.9789 1184.56 48.6757 L1184.56 72.576 L1177.07 72.576 L1177.07 27.2059 L1184.56 27.2059 L1184.56 34.2544 Q1186.91 30.1225 1190.68 28.1376 Q1194.45 26.1121 1199.84 26.1121 Q1200.61 26.1121 1201.54 26.2337 Q1202.47 26.3147 1203.6 26.5172 L1203.64 34.1734 Z" fill="#000000" fill-rule="evenodd" fill-opacity="1" /><path clip-path="url(#clip730)" d="M1248.45 48.0275 L1248.45 51.6733 L1214.18 51.6733 Q1214.66 59.3701 1218.79 63.421 Q1222.97 67.4314 1230.38 67.4314 Q1234.67 67.4314 1238.68 66.3781 Q1242.73 65.3249 1246.7 63.2184 L1246.7 70.267 Q1242.69 71.9684 1238.48 72.8596 Q1234.27 73.7508 1229.93 73.7508 Q1219.08 73.7508 1212.72 67.4314 Q1206.4 61.1119 1206.4 50.3365 Q1206.4 39.1965 1212.39 32.6746 Q1218.43 26.1121 1228.64 26.1121 Q1237.79 26.1121 1243.1 32.0264 Q1248.45 37.9003 1248.45 48.0275 M1240.99 45.84 Q1240.91 39.7232 1237.55 36.0774 Q1234.23 32.4315 1228.72 32.4315 Q1222.48 32.4315 1218.71 35.9558 Q1214.99 39.4801 1214.42 45.8805 L1240.99 45.84 Z" fill="#000000" fill-rule="evenodd" fill-opacity="1" /><path clip-path="url(#clip730)" d="M1265.14 49.9314 Q1265.14 58.1548 1268.5 62.8538 Q1271.9 67.5124 1277.82 67.5124 Q1283.73 67.5124 1287.13 62.8538 Q1290.54 58.1548 1290.54 49.9314 Q1290.54 41.7081 1287.13 37.0496 Q1283.73 32.3505 1277.82 32.3505 Q1271.9 32.3505 1268.5 37.0496 Q1265.14 41.7081 1265.14 49.9314 M1290.54 65.7705 Q1288.19 69.8214 1284.58 71.8063 Q1281.02 73.7508 1275.99 73.7508 Q1267.77 73.7508 1262.58 67.1883 Q1257.44 60.6258 1257.44 49.9314 Q1257.44 39.2371 1262.58 32.6746 Q1267.77 26.1121 1275.99 26.1121 Q1281.02 26.1121 1284.58 28.0971 Q1288.19 30.0415 1290.54 34.0924 L1290.54 27.2059 L1297.99 27.2059 L1297.99 89.8329 L1290.54 89.8329 L1290.54 65.7705 Z" fill="#000000" fill-rule="evenodd" fill-opacity="1" /><path clip-path="url(#clip730)" d="M1312.57 54.671 L1312.57 27.2059 L1320.03 27.2059 L1320.03 54.3874 Q1320.03 60.8284 1322.54 64.0691 Q1325.05 67.2693 1330.07 67.2693 Q1336.11 67.2693 1339.59 63.421 Q1343.12 59.5726 1343.12 52.9291 L1343.12 27.2059 L1350.57 27.2059 L1350.57 72.576 L1343.12 72.576 L1343.12 65.6084 Q1340.4 69.7404 1336.8 71.7658 Q1333.23 73.7508 1328.49 73.7508 Q1320.67 73.7508 1316.62 68.8897 Q1312.57 64.0286 1312.57 54.671 M1331.33 26.1121 L1331.33 26.1121 Z" fill="#000000" fill-rule="evenodd" fill-opacity="1" /><path clip-path="url(#clip730)" d="M1404.73 48.0275 L1404.73 51.6733 L1370.46 51.6733 Q1370.95 59.3701 1375.08 63.421 Q1379.25 67.4314 1386.66 67.4314 Q1390.96 67.4314 1394.97 66.3781 Q1399.02 65.3249 1402.99 63.2184 L1402.99 70.267 Q1398.98 71.9684 1394.77 72.8596 Q1390.55 73.7508 1386.22 73.7508 Q1375.36 73.7508 1369 67.4314 Q1362.68 61.1119 1362.68 50.3365 Q1362.68 39.1965 1368.68 32.6746 Q1374.71 26.1121 1384.92 26.1121 Q1394.08 26.1121 1399.38 32.0264 Q1404.73 37.9003 1404.73 48.0275 M1397.28 45.84 Q1397.2 39.7232 1393.83 36.0774 Q1390.51 32.4315 1385 32.4315 Q1378.76 32.4315 1375 35.9558 Q1371.27 39.4801 1370.7 45.8805 L1397.28 45.84 Z" fill="#000000" fill-rule="evenodd" fill-opacity="1" /><path clip-path="url(#clip730)" d="M1445.89 28.5427 L1445.89 35.5912 Q1442.73 33.9709 1439.33 33.1607 Q1435.92 32.3505 1432.28 32.3505 Q1426.73 32.3505 1423.93 34.0519 Q1421.18 35.7533 1421.18 39.156 Q1421.18 41.7486 1423.16 43.2475 Q1425.15 44.7058 1431.14 46.0426 L1433.69 46.6097 Q1441.63 48.3111 1444.96 51.4303 Q1448.32 54.509 1448.32 60.0587 Q1448.32 66.3781 1443.3 70.0644 Q1438.31 73.7508 1429.56 73.7508 Q1425.92 73.7508 1421.95 73.0216 Q1418.02 72.3329 1413.64 70.9151 L1413.64 63.2184 Q1417.77 65.3654 1421.78 66.4591 Q1425.8 67.5124 1429.72 67.5124 Q1434.99 67.5124 1437.83 65.73 Q1440.66 63.9071 1440.66 60.6258 Q1440.66 57.5877 1438.6 55.9673 Q1436.57 54.3469 1429.64 52.8481 L1427.05 52.2405 Q1420.12 50.7821 1417.05 47.7845 Q1413.97 44.7463 1413.97 39.4801 Q1413.97 33.0797 1418.5 29.5959 Q1423.04 26.1121 1431.39 26.1121 Q1435.52 26.1121 1439.16 26.7198 Q1442.81 27.3274 1445.89 28.5427 Z" fill="#000000" fill-rule="evenodd" fill-opacity="1" /><path clip-path="url(#clip730)" d="M1467.56 14.324 L1467.56 27.2059 L1482.91 27.2059 L1482.91 32.9987 L1467.56 32.9987 L1467.56 57.6282 Q1467.56 63.1779 1469.06 64.7578 Q1470.6 66.3376 1475.26 66.3376 L1482.91 66.3376 L1482.91 72.576 L1475.26 72.576 Q1466.63 72.576 1463.35 69.3758 Q1460.07 66.1351 1460.07 57.6282 L1460.07 32.9987 L1454.6 32.9987 L1454.6 27.2059 L1460.07 27.2059 L1460.07 14.324 L1467.56 14.324 Z" fill="#000000" fill-rule="evenodd" fill-opacity="1" /><path clip-path="url(#clip730)" d="M1521.64 28.5427 L1521.64 35.5912 Q1518.48 33.9709 1515.08 33.1607 Q1511.67 32.3505 1508.03 32.3505 Q1502.48 32.3505 1499.68 34.0519 Q1496.93 35.7533 1496.93 39.156 Q1496.93 41.7486 1498.91 43.2475 Q1500.9 44.7058 1506.89 46.0426 L1509.45 46.6097 Q1517.39 48.3111 1520.71 51.4303 Q1524.07 54.509 1524.07 60.0587 Q1524.07 66.3781 1519.05 70.0644 Q1514.06 73.7508 1505.31 73.7508 Q1501.67 73.7508 1497.7 73.0216 Q1493.77 72.3329 1489.39 70.9151 L1489.39 63.2184 Q1493.53 65.3654 1497.54 66.4591 Q1501.55 67.5124 1505.48 67.5124 Q1510.74 67.5124 1513.58 65.73 Q1516.41 63.9071 1516.41 60.6258 Q1516.41 57.5877 1514.35 55.9673 Q1512.32 54.3469 1505.4 52.8481 L1502.8 52.2405 Q1495.88 50.7821 1492.8 47.7845 Q1489.72 44.7463 1489.72 39.4801 Q1489.72 33.0797 1494.26 29.5959 Q1498.79 26.1121 1507.14 26.1121 Q1511.27 26.1121 1514.92 26.7198 Q1518.56 27.3274 1521.64 28.5427 Z" fill="#000000" fill-rule="evenodd" fill-opacity="1" /><path clip-path="url(#clip730)" d="M1569.52 65.7705 L1569.52 89.8329 L1562.03 89.8329 L1562.03 27.2059 L1569.52 27.2059 L1569.52 34.0924 Q1571.87 30.0415 1575.44 28.0971 Q1579.04 26.1121 1584.02 26.1121 Q1592.29 26.1121 1597.43 32.6746 Q1602.62 39.2371 1602.62 49.9314 Q1602.62 60.6258 1597.43 67.1883 Q1592.29 73.7508 1584.02 73.7508 Q1579.04 73.7508 1575.44 71.8063 Q1571.87 69.8214 1569.52 65.7705 M1594.88 49.9314 Q1594.88 41.7081 1591.48 37.0496 Q1588.12 32.3505 1582.2 32.3505 Q1576.29 32.3505 1572.88 37.0496 Q1569.52 41.7081 1569.52 49.9314 Q1569.52 58.1548 1572.88 62.8538 Q1576.29 67.5124 1582.2 67.5124 Q1588.12 67.5124 1591.48 62.8538 Q1594.88 58.1548 1594.88 49.9314 Z" fill="#000000" fill-rule="evenodd" fill-opacity="1" /><path clip-path="url(#clip730)" d="M1653.78 48.0275 L1653.78 51.6733 L1619.51 51.6733 Q1620 59.3701 1624.13 63.421 Q1628.3 67.4314 1635.71 67.4314 Q1640.01 67.4314 1644.02 66.3781 Q1648.07 65.3249 1652.04 63.2184 L1652.04 70.267 Q1648.03 71.9684 1643.81 72.8596 Q1639.6 73.7508 1635.27 73.7508 Q1624.41 73.7508 1618.05 67.4314 Q1611.73 61.1119 1611.73 50.3365 Q1611.73 39.1965 1617.73 32.6746 Q1623.76 26.1121 1633.97 26.1121 Q1643.13 26.1121 1648.43 32.0264 Q1653.78 37.9003 1653.78 48.0275 M1646.33 45.84 Q1646.25 39.7232 1642.88 36.0774 Q1639.56 32.4315 1634.05 32.4315 Q1627.81 32.4315 1624.05 35.9558 Q1620.32 39.4801 1619.75 45.8805 L1646.33 45.84 Z" fill="#000000" fill-rule="evenodd" fill-opacity="1" /><path clip-path="url(#clip730)" d="M1692.3 34.1734 Q1691.05 33.4443 1689.55 33.1202 Q1688.09 32.7556 1686.31 32.7556 Q1679.99 32.7556 1676.59 36.8875 Q1673.22 40.9789 1673.22 48.6757 L1673.22 72.576 L1665.73 72.576 L1665.73 27.2059 L1673.22 27.2059 L1673.22 34.2544 Q1675.57 30.1225 1679.34 28.1376 Q1683.11 26.1121 1688.5 26.1121 Q1689.27 26.1121 1690.2 26.2337 Q1691.13 26.3147 1692.26 26.5172 L1692.3 34.1734 Z" fill="#000000" fill-rule="evenodd" fill-opacity="1" /><path clip-path="url(#clip730)" d="M1752.78 34.1734 Q1751.53 33.4443 1750.03 33.1202 Q1748.57 32.7556 1746.79 32.7556 Q1740.47 32.7556 1737.07 36.8875 Q1733.7 40.9789 1733.7 48.6757 L1733.7 72.576 L1726.21 72.576 L1726.21 27.2059 L1733.7 27.2059 L1733.7 34.2544 Q1736.05 30.1225 1739.82 28.1376 Q1743.59 26.1121 1748.98 26.1121 Q1749.75 26.1121 1750.68 26.2337 Q1751.61 26.3147 1752.74 26.5172 L1752.78 34.1734 Z" fill="#000000" fill-rule="evenodd" fill-opacity="1" /><path clip-path="url(#clip730)" d="M1797.59 48.0275 L1797.59 51.6733 L1763.32 51.6733 Q1763.8 59.3701 1767.93 63.421 Q1772.11 67.4314 1779.52 67.4314 Q1783.81 67.4314 1787.82 66.3781 Q1791.88 65.3249 1795.85 63.2184 L1795.85 70.267 Q1791.83 71.9684 1787.62 72.8596 Q1783.41 73.7508 1779.07 73.7508 Q1768.22 73.7508 1761.86 67.4314 Q1755.54 61.1119 1755.54 50.3365 Q1755.54 39.1965 1761.53 32.6746 Q1767.57 26.1121 1777.78 26.1121 Q1786.93 26.1121 1792.24 32.0264 Q1797.59 37.9003 1797.59 48.0275 M1790.13 45.84 Q1790.05 39.7232 1786.69 36.0774 Q1783.37 32.4315 1777.86 32.4315 Q1771.62 32.4315 1767.85 35.9558 Q1764.13 39.4801 1763.56 45.8805 L1790.13 45.84 Z" fill="#000000" fill-rule="evenodd" fill-opacity="1" /><path clip-path="url(#clip730)" d="M1839.68 49.3643 Q1839.68 41.2625 1836.31 36.8065 Q1832.99 32.3505 1826.96 32.3505 Q1820.96 32.3505 1817.6 36.8065 Q1814.28 41.2625 1814.28 49.3643 Q1814.28 57.4256 1817.6 61.8816 Q1820.96 66.3376 1826.96 66.3376 Q1832.99 66.3376 1836.31 61.8816 Q1839.68 57.4256 1839.68 49.3643 M1847.13 66.9452 Q1847.13 78.5308 1841.99 84.1616 Q1836.84 89.8329 1826.23 89.8329 Q1822.3 89.8329 1818.81 89.2252 Q1815.33 88.6581 1812.05 87.4428 L1812.05 80.1917 Q1815.33 81.9741 1818.53 82.8248 Q1821.73 83.6755 1825.05 83.6755 Q1832.38 83.6755 1836.03 79.8271 Q1839.68 76.0193 1839.68 68.282 L1839.68 64.5957 Q1837.37 68.6061 1833.76 70.5911 Q1830.16 72.576 1825.13 72.576 Q1816.79 72.576 1811.68 66.2161 Q1806.58 59.8562 1806.58 49.3643 Q1806.58 38.832 1811.68 32.472 Q1816.79 26.1121 1825.13 26.1121 Q1830.16 26.1121 1833.76 28.0971 Q1837.37 30.082 1839.68 34.0924 L1839.68 27.2059 L1847.13 27.2059 L1847.13 66.9452 Z" fill="#000000" fill-rule="evenodd" fill-opacity="1" /><path clip-path="url(#clip730)" d="M1862.48 27.2059 L1869.94 27.2059 L1869.94 72.576 L1862.48 72.576 L1862.48 27.2059 M1862.48 9.54393 L1869.94 9.54393 L1869.94 18.9825 L1862.48 18.9825 L1862.48 9.54393 Z" fill="#000000" fill-rule="evenodd" fill-opacity="1" /><path clip-path="url(#clip730)" d="M1903.11 32.4315 Q1897.12 32.4315 1893.63 37.1306 Q1890.15 41.7891 1890.15 49.9314 Q1890.15 58.0738 1893.59 62.7728 Q1897.08 67.4314 1903.11 67.4314 Q1909.07 67.4314 1912.55 62.7323 Q1916.04 58.0333 1916.04 49.9314 Q1916.04 41.8701 1912.55 37.1711 Q1909.07 32.4315 1903.11 32.4315 M1903.11 26.1121 Q1912.84 26.1121 1918.39 32.4315 Q1923.93 38.7509 1923.93 49.9314 Q1923.93 61.0714 1918.39 67.4314 Q1912.84 73.7508 1903.11 73.7508 Q1893.35 73.7508 1887.8 67.4314 Q1882.29 61.0714 1882.29 49.9314 Q1882.29 38.7509 1887.8 32.4315 Q1893.35 26.1121 1903.11 26.1121 Z" fill="#000000" fill-rule="evenodd" fill-opacity="1" /><path clip-path="url(#clip730)" d="M1974 45.1919 L1974 72.576 L1966.55 72.576 L1966.55 45.4349 Q1966.55 38.994 1964.04 35.7938 Q1961.53 32.5936 1956.5 32.5936 Q1950.47 32.5936 1946.98 36.4419 Q1943.5 40.2903 1943.5 46.9338 L1943.5 72.576 L1936.01 72.576 L1936.01 27.2059 L1943.5 27.2059 L1943.5 34.2544 Q1946.17 30.163 1949.78 28.1376 Q1953.43 26.1121 1958.17 26.1121 Q1965.98 26.1121 1969.99 30.9732 Q1974 35.7938 1974 45.1919 Z" fill="#000000" fill-rule="evenodd" fill-opacity="1" /><path clip-path="url(#clip730)" d="M2038.21 9.54393 L2038.21 15.7418 L2031.08 15.7418 Q2027.07 15.7418 2025.49 17.3622 Q2023.95 18.9825 2023.95 23.1955 L2023.95 27.2059 L2036.23 27.2059 L2036.23 32.9987 L2023.95 32.9987 L2023.95 72.576 L2016.46 72.576 L2016.46 32.9987 L2009.33 32.9987 L2009.33 27.2059 L2016.46 27.2059 L2016.46 24.0462 Q2016.46 16.471 2019.98 13.0277 Q2023.51 9.54393 2031.16 9.54393 L2038.21 9.54393 Z" fill="#000000" fill-rule="evenodd" fill-opacity="1" /><path clip-path="url(#clip730)" d="M2062.03 32.4315 Q2056.03 32.4315 2052.55 37.1306 Q2049.07 41.7891 2049.07 49.9314 Q2049.07 58.0738 2052.51 62.7728 Q2055.99 67.4314 2062.03 67.4314 Q2067.99 67.4314 2071.47 62.7323 Q2074.95 58.0333 2074.95 49.9314 Q2074.95 41.8701 2071.47 37.1711 Q2067.99 32.4315 2062.03 32.4315 M2062.03 26.1121 Q2071.75 26.1121 2077.3 32.4315 Q2082.85 38.7509 2082.85 49.9314 Q2082.85 61.0714 2077.3 67.4314 Q2071.75 73.7508 2062.03 73.7508 Q2052.27 73.7508 2046.72 67.4314 Q2041.21 61.0714 2041.21 49.9314 Q2041.21 38.7509 2046.72 32.4315 Q2052.27 26.1121 2062.03 26.1121 Z" fill="#000000" fill-rule="evenodd" fill-opacity="1" /><path clip-path="url(#clip730)" d="M2121.5 34.1734 Q2120.24 33.4443 2118.74 33.1202 Q2117.28 32.7556 2115.5 32.7556 Q2109.18 32.7556 2105.78 36.8875 Q2102.42 40.9789 2102.42 48.6757 L2102.42 72.576 L2094.92 72.576 L2094.92 27.2059 L2102.42 27.2059 L2102.42 34.2544 Q2104.77 30.1225 2108.53 28.1376 Q2112.3 26.1121 2117.69 26.1121 Q2118.46 26.1121 2119.39 26.2337 Q2120.32 26.3147 2121.46 26.5172 L2121.5 34.1734 Z" fill="#000000" fill-rule="evenodd" fill-opacity="1" /><path clip-path="url(#clip730)" d="M2188.34 28.9478 L2188.34 35.9153 Q2185.18 34.1734 2181.98 33.3227 Q2178.82 32.4315 2175.58 32.4315 Q2168.33 32.4315 2164.32 37.0496 Q2160.31 41.6271 2160.31 49.9314 Q2160.31 58.2358 2164.32 62.8538 Q2168.33 67.4314 2175.58 67.4314 Q2178.82 67.4314 2181.98 66.5807 Q2185.18 65.6895 2188.34 63.9476 L2188.34 70.8341 Q2185.22 72.2924 2181.86 73.0216 Q2178.53 73.7508 2174.77 73.7508 Q2164.52 73.7508 2158.48 67.3098 Q2152.45 60.8689 2152.45 49.9314 Q2152.45 38.832 2158.52 32.472 Q2164.64 26.1121 2175.25 26.1121 Q2178.7 26.1121 2181.98 26.8413 Q2185.26 27.5299 2188.34 28.9478 Z" fill="#000000" fill-rule="evenodd" fill-opacity="1" /><path clip-path="url(#clip730)" d="M2201.3 27.2059 L2208.75 27.2059 L2208.75 72.576 L2201.3 72.576 L2201.3 27.2059 M2201.3 9.54393 L2208.75 9.54393 L2208.75 18.9825 L2201.3 18.9825 L2201.3 9.54393 Z" fill="#000000" fill-rule="evenodd" fill-opacity="1" /><path clip-path="url(#clip732)" d="
M592.926 401.292 L451.233 401.292 L734.619 401.292 L592.926 401.292 L592.926 317.63 L592.926 401.292  Z
  " fill="#009af9" fill-rule="evenodd" fill-opacity="1"/>
<polyline clip-path="url(#clip732)" style="stroke:#000000; stroke-linecap:butt; stroke-linejoin:round; stroke-width:4; stroke-opacity:1; fill:none" points="
  592.926,401.292 451.233,401.292 734.619,401.292 592.926,401.292 592.926,317.63 592.926,401.292 
  "/>
<path clip-path="url(#clip732)" d="
M876.312 317.63 L876.312 288.826 L309.539 288.826 L309.539 317.63 L876.312 317.63 L876.312 288.826 L876.312 317.63  Z
  " fill="#009af9" fill-rule="evenodd" fill-opacity="1"/>
<polyline clip-path="url(#clip732)" style="stroke:#000000; stroke-linecap:butt; stroke-linejoin:round; stroke-width:4; stroke-opacity:1; fill:none" points="
  876.312,317.63 876.312,288.826 309.539,288.826 309.539,317.63 876.312,317.63 876.312,288.826 876.312,317.63 
  "/>
<path clip-path="url(#clip732)" d="
M876.312 260.901 L309.539 260.901 L309.539 288.826 L876.312 288.826 L876.312 260.901 L592.926 260.901 L876.312 260.901  Z
  " fill="#009af9" fill-rule="evenodd" fill-opacity="1"/>
<polyline clip-path="url(#clip732)" style="stroke:#000000; stroke-linecap:butt; stroke-linejoin:round; stroke-width:4; stroke-opacity:1; fill:none" points="
  876.312,260.901 309.539,260.901 309.539,288.826 876.312,288.826 876.312,260.901 592.926,260.901 876.312,260.901 
  "/>
<path clip-path="url(#clip732)" d="
M592.926 181.771 L451.233 181.771 L734.619 181.771 L592.926 181.771 L592.926 260.901 L592.926 181.771  Z
  " fill="#009af9" fill-rule="evenodd" fill-opacity="1"/>
<polyline clip-path="url(#clip732)" style="stroke:#000000; stroke-linecap:butt; stroke-linejoin:round; stroke-width:4; stroke-opacity:1; fill:none" points="
  592.926,181.771 451.233,181.771 734.619,181.771 592.926,181.771 592.926,260.901 592.926,181.771 
  "/>
<circle clip-path="url(#clip732)" cx="592.926" cy="403.311" r="14" fill="#009af9" fill-rule="evenodd" fill-opacity="1" stroke="#000000" stroke-opacity="1" stroke-width="3.2"/>
<circle clip-path="url(#clip732)" cx="592.926" cy="407.279" r="14" fill="#009af9" fill-rule="evenodd" fill-opacity="1" stroke="#000000" stroke-opacity="1" stroke-width="3.2"/>
<circle clip-path="url(#clip732)" cx="592.926" cy="403.777" r="14" fill="#009af9" fill-rule="evenodd" fill-opacity="1" stroke="#000000" stroke-opacity="1" stroke-width="3.2"/>
<circle clip-path="url(#clip732)" cx="592.926" cy="164.943" r="14" fill="#009af9" fill-rule="evenodd" fill-opacity="1" stroke="#000000" stroke-opacity="1" stroke-width="3.2"/>
<circle clip-path="url(#clip732)" cx="592.926" cy="403.157" r="14" fill="#009af9" fill-rule="evenodd" fill-opacity="1" stroke="#000000" stroke-opacity="1" stroke-width="3.2"/>
<circle clip-path="url(#clip732)" cx="592.926" cy="403.157" r="14" fill="#009af9" fill-rule="evenodd" fill-opacity="1" stroke="#000000" stroke-opacity="1" stroke-width="3.2"/>
<circle clip-path="url(#clip732)" cx="592.926" cy="172.986" r="14" fill="#009af9" fill-rule="evenodd" fill-opacity="1" stroke="#000000" stroke-opacity="1" stroke-width="3.2"/>
<circle clip-path="url(#clip732)" cx="592.926" cy="406.849" r="14" fill="#009af9" fill-rule="evenodd" fill-opacity="1" stroke="#000000" stroke-opacity="1" stroke-width="3.2"/>
<circle clip-path="url(#clip732)" cx="592.926" cy="160.256" r="14" fill="#009af9" fill-rule="evenodd" fill-opacity="1" stroke="#000000" stroke-opacity="1" stroke-width="3.2"/>
<circle clip-path="url(#clip732)" cx="592.926" cy="434.076" r="14" fill="#009af9" fill-rule="evenodd" fill-opacity="1" stroke="#000000" stroke-opacity="1" stroke-width="3.2"/>
<circle clip-path="url(#clip732)" cx="592.926" cy="414.343" r="14" fill="#009af9" fill-rule="evenodd" fill-opacity="1" stroke="#000000" stroke-opacity="1" stroke-width="3.2"/>
<polyline clip-path="url(#clip732)" style="stroke:#009af9; stroke-linecap:butt; stroke-linejoin:round; stroke-width:0; stroke-opacity:1; fill:none" points="
  592.926,401.292 451.233,401.292 734.619,401.292 592.926,401.292 592.926,317.63 
  "/>
<polyline clip-path="url(#clip732)" style="stroke:#009af9; stroke-linecap:butt; stroke-linejoin:round; stroke-width:0; stroke-opacity:1; fill:none" points="
  876.312,317.63 876.312,288.826 309.539,288.826 309.539,317.63 876.312,317.63 876.312,288.826 
  "/>
<polyline clip-path="url(#clip732)" style="stroke:#009af9; stroke-linecap:butt; stroke-linejoin:round; stroke-width:0; stroke-opacity:1; fill:none" points="
  876.312,260.901 309.539,260.901 309.539,288.826 876.312,288.826 876.312,260.901 592.926,260.901 
  "/>
<polyline clip-path="url(#clip732)" style="stroke:#009af9; stroke-linecap:butt; stroke-linejoin:round; stroke-width:0; stroke-opacity:1; fill:none" points="
  592.926,181.771 451.233,181.771 734.619,181.771 592.926,181.771 592.926,260.901 
  "/>
<path clip-path="url(#clip732)" d="
M1301.39 1164.43 L1159.7 1164.43 L1443.09 1164.43 L1301.39 1164.43 L1301.39 1080.22 L1301.39 1164.43  Z
  " fill="#e26f46" fill-rule="evenodd" fill-opacity="1"/>
<polyline clip-path="url(#clip732)" style="stroke:#000000; stroke-linecap:butt; stroke-linejoin:round; stroke-width:4; stroke-opacity:1; fill:none" points="
  1301.39,1164.43 1159.7,1164.43 1443.09,1164.43 1301.39,1164.43 1301.39,1080.22 1301.39,1164.43 
  "/>
<path clip-path="url(#clip732)" d="
M1584.78 1080.22 L1584.78 1051.84 L1018.01 1051.84 L1018.01 1080.22 L1584.78 1080.22 L1584.78 1051.84 L1584.78 1080.22  Z
  " fill="#e26f46" fill-rule="evenodd" fill-opacity="1"/>
<polyline clip-path="url(#clip732)" style="stroke:#000000; stroke-linecap:butt; stroke-linejoin:round; stroke-width:4; stroke-opacity:1; fill:none" points="
  1584.78,1080.22 1584.78,1051.84 1018.01,1051.84 1018.01,1080.22 1584.78,1080.22 1584.78,1051.84 1584.78,1080.22 
  "/>
<path clip-path="url(#clip732)" d="
M1584.78 1023.83 L1018.01 1023.83 L1018.01 1051.84 L1584.78 1051.84 L1584.78 1023.83 L1301.39 1023.83 L1584.78 1023.83  Z
  " fill="#e26f46" fill-rule="evenodd" fill-opacity="1"/>
<polyline clip-path="url(#clip732)" style="stroke:#000000; stroke-linecap:butt; stroke-linejoin:round; stroke-width:4; stroke-opacity:1; fill:none" points="
  1584.78,1023.83 1018.01,1023.83 1018.01,1051.84 1584.78,1051.84 1584.78,1023.83 1301.39,1023.83 1584.78,1023.83 
  "/>
<path clip-path="url(#clip732)" d="
M1301.39 939.328 L1159.7 939.328 L1443.09 939.328 L1301.39 939.328 L1301.39 1023.83 L1301.39 939.328  Z
  " fill="#e26f46" fill-rule="evenodd" fill-opacity="1"/>
<polyline clip-path="url(#clip732)" style="stroke:#000000; stroke-linecap:butt; stroke-linejoin:round; stroke-width:4; stroke-opacity:1; fill:none" points="
  1301.39,939.328 1159.7,939.328 1443.09,939.328 1301.39,939.328 1301.39,1023.83 1301.39,939.328 
  "/>
<circle clip-path="url(#clip732)" cx="1301.39" cy="1192.01" r="14" fill="#e26f46" fill-rule="evenodd" fill-opacity="1" stroke="#000000" stroke-opacity="1" stroke-width="3.2"/>
<circle clip-path="url(#clip732)" cx="1301.39" cy="930.146" r="14" fill="#e26f46" fill-rule="evenodd" fill-opacity="1" stroke="#000000" stroke-opacity="1" stroke-width="3.2"/>
<circle clip-path="url(#clip732)" cx="1301.39" cy="930.146" r="14" fill="#e26f46" fill-rule="evenodd" fill-opacity="1" stroke="#000000" stroke-opacity="1" stroke-width="3.2"/>
<circle clip-path="url(#clip732)" cx="1301.39" cy="1178.1" r="14" fill="#e26f46" fill-rule="evenodd" fill-opacity="1" stroke="#000000" stroke-opacity="1" stroke-width="3.2"/>
<circle clip-path="url(#clip732)" cx="1301.39" cy="1178.1" r="14" fill="#e26f46" fill-rule="evenodd" fill-opacity="1" stroke="#000000" stroke-opacity="1" stroke-width="3.2"/>
<circle clip-path="url(#clip732)" cx="1301.39" cy="934.831" r="14" fill="#e26f46" fill-rule="evenodd" fill-opacity="1" stroke="#000000" stroke-opacity="1" stroke-width="3.2"/>
<circle clip-path="url(#clip732)" cx="1301.39" cy="938.513" r="14" fill="#e26f46" fill-rule="evenodd" fill-opacity="1" stroke="#000000" stroke-opacity="1" stroke-width="3.2"/>
<circle clip-path="url(#clip732)" cx="1301.39" cy="935.381" r="14" fill="#e26f46" fill-rule="evenodd" fill-opacity="1" stroke="#000000" stroke-opacity="1" stroke-width="3.2"/>
<circle clip-path="url(#clip732)" cx="1301.39" cy="1168.49" r="14" fill="#e26f46" fill-rule="evenodd" fill-opacity="1" stroke="#000000" stroke-opacity="1" stroke-width="3.2"/>
<circle clip-path="url(#clip732)" cx="1301.39" cy="1166.25" r="14" fill="#e26f46" fill-rule="evenodd" fill-opacity="1" stroke="#000000" stroke-opacity="1" stroke-width="3.2"/>
<circle clip-path="url(#clip732)" cx="1301.39" cy="923.754" r="14" fill="#e26f46" fill-rule="evenodd" fill-opacity="1" stroke="#000000" stroke-opacity="1" stroke-width="3.2"/>
<circle clip-path="url(#clip732)" cx="1301.39" cy="1168.5" r="14" fill="#e26f46" fill-rule="evenodd" fill-opacity="1" stroke="#000000" stroke-opacity="1" stroke-width="3.2"/>
<circle clip-path="url(#clip732)" cx="1301.39" cy="933.693" r="14" fill="#e26f46" fill-rule="evenodd" fill-opacity="1" stroke="#000000" stroke-opacity="1" stroke-width="3.2"/>
<polyline clip-path="url(#clip732)" style="stroke:#e26f46; stroke-linecap:butt; stroke-linejoin:round; stroke-width:0; stroke-opacity:1; fill:none" points="
  1301.39,1164.43 1159.7,1164.43 1443.09,1164.43 1301.39,1164.43 1301.39,1080.22 
  "/>
<polyline clip-path="url(#clip732)" style="stroke:#e26f46; stroke-linecap:butt; stroke-linejoin:round; stroke-width:0; stroke-opacity:1; fill:none" points="
  1584.78,1080.22 1584.78,1051.84 1018.01,1051.84 1018.01,1080.22 1584.78,1080.22 1584.78,1051.84 
  "/>
<polyline clip-path="url(#clip732)" style="stroke:#e26f46; stroke-linecap:butt; stroke-linejoin:round; stroke-width:0; stroke-opacity:1; fill:none" points="
  1584.78,1023.83 1018.01,1023.83 1018.01,1051.84 1584.78,1051.84 1584.78,1023.83 1301.39,1023.83 
  "/>
<polyline clip-path="url(#clip732)" style="stroke:#e26f46; stroke-linecap:butt; stroke-linejoin:round; stroke-width:0; stroke-opacity:1; fill:none" points="
  1301.39,939.328 1159.7,939.328 1443.09,939.328 1301.39,939.328 1301.39,1023.83 
  "/>
<path clip-path="url(#clip732)" d="
M2009.86 1352.16 L1868.17 1352.16 L2151.55 1352.16 L2009.86 1352.16 L2009.86 1275.58 L2009.86 1352.16  Z
  " fill="#3da44d" fill-rule="evenodd" fill-opacity="1"/>
<polyline clip-path="url(#clip732)" style="stroke:#000000; stroke-linecap:butt; stroke-linejoin:round; stroke-width:4; stroke-opacity:1; fill:none" points="
  2009.86,1352.16 1868.17,1352.16 2151.55,1352.16 2009.86,1352.16 2009.86,1275.58 2009.86,1352.16 
  "/>
<path clip-path="url(#clip732)" d="
M2293.24 1275.58 L2293.24 1248.62 L1726.47 1248.62 L1726.47 1275.58 L2293.24 1275.58 L2293.24 1248.62 L2293.24 1275.58  Z
  " fill="#3da44d" fill-rule="evenodd" fill-opacity="1"/>
<polyline clip-path="url(#clip732)" style="stroke:#000000; stroke-linecap:butt; stroke-linejoin:round; stroke-width:4; stroke-opacity:1; fill:none" points="
  2293.24,1275.58 2293.24,1248.62 1726.47,1248.62 1726.47,1275.58 2293.24,1275.58 2293.24,1248.62 2293.24,1275.58 
  "/>
<path clip-path="url(#clip732)" d="
M2293.24 1221.95 L1726.47 1221.95 L1726.47 1248.62 L2293.24 1248.62 L2293.24 1221.95 L2009.86 1221.95 L2293.24 1221.95  Z
  " fill="#3da44d" fill-rule="evenodd" fill-opacity="1"/>
<polyline clip-path="url(#clip732)" style="stroke:#000000; stroke-linecap:butt; stroke-linejoin:round; stroke-width:4; stroke-opacity:1; fill:none" points="
  2293.24,1221.95 1726.47,1221.95 1726.47,1248.62 2293.24,1248.62 2293.24,1221.95 2009.86,1221.95 2293.24,1221.95 
  "/>
<path clip-path="url(#clip732)" d="
M2009.86 1142.66 L1868.17 1142.66 L2151.55 1142.66 L2009.86 1142.66 L2009.86 1221.95 L2009.86 1142.66  Z
  " fill="#3da44d" fill-rule="evenodd" fill-opacity="1"/>
<polyline clip-path="url(#clip732)" style="stroke:#000000; stroke-linecap:butt; stroke-linejoin:round; stroke-width:4; stroke-opacity:1; fill:none" points="
  2009.86,1142.66 1868.17,1142.66 2151.55,1142.66 2009.86,1142.66 2009.86,1221.95 2009.86,1142.66 
  "/>
<circle clip-path="url(#clip732)" cx="2009.86" cy="1126.42" r="14" fill="#3da44d" fill-rule="evenodd" fill-opacity="1" stroke="#000000" stroke-opacity="1" stroke-width="3.2"/>
<circle clip-path="url(#clip732)" cx="2009.86" cy="1358.31" r="14" fill="#3da44d" fill-rule="evenodd" fill-opacity="1" stroke="#000000" stroke-opacity="1" stroke-width="3.2"/>
<circle clip-path="url(#clip732)" cx="2009.86" cy="1139.16" r="14" fill="#3da44d" fill-rule="evenodd" fill-opacity="1" stroke="#000000" stroke-opacity="1" stroke-width="3.2"/>
<circle clip-path="url(#clip732)" cx="2009.86" cy="1135.28" r="14" fill="#3da44d" fill-rule="evenodd" fill-opacity="1" stroke="#000000" stroke-opacity="1" stroke-width="3.2"/>
<circle clip-path="url(#clip732)" cx="2009.86" cy="1137.16" r="14" fill="#3da44d" fill-rule="evenodd" fill-opacity="1" stroke="#000000" stroke-opacity="1" stroke-width="3.2"/>
<circle clip-path="url(#clip732)" cx="2009.86" cy="1361.91" r="14" fill="#3da44d" fill-rule="evenodd" fill-opacity="1" stroke="#000000" stroke-opacity="1" stroke-width="3.2"/>
<circle clip-path="url(#clip732)" cx="2009.86" cy="1133.23" r="14" fill="#3da44d" fill-rule="evenodd" fill-opacity="1" stroke="#000000" stroke-opacity="1" stroke-width="3.2"/>
<circle clip-path="url(#clip732)" cx="2009.86" cy="1357.31" r="14" fill="#3da44d" fill-rule="evenodd" fill-opacity="1" stroke="#000000" stroke-opacity="1" stroke-width="3.2"/>
<circle clip-path="url(#clip732)" cx="2009.86" cy="1140.11" r="14" fill="#3da44d" fill-rule="evenodd" fill-opacity="1" stroke="#000000" stroke-opacity="1" stroke-width="3.2"/>
<circle clip-path="url(#clip732)" cx="2009.86" cy="1356.43" r="14" fill="#3da44d" fill-rule="evenodd" fill-opacity="1" stroke="#000000" stroke-opacity="1" stroke-width="3.2"/>
<circle clip-path="url(#clip732)" cx="2009.86" cy="1120.49" r="14" fill="#3da44d" fill-rule="evenodd" fill-opacity="1" stroke="#000000" stroke-opacity="1" stroke-width="3.2"/>
<circle clip-path="url(#clip732)" cx="2009.86" cy="1375.68" r="14" fill="#3da44d" fill-rule="evenodd" fill-opacity="1" stroke="#000000" stroke-opacity="1" stroke-width="3.2"/>
<circle clip-path="url(#clip732)" cx="2009.86" cy="1386.4" r="14" fill="#3da44d" fill-rule="evenodd" fill-opacity="1" stroke="#000000" stroke-opacity="1" stroke-width="3.2"/>
<circle clip-path="url(#clip732)" cx="2009.86" cy="1140.59" r="14" fill="#3da44d" fill-rule="evenodd" fill-opacity="1" stroke="#000000" stroke-opacity="1" stroke-width="3.2"/>
<circle clip-path="url(#clip732)" cx="2009.86" cy="1138.52" r="14" fill="#3da44d" fill-rule="evenodd" fill-opacity="1" stroke="#000000" stroke-opacity="1" stroke-width="3.2"/>
<polyline clip-path="url(#clip732)" style="stroke:#3da44d; stroke-linecap:butt; stroke-linejoin:round; stroke-width:0; stroke-opacity:1; fill:none" points="
  2009.86,1352.16 1868.17,1352.16 2151.55,1352.16 2009.86,1352.16 2009.86,1275.58 
  "/>
<polyline clip-path="url(#clip732)" style="stroke:#3da44d; stroke-linecap:butt; stroke-linejoin:round; stroke-width:0; stroke-opacity:1; fill:none" points="
  2293.24,1275.58 2293.24,1248.62 1726.47,1248.62 1726.47,1275.58 2293.24,1275.58 2293.24,1248.62 
  "/>
<polyline clip-path="url(#clip732)" style="stroke:#3da44d; stroke-linecap:butt; stroke-linejoin:round; stroke-width:0; stroke-opacity:1; fill:none" points="
  2293.24,1221.95 1726.47,1221.95 1726.47,1248.62 2293.24,1248.62 2293.24,1221.95 2009.86,1221.95 
  "/>
<polyline clip-path="url(#clip732)" style="stroke:#3da44d; stroke-linecap:butt; stroke-linejoin:round; stroke-width:0; stroke-opacity:1; fill:none" points="
  2009.86,1142.66 1868.17,1142.66 2151.55,1142.66 2009.86,1142.66 2009.86,1221.95 
  "/>
</svg>
