<?xml version="1.0" encoding="utf-8"?>
<svg xmlns="http://www.w3.org/2000/svg" xmlns:xlink="http://www.w3.org/1999/xlink" width="600" height="400" viewBox="0 0 2400 1600">
<defs>
  <clipPath id="clip770">
    <rect x="0" y="0" width="2400" height="1600"/>
  </clipPath>
</defs>
<path clip-path="url(#clip770)" d="
M0 1600 L2400 1600 L2400 0 L0 0  Z
  " fill="#ffffff" fill-rule="evenodd" fill-opacity="1"/>
<defs>
  <clipPath id="clip771">
    <rect x="480" y="0" width="1681" height="1600"/>
  </clipPath>
</defs>
<path clip-path="url(#clip770)" d="
M249.542 1423.18 L2352.76 1423.18 L2352.76 123.472 L249.542 123.472  Z
  " fill="#ffffff" fill-rule="evenodd" fill-opacity="1"/>
<defs>
  <clipPath id="clip772">
    <rect x="249" y="123" width="2104" height="1301"/>
  </clipPath>
</defs>
<polyline clip-path="url(#clip772)" style="stroke:#000000; stroke-linecap:butt; stroke-linejoin:round; stroke-width:2; stroke-opacity:0.1; fill:none" points="
  428.871,1423.18 428.871,123.472 
  "/>
<polyline clip-path="url(#clip772)" style="stroke:#000000; stroke-linecap:butt; stroke-linejoin:round; stroke-width:2; stroke-opacity:0.1; fill:none" points="
  856.551,1423.18 856.551,123.472 
  "/>
<polyline clip-path="url(#clip772)" style="stroke:#000000; stroke-linecap:butt; stroke-linejoin:round; stroke-width:2; stroke-opacity:0.1; fill:none" points="
  1284.23,1423.18 1284.23,123.472 
  "/>
<polyline clip-path="url(#clip772)" style="stroke:#000000; stroke-linecap:butt; stroke-linejoin:round; stroke-width:2; stroke-opacity:0.1; fill:none" points="
  1711.91,1423.18 1711.91,123.472 
  "/>
<polyline clip-path="url(#clip772)" style="stroke:#000000; stroke-linecap:butt; stroke-linejoin:round; stroke-width:2; stroke-opacity:0.1; fill:none" points="
  2139.59,1423.18 2139.59,123.472 
  "/>
<polyline clip-path="url(#clip770)" style="stroke:#000000; stroke-linecap:butt; stroke-linejoin:round; stroke-width:4; stroke-opacity:1; fill:none" points="
  249.542,1423.18 2352.76,1423.18 
  "/>
<polyline clip-path="url(#clip770)" style="stroke:#000000; stroke-linecap:butt; stroke-linejoin:round; stroke-width:4; stroke-opacity:1; fill:none" points="
  428.871,1423.18 428.871,1404.28 
  "/>
<polyline clip-path="url(#clip770)" style="stroke:#000000; stroke-linecap:butt; stroke-linejoin:round; stroke-width:4; stroke-opacity:1; fill:none" points="
  856.551,1423.18 856.551,1404.28 
  "/>
<polyline clip-path="url(#clip770)" style="stroke:#000000; stroke-linecap:butt; stroke-linejoin:round; stroke-width:4; stroke-opacity:1; fill:none" points="
  1284.23,1423.18 1284.23,1404.28 
  "/>
<polyline clip-path="url(#clip770)" style="stroke:#000000; stroke-linecap:butt; stroke-linejoin:round; stroke-width:4; stroke-opacity:1; fill:none" points="
  1711.91,1423.18 1711.91,1404.28 
  "/>
<polyline clip-path="url(#clip770)" style="stroke:#000000; stroke-linecap:butt; stroke-linejoin:round; stroke-width:4; stroke-opacity:1; fill:none" points="
  2139.59,1423.18 2139.59,1404.28 
  "/>
<path clip-path="url(#clip770)" d="M398.813 1468.75 L428.489 1468.75 L428.489 1472.69 L398.813 1472.69 L398.813 1468.75 Z" fill="#000000" fill-rule="evenodd" fill-opacity="1" /><path clip-path="url(#clip770)" d="M442.609 1481.64 L458.929 1481.64 L458.929 1485.58 L436.984 1485.58 L436.984 1481.64 Q439.646 1478.89 444.23 1474.26 Q448.836 1469.61 450.017 1468.27 Q452.262 1465.74 453.142 1464.01 Q454.045 1462.25 454.045 1460.56 Q454.045 1457.8 452.1 1456.07 Q450.179 1454.33 447.077 1454.33 Q444.878 1454.33 442.424 1455.09 Q439.994 1455.86 437.216 1457.41 L437.216 1452.69 Q440.04 1451.55 442.494 1450.97 Q444.947 1450.39 446.984 1450.39 Q452.355 1450.39 455.549 1453.08 Q458.744 1455.77 458.744 1460.26 Q458.744 1462.39 457.933 1464.31 Q457.146 1466.2 455.04 1468.8 Q454.461 1469.47 451.359 1472.69 Q448.258 1475.88 442.609 1481.64 Z" fill="#000000" fill-rule="evenodd" fill-opacity="1" /><path clip-path="url(#clip770)" d="M826.308 1468.75 L855.984 1468.75 L855.984 1472.69 L826.308 1472.69 L826.308 1468.75 Z" fill="#000000" fill-rule="evenodd" fill-opacity="1" /><path clip-path="url(#clip770)" d="M866.886 1481.64 L874.525 1481.64 L874.525 1455.28 L866.215 1456.95 L866.215 1452.69 L874.479 1451.02 L879.155 1451.02 L879.155 1481.64 L886.794 1481.64 L886.794 1485.58 L866.886 1485.58 L866.886 1481.64 Z" fill="#000000" fill-rule="evenodd" fill-opacity="1" /><path clip-path="url(#clip770)" d="M1284.23 1454.1 Q1280.62 1454.1 1278.79 1457.66 Q1276.99 1461.2 1276.99 1468.33 Q1276.99 1475.44 1278.79 1479.01 Q1280.62 1482.55 1284.23 1482.55 Q1287.86 1482.55 1289.67 1479.01 Q1291.5 1475.44 1291.5 1468.33 Q1291.5 1461.2 1289.67 1457.66 Q1287.86 1454.1 1284.23 1454.1 M1284.23 1450.39 Q1290.04 1450.39 1293.1 1455 Q1296.18 1459.58 1296.18 1468.33 Q1296.18 1477.06 1293.1 1481.67 Q1290.04 1486.25 1284.23 1486.25 Q1278.42 1486.25 1275.34 1481.67 Q1272.29 1477.06 1272.29 1468.33 Q1272.29 1459.58 1275.34 1455 Q1278.42 1450.39 1284.23 1450.39 Z" fill="#000000" fill-rule="evenodd" fill-opacity="1" /><path clip-path="url(#clip770)" d="M1702.29 1481.64 L1709.93 1481.64 L1709.93 1455.28 L1701.62 1456.95 L1701.62 1452.69 L1709.88 1451.02 L1714.56 1451.02 L1714.56 1481.64 L1722.2 1481.64 L1722.2 1485.58 L1702.29 1485.58 L1702.29 1481.64 Z" fill="#000000" fill-rule="evenodd" fill-opacity="1" /><path clip-path="url(#clip770)" d="M2134.24 1481.64 L2150.56 1481.64 L2150.56 1485.58 L2128.62 1485.58 L2128.62 1481.64 Q2131.28 1478.89 2135.86 1474.26 Q2140.47 1469.61 2141.65 1468.27 Q2143.9 1465.74 2144.78 1464.01 Q2145.68 1462.25 2145.68 1460.56 Q2145.68 1457.8 2143.73 1456.07 Q2141.81 1454.33 2138.71 1454.33 Q2136.51 1454.33 2134.06 1455.09 Q2131.63 1455.86 2128.85 1457.41 L2128.85 1452.69 Q2131.67 1451.55 2134.13 1450.97 Q2136.58 1450.39 2138.62 1450.39 Q2143.99 1450.39 2147.18 1453.08 Q2150.38 1455.77 2150.38 1460.26 Q2150.38 1462.39 2149.57 1464.31 Q2148.78 1466.2 2146.67 1468.8 Q2146.09 1469.47 2142.99 1472.69 Q2139.89 1475.88 2134.24 1481.64 Z" fill="#000000" fill-rule="evenodd" fill-opacity="1" /><path clip-path="url(#clip770)" d="M957.56 1524.18 L957.56 1530.96 Q954.313 1527.94 950.621 1526.44 Q946.961 1524.95 942.823 1524.95 Q934.675 1524.95 930.347 1529.95 Q926.018 1534.91 926.018 1544.33 Q926.018 1553.72 930.347 1558.72 Q934.675 1563.68 942.823 1563.68 Q946.961 1563.68 950.621 1562.19 Q954.313 1560.69 957.56 1557.67 L957.56 1564.38 Q954.186 1566.68 950.399 1567.82 Q946.643 1568.97 942.441 1568.97 Q931.652 1568.97 925.445 1562.38 Q919.238 1555.76 919.238 1544.33 Q919.238 1532.87 925.445 1526.28 Q931.652 1519.66 942.441 1519.66 Q946.706 1519.66 950.462 1520.81 Q954.25 1521.92 957.56 1524.18 Z" fill="#000000" fill-rule="evenodd" fill-opacity="1" /><path clip-path="url(#clip770)" d="M996.868 1546.53 L996.868 1568.04 L991.012 1568.04 L991.012 1546.72 Q991.012 1541.66 989.038 1539.14 Q987.065 1536.63 983.118 1536.63 Q978.376 1536.63 975.639 1539.65 Q972.901 1542.68 972.901 1547.9 L972.901 1568.04 L967.013 1568.04 L967.013 1518.52 L972.901 1518.52 L972.901 1537.93 Q975.002 1534.72 977.835 1533.13 Q980.699 1531.54 984.423 1531.54 Q990.566 1531.54 993.717 1535.36 Q996.868 1539.14 996.868 1546.53 Z" fill="#000000" fill-rule="evenodd" fill-opacity="1" /><path clip-path="url(#clip770)" d="M1024.75 1550.12 Q1017.65 1550.12 1014.91 1551.75 Q1012.18 1553.37 1012.18 1557.29 Q1012.18 1560.4 1014.21 1562.25 Q1016.28 1564.07 1019.82 1564.07 Q1024.69 1564.07 1027.61 1560.63 Q1030.57 1557.16 1030.57 1551.43 L1030.57 1550.12 L1024.75 1550.12 M1036.43 1547.71 L1036.43 1568.04 L1030.57 1568.04 L1030.57 1562.63 Q1028.57 1565.88 1025.58 1567.44 Q1022.59 1568.97 1018.26 1568.97 Q1012.78 1568.97 1009.54 1565.91 Q1006.32 1562.82 1006.32 1557.67 Q1006.32 1551.65 1010.33 1548.6 Q1014.37 1545.54 1022.36 1545.54 L1030.57 1545.54 L1030.57 1544.97 Q1030.57 1540.93 1027.9 1538.73 Q1025.26 1536.5 1020.45 1536.5 Q1017.4 1536.5 1014.5 1537.23 Q1011.6 1537.97 1008.93 1539.43 L1008.93 1534.02 Q1012.15 1532.78 1015.17 1532.17 Q1018.19 1531.54 1021.06 1531.54 Q1028.79 1531.54 1032.61 1535.55 Q1036.43 1539.56 1036.43 1547.71 Z" fill="#000000" fill-rule="evenodd" fill-opacity="1" /><path clip-path="url(#clip770)" d="M1078.13 1546.53 L1078.13 1568.04 L1072.27 1568.04 L1072.27 1546.72 Q1072.27 1541.66 1070.3 1539.14 Q1068.32 1536.63 1064.38 1536.63 Q1059.63 1536.63 1056.9 1539.65 Q1054.16 1542.68 1054.16 1547.9 L1054.16 1568.04 L1048.27 1568.04 L1048.27 1532.4 L1054.16 1532.4 L1054.16 1537.93 Q1056.26 1534.72 1059.09 1533.13 Q1061.96 1531.54 1065.68 1531.54 Q1071.82 1531.54 1074.98 1535.36 Q1078.13 1539.14 1078.13 1546.53 Z" fill="#000000" fill-rule="evenodd" fill-opacity="1" /><path clip-path="url(#clip770)" d="M1113.27 1549.81 Q1113.27 1543.44 1110.62 1539.94 Q1108.01 1536.44 1103.27 1536.44 Q1098.56 1536.44 1095.92 1539.94 Q1093.31 1543.44 1093.31 1549.81 Q1093.31 1556.14 1095.92 1559.64 Q1098.56 1563.14 1103.27 1563.14 Q1108.01 1563.14 1110.62 1559.64 Q1113.27 1556.14 1113.27 1549.81 M1119.12 1563.62 Q1119.12 1572.72 1115.08 1577.15 Q1111.04 1581.6 1102.7 1581.6 Q1099.61 1581.6 1096.87 1581.13 Q1094.14 1580.68 1091.56 1579.72 L1091.56 1574.03 Q1094.14 1575.43 1096.65 1576.1 Q1099.17 1576.76 1101.78 1576.76 Q1107.54 1576.76 1110.4 1573.74 Q1113.27 1570.75 1113.27 1564.67 L1113.27 1561.77 Q1111.45 1564.92 1108.62 1566.48 Q1105.79 1568.04 1101.84 1568.04 Q1095.28 1568.04 1091.27 1563.05 Q1087.26 1558.05 1087.26 1549.81 Q1087.26 1541.53 1091.27 1536.53 Q1095.28 1531.54 1101.84 1531.54 Q1105.79 1531.54 1108.62 1533.1 Q1111.45 1534.66 1113.27 1537.81 L1113.27 1532.4 L1119.12 1532.4 L1119.12 1563.62 Z" fill="#000000" fill-rule="evenodd" fill-opacity="1" /><path clip-path="url(#clip770)" d="M1161.68 1548.76 L1161.68 1551.62 L1134.75 1551.62 Q1135.13 1557.67 1138.38 1560.85 Q1141.66 1564 1147.48 1564 Q1150.85 1564 1154.01 1563.17 Q1157.19 1562.35 1160.31 1560.69 L1160.31 1566.23 Q1157.16 1567.57 1153.85 1568.27 Q1150.54 1568.97 1147.13 1568.97 Q1138.6 1568.97 1133.6 1564 Q1128.64 1559.04 1128.64 1550.57 Q1128.64 1541.82 1133.35 1536.69 Q1138.09 1531.54 1146.11 1531.54 Q1153.31 1531.54 1157.47 1536.18 Q1161.68 1540.8 1161.68 1548.76 M1155.82 1547.04 Q1155.76 1542.23 1153.11 1539.37 Q1150.5 1536.5 1146.18 1536.5 Q1141.27 1536.5 1138.31 1539.27 Q1135.39 1542.04 1134.94 1547.07 L1155.82 1547.04 Z" fill="#000000" fill-rule="evenodd" fill-opacity="1" /><path clip-path="url(#clip770)" d="M1197.67 1562.7 L1197.67 1581.6 L1191.79 1581.6 L1191.79 1532.4 L1197.67 1532.4 L1197.67 1537.81 Q1199.52 1534.62 1202.32 1533.1 Q1205.15 1531.54 1209.07 1531.54 Q1215.56 1531.54 1219.6 1536.69 Q1223.68 1541.85 1223.68 1550.25 Q1223.68 1558.65 1219.6 1563.81 Q1215.56 1568.97 1209.07 1568.97 Q1205.15 1568.97 1202.32 1567.44 Q1199.52 1565.88 1197.67 1562.7 M1217.6 1550.25 Q1217.6 1543.79 1214.93 1540.13 Q1212.28 1536.44 1207.64 1536.44 Q1202.99 1536.44 1200.32 1540.13 Q1197.67 1543.79 1197.67 1550.25 Q1197.67 1556.71 1200.32 1560.4 Q1202.99 1564.07 1207.64 1564.07 Q1212.28 1564.07 1214.93 1560.4 Q1217.6 1556.71 1217.6 1550.25 Z" fill="#000000" fill-rule="evenodd" fill-opacity="1" /><path clip-path="url(#clip770)" d="M1263.88 1548.76 L1263.88 1551.62 L1236.95 1551.62 Q1237.33 1557.67 1240.58 1560.85 Q1243.86 1564 1249.68 1564 Q1253.06 1564 1256.21 1563.17 Q1259.39 1562.35 1262.51 1560.69 L1262.51 1566.23 Q1259.36 1567.57 1256.05 1568.27 Q1252.74 1568.97 1249.33 1568.97 Q1240.8 1568.97 1235.8 1564 Q1230.84 1559.04 1230.84 1550.57 Q1230.84 1541.82 1235.55 1536.69 Q1240.29 1531.54 1248.31 1531.54 Q1255.51 1531.54 1259.68 1536.18 Q1263.88 1540.8 1263.88 1548.76 M1258.02 1547.04 Q1257.96 1542.23 1255.32 1539.37 Q1252.71 1536.5 1248.38 1536.5 Q1243.48 1536.5 1240.52 1539.27 Q1237.59 1542.04 1237.14 1547.07 L1258.02 1547.04 Z" fill="#000000" fill-rule="evenodd" fill-opacity="1" /><path clip-path="url(#clip770)" d="M1294.15 1537.87 Q1293.16 1537.3 1291.98 1537.04 Q1290.84 1536.76 1289.44 1536.76 Q1284.47 1536.76 1281.8 1540 Q1279.16 1543.22 1279.16 1549.27 L1279.16 1568.04 L1273.27 1568.04 L1273.27 1532.4 L1279.16 1532.4 L1279.16 1537.93 Q1281 1534.69 1283.96 1533.13 Q1286.92 1531.54 1291.15 1531.54 Q1291.76 1531.54 1292.49 1531.63 Q1293.22 1531.7 1294.11 1531.85 L1294.15 1537.87 Z" fill="#000000" fill-rule="evenodd" fill-opacity="1" /><path clip-path="url(#clip770)" d="M1344.47 1537.81 L1344.47 1518.52 L1350.32 1518.52 L1350.32 1568.04 L1344.47 1568.04 L1344.47 1562.7 Q1342.62 1565.88 1339.79 1567.44 Q1336.99 1568.97 1333.04 1568.97 Q1326.58 1568.97 1322.51 1563.81 Q1318.46 1558.65 1318.46 1550.25 Q1318.46 1541.85 1322.51 1536.69 Q1326.58 1531.54 1333.04 1531.54 Q1336.99 1531.54 1339.79 1533.1 Q1342.62 1534.62 1344.47 1537.81 M1324.51 1550.25 Q1324.51 1556.71 1327.15 1560.4 Q1329.83 1564.07 1334.47 1564.07 Q1339.12 1564.07 1341.79 1560.4 Q1344.47 1556.71 1344.47 1550.25 Q1344.47 1543.79 1341.79 1540.13 Q1339.12 1536.44 1334.47 1536.44 Q1329.83 1536.44 1327.15 1540.13 Q1324.51 1543.79 1324.51 1550.25 Z" fill="#000000" fill-rule="evenodd" fill-opacity="1" /><path clip-path="url(#clip770)" d="M1378.59 1550.12 Q1371.49 1550.12 1368.75 1551.75 Q1366.02 1553.37 1366.02 1557.29 Q1366.02 1560.4 1368.05 1562.25 Q1370.12 1564.07 1373.65 1564.07 Q1378.52 1564.07 1381.45 1560.63 Q1384.41 1557.16 1384.41 1551.43 L1384.41 1550.12 L1378.59 1550.12 M1390.27 1547.71 L1390.27 1568.04 L1384.41 1568.04 L1384.41 1562.63 Q1382.41 1565.88 1379.42 1567.44 Q1376.42 1568.97 1372.09 1568.97 Q1366.62 1568.97 1363.37 1565.91 Q1360.16 1562.82 1360.16 1557.67 Q1360.16 1551.65 1364.17 1548.6 Q1368.21 1545.54 1376.2 1545.54 L1384.41 1545.54 L1384.41 1544.97 Q1384.41 1540.93 1381.74 1538.73 Q1379.1 1536.5 1374.29 1536.5 Q1371.24 1536.5 1368.34 1537.23 Q1365.44 1537.97 1362.77 1539.43 L1362.77 1534.02 Q1365.98 1532.78 1369.01 1532.17 Q1372.03 1531.54 1374.9 1531.54 Q1382.63 1531.54 1386.45 1535.55 Q1390.27 1539.56 1390.27 1547.71 Z" fill="#000000" fill-rule="evenodd" fill-opacity="1" /><path clip-path="url(#clip770)" d="M1417.16 1571.35 Q1414.68 1577.72 1412.33 1579.66 Q1409.97 1581.6 1406.02 1581.6 L1401.35 1581.6 L1401.35 1576.7 L1404.78 1576.7 Q1407.2 1576.7 1408.54 1575.56 Q1409.88 1574.41 1411.5 1570.14 L1412.55 1567.47 L1398.13 1532.4 L1404.34 1532.4 L1415.48 1560.28 L1426.62 1532.4 L1432.82 1532.4 L1417.16 1571.35 Z" fill="#000000" fill-rule="evenodd" fill-opacity="1" /><path clip-path="url(#clip770)" d="M1475.7 1518.58 Q1471.43 1525.9 1469.36 1533.06 Q1467.29 1540.23 1467.29 1547.58 Q1467.29 1554.93 1469.36 1562.16 Q1471.46 1569.35 1475.7 1576.64 L1470.6 1576.64 Q1465.83 1569.16 1463.44 1561.93 Q1461.09 1554.71 1461.09 1547.58 Q1461.09 1540.48 1463.44 1533.29 Q1465.8 1526.09 1470.6 1518.58 L1475.7 1518.58 Z" fill="#000000" fill-rule="evenodd" fill-opacity="1" /><path clip-path="url(#clip770)" d="M1487.06 1518.52 L1492.92 1518.52 L1492.92 1568.04 L1487.06 1568.04 L1487.06 1518.52 Z" fill="#000000" fill-rule="evenodd" fill-opacity="1" /><path clip-path="url(#clip770)" d="M1518.98 1536.5 Q1514.27 1536.5 1511.54 1540.19 Q1508.8 1543.85 1508.8 1550.25 Q1508.8 1556.65 1511.5 1560.34 Q1514.24 1564 1518.98 1564 Q1523.66 1564 1526.4 1560.31 Q1529.14 1556.62 1529.14 1550.25 Q1529.14 1543.92 1526.4 1540.23 Q1523.66 1536.5 1518.98 1536.5 M1518.98 1531.54 Q1526.62 1531.54 1530.98 1536.5 Q1535.34 1541.47 1535.34 1550.25 Q1535.34 1559 1530.98 1564 Q1526.62 1568.97 1518.98 1568.97 Q1511.31 1568.97 1506.95 1564 Q1502.62 1559 1502.62 1550.25 Q1502.62 1541.47 1506.95 1536.5 Q1511.31 1531.54 1518.98 1531.54 Z" fill="#000000" fill-rule="evenodd" fill-opacity="1" /><path clip-path="url(#clip770)" d="M1568.51 1549.81 Q1568.51 1543.44 1565.87 1539.94 Q1563.26 1536.44 1558.51 1536.44 Q1553.8 1536.44 1551.16 1539.94 Q1548.55 1543.44 1548.55 1549.81 Q1548.55 1556.14 1551.16 1559.64 Q1553.8 1563.14 1558.51 1563.14 Q1563.26 1563.14 1565.87 1559.64 Q1568.51 1556.14 1568.51 1549.81 M1574.37 1563.62 Q1574.37 1572.72 1570.32 1577.15 Q1566.28 1581.6 1557.94 1581.6 Q1554.85 1581.6 1552.12 1581.13 Q1549.38 1580.68 1546.8 1579.72 L1546.8 1574.03 Q1549.38 1575.43 1551.89 1576.1 Q1554.41 1576.76 1557.02 1576.76 Q1562.78 1576.76 1565.64 1573.74 Q1568.51 1570.75 1568.51 1564.67 L1568.51 1561.77 Q1566.69 1564.92 1563.86 1566.48 Q1561.03 1568.04 1557.08 1568.04 Q1550.53 1568.04 1546.52 1563.05 Q1542.5 1558.05 1542.5 1549.81 Q1542.5 1541.53 1546.52 1536.53 Q1550.53 1531.54 1557.08 1531.54 Q1561.03 1531.54 1563.86 1533.1 Q1566.69 1534.66 1568.51 1537.81 L1568.51 1532.4 L1574.37 1532.4 L1574.37 1563.62 Z" fill="#000000" fill-rule="evenodd" fill-opacity="1" /><path clip-path="url(#clip770)" d="M1588.37 1562.63 L1598.87 1562.63 L1598.87 1526.38 L1587.45 1528.67 L1587.45 1522.82 L1598.81 1520.52 L1605.24 1520.52 L1605.24 1562.63 L1615.74 1562.63 L1615.74 1568.04 L1588.37 1568.04 L1588.37 1562.63 Z" fill="#000000" fill-rule="evenodd" fill-opacity="1" /><path clip-path="url(#clip770)" d="M1642.48 1524.76 Q1637.51 1524.76 1635 1529.66 Q1632.52 1534.53 1632.52 1544.33 Q1632.52 1554.1 1635 1559 Q1637.51 1563.87 1642.48 1563.87 Q1647.48 1563.87 1649.96 1559 Q1652.47 1554.1 1652.47 1544.33 Q1652.47 1534.53 1649.96 1529.66 Q1647.48 1524.76 1642.48 1524.76 M1642.48 1519.66 Q1650.47 1519.66 1654.67 1526 Q1658.9 1532.3 1658.9 1544.33 Q1658.9 1556.33 1654.67 1562.66 Q1650.47 1568.97 1642.48 1568.97 Q1634.49 1568.97 1630.26 1562.66 Q1626.05 1556.33 1626.05 1544.33 Q1626.05 1532.3 1630.26 1526 Q1634.49 1519.66 1642.48 1519.66 Z" fill="#000000" fill-rule="evenodd" fill-opacity="1" /><path clip-path="url(#clip770)" d="M1668.45 1518.58 L1673.54 1518.58 Q1678.32 1526.09 1680.67 1533.29 Q1683.06 1540.48 1683.06 1547.58 Q1683.06 1554.71 1680.67 1561.93 Q1678.32 1569.16 1673.54 1576.64 L1668.45 1576.64 Q1672.68 1569.35 1674.75 1562.16 Q1676.85 1554.93 1676.85 1547.58 Q1676.85 1540.23 1674.75 1533.06 Q1672.68 1525.9 1668.45 1518.58 Z" fill="#000000" fill-rule="evenodd" fill-opacity="1" /><polyline clip-path="url(#clip772)" style="stroke:#000000; stroke-linecap:butt; stroke-linejoin:round; stroke-width:2; stroke-opacity:0.1; fill:none" points="
  249.542,1386.4 2352.76,1386.4 
  "/>
<polyline clip-path="url(#clip772)" style="stroke:#000000; stroke-linecap:butt; stroke-linejoin:round; stroke-width:2; stroke-opacity:0.1; fill:none" points="
  249.542,1165.38 2352.76,1165.38 
  "/>
<polyline clip-path="url(#clip772)" style="stroke:#000000; stroke-linecap:butt; stroke-linejoin:round; stroke-width:2; stroke-opacity:0.1; fill:none" points="
  249.542,944.371 2352.76,944.371 
  "/>
<polyline clip-path="url(#clip772)" style="stroke:#000000; stroke-linecap:butt; stroke-linejoin:round; stroke-width:2; stroke-opacity:0.1; fill:none" points="
  249.542,723.359 2352.76,723.359 
  "/>
<polyline clip-path="url(#clip772)" style="stroke:#000000; stroke-linecap:butt; stroke-linejoin:round; stroke-width:2; stroke-opacity:0.1; fill:none" points="
  249.542,502.347 2352.76,502.347 
  "/>
<polyline clip-path="url(#clip772)" style="stroke:#000000; stroke-linecap:butt; stroke-linejoin:round; stroke-width:2; stroke-opacity:0.1; fill:none" points="
  249.542,281.335 2352.76,281.335 
  "/>
<polyline clip-path="url(#clip770)" style="stroke:#000000; stroke-linecap:butt; stroke-linejoin:round; stroke-width:4; stroke-opacity:1; fill:none" points="
  249.542,1423.18 249.542,123.472 
  "/>
<polyline clip-path="url(#clip770)" style="stroke:#000000; stroke-linecap:butt; stroke-linejoin:round; stroke-width:4; stroke-opacity:1; fill:none" points="
  249.542,1386.4 268.44,1386.4 
  "/>
<polyline clip-path="url(#clip770)" style="stroke:#000000; stroke-linecap:butt; stroke-linejoin:round; stroke-width:4; stroke-opacity:1; fill:none" points="
  249.542,1165.38 268.44,1165.38 
  "/>
<polyline clip-path="url(#clip770)" style="stroke:#000000; stroke-linecap:butt; stroke-linejoin:round; stroke-width:4; stroke-opacity:1; fill:none" points="
  249.542,944.371 268.44,944.371 
  "/>
<polyline clip-path="url(#clip770)" style="stroke:#000000; stroke-linecap:butt; stroke-linejoin:round; stroke-width:4; stroke-opacity:1; fill:none" points="
  249.542,723.359 268.44,723.359 
  "/>
<polyline clip-path="url(#clip770)" style="stroke:#000000; stroke-linecap:butt; stroke-linejoin:round; stroke-width:4; stroke-opacity:1; fill:none" points="
  249.542,502.347 268.44,502.347 
  "/>
<polyline clip-path="url(#clip770)" style="stroke:#000000; stroke-linecap:butt; stroke-linejoin:round; stroke-width:4; stroke-opacity:1; fill:none" points="
  249.542,281.335 268.44,281.335 
  "/>
<path clip-path="url(#clip770)" d="M126.205 1372.19 Q122.593 1372.19 120.765 1375.76 Q118.959 1379.3 118.959 1386.43 Q118.959 1393.54 120.765 1397.1 Q122.593 1400.64 126.205 1400.64 Q129.839 1400.64 131.644 1397.1 Q133.473 1393.54 133.473 1386.43 Q133.473 1379.3 131.644 1375.76 Q129.839 1372.19 126.205 1372.19 M126.205 1368.49 Q132.015 1368.49 135.07 1373.1 Q138.149 1377.68 138.149 1386.43 Q138.149 1395.16 135.07 1399.76 Q132.015 1404.35 126.205 1404.35 Q120.394 1404.35 117.316 1399.76 Q114.26 1395.16 114.26 1386.43 Q114.26 1377.68 117.316 1373.1 Q120.394 1368.49 126.205 1368.49 Z" fill="#000000" fill-rule="evenodd" fill-opacity="1" /><path clip-path="url(#clip770)" d="M146.366 1397.8 L151.251 1397.8 L151.251 1403.68 L146.366 1403.68 L146.366 1397.8 Z" fill="#000000" fill-rule="evenodd" fill-opacity="1" /><path clip-path="url(#clip770)" d="M171.436 1372.19 Q167.825 1372.19 165.996 1375.76 Q164.19 1379.3 164.19 1386.43 Q164.19 1393.54 165.996 1397.1 Q167.825 1400.64 171.436 1400.64 Q175.07 1400.64 176.876 1397.1 Q178.704 1393.54 178.704 1386.43 Q178.704 1379.3 176.876 1375.76 Q175.07 1372.19 171.436 1372.19 M171.436 1368.49 Q177.246 1368.49 180.301 1373.1 Q183.38 1377.68 183.38 1386.43 Q183.38 1395.16 180.301 1399.76 Q177.246 1404.35 171.436 1404.35 Q165.626 1404.35 162.547 1399.76 Q159.491 1395.16 159.491 1386.43 Q159.491 1377.68 162.547 1373.1 Q165.626 1368.49 171.436 1368.49 Z" fill="#000000" fill-rule="evenodd" fill-opacity="1" /><path clip-path="url(#clip770)" d="M201.598 1372.19 Q197.987 1372.19 196.158 1375.76 Q194.352 1379.3 194.352 1386.43 Q194.352 1393.54 196.158 1397.1 Q197.987 1400.64 201.598 1400.64 Q205.232 1400.64 207.037 1397.1 Q208.866 1393.54 208.866 1386.43 Q208.866 1379.3 207.037 1375.76 Q205.232 1372.19 201.598 1372.19 M201.598 1368.49 Q207.408 1368.49 210.463 1373.1 Q213.542 1377.68 213.542 1386.43 Q213.542 1395.16 210.463 1399.76 Q207.408 1404.35 201.598 1404.35 Q195.787 1404.35 192.709 1399.76 Q189.653 1395.16 189.653 1386.43 Q189.653 1377.68 192.709 1373.1 Q195.787 1368.49 201.598 1368.49 Z" fill="#000000" fill-rule="evenodd" fill-opacity="1" /><path clip-path="url(#clip770)" d="M127.2 1151.18 Q123.589 1151.18 121.76 1154.75 Q119.955 1158.29 119.955 1165.42 Q119.955 1172.52 121.76 1176.09 Q123.589 1179.63 127.2 1179.63 Q130.834 1179.63 132.64 1176.09 Q134.468 1172.52 134.468 1165.42 Q134.468 1158.29 132.64 1154.75 Q130.834 1151.18 127.2 1151.18 M127.2 1147.48 Q133.01 1147.48 136.066 1152.09 Q139.144 1156.67 139.144 1165.42 Q139.144 1174.15 136.066 1178.75 Q133.01 1183.33 127.2 1183.33 Q121.39 1183.33 118.311 1178.75 Q115.256 1174.15 115.256 1165.42 Q115.256 1156.67 118.311 1152.09 Q121.39 1147.48 127.2 1147.48 Z" fill="#000000" fill-rule="evenodd" fill-opacity="1" /><path clip-path="url(#clip770)" d="M147.362 1176.78 L152.246 1176.78 L152.246 1182.66 L147.362 1182.66 L147.362 1176.78 Z" fill="#000000" fill-rule="evenodd" fill-opacity="1" /><path clip-path="url(#clip770)" d="M166.459 1178.73 L182.778 1178.73 L182.778 1182.66 L160.834 1182.66 L160.834 1178.73 Q163.496 1175.97 168.079 1171.34 Q172.686 1166.69 173.866 1165.35 Q176.112 1162.83 176.991 1161.09 Q177.894 1159.33 177.894 1157.64 Q177.894 1154.89 175.95 1153.15 Q174.028 1151.41 170.927 1151.41 Q168.727 1151.41 166.274 1152.18 Q163.843 1152.94 161.065 1154.49 L161.065 1149.77 Q163.89 1148.64 166.343 1148.06 Q168.797 1147.48 170.834 1147.48 Q176.204 1147.48 179.399 1150.16 Q182.593 1152.85 182.593 1157.34 Q182.593 1159.47 181.783 1161.39 Q180.996 1163.29 178.889 1165.88 Q178.311 1166.55 175.209 1169.77 Q172.107 1172.96 166.459 1178.73 Z" fill="#000000" fill-rule="evenodd" fill-opacity="1" /><path clip-path="url(#clip770)" d="M192.639 1148.1 L210.996 1148.1 L210.996 1152.04 L196.922 1152.04 L196.922 1160.51 Q197.94 1160.16 198.959 1160 Q199.977 1159.82 200.996 1159.82 Q206.783 1159.82 210.162 1162.99 Q213.542 1166.16 213.542 1171.58 Q213.542 1177.15 210.07 1180.26 Q206.598 1183.33 200.278 1183.33 Q198.102 1183.33 195.834 1182.96 Q193.588 1182.59 191.181 1181.85 L191.181 1177.15 Q193.264 1178.29 195.487 1178.84 Q197.709 1179.4 200.186 1179.4 Q204.19 1179.4 206.528 1177.29 Q208.866 1175.19 208.866 1171.58 Q208.866 1167.96 206.528 1165.86 Q204.19 1163.75 200.186 1163.75 Q198.311 1163.75 196.436 1164.17 Q194.584 1164.58 192.639 1165.46 L192.639 1148.1 Z" fill="#000000" fill-rule="evenodd" fill-opacity="1" /><path clip-path="url(#clip770)" d="M126.205 930.17 Q122.593 930.17 120.765 933.735 Q118.959 937.277 118.959 944.406 Q118.959 951.513 120.765 955.077 Q122.593 958.619 126.205 958.619 Q129.839 958.619 131.644 955.077 Q133.473 951.513 133.473 944.406 Q133.473 937.277 131.644 933.735 Q129.839 930.17 126.205 930.17 M126.205 926.466 Q132.015 926.466 135.07 931.073 Q138.149 935.656 138.149 944.406 Q138.149 953.133 135.07 957.739 Q132.015 962.323 126.205 962.323 Q120.394 962.323 117.316 957.739 Q114.26 953.133 114.26 944.406 Q114.26 935.656 117.316 931.073 Q120.394 926.466 126.205 926.466 Z" fill="#000000" fill-rule="evenodd" fill-opacity="1" /><path clip-path="url(#clip770)" d="M146.366 955.772 L151.251 955.772 L151.251 961.651 L146.366 961.651 L146.366 955.772 Z" fill="#000000" fill-rule="evenodd" fill-opacity="1" /><path clip-path="url(#clip770)" d="M161.482 927.091 L179.839 927.091 L179.839 931.027 L165.765 931.027 L165.765 939.499 Q166.783 939.152 167.802 938.99 Q168.82 938.804 169.839 938.804 Q175.626 938.804 179.005 941.976 Q182.385 945.147 182.385 950.564 Q182.385 956.142 178.913 959.244 Q175.44 962.323 169.121 962.323 Q166.945 962.323 164.677 961.952 Q162.431 961.582 160.024 960.841 L160.024 956.142 Q162.107 957.276 164.329 957.832 Q166.552 958.388 169.028 958.388 Q173.033 958.388 175.371 956.281 Q177.709 954.175 177.709 950.564 Q177.709 946.952 175.371 944.846 Q173.033 942.739 169.028 942.739 Q167.153 942.739 165.278 943.156 Q163.427 943.573 161.482 944.452 L161.482 927.091 Z" fill="#000000" fill-rule="evenodd" fill-opacity="1" /><path clip-path="url(#clip770)" d="M201.598 930.17 Q197.987 930.17 196.158 933.735 Q194.352 937.277 194.352 944.406 Q194.352 951.513 196.158 955.077 Q197.987 958.619 201.598 958.619 Q205.232 958.619 207.037 955.077 Q208.866 951.513 208.866 944.406 Q208.866 937.277 207.037 933.735 Q205.232 930.17 201.598 930.17 M201.598 926.466 Q207.408 926.466 210.463 931.073 Q213.542 935.656 213.542 944.406 Q213.542 953.133 210.463 957.739 Q207.408 962.323 201.598 962.323 Q195.787 962.323 192.709 957.739 Q189.653 953.133 189.653 944.406 Q189.653 935.656 192.709 931.073 Q195.787 926.466 201.598 926.466 Z" fill="#000000" fill-rule="evenodd" fill-opacity="1" /><path clip-path="url(#clip770)" d="M127.2 709.158 Q123.589 709.158 121.76 712.723 Q119.955 716.264 119.955 723.394 Q119.955 730.5 121.76 734.065 Q123.589 737.607 127.2 737.607 Q130.834 737.607 132.64 734.065 Q134.468 730.5 134.468 723.394 Q134.468 716.264 132.64 712.723 Q130.834 709.158 127.2 709.158 M127.2 705.454 Q133.01 705.454 136.066 710.061 Q139.144 714.644 139.144 723.394 Q139.144 732.121 136.066 736.727 Q133.01 741.311 127.2 741.311 Q121.39 741.311 118.311 736.727 Q115.256 732.121 115.256 723.394 Q115.256 714.644 118.311 710.061 Q121.39 705.454 127.2 705.454 Z" fill="#000000" fill-rule="evenodd" fill-opacity="1" /><path clip-path="url(#clip770)" d="M147.362 734.76 L152.246 734.76 L152.246 740.639 L147.362 740.639 L147.362 734.76 Z" fill="#000000" fill-rule="evenodd" fill-opacity="1" /><path clip-path="url(#clip770)" d="M161.251 706.079 L183.473 706.079 L183.473 708.07 L170.927 740.639 L166.042 740.639 L177.848 710.014 L161.251 710.014 L161.251 706.079 Z" fill="#000000" fill-rule="evenodd" fill-opacity="1" /><path clip-path="url(#clip770)" d="M192.639 706.079 L210.996 706.079 L210.996 710.014 L196.922 710.014 L196.922 718.487 Q197.94 718.139 198.959 717.977 Q199.977 717.792 200.996 717.792 Q206.783 717.792 210.162 720.963 Q213.542 724.135 213.542 729.551 Q213.542 735.13 210.07 738.232 Q206.598 741.311 200.278 741.311 Q198.102 741.311 195.834 740.94 Q193.588 740.57 191.181 739.829 L191.181 735.13 Q193.264 736.264 195.487 736.82 Q197.709 737.375 200.186 737.375 Q204.19 737.375 206.528 735.269 Q208.866 733.163 208.866 729.551 Q208.866 725.94 206.528 723.834 Q204.19 721.727 200.186 721.727 Q198.311 721.727 196.436 722.144 Q194.584 722.561 192.639 723.44 L192.639 706.079 Z" fill="#000000" fill-rule="evenodd" fill-opacity="1" /><path clip-path="url(#clip770)" d="M117.015 515.692 L124.654 515.692 L124.654 489.326 L116.343 490.993 L116.343 486.734 L124.607 485.067 L129.283 485.067 L129.283 515.692 L136.922 515.692 L136.922 519.627 L117.015 519.627 L117.015 515.692 Z" fill="#000000" fill-rule="evenodd" fill-opacity="1" /><path clip-path="url(#clip770)" d="M146.366 513.748 L151.251 513.748 L151.251 519.627 L146.366 519.627 L146.366 513.748 Z" fill="#000000" fill-rule="evenodd" fill-opacity="1" /><path clip-path="url(#clip770)" d="M171.436 488.146 Q167.825 488.146 165.996 491.711 Q164.19 495.252 164.19 502.382 Q164.19 509.488 165.996 513.053 Q167.825 516.595 171.436 516.595 Q175.07 516.595 176.876 513.053 Q178.704 509.488 178.704 502.382 Q178.704 495.252 176.876 491.711 Q175.07 488.146 171.436 488.146 M171.436 484.442 Q177.246 484.442 180.301 489.049 Q183.38 493.632 183.38 502.382 Q183.38 511.109 180.301 515.715 Q177.246 520.298 171.436 520.298 Q165.626 520.298 162.547 515.715 Q159.491 511.109 159.491 502.382 Q159.491 493.632 162.547 489.049 Q165.626 484.442 171.436 484.442 Z" fill="#000000" fill-rule="evenodd" fill-opacity="1" /><path clip-path="url(#clip770)" d="M201.598 488.146 Q197.987 488.146 196.158 491.711 Q194.352 495.252 194.352 502.382 Q194.352 509.488 196.158 513.053 Q197.987 516.595 201.598 516.595 Q205.232 516.595 207.037 513.053 Q208.866 509.488 208.866 502.382 Q208.866 495.252 207.037 491.711 Q205.232 488.146 201.598 488.146 M201.598 484.442 Q207.408 484.442 210.463 489.049 Q213.542 493.632 213.542 502.382 Q213.542 511.109 210.463 515.715 Q207.408 520.298 201.598 520.298 Q195.787 520.298 192.709 515.715 Q189.653 511.109 189.653 502.382 Q189.653 493.632 192.709 489.049 Q195.787 484.442 201.598 484.442 Z" fill="#000000" fill-rule="evenodd" fill-opacity="1" /><path clip-path="url(#clip770)" d="M118.01 294.68 L125.649 294.68 L125.649 268.314 L117.339 269.981 L117.339 265.722 L125.603 264.055 L130.279 264.055 L130.279 294.68 L137.917 294.68 L137.917 298.615 L118.01 298.615 L118.01 294.68 Z" fill="#000000" fill-rule="evenodd" fill-opacity="1" /><path clip-path="url(#clip770)" d="M147.362 292.735 L152.246 292.735 L152.246 298.615 L147.362 298.615 L147.362 292.735 Z" fill="#000000" fill-rule="evenodd" fill-opacity="1" /><path clip-path="url(#clip770)" d="M166.459 294.68 L182.778 294.68 L182.778 298.615 L160.834 298.615 L160.834 294.68 Q163.496 291.925 168.079 287.296 Q172.686 282.643 173.866 281.3 Q176.112 278.777 176.991 277.041 Q177.894 275.282 177.894 273.592 Q177.894 270.837 175.95 269.101 Q174.028 267.365 170.927 267.365 Q168.727 267.365 166.274 268.129 Q163.843 268.893 161.065 270.444 L161.065 265.722 Q163.89 264.587 166.343 264.009 Q168.797 263.43 170.834 263.43 Q176.204 263.43 179.399 266.115 Q182.593 268.8 182.593 273.291 Q182.593 275.421 181.783 277.342 Q180.996 279.24 178.889 281.833 Q178.311 282.504 175.209 285.722 Q172.107 288.916 166.459 294.68 Z" fill="#000000" fill-rule="evenodd" fill-opacity="1" /><path clip-path="url(#clip770)" d="M192.639 264.055 L210.996 264.055 L210.996 267.99 L196.922 267.99 L196.922 276.462 Q197.94 276.115 198.959 275.953 Q199.977 275.768 200.996 275.768 Q206.783 275.768 210.162 278.939 Q213.542 282.111 213.542 287.527 Q213.542 293.106 210.07 296.208 Q206.598 299.286 200.278 299.286 Q198.102 299.286 195.834 298.916 Q193.588 298.546 191.181 297.805 L191.181 293.106 Q193.264 294.24 195.487 294.796 Q197.709 295.351 200.186 295.351 Q204.19 295.351 206.528 293.245 Q208.866 291.138 208.866 287.527 Q208.866 283.916 206.528 281.81 Q204.19 279.703 200.186 279.703 Q198.311 279.703 196.436 280.12 Q194.584 280.536 192.639 281.416 L192.639 264.055 Z" fill="#000000" fill-rule="evenodd" fill-opacity="1" /><path clip-path="url(#clip770)" d="M21.7677 886.636 L58.7206 886.636 L58.7206 878.869 Q58.7206 869.034 54.2646 864.483 Q49.8086 859.9 40.1964 859.9 Q30.6479 859.9 26.2237 864.483 Q21.7677 869.034 21.7677 878.869 L21.7677 886.636 M16.4842 893.065 L16.4842 879.856 Q16.4842 866.043 22.2451 859.581 Q27.9743 853.12 40.1964 853.12 Q52.4822 853.12 58.2432 859.613 Q64.0042 866.106 64.0042 879.856 L64.0042 893.065 L16.4842 893.065 Z" fill="#000000" fill-rule="evenodd" fill-opacity="1" /><path clip-path="url(#clip770)" d="M44.7161 812.634 L47.5806 812.634 L47.5806 839.561 Q53.6281 839.179 56.8109 835.933 Q59.9619 832.654 59.9619 826.83 Q59.9619 823.456 59.1344 820.305 Q58.3069 817.122 56.6518 814.003 L62.1899 814.003 Q63.5267 817.154 64.227 820.464 Q64.9272 823.774 64.9272 827.18 Q64.9272 835.71 59.9619 840.707 Q54.9967 845.672 46.5303 845.672 Q37.7774 845.672 32.6531 840.962 Q27.4968 836.219 27.4968 828.198 Q27.4968 821.005 32.1438 816.836 Q36.7589 812.634 44.7161 812.634 M42.9973 818.491 Q38.1912 818.554 35.3266 821.196 Q32.4621 823.806 32.4621 828.135 Q32.4621 833.036 35.2312 835.996 Q38.0002 838.925 43.0292 839.37 L42.9973 818.491 Z" fill="#000000" fill-rule="evenodd" fill-opacity="1" /><path clip-path="url(#clip770)" d="M42.4881 773.39 L64.0042 773.39 L64.0042 779.246 L42.679 779.246 Q37.6183 779.246 35.1038 781.219 Q32.5894 783.193 32.5894 787.14 Q32.5894 791.882 35.6131 794.619 Q38.6368 797.357 43.8567 797.357 L64.0042 797.357 L64.0042 803.245 L28.3562 803.245 L28.3562 797.357 L33.8944 797.357 Q30.6797 795.256 29.0883 792.423 Q27.4968 789.559 27.4968 785.835 Q27.4968 779.692 31.3163 776.541 Q35.1038 773.39 42.4881 773.39 Z" fill="#000000" fill-rule="evenodd" fill-opacity="1" /><path clip-path="url(#clip770)" d="M29.4065 738.983 L34.9447 738.983 Q33.6716 741.466 33.035 744.139 Q32.3984 746.813 32.3984 749.677 Q32.3984 754.038 33.7352 756.234 Q35.072 758.398 37.7456 758.398 Q39.7826 758.398 40.9603 756.839 Q42.1061 755.279 43.1565 750.569 L43.6021 748.563 Q44.9389 742.325 47.3897 739.715 Q49.8086 737.073 54.1691 737.073 Q59.1344 737.073 62.0308 741.02 Q64.9272 744.935 64.9272 751.81 Q64.9272 754.674 64.3543 757.794 Q63.8132 760.881 62.6992 764.319 L56.6518 764.319 Q58.3387 761.072 59.198 757.921 Q60.0256 754.77 60.0256 751.683 Q60.0256 747.545 58.6251 745.317 Q57.1929 743.089 54.6147 743.089 Q52.2276 743.089 50.9545 744.712 Q49.6813 746.304 48.5037 751.746 L48.0262 753.783 Q46.8804 759.226 44.5251 761.645 Q42.138 764.064 38.0002 764.064 Q32.9713 764.064 30.2341 760.499 Q27.4968 756.934 27.4968 750.378 Q27.4968 747.131 27.9743 744.267 Q28.4517 741.402 29.4065 738.983 Z" fill="#000000" fill-rule="evenodd" fill-opacity="1" /><path clip-path="url(#clip770)" d="M28.3562 727.748 L28.3562 721.891 L64.0042 721.891 L64.0042 727.748 L28.3562 727.748 M14.479 727.748 L14.479 721.891 L21.895 721.891 L21.895 727.748 L14.479 727.748 Z" fill="#000000" fill-rule="evenodd" fill-opacity="1" /><path clip-path="url(#clip770)" d="M18.2347 703.844 L28.3562 703.844 L28.3562 691.781 L32.9077 691.781 L32.9077 703.844 L52.2594 703.844 Q56.6199 703.844 57.8613 702.667 Q59.1026 701.457 59.1026 697.797 L59.1026 691.781 L64.0042 691.781 L64.0042 697.797 Q64.0042 704.576 61.4897 707.154 Q58.9434 709.733 52.2594 709.733 L32.9077 709.733 L32.9077 714.029 L28.3562 714.029 L28.3562 709.733 L18.2347 709.733 L18.2347 703.844 Z" fill="#000000" fill-rule="evenodd" fill-opacity="1" /><path clip-path="url(#clip770)" d="M67.3143 669.247 Q73.68 671.729 75.6216 674.085 Q77.5631 676.44 77.5631 680.387 L77.5631 685.065 L72.6615 685.065 L72.6615 681.628 Q72.6615 679.209 71.5157 677.872 Q70.3699 676.535 66.1048 674.912 L63.4312 673.862 L28.3562 688.28 L28.3562 682.074 L56.238 670.934 L28.3562 659.794 L28.3562 653.587 L67.3143 669.247 Z" fill="#000000" fill-rule="evenodd" fill-opacity="1" /><path clip-path="url(#clip770)" d="M556.188 18.8205 L556.188 41.5461 L566.477 41.5461 Q572.189 41.5461 575.308 38.5889 Q578.427 35.6318 578.427 30.163 Q578.427 24.7348 575.308 21.7777 Q572.189 18.8205 566.477 18.8205 L556.188 18.8205 M548.005 12.096 L566.477 12.096 Q576.645 12.096 581.83 16.714 Q587.056 21.2916 587.056 30.163 Q587.056 39.1155 581.83 43.6931 Q576.645 48.2706 566.477 48.2706 L556.188 48.2706 L556.188 72.576 L548.005 72.576 L548.005 12.096 Z" fill="#000000" fill-rule="evenodd" fill-opacity="1" /><path clip-path="url(#clip770)" d="M612.333 32.4315 Q606.338 32.4315 602.854 37.1306 Q599.37 41.7891 599.37 49.9314 Q599.37 58.0738 602.814 62.7728 Q606.297 67.4314 612.333 67.4314 Q618.288 67.4314 621.772 62.7323 Q625.256 58.0333 625.256 49.9314 Q625.256 41.8701 621.772 37.1711 Q618.288 32.4315 612.333 32.4315 M612.333 26.1121 Q622.055 26.1121 627.605 32.4315 Q633.155 38.7509 633.155 49.9314 Q633.155 61.0714 627.605 67.4314 Q622.055 73.7508 612.333 73.7508 Q602.571 73.7508 597.021 67.4314 Q591.512 61.0714 591.512 49.9314 Q591.512 38.7509 597.021 32.4315 Q602.571 26.1121 612.333 26.1121 Z" fill="#000000" fill-rule="evenodd" fill-opacity="1" /><path clip-path="url(#clip770)" d="M652.721 65.7705 L652.721 89.8329 L645.227 89.8329 L645.227 27.2059 L652.721 27.2059 L652.721 34.0924 Q655.07 30.0415 658.635 28.0971 Q662.24 26.1121 667.223 26.1121 Q675.487 26.1121 680.631 32.6746 Q685.817 39.2371 685.817 49.9314 Q685.817 60.6258 680.631 67.1883 Q675.487 73.7508 667.223 73.7508 Q662.24 73.7508 658.635 71.8063 Q655.07 69.8214 652.721 65.7705 M678.079 49.9314 Q678.079 41.7081 674.677 37.0496 Q671.314 32.3505 665.4 32.3505 Q659.486 32.3505 656.083 37.0496 Q652.721 41.7081 652.721 49.9314 Q652.721 58.1548 656.083 62.8538 Q659.486 67.5124 665.4 67.5124 Q671.314 67.5124 674.677 62.8538 Q678.079 58.1548 678.079 49.9314 Z" fill="#000000" fill-rule="evenodd" fill-opacity="1" /><path clip-path="url(#clip770)" d="M697.402 54.671 L697.402 27.2059 L704.856 27.2059 L704.856 54.3874 Q704.856 60.8284 707.367 64.0691 Q709.879 67.2693 714.902 67.2693 Q720.938 67.2693 724.422 63.421 Q727.946 59.5726 727.946 52.9291 L727.946 27.2059 L735.4 27.2059 L735.4 72.576 L727.946 72.576 L727.946 65.6084 Q725.232 69.7404 721.627 71.7658 Q718.062 73.7508 713.322 73.7508 Q705.504 73.7508 701.453 68.8897 Q697.402 64.0286 697.402 54.671 M716.158 26.1121 L716.158 26.1121 Z" fill="#000000" fill-rule="evenodd" fill-opacity="1" /><path clip-path="url(#clip770)" d="M750.753 9.54393 L758.206 9.54393 L758.206 72.576 L750.753 72.576 L750.753 9.54393 Z" fill="#000000" fill-rule="evenodd" fill-opacity="1" /><path clip-path="url(#clip770)" d="M794.421 49.7694 Q785.388 49.7694 781.904 51.8354 Q778.42 53.9013 778.42 58.8839 Q778.42 62.8538 781.013 65.2034 Q783.646 67.5124 788.142 67.5124 Q794.34 67.5124 798.067 63.1374 Q801.835 58.7219 801.835 51.4303 L801.835 49.7694 L794.421 49.7694 M809.288 46.6907 L809.288 72.576 L801.835 72.576 L801.835 65.6895 Q799.282 69.8214 795.475 71.8063 Q791.667 73.7508 786.158 73.7508 Q779.19 73.7508 775.058 69.8619 Q770.967 65.9325 770.967 59.3701 Q770.967 51.7138 776.071 47.825 Q781.215 43.9361 791.383 43.9361 L801.835 43.9361 L801.835 43.2069 Q801.835 38.0623 798.432 35.2672 Q795.07 32.4315 788.953 32.4315 Q785.064 32.4315 781.377 33.3632 Q777.691 34.295 774.288 36.1584 L774.288 29.2718 Q778.38 27.692 782.228 26.9223 Q786.076 26.1121 789.722 26.1121 Q799.566 26.1121 804.427 31.2163 Q809.288 36.3204 809.288 46.6907 Z" fill="#000000" fill-rule="evenodd" fill-opacity="1" /><path clip-path="url(#clip770)" d="M832.014 14.324 L832.014 27.2059 L847.367 27.2059 L847.367 32.9987 L832.014 32.9987 L832.014 57.6282 Q832.014 63.1779 833.513 64.7578 Q835.052 66.3376 839.71 66.3376 L847.367 66.3376 L847.367 72.576 L839.71 72.576 Q831.082 72.576 827.801 69.3758 Q824.52 66.1351 824.52 57.6282 L824.52 32.9987 L819.051 32.9987 L819.051 27.2059 L824.52 27.2059 L824.52 14.324 L832.014 14.324 Z" fill="#000000" fill-rule="evenodd" fill-opacity="1" /><path clip-path="url(#clip770)" d="M857.17 27.2059 L864.624 27.2059 L864.624 72.576 L857.17 72.576 L857.17 27.2059 M857.17 9.54393 L864.624 9.54393 L864.624 18.9825 L857.17 18.9825 L857.17 9.54393 Z" fill="#000000" fill-rule="evenodd" fill-opacity="1" /><path clip-path="url(#clip770)" d="M897.8 32.4315 Q891.805 32.4315 888.321 37.1306 Q884.838 41.7891 884.838 49.9314 Q884.838 58.0738 888.281 62.7728 Q891.765 67.4314 897.8 67.4314 Q903.755 67.4314 907.239 62.7323 Q910.723 58.0333 910.723 49.9314 Q910.723 41.8701 907.239 37.1711 Q903.755 32.4315 897.8 32.4315 M897.8 26.1121 Q907.523 26.1121 913.072 32.4315 Q918.622 38.7509 918.622 49.9314 Q918.622 61.0714 913.072 67.4314 Q907.523 73.7508 897.8 73.7508 Q888.038 73.7508 882.488 67.4314 Q876.979 61.0714 876.979 49.9314 Q876.979 38.7509 882.488 32.4315 Q888.038 26.1121 897.8 26.1121 Z" fill="#000000" fill-rule="evenodd" fill-opacity="1" /><path clip-path="url(#clip770)" d="M968.691 45.1919 L968.691 72.576 L961.238 72.576 L961.238 45.4349 Q961.238 38.994 958.726 35.7938 Q956.214 32.5936 951.191 32.5936 Q945.156 32.5936 941.672 36.4419 Q938.188 40.2903 938.188 46.9338 L938.188 72.576 L930.694 72.576 L930.694 27.2059 L938.188 27.2059 L938.188 34.2544 Q940.862 30.163 944.467 28.1376 Q948.113 26.1121 952.852 26.1121 Q960.67 26.1121 964.681 30.9732 Q968.691 35.7938 968.691 45.1919 Z" fill="#000000" fill-rule="evenodd" fill-opacity="1" /><path clip-path="url(#clip770)" d="M1045.25 35.9153 Q1048.05 30.8922 1051.94 28.5022 Q1055.83 26.1121 1061.09 26.1121 Q1068.18 26.1121 1072.03 31.0947 Q1075.88 36.0368 1075.88 45.1919 L1075.88 72.576 L1068.38 72.576 L1068.38 45.4349 Q1068.38 38.913 1066.07 35.7533 Q1063.77 32.5936 1059.03 32.5936 Q1053.23 32.5936 1049.87 36.4419 Q1046.51 40.2903 1046.51 46.9338 L1046.51 72.576 L1039.01 72.576 L1039.01 45.4349 Q1039.01 38.8725 1036.71 35.7533 Q1034.4 32.5936 1029.58 32.5936 Q1023.86 32.5936 1020.5 36.4824 Q1017.14 40.3308 1017.14 46.9338 L1017.14 72.576 L1009.65 72.576 L1009.65 27.2059 L1017.14 27.2059 L1017.14 34.2544 Q1019.69 30.082 1023.26 28.0971 Q1026.82 26.1121 1031.72 26.1121 Q1036.67 26.1121 1040.11 28.6237 Q1043.59 31.1352 1045.25 35.9153 Z" fill="#000000" fill-rule="evenodd" fill-opacity="1" /><path clip-path="url(#clip770)" d="M1129.55 48.0275 L1129.55 51.6733 L1095.28 51.6733 Q1095.77 59.3701 1099.9 63.421 Q1104.07 67.4314 1111.49 67.4314 Q1115.78 67.4314 1119.79 66.3781 Q1123.84 65.3249 1127.81 63.2184 L1127.81 70.267 Q1123.8 71.9684 1119.59 72.8596 Q1115.37 73.7508 1111.04 73.7508 Q1100.18 73.7508 1093.82 67.4314 Q1087.5 61.1119 1087.5 50.3365 Q1087.5 39.1965 1093.5 32.6746 Q1099.54 26.1121 1109.74 26.1121 Q1118.9 26.1121 1124.21 32.0264 Q1129.55 37.9003 1129.55 48.0275 M1122.1 45.84 Q1122.02 39.7232 1118.66 36.0774 Q1115.33 32.4315 1109.82 32.4315 Q1103.59 32.4315 1099.82 35.9558 Q1096.09 39.4801 1095.53 45.8805 L1122.1 45.84 Z" fill="#000000" fill-rule="evenodd" fill-opacity="1" /><path clip-path="url(#clip770)" d="M1162.41 49.7694 Q1153.37 49.7694 1149.89 51.8354 Q1146.4 53.9013 1146.4 58.8839 Q1146.4 62.8538 1149 65.2034 Q1151.63 67.5124 1156.13 67.5124 Q1162.32 67.5124 1166.05 63.1374 Q1169.82 58.7219 1169.82 51.4303 L1169.82 49.7694 L1162.41 49.7694 M1177.27 46.6907 L1177.27 72.576 L1169.82 72.576 L1169.82 65.6895 Q1167.27 69.8214 1163.46 71.8063 Q1159.65 73.7508 1154.14 73.7508 Q1147.17 73.7508 1143.04 69.8619 Q1138.95 65.9325 1138.95 59.3701 Q1138.95 51.7138 1144.05 47.825 Q1149.2 43.9361 1159.37 43.9361 L1169.82 43.9361 L1169.82 43.2069 Q1169.82 38.0623 1166.42 35.2672 Q1163.05 32.4315 1156.94 32.4315 Q1153.05 32.4315 1149.36 33.3632 Q1145.68 34.295 1142.27 36.1584 L1142.27 29.2718 Q1146.36 27.692 1150.21 26.9223 Q1154.06 26.1121 1157.71 26.1121 Q1167.55 26.1121 1172.41 31.2163 Q1177.27 36.3204 1177.27 46.6907 Z" fill="#000000" fill-rule="evenodd" fill-opacity="1" /><path clip-path="url(#clip770)" d="M1230.34 45.1919 L1230.34 72.576 L1222.89 72.576 L1222.89 45.4349 Q1222.89 38.994 1220.37 35.7938 Q1217.86 32.5936 1212.84 32.5936 Q1206.8 32.5936 1203.32 36.4419 Q1199.84 40.2903 1199.84 46.9338 L1199.84 72.576 L1192.34 72.576 L1192.34 27.2059 L1199.84 27.2059 L1199.84 34.2544 Q1202.51 30.163 1206.11 28.1376 Q1209.76 26.1121 1214.5 26.1121 Q1222.32 26.1121 1226.33 30.9732 Q1230.34 35.7938 1230.34 45.1919 Z" fill="#000000" fill-rule="evenodd" fill-opacity="1" /><path clip-path="url(#clip770)" d="M1297.87 34.1734 Q1296.61 33.4443 1295.11 33.1202 Q1293.65 32.7556 1291.87 32.7556 Q1285.55 32.7556 1282.15 36.8875 Q1278.79 40.9789 1278.79 48.6757 L1278.79 72.576 L1271.29 72.576 L1271.29 27.2059 L1278.79 27.2059 L1278.79 34.2544 Q1281.14 30.1225 1284.9 28.1376 Q1288.67 26.1121 1294.06 26.1121 Q1294.83 26.1121 1295.76 26.2337 Q1296.69 26.3147 1297.83 26.5172 L1297.87 34.1734 Z" fill="#000000" fill-rule="evenodd" fill-opacity="1" /><path clip-path="url(#clip770)" d="M1342.67 48.0275 L1342.67 51.6733 L1308.4 51.6733 Q1308.89 59.3701 1313.02 63.421 Q1317.19 67.4314 1324.6 67.4314 Q1328.9 67.4314 1332.91 66.3781 Q1336.96 65.3249 1340.93 63.2184 L1340.93 70.267 Q1336.92 71.9684 1332.71 72.8596 Q1328.49 73.7508 1324.16 73.7508 Q1313.3 73.7508 1306.94 67.4314 Q1300.62 61.1119 1300.62 50.3365 Q1300.62 39.1965 1306.62 32.6746 Q1312.65 26.1121 1322.86 26.1121 Q1332.02 26.1121 1337.32 32.0264 Q1342.67 37.9003 1342.67 48.0275 M1335.22 45.84 Q1335.14 39.7232 1331.77 36.0774 Q1328.45 32.4315 1322.94 32.4315 Q1316.7 32.4315 1312.94 35.9558 Q1309.21 39.4801 1308.64 45.8805 L1335.22 45.84 Z" fill="#000000" fill-rule="evenodd" fill-opacity="1" /><path clip-path="url(#clip770)" d="M1359.36 49.9314 Q1359.36 58.1548 1362.72 62.8538 Q1366.13 67.5124 1372.04 67.5124 Q1377.95 67.5124 1381.36 62.8538 Q1384.76 58.1548 1384.76 49.9314 Q1384.76 41.7081 1381.36 37.0496 Q1377.95 32.3505 1372.04 32.3505 Q1366.13 32.3505 1362.72 37.0496 Q1359.36 41.7081 1359.36 49.9314 M1384.76 65.7705 Q1382.41 69.8214 1378.8 71.8063 Q1375.24 73.7508 1370.22 73.7508 Q1361.99 73.7508 1356.81 67.1883 Q1351.66 60.6258 1351.66 49.9314 Q1351.66 39.2371 1356.81 32.6746 Q1361.99 26.1121 1370.22 26.1121 Q1375.24 26.1121 1378.8 28.0971 Q1382.41 30.0415 1384.76 34.0924 L1384.76 27.2059 L1392.21 27.2059 L1392.21 89.8329 L1384.76 89.8329 L1384.76 65.7705 Z" fill="#000000" fill-rule="evenodd" fill-opacity="1" /><path clip-path="url(#clip770)" d="M1406.8 54.671 L1406.8 27.2059 L1414.25 27.2059 L1414.25 54.3874 Q1414.25 60.8284 1416.76 64.0691 Q1419.27 67.2693 1424.3 67.2693 Q1430.33 67.2693 1433.82 63.421 Q1437.34 59.5726 1437.34 52.9291 L1437.34 27.2059 L1444.79 27.2059 L1444.79 72.576 L1437.34 72.576 L1437.34 65.6084 Q1434.63 69.7404 1431.02 71.7658 Q1427.46 73.7508 1422.72 73.7508 Q1414.9 73.7508 1410.85 68.8897 Q1406.8 64.0286 1406.8 54.671 M1425.55 26.1121 L1425.55 26.1121 Z" fill="#000000" fill-rule="evenodd" fill-opacity="1" /><path clip-path="url(#clip770)" d="M1498.95 48.0275 L1498.95 51.6733 L1464.68 51.6733 Q1465.17 59.3701 1469.3 63.421 Q1473.47 67.4314 1480.89 67.4314 Q1485.18 67.4314 1489.19 66.3781 Q1493.24 65.3249 1497.21 63.2184 L1497.21 70.267 Q1493.2 71.9684 1488.99 72.8596 Q1484.78 73.7508 1480.44 73.7508 Q1469.59 73.7508 1463.23 67.4314 Q1456.91 61.1119 1456.91 50.3365 Q1456.91 39.1965 1462.9 32.6746 Q1468.94 26.1121 1479.15 26.1121 Q1488.3 26.1121 1493.61 32.0264 Q1498.95 37.9003 1498.95 48.0275 M1491.5 45.84 Q1491.42 39.7232 1488.06 36.0774 Q1484.74 32.4315 1479.23 32.4315 Q1472.99 32.4315 1469.22 35.9558 Q1465.49 39.4801 1464.93 45.8805 L1491.5 45.84 Z" fill="#000000" fill-rule="evenodd" fill-opacity="1" /><path clip-path="url(#clip770)" d="M1540.11 28.5427 L1540.11 35.5912 Q1536.95 33.9709 1533.55 33.1607 Q1530.15 32.3505 1526.5 32.3505 Q1520.95 32.3505 1518.16 34.0519 Q1515.4 35.7533 1515.4 39.156 Q1515.4 41.7486 1517.39 43.2475 Q1519.37 44.7058 1525.37 46.0426 L1527.92 46.6097 Q1535.86 48.3111 1539.18 51.4303 Q1542.54 54.509 1542.54 60.0587 Q1542.54 66.3781 1537.52 70.0644 Q1532.54 73.7508 1523.79 73.7508 Q1520.14 73.7508 1516.17 73.0216 Q1512.24 72.3329 1507.87 70.9151 L1507.87 63.2184 Q1512 65.3654 1516.01 66.4591 Q1520.02 67.5124 1523.95 67.5124 Q1529.21 67.5124 1532.05 65.73 Q1534.89 63.9071 1534.89 60.6258 Q1534.89 57.5877 1532.82 55.9673 Q1530.79 54.3469 1523.87 52.8481 L1521.28 52.2405 Q1514.35 50.7821 1511.27 47.7845 Q1508.19 44.7463 1508.19 39.4801 Q1508.19 33.0797 1512.73 29.5959 Q1517.26 26.1121 1525.61 26.1121 Q1529.74 26.1121 1533.39 26.7198 Q1537.03 27.3274 1540.11 28.5427 Z" fill="#000000" fill-rule="evenodd" fill-opacity="1" /><path clip-path="url(#clip770)" d="M1561.78 14.324 L1561.78 27.2059 L1577.14 27.2059 L1577.14 32.9987 L1561.78 32.9987 L1561.78 57.6282 Q1561.78 63.1779 1563.28 64.7578 Q1564.82 66.3376 1569.48 66.3376 L1577.14 66.3376 L1577.14 72.576 L1569.48 72.576 Q1560.85 72.576 1557.57 69.3758 Q1554.29 66.1351 1554.29 57.6282 L1554.29 32.9987 L1548.82 32.9987 L1548.82 27.2059 L1554.29 27.2059 L1554.29 14.324 L1561.78 14.324 Z" fill="#000000" fill-rule="evenodd" fill-opacity="1" /><path clip-path="url(#clip770)" d="M1620.68 14.324 L1620.68 27.2059 L1636.04 27.2059 L1636.04 32.9987 L1620.68 32.9987 L1620.68 57.6282 Q1620.68 63.1779 1622.18 64.7578 Q1623.72 66.3376 1628.38 66.3376 L1636.04 66.3376 L1636.04 72.576 L1628.38 72.576 Q1619.75 72.576 1616.47 69.3758 Q1613.19 66.1351 1613.19 57.6282 L1613.19 32.9987 L1607.72 32.9987 L1607.72 27.2059 L1613.19 27.2059 L1613.19 14.324 L1620.68 14.324 Z" fill="#000000" fill-rule="evenodd" fill-opacity="1" /><path clip-path="url(#clip770)" d="M1672.13 34.1734 Q1670.87 33.4443 1669.38 33.1202 Q1667.92 32.7556 1666.14 32.7556 Q1659.82 32.7556 1656.41 36.8875 Q1653.05 40.9789 1653.05 48.6757 L1653.05 72.576 L1645.56 72.576 L1645.56 27.2059 L1653.05 27.2059 L1653.05 34.2544 Q1655.4 30.1225 1659.17 28.1376 Q1662.94 26.1121 1668.32 26.1121 Q1669.09 26.1121 1670.02 26.2337 Q1670.96 26.3147 1672.09 26.5172 L1672.13 34.1734 Z" fill="#000000" fill-rule="evenodd" fill-opacity="1" /><path clip-path="url(#clip770)" d="M1716.93 48.0275 L1716.93 51.6733 L1682.66 51.6733 Q1683.15 59.3701 1687.28 63.421 Q1691.45 67.4314 1698.87 67.4314 Q1703.16 67.4314 1707.17 66.3781 Q1711.22 65.3249 1715.19 63.2184 L1715.19 70.267 Q1711.18 71.9684 1706.97 72.8596 Q1702.76 73.7508 1698.42 73.7508 Q1687.56 73.7508 1681.2 67.4314 Q1674.89 61.1119 1674.89 50.3365 Q1674.89 39.1965 1680.88 32.6746 Q1686.92 26.1121 1697.12 26.1121 Q1706.28 26.1121 1711.59 32.0264 Q1716.93 37.9003 1716.93 48.0275 M1709.48 45.84 Q1709.4 39.7232 1706.04 36.0774 Q1702.72 32.4315 1697.21 32.4315 Q1690.97 32.4315 1687.2 35.9558 Q1683.47 39.4801 1682.91 45.8805 L1709.48 45.84 Z" fill="#000000" fill-rule="evenodd" fill-opacity="1" /><path clip-path="url(#clip770)" d="M1766.88 45.1919 L1766.88 72.576 L1759.43 72.576 L1759.43 45.4349 Q1759.43 38.994 1756.92 35.7938 Q1754.4 32.5936 1749.38 32.5936 Q1743.35 32.5936 1739.86 36.4419 Q1736.38 40.2903 1736.38 46.9338 L1736.38 72.576 L1728.88 72.576 L1728.88 27.2059 L1736.38 27.2059 L1736.38 34.2544 Q1739.05 30.163 1742.66 28.1376 Q1746.3 26.1121 1751.04 26.1121 Q1758.86 26.1121 1762.87 30.9732 Q1766.88 35.7938 1766.88 45.1919 Z" fill="#000000" fill-rule="evenodd" fill-opacity="1" /><path clip-path="url(#clip770)" d="M1811.6 34.0924 L1811.6 9.54393 L1819.06 9.54393 L1819.06 72.576 L1811.6 72.576 L1811.6 65.7705 Q1809.25 69.8214 1805.65 71.8063 Q1802.08 73.7508 1797.06 73.7508 Q1788.84 73.7508 1783.65 67.1883 Q1778.51 60.6258 1778.51 49.9314 Q1778.51 39.2371 1783.65 32.6746 Q1788.84 26.1121 1797.06 26.1121 Q1802.08 26.1121 1805.65 28.0971 Q1809.25 30.0415 1811.6 34.0924 M1786.2 49.9314 Q1786.2 58.1548 1789.57 62.8538 Q1792.97 67.5124 1798.88 67.5124 Q1804.8 67.5124 1808.2 62.8538 Q1811.6 58.1548 1811.6 49.9314 Q1811.6 41.7081 1808.2 37.0496 Q1804.8 32.3505 1798.88 32.3505 Q1792.97 32.3505 1789.57 37.0496 Q1786.2 41.7081 1786.2 49.9314 Z" fill="#000000" fill-rule="evenodd" fill-opacity="1" /><path clip-path="url(#clip770)" d="M1883.75 9.54393 L1883.75 15.7418 L1876.62 15.7418 Q1872.61 15.7418 1871.03 17.3622 Q1869.49 18.9825 1869.49 23.1955 L1869.49 27.2059 L1881.77 27.2059 L1881.77 32.9987 L1869.49 32.9987 L1869.49 72.576 L1862 72.576 L1862 32.9987 L1854.87 32.9987 L1854.87 27.2059 L1862 27.2059 L1862 24.0462 Q1862 16.471 1865.52 13.0277 Q1869.05 9.54393 1876.7 9.54393 L1883.75 9.54393 Z" fill="#000000" fill-rule="evenodd" fill-opacity="1" /><path clip-path="url(#clip770)" d="M1907.57 32.4315 Q1901.57 32.4315 1898.09 37.1306 Q1894.61 41.7891 1894.61 49.9314 Q1894.61 58.0738 1898.05 62.7728 Q1901.53 67.4314 1907.57 67.4314 Q1913.52 67.4314 1917.01 62.7323 Q1920.49 58.0333 1920.49 49.9314 Q1920.49 41.8701 1917.01 37.1711 Q1913.52 32.4315 1907.57 32.4315 M1907.57 26.1121 Q1917.29 26.1121 1922.84 32.4315 Q1928.39 38.7509 1928.39 49.9314 Q1928.39 61.0714 1922.84 67.4314 Q1917.29 73.7508 1907.57 73.7508 Q1897.81 73.7508 1892.26 67.4314 Q1886.75 61.0714 1886.75 49.9314 Q1886.75 38.7509 1892.26 32.4315 Q1897.81 26.1121 1907.57 26.1121 Z" fill="#000000" fill-rule="evenodd" fill-opacity="1" /><path clip-path="url(#clip770)" d="M1967.04 34.1734 Q1965.78 33.4443 1964.28 33.1202 Q1962.82 32.7556 1961.04 32.7556 Q1954.72 32.7556 1951.32 36.8875 Q1947.96 40.9789 1947.96 48.6757 L1947.96 72.576 L1940.46 72.576 L1940.46 27.2059 L1947.96 27.2059 L1947.96 34.2544 Q1950.31 30.1225 1954.07 28.1376 Q1957.84 26.1121 1963.23 26.1121 Q1964 26.1121 1964.93 26.2337 Q1965.86 26.3147 1967 26.5172 L1967.04 34.1734 Z" fill="#000000" fill-rule="evenodd" fill-opacity="1" /><path clip-path="url(#clip770)" d="M2033.88 28.9478 L2033.88 35.9153 Q2030.72 34.1734 2027.52 33.3227 Q2024.36 32.4315 2021.12 32.4315 Q2013.87 32.4315 2009.85 37.0496 Q2005.84 41.6271 2005.84 49.9314 Q2005.84 58.2358 2009.85 62.8538 Q2013.87 67.4314 2021.12 67.4314 Q2024.36 67.4314 2027.52 66.5807 Q2030.72 65.6895 2033.88 63.9476 L2033.88 70.8341 Q2030.76 72.2924 2027.4 73.0216 Q2024.07 73.7508 2020.31 73.7508 Q2010.06 73.7508 2004.02 67.3098 Q1997.99 60.8689 1997.99 49.9314 Q1997.99 38.832 2004.06 32.472 Q2010.18 26.1121 2020.79 26.1121 Q2024.24 26.1121 2027.52 26.8413 Q2030.8 27.5299 2033.88 28.9478 Z" fill="#000000" fill-rule="evenodd" fill-opacity="1" /><path clip-path="url(#clip770)" d="M2046.84 27.2059 L2054.29 27.2059 L2054.29 72.576 L2046.84 72.576 L2046.84 27.2059 M2046.84 9.54393 L2054.29 9.54393 L2054.29 18.9825 L2046.84 18.9825 L2046.84 9.54393 Z" fill="#000000" fill-rule="evenodd" fill-opacity="1" /><path clip-path="url(#clip772)" d="
M309.067 1386.39 L319.038 1386.39 L329.008 1386.37 L338.979 1386.3 L348.95 1386.13 L358.92 1385.76 L368.891 1385.14 L378.862 1384.33 L388.832 1383.57 L398.803 1383.18 
  L408.774 1383.34 L418.744 1383.98 L428.715 1384.81 L438.686 1385.52 L448.656 1385.99 L458.627 1386.24 L468.598 1386.35 L478.568 1386.38 L488.539 1386.39 L498.51 1386.4 
  L508.48 1386.4 L518.451 1386.4 L528.422 1386.4 L538.392 1386.4 L548.363 1386.4 L558.334 1386.4 L568.304 1386.4 L578.275 1386.4 L588.246 1386.4 L598.216 1386.4 
  L608.187 1386.39 L618.158 1386.39 L628.129 1386.37 L638.099 1386.29 L648.07 1386.06 L658.041 1385.49 L668.011 1384.33 L677.982 1382.46 L687.953 1380.1 L697.923 1377.93 
  L707.894 1376.77 L717.865 1377.02 L727.835 1378.21 L737.806 1379.24 L747.777 1379.04 L757.747 1377.16 L767.718 1373.85 L777.689 1369.87 L787.659 1366.21 L797.63 1363.82 
  L807.601 1363.34 L817.571 1364.65 L827.542 1366.75 L837.513 1368.23 L847.483 1367.9 L857.454 1365.15 L867.425 1360.05 L877.395 1353.42 L887.366 1346.69 L897.337 1341.46 
  L907.307 1338.56 L917.278 1337.27 L927.249 1335.6 L937.219 1331.59 L947.19 1324.68 L957.161 1315.99 L967.131 1307.42 L977.102 1300.35 L987.073 1294.93 L997.043 1290.19 
  L1007.01 1284.59 L1016.98 1276.47 L1026.96 1264.48 L1036.93 1247.94 L1046.9 1227.22 L1056.87 1203.56 L1066.84 1178.11 L1076.81 1150.99 L1086.78 1121.14 L1096.75 1087.21 
  L1106.72 1048.47 L1116.69 1005.12 L1126.66 957.886 L1136.63 907.538 L1146.6 854.478 L1156.57 798.438 L1166.54 738.862 L1176.52 675.829 L1186.49 610.279 L1196.46 543.02 
  L1206.43 474.199 L1216.4 404.72 L1226.37 338.185 L1236.34 280.355 L1246.31 235.596 L1256.28 203.789 L1266.25 181.576 L1276.22 166.791 L1286.19 160.256 L1296.16 162.176 
  L1306.13 168.172 L1316.1 171.607 L1326.08 171.046 L1336.05 174.703 L1346.02 196.325 L1355.99 245.604 L1365.96 321.277 L1375.93 412.323 L1385.9 505.62 L1395.87 593.135 
  L1405.84 673.126 L1415.81 746.271 L1425.78 811.995 L1435.75 868.378 L1445.72 914.59 L1455.69 952.912 L1465.67 988.357 L1475.64 1025.8 L1485.61 1066.69 L1495.58 1108.27 
  L1505.55 1146.13 L1515.52 1177.58 L1525.49 1202.79 L1535.46 1223.23 L1545.43 1240.07 L1555.4 1254.25 L1565.37 1267.31 L1575.34 1281.01 L1585.31 1295.79 L1595.28 1309.91 
  L1605.25 1320.62 L1615.23 1326.41 L1625.2 1328.34 L1635.17 1329.3 L1645.14 1331.85 L1655.11 1336.62 L1665.08 1342.53 L1675.05 1348.33 L1685.02 1353.77 L1694.99 1359.19 
  L1704.96 1364.54 L1714.93 1369.04 L1724.9 1371.73 L1734.87 1372.06 L1744.84 1370.02 L1754.81 1366.03 L1764.79 1361.12 L1774.76 1356.97 L1784.73 1355.35 L1794.7 1357.05 
  L1804.67 1361.35 L1814.64 1366.48 L1824.61 1370.87 L1834.58 1373.92 L1844.55 1375.89 L1854.52 1377.27 L1864.49 1378.35 L1874.46 1379.2 L1884.43 1379.82 L1894.4 1380.24 
  L1904.37 1380.53 L1914.35 1380.7 L1924.32 1380.65 L1934.29 1380.29 L1944.26 1379.73 L1954.23 1379.4 L1964.2 1379.77 L1974.17 1380.96 L1984.14 1382.61 L1994.11 1384.18 
  L2004.08 1385.31 L2014.05 1385.95 L2024.02 1386.24 L2033.99 1386.35 L2043.96 1386.38 L2053.93 1386.39 L2063.91 1386.37 L2073.88 1386.32 L2083.85 1386.18 L2093.82 1385.86 
  L2103.79 1385.31 L2113.76 1384.54 L2123.73 1383.74 L2133.7 1383.2 L2143.67 1383.12 L2153.64 1383.4 L2163.61 1383.72 L2173.58 1383.76 L2183.55 1383.48 L2193.52 1383.14 
  L2203.49 1383.11 L2213.47 1383.55 L2223.44 1384.32 L2233.41 1385.13 L2243.38 1385.76 L2253.35 1386.13 L2263.32 1386.3 L2273.29 1386.37 L2283.26 1386.39 L2293.23 1386.39 
  L2293.23 1386.4 L2283.26 1386.4 L2273.29 1386.4 L2263.32 1386.4 L2253.35 1386.4 L2243.38 1386.4 L2233.41 1386.4 L2223.44 1386.4 L2213.47 1386.4 L2203.49 1386.4 
  L2193.52 1386.4 L2183.55 1386.4 L2173.58 1386.4 L2163.61 1386.4 L2153.64 1386.4 L2143.67 1386.4 L2133.7 1386.4 L2123.73 1386.4 L2113.76 1386.4 L2103.79 1386.4 
  L2093.82 1386.4 L2083.85 1386.4 L2073.88 1386.4 L2063.91 1386.4 L2053.93 1386.4 L2043.96 1386.4 L2033.99 1386.4 L2024.02 1386.4 L2014.05 1386.4 L2004.08 1386.4 
  L1994.11 1386.4 L1984.14 1386.4 L1974.17 1386.4 L1964.2 1386.4 L1954.23 1386.4 L1944.26 1386.4 L1934.29 1386.4 L1924.32 1386.4 L1914.35 1386.4 L1904.37 1386.4 
  L1894.4 1386.4 L1884.43 1386.4 L1874.46 1386.4 L1864.49 1386.4 L1854.52 1386.4 L1844.55 1386.4 L1834.58 1386.4 L1824.61 1386.4 L1814.64 1386.4 L1804.67 1386.4 
  L1794.7 1386.4 L1784.73 1386.4 L1774.76 1386.4 L1764.79 1386.4 L1754.81 1386.4 L1744.84 1386.4 L1734.87 1386.4 L1724.9 1386.4 L1714.93 1386.4 L1704.96 1386.4 
  L1694.99 1386.4 L1685.02 1386.4 L1675.05 1386.4 L1665.08 1386.4 L1655.11 1386.4 L1645.14 1386.4 L1635.17 1386.4 L1625.2 1386.4 L1615.23 1386.4 L1605.25 1386.4 
  L1595.28 1386.4 L1585.31 1386.4 L1575.34 1386.4 L1565.37 1386.4 L1555.4 1386.4 L1545.43 1386.4 L1535.46 1386.4 L1525.49 1386.4 L1515.52 1386.4 L1505.55 1386.4 
  L1495.58 1386.4 L1485.61 1386.4 L1475.64 1386.4 L1465.67 1386.4 L1455.69 1386.4 L1445.72 1386.4 L1435.75 1386.4 L1425.78 1386.4 L1415.81 1386.4 L1405.84 1386.4 
  L1395.87 1386.4 L1385.9 1386.4 L1375.93 1386.4 L1365.96 1386.4 L1355.99 1386.4 L1346.02 1386.4 L1336.05 1386.4 L1326.08 1386.4 L1316.1 1386.4 L1306.13 1386.4 
  L1296.16 1386.4 L1286.19 1386.4 L1276.22 1386.4 L1266.25 1386.4 L1256.28 1386.4 L1246.31 1386.4 L1236.34 1386.4 L1226.37 1386.4 L1216.4 1386.4 L1206.43 1386.4 
  L1196.46 1386.4 L1186.49 1386.4 L1176.52 1386.4 L1166.54 1386.4 L1156.57 1386.4 L1146.6 1386.4 L1136.63 1386.4 L1126.66 1386.4 L1116.69 1386.4 L1106.72 1386.4 
  L1096.75 1386.4 L1086.78 1386.4 L1076.81 1386.4 L1066.84 1386.4 L1056.87 1386.4 L1046.9 1386.4 L1036.93 1386.4 L1026.96 1386.4 L1016.98 1386.4 L1007.01 1386.4 
  L997.043 1386.4 L987.073 1386.4 L977.102 1386.4 L967.131 1386.4 L957.161 1386.4 L947.19 1386.4 L937.219 1386.4 L927.249 1386.4 L917.278 1386.4 L907.307 1386.4 
  L897.337 1386.4 L887.366 1386.4 L877.395 1386.4 L867.425 1386.4 L857.454 1386.4 L847.483 1386.4 L837.513 1386.4 L827.542 1386.4 L817.571 1386.4 L807.601 1386.4 
  L797.63 1386.4 L787.659 1386.4 L777.689 1386.4 L767.718 1386.4 L757.747 1386.4 L747.777 1386.4 L737.806 1386.4 L727.835 1386.4 L717.865 1386.4 L707.894 1386.4 
  L697.923 1386.4 L687.953 1386.4 L677.982 1386.4 L668.011 1386.4 L658.041 1386.4 L648.07 1386.4 L638.099 1386.4 L628.129 1386.4 L618.158 1386.4 L608.187 1386.4 
  L598.216 1386.4 L588.246 1386.4 L578.275 1386.4 L568.304 1386.4 L558.334 1386.4 L548.363 1386.4 L538.392 1386.4 L528.422 1386.4 L518.451 1386.4 L508.48 1386.4 
  L498.51 1386.4 L488.539 1386.4 L478.568 1386.4 L468.598 1386.4 L458.627 1386.4 L448.656 1386.4 L438.686 1386.4 L428.715 1386.4 L418.744 1386.4 L408.774 1386.4 
  L398.803 1386.4 L388.832 1386.4 L378.862 1386.4 L368.891 1386.4 L358.92 1386.4 L348.95 1386.4 L338.979 1386.4 L329.008 1386.4 L319.038 1386.4 L309.067 1386.4 
   Z
  " fill="#009af9" fill-rule="evenodd" fill-opacity="0.5"/>
<polyline clip-path="url(#clip772)" style="stroke:#009af9; stroke-linecap:butt; stroke-linejoin:round; stroke-width:4; stroke-opacity:0.5; fill:none" points="
  309.067,1386.39 319.038,1386.39 329.008,1386.37 338.979,1386.3 348.95,1386.13 358.92,1385.76 368.891,1385.14 378.862,1384.33 388.832,1383.57 398.803,1383.18 
  408.774,1383.34 418.744,1383.98 428.715,1384.81 438.686,1385.52 448.656,1385.99 458.627,1386.24 468.598,1386.35 478.568,1386.38 488.539,1386.39 498.51,1386.4 
  508.48,1386.4 518.451,1386.4 528.422,1386.4 538.392,1386.4 548.363,1386.4 558.334,1386.4 568.304,1386.4 578.275,1386.4 588.246,1386.4 598.216,1386.4 
  608.187,1386.39 618.158,1386.39 628.129,1386.37 638.099,1386.29 648.07,1386.06 658.041,1385.49 668.011,1384.33 677.982,1382.46 687.953,1380.1 697.923,1377.93 
  707.894,1376.77 717.865,1377.02 727.835,1378.21 737.806,1379.24 747.777,1379.04 757.747,1377.16 767.718,1373.85 777.689,1369.87 787.659,1366.21 797.63,1363.82 
  807.601,1363.34 817.571,1364.65 827.542,1366.75 837.513,1368.23 847.483,1367.9 857.454,1365.15 867.425,1360.05 877.395,1353.42 887.366,1346.69 897.337,1341.46 
  907.307,1338.56 917.278,1337.27 927.249,1335.6 937.219,1331.59 947.19,1324.68 957.161,1315.99 967.131,1307.42 977.102,1300.35 987.073,1294.93 997.043,1290.19 
  1007.01,1284.59 1016.98,1276.47 1026.96,1264.48 1036.93,1247.94 1046.9,1227.22 1056.87,1203.56 1066.84,1178.11 1076.81,1150.99 1086.78,1121.14 1096.75,1087.21 
  1106.72,1048.47 1116.69,1005.12 1126.66,957.886 1136.63,907.538 1146.6,854.478 1156.57,798.438 1166.54,738.862 1176.52,675.829 1186.49,610.279 1196.46,543.02 
  1206.43,474.199 1216.4,404.72 1226.37,338.185 1236.34,280.355 1246.31,235.596 1256.28,203.789 1266.25,181.576 1276.22,166.791 1286.19,160.256 1296.16,162.176 
  1306.13,168.172 1316.1,171.607 1326.08,171.046 1336.05,174.703 1346.02,196.325 1355.99,245.604 1365.96,321.277 1375.93,412.323 1385.9,505.62 1395.87,593.135 
  1405.84,673.126 1415.81,746.271 1425.78,811.995 1435.75,868.378 1445.72,914.59 1455.69,952.912 1465.67,988.357 1475.64,1025.8 1485.61,1066.69 1495.58,1108.27 
  1505.55,1146.13 1515.52,1177.58 1525.49,1202.79 1535.46,1223.23 1545.43,1240.07 1555.4,1254.25 1565.37,1267.31 1575.34,1281.01 1585.31,1295.79 1595.28,1309.91 
  1605.25,1320.62 1615.23,1326.41 1625.2,1328.34 1635.17,1329.3 1645.14,1331.85 1655.11,1336.62 1665.08,1342.53 1675.05,1348.33 1685.02,1353.77 1694.99,1359.19 
  1704.96,1364.54 1714.93,1369.04 1724.9,1371.73 1734.87,1372.06 1744.84,1370.02 1754.81,1366.03 1764.79,1361.12 1774.76,1356.97 1784.73,1355.35 1794.7,1357.05 
  1804.67,1361.35 1814.64,1366.48 1824.61,1370.87 1834.58,1373.92 1844.55,1375.89 1854.52,1377.27 1864.49,1378.35 1874.46,1379.2 1884.43,1379.82 1894.4,1380.24 
  1904.37,1380.53 1914.35,1380.7 1924.32,1380.65 1934.29,1380.29 1944.26,1379.73 1954.23,1379.4 1964.2,1379.77 1974.17,1380.96 1984.14,1382.61 1994.11,1384.18 
  2004.08,1385.31 2014.05,1385.95 2024.02,1386.24 2033.99,1386.35 2043.96,1386.38 2053.93,1386.39 2063.91,1386.37 2073.88,1386.32 2083.85,1386.18 2093.82,1385.86 
  2103.79,1385.31 2113.76,1384.54 2123.73,1383.74 2133.7,1383.2 2143.67,1383.12 2153.64,1383.4 2163.61,1383.72 2173.58,1383.76 2183.55,1383.48 2193.52,1383.14 
  2203.49,1383.11 2213.47,1383.55 2223.44,1384.32 2233.41,1385.13 2243.38,1385.76 2253.35,1386.13 2263.32,1386.3 2273.29,1386.37 2283.26,1386.39 2293.23,1386.39 
  
  "/>
<polyline clip-path="url(#clip772)" style="stroke:#e26f46; stroke-linecap:butt; stroke-linejoin:round; stroke-width:4; stroke-opacity:1; fill:none" points="
  1293.1,2722.89 1293.1,-1176.24 
  "/>
<path clip-path="url(#clip770)" d="
M1928.47 270.476 L2282.65 270.476 L2282.65 166.796 L1928.47 166.796  Z
  " fill="#ffffff" fill-rule="evenodd" fill-opacity="1"/>
<polyline clip-path="url(#clip770)" style="stroke:#000000; stroke-linecap:butt; stroke-linejoin:round; stroke-width:4; stroke-opacity:1; fill:none" points="
  1928.47,270.476 2282.65,270.476 2282.65,166.796 1928.47,166.796 1928.47,270.476 
  "/>
<polyline clip-path="url(#clip770)" style="stroke:#e26f46; stroke-linecap:butt; stroke-linejoin:round; stroke-width:4; stroke-opacity:1; fill:none" points="
  1951.84,218.636 2092.06,218.636 
  "/>
<path clip-path="url(#clip770)" d="M2115.43 201.356 L2122.39 201.356 L2131.21 224.874 L2140.08 201.356 L2147.05 201.356 L2147.05 235.916 L2142.49 235.916 L2142.49 205.569 L2133.57 229.272 L2128.87 229.272 L2119.96 205.569 L2119.96 235.916 L2115.43 235.916 L2115.43 201.356 Z" fill="#000000" fill-rule="evenodd" fill-opacity="1" /><path clip-path="url(#clip770)" d="M2178.32 221.888 L2178.32 223.971 L2158.74 223.971 Q2159.01 228.369 2161.37 230.684 Q2163.76 232.976 2167.99 232.976 Q2170.45 232.976 2172.74 232.374 Q2175.05 231.772 2177.32 230.569 L2177.32 234.596 Q2175.03 235.568 2172.62 236.078 Q2170.22 236.587 2167.74 236.587 Q2161.54 236.587 2157.9 232.976 Q2154.29 229.365 2154.29 223.207 Q2154.29 216.842 2157.72 213.115 Q2161.17 209.365 2167 209.365 Q2172.23 209.365 2175.26 212.745 Q2178.32 216.101 2178.32 221.888 M2174.06 220.638 Q2174.01 217.143 2172.09 215.059 Q2170.19 212.976 2167.05 212.976 Q2163.48 212.976 2161.33 214.99 Q2159.2 217.004 2158.87 220.661 L2174.06 220.638 Z" fill="#000000" fill-rule="evenodd" fill-opacity="1" /><path clip-path="url(#clip770)" d="M2197.09 222.883 Q2191.93 222.883 2189.94 224.064 Q2187.95 225.244 2187.95 228.092 Q2187.95 230.36 2189.43 231.703 Q2190.93 233.022 2193.5 233.022 Q2197.05 233.022 2199.17 230.522 Q2201.33 227.999 2201.33 223.832 L2201.33 222.883 L2197.09 222.883 M2205.59 221.124 L2205.59 235.916 L2201.33 235.916 L2201.33 231.981 Q2199.87 234.342 2197.69 235.476 Q2195.52 236.587 2192.37 236.587 Q2188.39 236.587 2186.03 234.365 Q2183.69 232.119 2183.69 228.369 Q2183.69 223.994 2186.61 221.772 Q2189.55 219.55 2195.36 219.55 L2201.33 219.55 L2201.33 219.133 Q2201.33 216.194 2199.38 214.596 Q2197.46 212.976 2193.97 212.976 Q2191.74 212.976 2189.64 213.508 Q2187.53 214.041 2185.59 215.106 L2185.59 211.17 Q2187.92 210.268 2190.12 209.828 Q2192.32 209.365 2194.41 209.365 Q2200.03 209.365 2202.81 212.282 Q2205.59 215.198 2205.59 221.124 Z" fill="#000000" fill-rule="evenodd" fill-opacity="1" /><path clip-path="url(#clip770)" d="M2235.91 220.268 L2235.91 235.916 L2231.65 235.916 L2231.65 220.407 Q2231.65 216.726 2230.22 214.897 Q2228.78 213.069 2225.91 213.069 Q2222.46 213.069 2220.47 215.268 Q2218.48 217.467 2218.48 221.263 L2218.48 235.916 L2214.2 235.916 L2214.2 209.99 L2218.48 209.99 L2218.48 214.018 Q2220.01 211.68 2222.07 210.522 Q2224.15 209.365 2226.86 209.365 Q2231.33 209.365 2233.62 212.143 Q2235.91 214.897 2235.91 220.268 Z" fill="#000000" fill-rule="evenodd" fill-opacity="1" /></svg>
